<svg width="20px" height="24px" viewBox="0 0 20 24" version="1.1" xmlns="http://www.w3.org/2000/svg" xmlns:xlink="http://www.w3.org/1999/xlink">
    <g id="SU-Main" stroke="none" stroke-width="1" fill="none" fill-rule="evenodd">
        <g id="Kids-news-feed-home" transform="translate(-1529.000000, -40.000000)" fill="#216EFB" fill-rule="nonzero">
            <g id="bell-(1)" transform="translate(1529.000000, 40.000000)">
                <path d="M19.3638393,16.8998829 C17.8531177,15.6228044 16.9867901,13.7562207 16.9867901,11.7787617 L16.9867901,8.99297424 C16.9867901,5.47680037 14.374817,2.56604946 10.991474,2.07845433 L10.991474,0.999158361 C10.991474,0.446611522 10.5437646,0 9.9921326,0 C9.44068356,0 8.99297424,0.446611522 8.99297424,0.999158361 L8.99297424,2.07845433 C5.6085334,2.56604946 2.99765808,5.47680037 2.99765808,8.99297424 L2.99765808,11.7787617 C2.99765808,13.7562207 2.13133049,15.6228044 0.611460796,16.9077503 C0.222848337,17.2405592 1.33122761e-15,17.7241291 1.33122761e-15,18.2356923 C1.33122761e-15,19.2000878 0.784360375,19.9844482 1.74857288,19.9844482 L18.2356923,19.9844482 C19.2000878,19.9844482 19.9844482,19.2000878 19.9844482,18.2356923 C19.9844482,17.7241291 19.7615998,17.2405592 19.3638393,16.8998829 Z" id="Path"></path>
                <path d="M9.9921326,23.9812646 C11.801815,23.9812646 13.3156469,22.6911958 13.6632758,20.9836066 L6.32098946,20.9836066 C6.66880122,22.6911958 8.18263321,23.9812646 9.9921326,23.9812646 Z" id="Path"></path>
            </g>
        </g>
    </g>
</svg>