<svg width="21px" height="18px" viewBox="0 0 21 18" version="1.1" xmlns="http://www.w3.org/2000/svg" xmlns:xlink="http://www.w3.org/1999/xlink">
    <g id="SU-Main" stroke="none" stroke-width="1" fill="none" fill-rule="evenodd">
        <g id="Kids-news-feed-home" transform="translate(-1165.000000, -992.000000)" fill="#E6CE61" fill-rule="nonzero">
            <g id="book" transform="translate(1165.000000, 992.000000)">
                <path d="M8.04556683,1.12319984 C6.48475106,0.377999945 4.30315137,0.0129599981 1.3823998,-7.37468626e-14 C1.10694305,-0.00374237404 0.836891236,0.0765799557 0.608255911,0.230255966 C0.227168806,0.487841682 -0.000836592553,0.91810471 3.73733921e-14,1.3780798 L3.73733921e-14,13.737598 C3.73733921e-14,14.5730859 0.594431913,15.2033738 1.3823998,15.2033738 C4.45262335,15.2033738 7.5323509,15.4902217 9.37699063,17.2337735 C9.42857257,17.2827528 9.50440746,17.29622 9.5696996,17.2679957 C9.63499173,17.2397714 9.67713736,17.1753041 9.67679859,17.1041735 L9.67679859,2.54102363 C9.67695125,2.34222069 9.59090839,2.15311548 9.44092662,2.02262371 C9.01839267,1.66140036 8.54903572,1.35886129 8.04556683,1.12319984 Z" id="Path"></path>
                <path d="M20.1277411,0.228959967 C19.8989925,0.0756664724 19.6289281,-0.00420748829 19.3535972,-1.03060176e-12 C16.4328456,0.0129599981 14.2512459,0.376271945 12.6904302,1.12319984 C12.1869871,1.35843425 11.7175063,1.66037829 11.2946384,2.02089571 C11.1450038,2.15160632 11.0591643,2.34061051 11.0591984,2.53929563 L11.0591984,17.1033095 C11.059156,17.1716767 11.1001254,17.2333992 11.1631439,17.2599085 C11.2261625,17.2864178 11.2989333,17.2725412 11.3477743,17.2247015 C12.4567182,16.1231017 14.4028779,15.2020778 19.3553252,15.2025098 C20.1188035,15.2025098 20.737725,14.5835883 20.737725,13.82011 L20.737725,1.3785118 C20.7387504,0.91759964 20.5099939,0.486494132 20.1277411,0.228959967 Z" id="Path"></path>
            </g>
        </g>
    </g>
</svg>