<svg width="20px" height="24px" viewBox="0 0 20 24" version="1.1" xmlns="http://www.w3.org/2000/svg" xmlns:xlink="http://www.w3.org/1999/xlink">
    <g id="SU-Main" stroke="none" stroke-width="1" fill="none" fill-rule="evenodd">
        <g id="Kids-news-feed-home" transform="translate(-1041.000000, -1136.000000)" fill="#FFFFFF" fill-rule="nonzero">
            <g id="Group-11" transform="translate(1041.000000, 1136.000000)">
                <g id="book-medical-solid-copy">
                    <path d="M3,0 C1.355469,0 0,1.355469 0,3 L0,21 C0,22.644531 1.355469,24 3,24 L20,24 L20,0 L3,0 Z M3,2 L18,2 L18,18 L3,18 C2.648438,18 2.316406,18.074219 2,18.1875 L2,3 C2,2.433594 2.433594,2 3,2 Z M9,6 L9,9 L6,9 L6,11 L9,11 L9,14 L11,14 L11,11 L14,11 L14,9 L11,9 L11,6 L9,6 Z M3,20 L18,20 L18,22 L3,22 C2.433594,22 2,21.566406 2,21 C2,20.433594 2.433594,20 3,20 Z" id="Shape"></path>
                </g>
            </g>
        </g>
    </g>
</svg>