<svg width="22px" height="26px" viewBox="0 0 22 26" version="1.1" xmlns="http://www.w3.org/2000/svg" xmlns:xlink="http://www.w3.org/1999/xlink">
    <g id="SU-Main" stroke="none" stroke-width="1" fill="none" fill-rule="evenodd">
        <g id="Kids-news-feed-home" transform="translate(-69.000000, -420.000000)" fill="#FC3D3D">
            <g id="Group-7" transform="translate(-1.000000, 99.000000)">
                <g id="icon--copy-7" transform="translate(66.000000, 319.000000)">
                    <path d="M7,2 L23,2 C24.6568542,2 26,3.34314575 26,5 L26,26.7394483 C26,27.291733 25.5522847,27.7394483 25,27.7394483 C24.751234,27.7394483 24.5113992,27.6467265 24.3273272,27.4793884 L15.6726728,19.6115207 C15.2912516,19.2647742 14.7087484,19.2647742 14.3273272,19.6115207 L5.67267279,27.4793884 C5.26401518,27.8508953 4.63156685,27.8207787 4.26005993,27.4121211 C4.09272178,27.2280491 4,26.9882143 4,26.7394483 L4,5 C4,3.34314575 5.34314575,2 7,2 Z" id="Rectangle"></path>
                </g>
            </g>
        </g>
    </g>
</svg>