<svg width="32px" height="31px" viewBox="0 0 32 31" version="1.1" xmlns="http://www.w3.org/2000/svg" xmlns:xlink="http://www.w3.org/1999/xlink">
    <g id="SU-Main" stroke="none" stroke-width="1" fill="none" fill-rule="evenodd">
        <g id="Kids-news-feed-home" transform="translate(-398.000000, -423.000000)" fill="#FFFFFF" fill-rule="nonzero">
            <g id="morning" transform="translate(398.000000, 423.000000)">
                <path d="M28.2916875,14.75 L30.75,14.75 C31.440375,14.75 32,15.309625 32,16 C32,16.690375 31.440375,17.25 30.75,17.25 L28.2916875,17.25 C27.6013125,17.25 27.0416875,16.690375 27.0416875,16 C27.0416875,15.309625 27.6013125,14.75 28.2916875,14.75 Z M1.25,17.25 L3.7083125,17.25 C4.3986875,17.25 4.9583125,16.690375 4.9583125,16 C4.9583125,15.309625 4.3986875,14.75 3.7083125,14.75 L1.25,14.75 C0.559625,14.75 0,15.309625 0,16 C0,16.690375 0.559625,17.25 1.25,17.25 Z M16,4.9583125 C16.690375,4.9583125 17.25,4.3986875 17.25,3.7083125 L17.25,1.25 C17.25,0.559625 16.690375,0 16,0 C15.309625,0 14.75,0.559625 14.75,1.25 L14.75,3.7083125 C14.75,4.3986875 15.309625,4.9583125 16,4.9583125 Z M6.4245625,8.192375 C6.912625,8.6804375 7.7041875,8.6805625 8.192375,8.192375 C8.6805625,7.7041875 8.6805625,6.9126875 8.192375,6.4245625 L6.454125,4.68625 C5.9659375,4.1980625 5.1744375,4.1980625 4.6863125,4.68625 C4.1981875,5.1744375 4.198125,5.9659375 4.6863125,6.4540625 L6.4245625,8.192375 Z M25.5754375,8.192375 L27.31375,6.4540625 C27.8019375,5.965875 27.8019375,5.174375 27.31375,4.68625 C26.8255625,4.198125 26.0340625,4.1980625 25.5459375,4.68625 L23.807625,6.4245625 C23.3194375,6.91275 23.3194375,7.70425 23.807625,8.192375 C24.2956875,8.6804375 25.08725,8.6805625 25.5754375,8.192375 Z M32,23.375 C32,24.065375 31.440375,24.625 30.75,24.625 C29.289625,24.625 1.5518125,24.625 1.25,24.625 C0.559625,24.625 0,24.065375 0,23.375 C0,22.684625 0.559625,22.125 1.25,22.125 L9.918875,22.125 C8.3423125,20.559625 7.3645625,18.3919375 7.3645625,16 C7.3645625,11.238375 11.238375,7.3645625 16,7.3645625 C20.761625,7.3645625 24.6354375,11.238375 24.6354375,16 C24.6354375,18.3919375 23.6576875,20.559625 22.081125,22.125 L30.75,22.125 C31.440375,22.125 32,22.684625 32,23.375 Z M15.6464375,22.125 L16.353625,22.125 C19.5728125,21.9411875 22.1355,19.264375 22.1355,16 C22.1355,12.616875 19.3831875,9.8645625 16.0000625,9.8645625 C12.6169375,9.8645625 9.8645625,12.616875 9.8645625,16 C9.8645625,19.264375 12.42725,21.9411875 15.6464375,22.125 Z M25.8333125,28.25 L6.1666875,28.25 C5.4763125,28.25 4.9166875,28.809625 4.9166875,29.5 C4.9166875,30.190375 5.4763125,30.75 6.1666875,30.75 L25.8333125,30.75 C26.5236875,30.75 27.0833125,30.190375 27.0833125,29.5 C27.0833125,28.809625 26.5236875,28.25 25.8333125,28.25 Z" id="Shape"></path>
            </g>
        </g>
    </g>
</svg>