<svg width="22px" height="22px" viewBox="0 0 22 22" version="1.1" xmlns="http://www.w3.org/2000/svg" xmlns:xlink="http://www.w3.org/1999/xlink">
    <g id="SU-Main" stroke="none" stroke-width="1" fill="none" fill-rule="evenodd">
        <g id="Kids-news-feed-home" transform="translate(-1475.000000, -43.000000)">
            <g id="Group-2" transform="translate(1475.000000, 43.000000)">
                <g id="chat" fill="#D1CFD5" fill-rule="nonzero">
                    <path d="M18.4380955,0.00261904766 L3.352381,0.00261904766 C1.50333336,0.00261904766 0,1.5059524 0,3.35500005 L0,13.4121431 C0,15.2611907 1.50333336,16.7645241 3.352381,16.7645241 L3.352381,20.9550003 C3.352381,21.2797622 3.54095243,21.5783337 3.83952387,21.7145241 C3.94952387,21.7669051 4.07000006,21.7930956 4.19047625,21.7930956 C4.38428578,21.7930956 4.5833334,21.7250003 4.73523817,21.5940479 L10.3661906,16.7645241 L18.4380955,16.7645241 C20.2871432,16.7645241 21.7904765,15.2611907 21.7904765,13.4121431 L21.7904765,3.35500005 C21.7904765,1.5059524 20.2871432,0.00261904766 18.4380955,0.00261904766 Z" id="Path"></path>
                </g>
                <rect id="Rectangle" fill="#FFFFFF" x="5" y="5" width="13" height="2"></rect>
                <rect id="Rectangle-Copy" fill="#FFFFFF" x="5" y="10" width="8" height="2"></rect>
            </g>
        </g>
    </g>
</svg>