<svg width="27px" height="28px" viewBox="0 0 27 28" version="1.1" xmlns="http://www.w3.org/2000/svg" xmlns:xlink="http://www.w3.org/1999/xlink">
    <g id="SU-Main" stroke="none" stroke-width="1" fill="none" fill-rule="evenodd">
        <g id="Kids-news-feed-home" transform="translate(-569.000000, -286.000000)" fill="#FFFFFF" fill-rule="nonzero">
            <g id="location" transform="translate(569.000000, 286.000000)">
                <path d="M18.3121921,18.7852816 L21.3810296,15.2306649 C21.9794334,14.5531264 22.4560647,13.7795385 22.7901897,12.9433463 C23.9041235,10.0025167 23.4826598,6.70912331 21.6628617,4.1340788 C18.6141462,-0.218998524 12.5675405,-1.30838471 8.1574321,1.70090502 C7.19371094,2.35852118 6.35855116,3.18282038 5.69238051,4.1340788 C3.87258235,6.70912331 3.45111871,10.0025167 4.56505243,12.9433463 C4.89972796,13.7792366 5.37629807,14.5527642 5.97421253,15.2306649 L9.04305008,18.7852816 C4.62768177,19.279837 0.431516137,20.6089545 0.431516137,22.9890022 C0.431516137,26.0490636 7.3207433,27.4400005 13.7089358,27.4400005 C20.0971282,27.4400005 26.9863554,26.0490636 26.9863554,22.9890022 C26.9863554,20.6089545 22.7901897,19.279837 18.3121921,18.7852816 Z M13.7089358,4.96864098 C15.8534401,4.96864098 17.5919547,6.68467325 17.5919547,8.80144508 C17.5919547,10.9182169 15.8534401,12.6342492 13.7089358,12.6342492 C11.5644314,12.6342492 9.82591681,10.9182169 9.82591681,8.80144508 C9.82591681,6.68461288 11.5644314,4.96864098 13.7089358,4.96864098 Z M13.7089358,25.5854179 C6.19341521,25.5854179 2.31039627,23.761745 2.31039627,22.9890022 C2.31039627,22.2162595 4.78425511,20.9489613 10.5774689,20.5162254 L12.9886984,23.2980993 C13.3218449,23.6907492 13.9143159,23.7424868 14.3121101,23.4136485 C14.354495,23.3785732 14.3936995,23.3399361 14.4291731,23.2980993 L16.8404026,20.5162254 C22.6336164,20.9489613 25.1074752,22.4635371 25.1074752,22.9890022 C25.1074752,23.5144673 21.2244563,25.5854179 13.7089358,25.5854179 Z" id="Shape"></path>
            </g>
        </g>
    </g>
</svg>