<svg width="26px" height="26px" viewBox="0 0 26 26" version="1.1" xmlns="http://www.w3.org/2000/svg" xmlns:xlink="http://www.w3.org/1999/xlink">
    <g id="SU-Main" stroke="none" stroke-width="1" fill="none" fill-rule="evenodd">
        <g id="Kids-news-feed-home" transform="translate(-67.000000, -769.000000)">
            <g id="Group-7" transform="translate(-1.000000, 99.000000)">
                <g id="icon--copy-12" transform="translate(66.000000, 668.000000)">
                    <circle id="Oval" fill="#FFFFFF" cx="12" cy="11" r="3"></circle>
                    <g id="calendar-(2)" stroke-width="1" transform="translate(2.000000, 2.000000)" fill="#FC6B39">
                        <path d="M22.6240001,3.23200002 L21.5467326,3.23200002 L21.5467326,1.07726757 C21.5467326,0.482709 21.0640236,0 20.4692677,0 L19.3920001,0 C18.7972442,0 18.3147325,0.482709 18.3147325,1.07726757 L18.3147325,3.23200002 L7.54126761,3.23200002 L7.54126761,1.07726757 C7.54126761,0.482709 7.05875591,0 6.46400004,0 L5.38673246,0 C4.79197659,0 4.30926759,0.482709 4.30926759,1.07726757 L4.30926759,3.23200002 L3.23200002,3.23200002 C1.45009963,3.23200002 -1.43529633e-15,4.68209965 -1.43529633e-15,6.46400004 L-1.43529633e-15,22.6240001 C-1.43529633e-15,24.4059005 1.45009963,25.8560001 3.23200002,25.8560001 L22.6240001,25.8560001 C24.4059005,25.8560001 25.8560001,24.4059005 25.8560001,22.6240001 L25.8560001,6.46400004 C25.8560001,4.68209965 24.4059005,3.23200002 22.6240001,3.23200002 Z M23.7012677,22.6240001 C23.7012677,23.2175724 23.2175724,23.7012677 22.6240001,23.7012677 L3.23200002,23.7012677 C2.63842776,23.7012677 2.15473245,23.2175724 2.15473245,22.6240001 L2.15473245,10.8164688 L23.7012677,10.8164688 L23.7012677,22.6240001 Z" id="Shape" fill-rule="nonzero"></path>
                    </g>
                </g>
            </g>
        </g>
    </g>
</svg>