<svg width="47px" height="28px" viewBox="0 0 47 28" version="1.1" xmlns="http://www.w3.org/2000/svg" xmlns:xlink="http://www.w3.org/1999/xlink">
    <g id="SU-Main" stroke="none" stroke-width="1" fill="none" fill-rule="evenodd">
        <g id="SU-login-Kids" transform="translate(-403.000000, -740.000000)" fill="#F7B500" fill-rule="nonzero">
            <g id="Group-9" transform="translate(215.000000, 706.000000)">
                <g id="noun_Family_3428514" transform="translate(188.000000, 34.000000)">
                    <g id="Group">
                        <circle id="Oval" cx="23.4000003" cy="11.7048002" r="4.56590007"></circle>
                        <circle id="Oval" cx="38.7066006" cy="5.18310008" r="5.13660008"></circle>
                        <g transform="translate(0.000000, 0.100000)">
                            <circle id="Oval" cx="9.06250014" cy="5.19720008" r="5.13660008"></circle>
                            <g transform="translate(0.000000, 12.100000)" id="Path">
                                <path d="M23.4000003,5.69280008 C19.1809003,5.69280008 15.7484002,9.12530014 15.7484002,13.3444002 L15.7484002,15.3534002 L31.0516005,15.3534002 L31.0516005,13.3444002 C31.0516005,9.12530014 27.6191004,5.69280008 23.4000003,5.69280008 Z"></path>
                                <path d="M42.9794006,0.108300002 L42.8426006,0.0859000013 L39.8951006,4.03040006 C39.3118006,4.81140007 38.1011006,4.81120007 37.5178006,4.03040006 L34.5814005,0.100600001 L34.4416005,0.126900002 C32.2893005,0.531700008 30.7272005,2.41600004 30.7272005,4.60750007 L30.7272005,5.65810008 L30.7965005,5.72530009 C32.8748005,7.74130012 34.0194005,10.4470002 34.0194005,13.3442002 L34.0194005,15.3534002 L46.8000007,15.3534002 L46.8000007,4.60750007 C46.8000007,2.36260004 45.1933007,0.470400007 42.9794006,0.108300002 Z"></path>
                                <path d="M16.8974003,4.95110007 L17.0535003,4.82990007 L16.9560003,4.65810007 C15.3437002,1.81480003 12.3190002,0.0485000007 9.06260014,0.0485000007 C4.06550006,0.0486000007 0,4.11410006 0,9.11110014 L0,15.3535002 L12.7806002,15.3535002 L12.7806002,13.3443002 C12.7806002,10.0890002 14.3196002,6.9514001 16.8974003,4.95110007 Z"></path>
                            </g>
                        </g>
                    </g>
                </g>
            </g>
        </g>
    </g>
</svg>