<svg width="34px" height="25px" viewBox="0 0 34 25" version="1.1" xmlns="http://www.w3.org/2000/svg" xmlns:xlink="http://www.w3.org/1999/xlink">
    <g id="SU-Main" stroke="none" stroke-width="1" fill="none" fill-rule="evenodd">
        <g id="Kids-news-feed-home" transform="translate(-63.000000, -712.000000)">
            <g id="Group-7" transform="translate(-1.000000, 99.000000)">
                <g id="icon--copy-11" transform="translate(66.000000, 609.000000)">
                    <circle id="Oval" fill="#FFFFFF" cx="12" cy="11" r="3"></circle>
                    <g id="gamepad" stroke-width="1" transform="translate(-2.000000, 4.000000)">
                        <path d="M32.4871777,11.8001392 C32.3294377,11.2162592 32.1789577,10.6466792 32.0322177,10.0924993 C30.6721778,4.95901964 29.6900979,1.25025991 27.0881581,0.479819966 C26.0611981,0.175339987 23.9236783,-0.457379967 21.6182984,0.910579935 C19.8054986,1.98549986 13.733059,1.98549986 11.9204791,0.910579935 C9.61465931,-0.457159967 7.47757946,0.175339987 6.44511954,0.481139965 C3.84845972,1.25003991 2.86637979,4.95879964 1.50633989,10.0922793 C1.3598199,10.6464592 1.20889991,11.2160392 1.05137992,11.7999192 C-0.157519989,16.2751588 -0.151579989,20.5306185 1.06677992,22.6408584 C1.49929989,23.3899583 2.06711985,23.8622983 2.7541798,24.0446783 C2.89563979,24.0822983 3.03731978,24.1003383 3.17877977,24.1003383 C4.81469965,24.1003383 6.46909954,21.7045384 8.07223942,19.3817786 C8.75753937,18.3897987 9.46549932,17.3639388 9.84851929,17.0669388 C10.1147193,16.8607988 11.1295792,16.3820788 14.8196389,16.4364188 L19.4112586,16.4331188 C22.5528584,16.4474188 23.4493583,16.8810388 23.6889383,17.0669388 C24.0719583,17.3639388 24.7801382,18.3897987 25.4652182,19.3817786 C27.208938,21.9064984 29.0133779,24.5192182 30.7843778,24.0451183 C31.4714377,23.8627383 32.0392577,23.3903983 32.4717777,22.6412984 C33.6903576,20.5308385 33.6962976,16.2753788 32.4871777,11.8001392 Z" id="Shape" fill="#EF5877" fill-rule="nonzero"></path>
                        <rect id="Rectangle" fill="#FFFFFF" fill-rule="nonzero" x="8.50959939" y="5.32377962" width="1.50193989" height="6.00753957"></rect>
                        <rect id="Rectangle" fill="#FFFFFF" fill-rule="nonzero" x="6.25679955" y="7.57657946" width="6.00753957" height="1.50193989"></rect>
                        <path d="M23.9036583,5.32553962 C22.0404784,5.32553962 20.5244585,6.84133951 20.5244585,8.70473938 C20.5244585,10.5681392 22.0406984,12.0839391 23.9036583,12.0839391 C25.7666182,12.0839391 27.282858,10.5681392 27.282858,8.70473938 C27.282858,6.84133951 25.7668382,5.32553962 23.9036583,5.32553962 Z M23.9036583,10.5822192 C22.8685584,10.5822192 22.0263984,9.7400593 22.0263984,8.70495938 C22.0263984,7.66985945 22.8685584,6.82769951 23.9036583,6.82769951 C24.9387582,6.82769951 25.7809181,7.66985945 25.7809181,8.70495938 C25.7811381,9.7400593 24.9389782,10.5822192 23.9036583,10.5822192 Z" id="Shape" fill="#FFFFFF" fill-rule="nonzero"></path>
                    </g>
                </g>
            </g>
        </g>
    </g>
</svg>