<svg width="23px" height="20px" viewBox="0 0 23 20" version="1.1" xmlns="http://www.w3.org/2000/svg" xmlns:xlink="http://www.w3.org/1999/xlink">
    <g id="SU-Main" stroke="none" stroke-width="1" fill="none" fill-rule="evenodd">
        <g id="Kids-news-feed-home" transform="translate(-378.000000, -2461.000000)">
            <g id="icon--copy-13" transform="translate(374.000000, 2456.000000)">
                <circle id="Oval" fill="#FFFFFF" cx="12" cy="11" r="3"></circle>
                <g id="like" stroke-width="1" transform="translate(4.000000, 5.000000)" fill="#D1CFD5">
                    <path d="M0,6.91200012 L0,17.9712003 C0,18.7346252 0.618890814,19.3536003 1.38240002,19.3536003 L5.5296001,19.3536003 L5.5296001,5.5296001 L1.38240002,5.5296001 C0.618890814,5.5296001 0,6.14849091 0,6.91200012 Z" id="Path" fill-rule="nonzero"></path>
                    <path d="M19.5655499,6.91170982 L15.481802,6.91170982 C15.1247267,6.91170982 14.9458524,6.6734352 14.8857775,6.57083485 C14.8257025,6.46890981 14.704202,6.19688459 14.8770024,5.8850345 L16.316772,3.29235707 C16.6326726,2.72468142 16.6650719,2.05710662 16.406547,1.46107794 C16.1480216,0.864378793 15.6377225,0.431702792 15.0065905,0.274428523 L13.9913905,0.0206281732 C13.7443404,-0.0414718625 13.4824406,0.0375032685 13.3103152,0.228528695 L7.79827157,6.35213226 C7.22654686,6.98865697 6.91199694,7.80945836 6.91199694,8.66400276 L6.91199694,15.8973003 C6.91199694,17.8028281 8.46246916,19.3533004 10.367997,19.3533004 L17.2442206,19.3526253 C18.796725,19.3526253 20.1676511,18.3070498 20.5773668,16.8105714 L22.0529129,10.0389678 C22.0961129,9.85064347 22.1183879,9.65759269 22.1183879,9.46454329 C22.1183879,8.0571633 20.9729133,6.91169281 19.5655375,6.91169281 L19.5655499,6.91170982 Z" id="Path" fill-rule="nonzero"></path>
                </g>
            </g>
        </g>
    </g>
</svg>