<svg width="18px" height="15px" viewBox="0 0 18 15" version="1.1" xmlns="http://www.w3.org/2000/svg" xmlns:xlink="http://www.w3.org/1999/xlink">
    <g id="SU-Main" stroke="none" stroke-width="1" fill="none" fill-rule="evenodd">
        <g id="Kids-news-feed-home" transform="translate(-376.000000, -2398.000000)" fill="#216EFB" fill-rule="nonzero">
            <g id="icon--copy-17" transform="translate(376.000000, 2398.000000)">
                <g id="like" transform="translate(0.933333, 0.666667)">
                    <path d="M0,5.06880009 L0,13.1788802 C0,13.7387251 0.453853264,14.1926402 1.01376002,14.1926402 L4.05504007,14.1926402 L4.05504007,4.05504007 L1.01376002,4.05504007 C0.453853264,4.05504007 0,4.50889333 0,5.06880009 Z" id="Path"></path>
                    <path d="M14.3480699,5.0685872 L11.3533215,5.0685872 C11.0914662,5.0685872 10.9602918,4.89385248 10.9162368,4.81861223 C10.8721818,4.74386719 10.7830815,4.54438203 10.9098018,4.31569196 L11.9656328,2.41439519 C12.1972932,1.99809971 12.2210527,1.50854486 12.0314678,1.07145716 C11.8418825,0.633877781 11.4676632,0.316582047 11.004833,0.201247584 L10.260353,0.015127327 C10.079183,-0.0304126992 9.88712309,0.0275023969 9.7608978,0.16758771 L5.71873248,4.65823032 C5.2994677,5.12501511 5.06879776,5.72693613 5.06879776,6.35360203 L5.06879776,11.6580202 C5.06879776,13.0554073 6.20581072,14.1924203 7.6031978,14.1924203 L12.6457618,14.1919252 C13.784265,14.1919252 14.7896108,13.4251699 15.090069,12.3277524 L16.1721361,7.36190974 C16.2038161,7.22380521 16.2201512,7.08223464 16.2201512,6.94066508 C16.2201512,5.90858642 15.3801364,5.06857473 14.3480608,5.06857473 L14.3480699,5.0685872 Z" id="Path"></path>
                </g>
            </g>
        </g>
    </g>
</svg>