<svg width="30px" height="24px" viewBox="0 0 30 24" version="1.1" xmlns="http://www.w3.org/2000/svg" xmlns:xlink="http://www.w3.org/1999/xlink">
    <g id="SU-Main" stroke="none" stroke-width="1" fill="none" fill-rule="evenodd">
        <g id="Kids-news-feed-home" transform="translate(-64.000000, -598.000000)" fill="#E9CD5C">
            <g id="Group-7" transform="translate(-1.000000, 99.000000)">
                <g id="icon--copy-10" transform="translate(65.000000, 496.000000)">
                    <path d="M-1.33670852e-13,23 L-1.33670852e-13,6 C-1.33873815e-13,4.34314575 1.34314575,3 3,3 L27,3 C28.6568542,3 30,4.34314575 30,6 L30,17.0294373 L26.5355339,13.5649712 C25.363961,12.3933983 23.4644661,12.3933983 22.2928932,13.5649712 L10.9142136,24.9436508 L6.60660172,20.636039 C5.43502884,19.4644661 3.53553391,19.4644661 2.36396103,20.636039 L-1.33226763e-13,23 Z M1.00345058,26.2391901 L4.48528137,22.7573593 L8.72752416,27 L3,27 C2.2333095,27 1.53379248,26.7123961 1.00345058,26.2391901 Z M30,21.2722271 L30,24 C30,25.6568542 28.6568542,27 27,27 L13.1005051,27 L24.4142136,15.6862915 L30,21.2722271 Z M12,14 C13.6568542,14 15,12.6568542 15,11 C15,9.34314575 13.6568542,8 12,8 C10.3431458,8 9,9.34314575 9,11 C9,12.6568542 10.3431458,14 12,14 Z" id="Combined-Shape"></path>
                </g>
            </g>
        </g>
    </g>
</svg>