<svg width="23px" height="29px" viewBox="0 0 23 29" version="1.1" xmlns="http://www.w3.org/2000/svg" xmlns:xlink="http://www.w3.org/1999/xlink">
    <g id="SU-Main" stroke="none" stroke-width="1" fill="none" fill-rule="evenodd">
        <g id="Kids-news-feed-home" transform="translate(-68.000000, -536.000000)" fill="#64C3E6">
            <g id="Group-7" transform="translate(-1.000000, 99.000000)">
                <g id="icon--copy-9" transform="translate(66.000000, 437.000000)">
                    <path d="M18.1363636,29 L18.1363636,21.1363636 C18.1363636,17.672032 15.327968,14.8636364 11.8636364,14.8636364 L3,14.8636364 L3,3 C3,1.34314575 4.34314575,-5.83819232e-16 6,-8.8817842e-16 L23,0 C24.6568542,-3.04359188e-16 26,1.34314575 26,3 L26,26 C26,27.6568542 24.6568542,29 23,29 L18.1363636,29 Z M15,29 L14.5,29 L3.92902327,18.5275106 C3.76640333,18.3664058 3.62323963,18.1893515 3.501055,18 L11.8636364,18 C13.5958022,18 15,19.4041978 15,21.1363636 L15,29 Z" id="Combined-Shape"></path>
                </g>
            </g>
        </g>
    </g>
</svg>