<svg width="28px" height="22px" viewBox="0 0 28 22" version="1.1" xmlns="http://www.w3.org/2000/svg" xmlns:xlink="http://www.w3.org/1999/xlink">
    <g id="SU-Main" stroke="none" stroke-width="1" fill="none" fill-rule="evenodd">
        <g id="Kids-news-feed-home" transform="translate(-1416.000000, -42.000000)" fill="#D1CFD5">
            <g id="icon-" transform="translate(1416.000000, 42.000000)">
                <g id="friends">
                    <path d="M8.49444531,0.007765625 C5.67634375,0.007765625 3.38367969,2.438625 3.38367969,5.42653125 C3.38367969,8.4144375 5.67634375,10.8452969 8.49444531,10.8452969 C11.3125469,10.8452969 13.6052656,8.4144375 13.6052656,5.42653125 C13.6052656,2.438625 11.3126016,0.007765625 8.49444531,0.007765625 Z" id="Path" fill-rule="nonzero"></path>
                    <path d="M20.1139531,0.783179687 C20.1024141,0.783179687 20.0907109,0.783234375 20.0791719,0.783289062 C18.8965,0.793078125 17.7918125,1.29242969 16.9686563,2.18946875 C16.1599375,3.07064844 15.7201953,4.23314062 15.7303125,5.46273437 C15.7404844,6.69232812 16.1993672,7.84738281 17.0224688,8.71516406 C17.8520781,9.58967188 18.9510234,10.0699375 20.1205703,10.0699375 C20.1323281,10.0699375 20.1440859,10.0698828 20.1558984,10.0698281 C21.3385703,10.0600391 22.4432578,9.56063281 23.2664141,8.66364844 C24.0751328,7.78246875 24.514875,6.61997656 24.5047578,5.39032812 C24.4837031,2.84221875 22.5174141,0.783179687 20.1139531,0.783179687 Z" id="Path" fill-rule="nonzero"></path>
                    <path d="M20.3295312,10.9570781 L19.9051562,10.9570781 C17.92875,10.9570781 16.1251562,11.7084844 14.7634375,12.9400469 C15.1041406,13.2014531 15.4284375,13.486375 15.7357812,13.7937188 C16.6425,14.7004375 17.3545313,15.757 17.8521875,16.933875 C18.300625,17.9937188 18.5565625,19.1104375 18.6161719,20.2605156 L28,20.2605156 L28,18.627 C28,14.3980156 24.5590625,10.9570781 20.3295312,10.9570781 Z" id="Path" fill-rule="nonzero"></path>
                    <path d="M16.9722656,20.2605156 C16.8175,17.7673125 15.5536719,15.5743437 13.6675,14.168875 C12.2953906,13.1462188 10.5935156,12.5408281 8.75,12.5408281 L8.23921875,12.5408281 C3.68867188,12.5408828 0,16.2295 0,20.7800469 L0,21.7578594 L16.9886719,21.7578594 L16.9886719,20.7800469 C16.9886719,20.6055937 16.9832031,20.4322344 16.9722656,20.2605156 Z" id="Path" fill-rule="nonzero"></path>
                </g>
            </g>
        </g>
    </g>
</svg>