<svg width="40px" height="27px" viewBox="0 0 40 27" version="1.1" xmlns="http://www.w3.org/2000/svg" xmlns:xlink="http://www.w3.org/1999/xlink">
    <g id="SU-Main" stroke="none" stroke-width="1" fill="none" fill-rule="evenodd">
        <g id="Kids-news-feed-home" transform="translate(-60.000000, -480.000000)">
            <g id="Group-7" transform="translate(-1.000000, 99.000000)">
                <g id="icon--copy-8" transform="translate(66.000000, 378.000000)">
                    <g id="discussion" transform="translate(-5.000000, 3.000000)">
                        <circle id="Oval" fill="#B7E487" fill-rule="nonzero" cx="7.50933372" cy="7.36000114" r="3.75466686"></circle>
                        <path d="M12.521814,13.7429348 C10.6257072,15.1697082 9.38666715,17.460055 9.38666715,20.0320018 L9.38666715,20.5013351 L1.40800007,20.5013351 C0.638293366,20.5013351 0,19.8630418 0,19.0933351 L0,18.1546684 C0,15.3011215 2.30912012,12.9920014 5.16266693,12.9920014 L9.85600051,12.9920014 C10.8322139,12.9920014 11.7521073,13.2736014 12.521814,13.7429348 Z" id="Path" fill="#B7E487" fill-rule="nonzero"></path>
                        <circle id="Oval" fill="#B7E487" fill-rule="nonzero" cx="31.5466686" cy="7.36000114" r="3.75466686"></circle>
                        <path d="M39.0560023,18.1546684 L39.0560023,19.0933351 C39.0560023,19.8630418 38.417709,20.5013351 37.6480022,20.5013351 L29.6693352,20.5013351 L29.6693352,20.0320018 C29.6693352,17.460055 28.4302951,15.1697082 26.5341883,13.7429348 C27.303895,13.2736014 28.2237884,12.9920014 29.2000018,12.9920014 L33.8933354,12.9920014 C36.7468822,12.9920014 39.0560023,15.3011215 39.0560023,18.1546684 Z" id="Path" fill="#B7E487" fill-rule="nonzero"></path>
                        <path d="M24.6906681,12.8693349 L14.3653342,12.8693349 C10.4128499,12.8693349 7.20266729,16.0795175 7.20266729,20.0320018 L7.20266729,22.8480019 C7.20266729,24.7297875 8.72888183,26.256002 10.6106674,26.256002 L28.445335,26.256002 C30.3271205,26.256002 31.853335,24.7297875 31.853335,22.8480019 L31.853335,20.0320018 C31.853335,16.0795175 28.6431524,12.8693349 24.6906681,12.8693349 Z M24.6906681,14.8693349 C27.4655594,14.8693349 29.7342793,17.0669036 29.8487995,19.8140131 L29.853335,20.0320018 L29.853335,22.8480019 C29.853335,23.5794994 29.2945782,24.1812854 28.5808721,24.2495527 L28.445335,24.256002 L10.6106674,24.256002 C9.87916992,24.256002 9.27738387,23.6972452 9.20911664,22.9835391 L9.20266729,22.8480019 L9.20266729,20.0320018 C9.20266729,17.2571104 11.400236,14.9883906 14.1473455,14.8738704 L14.3653342,14.8693349 L24.6906681,14.8693349 Z" id="Path" fill="#FFFFFF" fill-rule="nonzero"></path>
                        <circle id="Oval" fill="#87BC4D" fill-rule="nonzero" cx="19.5280012" cy="6.42133442" r="5.63200029"></circle>
                        <path d="M24.6906681,14.8693349 L14.3653342,14.8693349 C11.5174194,14.8693349 9.20266729,17.184087 9.20266729,20.0320018 L9.20266729,22.8480019 C9.20266729,23.625218 9.83345133,24.256002 10.6106674,24.256002 L28.445335,24.256002 C29.222551,24.256002 29.853335,23.625218 29.853335,22.8480019 L29.853335,20.0320018 C29.853335,17.184087 27.5385829,14.8693349 24.6906681,14.8693349 Z" id="Path" fill="#87BC4D" fill-rule="nonzero"></path>
                    </g>
                </g>
            </g>
        </g>
    </g>
</svg>