<svg width="30px" height="24px" viewBox="0 0 30 24" version="1.1" xmlns="http://www.w3.org/2000/svg" xmlns:xlink="http://www.w3.org/1999/xlink">
    <g id="SU-Main" stroke="none" stroke-width="1" fill="none" fill-rule="evenodd">
        <g id="Kids-news-feed-home" transform="translate(-386.000000, -288.000000)" fill="#FFFFFF">
            <g id="icon--copy-8" transform="translate(386.000000, 288.000000)">
                <path d="M-5.68438525e-14,20 L-5.68438525e-14,3 C-5.70468152e-14,1.34314575 1.34314575,-2.07529391e-13 3,-2.0783375e-13 L27,-2.0783375e-13 C28.6568542,-2.08138109e-13 30,1.34314575 30,3 L30,14.0294373 L26.5355339,10.5649712 C25.363961,9.39339828 23.4644661,9.39339828 22.2928932,10.5649712 L10.9142136,21.9436508 L6.60660172,17.636039 C5.43502884,16.4644661 3.53553391,16.4644661 2.36396103,17.636039 L-5.68438525e-14,20 Z M1.00345058,23.2391901 L4.48528137,19.7573593 L8.72752416,24 L3,24 C2.2333095,24 1.53379248,23.7123961 1.00345058,23.2391901 Z M30,18.2722271 L30,21 C30,22.6568542 28.6568542,24 27,24 L13.1005051,24 L24.4142136,12.6862915 L30,18.2722271 Z M12,11 C13.6568542,11 15,9.65685425 15,8 C15,6.34314575 13.6568542,5 12,5 C10.3431458,5 9,6.34314575 9,8 C9,9.65685425 10.3431458,11 12,11 Z" id="Combined-Shape"></path>
            </g>
        </g>
    </g>
</svg>