<svg width="21px" height="21px" viewBox="0 0 21 21" version="1.1" xmlns="http://www.w3.org/2000/svg" xmlns:xlink="http://www.w3.org/1999/xlink">
    <g id="SU-Main" stroke="none" stroke-width="1" fill="none" fill-rule="evenodd">
        <g id="SU-login-Kids" transform="translate(-476.000000, -744.000000)" fill="#FFFFFF">
            <g id="Group-9" transform="translate(215.000000, 706.000000)">
                <g id="Group-2" transform="translate(261.000000, 38.000000)">
                    <g id="Group-7">
                        <path d="M10.5,0 L10.5,0 C11.3284271,-1.52179594e-16 12,0.671572875 12,1.5 L12,19.5 C12,20.3284271 11.3284271,21 10.5,21 L10.5,21 C9.67157288,21 9,20.3284271 9,19.5 L9,1.5 C9,0.671572875 9.67157288,1.52179594e-16 10.5,0 Z" id="Rectangle"></path>
                        <path d="M10.5,0 L10.5,0 C11.3284271,-1.52179594e-16 12,0.671572875 12,1.5 L12,19.5 C12,20.3284271 11.3284271,21 10.5,21 L10.5,21 C9.67157288,21 9,20.3284271 9,19.5 L9,1.5 C9,0.671572875 9.67157288,1.52179594e-16 10.5,0 Z" id="Rectangle" transform="translate(10.500000, 10.500000) rotate(-270.000000) translate(-10.500000, -10.500000) "></path>
                    </g>
                </g>
            </g>
        </g>
    </g>
</svg>