<svg width="22px" height="24px" viewBox="0 0 22 24" version="1.1" xmlns="http://www.w3.org/2000/svg" xmlns:xlink="http://www.w3.org/1999/xlink">
    <g id="SU-Main" stroke="none" stroke-width="1" fill="none" fill-rule="evenodd">
        <g id="Kids-news-feed-home" transform="translate(-645.000000, -2460.000000)">
            <g id="Group-9-Copy" transform="translate(642.000000, 2455.000000)">
                <g id="icon--copy-15">
                    <circle id="Oval" fill="#FFFFFF" cx="12" cy="11" r="3"></circle>
                    <g id="share-(1)" stroke-width="1" transform="translate(3.000000, 5.000000)" fill="#D1CFD5">
                        <path d="M21.2197972,3.99426528 C21.2197972,5.78670213 19.7669049,7.23977727 17.9744681,7.23977727 C16.1820312,7.23977727 14.729139,5.78670213 14.729139,3.99426528 C14.729139,2.20201131 16.1820312,0.74893617 17.9744681,0.74893617 C19.7669049,0.74893617 21.2197972,2.20201131 21.2197972,3.99426528 Z" id="Path" fill-rule="nonzero"></path>
                        <path d="M17.9744681,7.98871344 C15.7715426,7.98871344 13.9802028,6.19719081 13.9802028,3.99426528 C13.9802028,1.79152263 15.7715426,0 17.9744681,0 C20.1773936,0 21.9687334,1.79152263 21.9687334,3.99426528 C21.9687334,6.19719081 20.1773936,7.98871344 17.9744681,7.98871344 Z M17.9744681,1.49787234 C16.5974568,1.49787234 15.4780751,2.61835106 15.4780751,3.99426528 C15.4780751,5.37036238 16.5974568,6.4908411 17.9744681,6.4908411 C19.3514794,6.4908411 20.470861,5.37036238 20.470861,3.99426528 C20.470861,2.61835106 19.3514794,1.49787234 17.9744681,1.49787234 Z" id="Shape" fill-rule="nonzero"></path>
                        <path d="M21.2197972,19.9716922 C21.2197972,21.7639461 19.7669049,23.2170213 17.9744681,23.2170213 C16.1820312,23.2170213 14.729139,21.7639461 14.729139,19.9716922 C14.729139,18.1792553 16.1820312,16.7261802 17.9744681,16.7261802 C19.7669049,16.7261802 21.2197972,18.1792553 21.2197972,19.9716922 Z" id="Path" fill-rule="nonzero"></path>
                        <path d="M17.9744681,23.9659574 C15.7715426,23.9659574 13.9802028,22.1744348 13.9802028,19.9716922 C13.9802028,17.7687666 15.7715426,15.977244 17.9744681,15.977244 C20.1773936,15.977244 21.9687334,17.7687666 21.9687334,19.9716922 C21.9687334,22.1744348 20.1773936,23.9659574 17.9744681,23.9659574 Z M17.9744681,17.4751163 C16.5974568,17.4751163 15.4780751,18.5955951 15.4780751,19.9716922 C15.4780751,21.3476064 16.5974568,22.4680851 17.9744681,22.4680851 C19.3514794,22.4680851 20.470861,21.3476064 20.470861,19.9716922 C20.470861,18.5955951 19.3514794,17.4751163 17.9744681,17.4751163 Z" id="Shape" fill-rule="nonzero"></path>
                        <path d="M7.23977727,11.9829787 C7.23977727,13.7754156 5.78670213,15.2283078 3.99426528,15.2283078 C2.20201131,15.2283078 0.74893617,13.7754156 0.74893617,11.9829787 C0.74893617,10.1905419 2.20201131,8.73764961 3.99426528,8.73764961 C5.78670213,8.73764961 7.23977727,10.1905419 7.23977727,11.9829787 Z" id="Path" fill-rule="nonzero"></path>
                        <path d="M3.99426528,15.977244 C1.79152263,15.977244 0,14.1859043 0,11.9829787 C0,9.78005319 1.79152263,7.98871344 3.99426528,7.98871344 C6.19719081,7.98871344 7.98871344,9.78005319 7.98871344,11.9829787 C7.98871344,14.1859043 6.19719081,15.977244 3.99426528,15.977244 Z M3.99426528,9.48658578 C2.61725397,9.48658578 1.49787234,10.6068816 1.49787234,11.9829787 C1.49787234,13.3590758 2.61725397,14.4793717 3.99426528,14.4793717 C5.37145943,14.4793717 6.4908411,13.3590758 6.4908411,11.9829787 C6.4908411,10.6068816 5.37145943,9.48658578 3.99426528,9.48658578 Z" id="Shape" fill-rule="nonzero"></path>
                        <path d="M6.35206117,11.50374 C6.00447142,11.50374 5.66693815,11.3229056 5.48317819,10.9994515 C5.21055517,10.521127 5.37840759,9.91097074 5.85673206,9.63725068 L15.1224401,4.35483709 C15.6007646,4.0802028 16.2109209,4.24805517 16.484641,4.72820812 C16.757264,5.20653259 16.5894116,5.81668883 16.1110871,6.0904089 L6.84519613,11.3728225 C6.68941156,11.4616855 6.51973071,11.50374 6.35206117,11.50374 Z" id="Path" fill-rule="nonzero"></path>
                        <path d="M15.616855,19.7420379 C15.4490027,19.7420379 15.2793218,19.6999834 15.1235372,19.6111204 L5.85764628,14.3287068 C5.37932181,14.0560838 5.21165227,13.4459275 5.48427524,12.966506 C5.75580121,12.4872673 6.36687166,12.3185007 6.84629323,12.593135 L16.1121842,17.8755485 C16.5905087,18.1481716 16.7581782,18.7583278 16.4855552,19.2377493 C16.300881,19.5612035 15.9633477,19.7420379 15.616855,19.7420379 Z" id="Path" fill-rule="nonzero"></path>
                    </g>
                </g>
            </g>
        </g>
    </g>
</svg>