<svg width="213px" height="316px" viewBox="0 0 213 316" version="1.1" xmlns="http://www.w3.org/2000/svg" xmlns:xlink="http://www.w3.org/1999/xlink">
    <defs>
        <polygon id="path-1" points="0.188611082 0.0263267419 5.23096564 0.0263267419 5.23096564 6.47495264 0.188611082 6.47495264"></polygon>
        <polygon id="path-3" points="0 0.171172238 113.087136 0.171172238 113.087136 94.1225249 0 94.1225249"></polygon>
        <polygon id="path-5" points="0.188183521 0.337276803 102.386591 0.337276803 102.386591 77.6695909 0.188183521 77.6695909"></polygon>
    </defs>
    <g id="SU-Main" stroke="none" stroke-width="1" fill="none" fill-rule="evenodd">
        <g id="SU-login-Kids" transform="translate(-997.000000, -584.000000)">
            <g id="Group-176" transform="translate(997.000000, 584.000000)">
                <path d="M96.1198316,135.862646 C96.1198316,135.862646 105.584397,132.532214 117.07086,137.988266 C129.216705,143.757252 145.005564,152.259379 145.005564,152.259379 C145.005564,152.259379 147.738706,164.101464 137.415072,167.441421 C127.091085,170.781379 111.909043,157.117788 105.836296,153.473717 C99.76355,149.829998 92.1723523,136.773576 96.1198316,135.862646" id="Fill-3" fill="#00B2D0"></path>
                <path d="M33.8733867,146.287639 C33.8733867,146.287639 87.7191343,145.477963 91.9700215,135.761498 C96.2209088,126.045033 110.492022,112.381442 86.5044439,115.721047 C62.5168661,119.061357 27.8006402,121.996301 33.8733867,146.287639" id="Fill-15" fill="#5F8E9C"></path>
                <path d="M73.9540777,236.649034 C73.9540777,236.649034 89.743289,279.908665 89.1361202,285.169971 C88.5289514,290.431277 72.1322185,320.2457 70.3103593,327.845365 C68.4885001,335.44503 95.2088667,337.783741 95.2088667,337.783741 C95.2088667,337.783741 112.212768,295.108347 111.6056,283.416555 C111.240452,276.385956 101.281613,234.310323 100.067276,230.218195 C98.8525851,226.126421 72.7393873,228.464779 73.9540777,236.649034" id="Fill-17" fill="#231F20"></path>
                <path d="M89.1360144,285.170077 C88.7482872,288.527674 81.9328967,301.880449 76.5766871,313.081143 C78.2842391,310.416445 79.9794431,307.744338 81.6407783,305.052827 C84.0260591,301.188608 86.3563032,297.288404 88.5447216,293.308467 C89.5946544,291.399819 90.6227136,289.478823 91.6052616,287.534542 C92.096712,286.561873 92.583576,285.587086 93.0556224,284.604538 C93.0415104,284.633821 93.777804,283.005649 93.4429968,283.854486 C93.6444456,283.343984 93.8423664,282.832424 94.0205304,282.313102 C95.3728128,278.372679 96.4213344,273.358686 99.8484337,270.606493 C102.591101,268.404668 105.529925,267.484918 108.7524,267.554773 C105.603307,252.684605 100.879668,232.955676 100.06717,230.218301 C98.8524793,226.126527 72.7392815,228.464885 73.9539719,236.64914 C73.9539719,236.64914 89.7431832,279.90877 89.1360144,285.170077" id="Fill-19" fill="#231F20"></path>
                <path d="M109.17636,227.258521 C109.419792,234.279594 125.57274,281.306423 130.431149,300.132537 C135.289205,318.957945 148.042572,345.678311 148.042572,345.678311 C148.042572,345.678311 173.547896,340.820255 172.940727,338.998396 C172.333558,337.176537 137.718586,250.942691 134.074867,227.258521 C131.266579,209.00359 108.953743,220.838266 109.17636,227.258521" id="Fill-21" fill="#231F20"></path>
                <path d="M129.61791,284.048279 C130.018338,279.640043 130.716882,274.7333 133.365351,271.031723 C135.486032,268.06785 138.069234,265.893543 140.911038,263.663142 C141.915459,262.874281 142.925878,262.076247 143.862562,261.202714 C138.996392,246.92631 135.160398,234.315473 134.074832,227.258415 C131.266544,209.003484 108.953708,220.838161 109.176325,227.258415 C109.407409,233.919985 123.958292,276.590087 129.5978,297.022852 C129.380122,292.716575 129.228066,288.343971 129.61791,284.048279" id="Fill-23" fill="#231F20"></path>
                <path d="M96.0971112,227.859727 C94.1796432,227.355223 50.2909701,167.834688 49.6633389,157.933708 C49.0357077,148.032729 64.7229598,134.419235 75.3902207,131.324827 C86.0574816,128.230771 102.372012,133.800071 106.764372,137.513291 C111.156732,141.225806 140.648343,193.824758 143.785793,206.200982 C146.923244,218.577206 105.509463,230.334972 96.0971112,227.859727" id="Fill-25" fill="#73CDE1"></path>
                <path d="M143.785723,206.201088 C141.233215,196.131471 121.236158,159.439212 111.504522,144.110404 C109.648089,144.472024 107.839989,144.97547 106.060466,145.636265 C103.731633,146.742645 101.488178,148.102689 99.3886647,149.610204 C98.8054863,150.104829 98.2487679,150.623445 97.7082783,151.158996 C96.4184415,152.926524 95.1892863,154.740974 94.0652655,156.615401 C94.0194015,156.691253 93.9756543,156.768163 93.9301431,156.844368 C93.3324999,157.977914 92.7666087,159.130512 92.2398782,160.304983 C91.5265166,162.116964 90.871367,163.950818 90.1177862,165.748334 C88.7348102,169.04772 87.3454838,171.794621 85.0635734,174.575743 C81.924359,178.402565 77.1548557,180.640375 73.1985565,183.495586 C72.4079317,184.066416 71.5393381,184.443559 70.6354645,184.654886 C69.2888269,185.75527 67.9256077,186.835896 66.5429844,187.893238 C79.3591501,206.899279 94.9709031,227.563481 96.0970407,227.859833 C105.509392,230.334725 146.923526,218.577312 143.785723,206.201088" id="Fill-27" fill="#00B2D0"></path>
                <path d="M88.7311764,186.368154 C88.3656756,185.749343 85.2370452,184.465151 84.8849507,183.837872 C83.7443483,182.41503 82.4756795,182.244275 81.1399787,181.00383 C80.4103883,180.326101 77.0093963,176.214923 75.8744387,173.438034 C74.6713907,170.627629 73.4634035,167.826397 72.5133131,164.91368 C71.9551834,163.202953 71.4400954,161.479878 70.9532314,159.748335 C65.8034098,162.067642 60.7989418,164.636379 56.2157169,167.98057 C55.7066265,168.391582 55.2035337,168.80965 54.7071441,169.234774 C60.5872618,179.468444 70.606429,194.096238 79.3223531,206.180344 C84.8556683,205.096542 90.3431196,203.698396 95.8535028,202.507696 C90.820458,197.738898 92.2468284,192.319184 88.7311764,186.368154" id="Fill-29" fill="#00B2D0"></path>
                <path d="M69.8284697,140.636806 C72.149541,141.483526 74.6269026,142.280854 77.1067338,142.46431 C81.8169666,142.812524 86.0703235,141.094035 89.3030299,137.65741 C90.9244987,135.933277 92.2965379,133.978059 93.4508995,131.87149 C87.4846987,130.398197 80.7299898,129.776211 75.3903618,131.32465 C71.8510722,132.351298 67.7600033,134.536541 63.8950793,137.358941 C65.1641009,139.04215 68.0443601,139.98589 69.8284697,140.636806" id="Fill-31" fill="#DD7641"></path>
                <path d="M148.380413,156.993073 C149.615566,156.252193 182.538157,125.567766 183.904551,119.191964 C185.270946,112.815457 179.805721,107.350232 175.251426,106.89512 C170.69713,106.439655 145.192513,146.062623 138.360893,149.250524 C131.529274,152.438778 141.549147,161.091903 148.380413,156.993073" id="Fill-33" fill="#73CDE1"></path>
                <path d="M69.7277101,133.590438 C69.0390445,133.030191 72.1853149,116.775637 72.1853149,116.775637 L84.6765518,118.19989 L81.1591358,135.006577 C81.1591358,135.006577 75.3538117,138.179307 69.7277101,133.590438" id="Fill-35" fill="#DD7641"></path>
                <path d="M171.603862,68.7432922 C171.349493,69.094681 168.521448,67.0689034 168.866134,64.9736242 C169.210819,62.8705834 171.727695,61.7991298 173.439833,62.6687818 C175.155499,63.5391394 172.115775,68.0246386 171.603862,68.7432922" id="Fill-37" fill="#606B72"></path>
                <path d="M176.773229,60.7362139 C176.515685,61.0918363 173.694696,59.0653531 174.035853,56.9668987 C174.375247,54.8680915 176.898473,53.7955795 178.608494,54.6634675 C180.323102,55.5355891 177.286553,60.0235579 176.773229,60.7362139" id="Fill-39" fill="#606B72"></path>
                <path d="M179.517766,50.2137069 C179.242229,50.5534533 176.521788,48.3914949 176.986778,46.3230284 C177.448946,44.2609124 180.045554,43.3270508 181.718532,44.2820804 C183.384806,45.2342876 180.080129,49.5310389 179.517766,50.2137069" id="Fill-41" fill="#606B72"></path>
                <g id="Group-45" transform="translate(207.093602, 56.814912)">
                    <mask id="mask-2" fill="white">
                        <use xlink:href="#path-1"></use>
                    </mask>
                    <g id="Clip-44"></g>
                    <path d="M2.3246345,0.0716889606 C2.5645385,-0.294870242 5.47019932,1.61765857 5.21512492,3.73057779 C4.96322572,5.84490821 2.4925673,7.02220182 0.750440886,6.22346261 C-0.995213528,5.4226066 1.84024009,0.804101766 2.3246345,0.0716889606" id="Fill-43" fill="#606B72" mask="url(#mask-2)"></path>
                </g>
                <path d="M204.204805,65.7239945 C204.449295,65.3556713 207.346136,67.2713753 207.096001,69.3835889 C206.846924,71.4993306 204.374149,72.678741 202.632022,71.8792962 C200.884604,71.0759706 203.724997,66.4585241 204.204805,65.7239945" id="Fill-46" fill="#606B72"></path>
                <path d="M201.403079,75.9872288 C201.623579,75.6044408 204.64778,77.313404 204.540882,79.4400825 C204.430103,81.5660553 202.05082,82.9102233 200.254715,82.2321417 C198.461079,81.5512377 200.975838,76.750688 201.403079,75.9872288" id="Fill-48" fill="#606B72"></path>
                <path d="M177.296572,67.2340844 C177.785553,67.5156188 177.981004,68.1182012 177.723813,68.5775468 C177.475089,69.0354812 176.86545,69.1808348 176.377881,68.8993004 L171.171611,65.9096732 C170.68263,65.6274332 170.485768,65.0276732 170.739784,64.5647995 C170.999798,64.1079235 171.600969,63.9618643 172.088891,64.2441043 L177.296572,67.2340844 Z" id="Fill-50" fill="#606B72"></path>
                <path d="M185.925672,49.4529995 C186.42559,49.7207747 186.638681,50.3152427 186.398071,50.7809387 C186.156756,51.2505155 185.553821,51.4142147 185.059901,51.1443227 L179.760492,48.3183947 C179.263044,48.0534419 179.052775,47.4575627 179.293385,46.9893971 C179.532583,46.5212315 180.136577,46.3585907 180.631908,46.6235435 L185.925672,49.4529995 Z" id="Fill-52" fill="#606B72"></path>
                <path d="M209.775164,59.6967593 C210.271201,59.9670041 210.476883,60.5671169 210.231687,61.0299905 C209.992841,61.4963921 209.386025,61.6519769 208.892811,61.3834961 L203.620215,58.5106457 C203.127001,58.2372257 202.922024,57.6420521 203.166514,57.1738865 C203.410299,56.708896 204.010765,56.5515472 204.504332,56.823556 L209.775164,59.6967593 Z" id="Fill-54" fill="#606B72"></path>
                <path d="M201.641818,77.7832631 C202.155142,78.0175223 202.39928,78.6021119 202.190775,79.0787447 C201.974156,79.5631391 201.385686,79.7592959 200.871656,79.5268007 L195.42019,77.0155703 C194.908278,76.7777831 194.659906,76.1967215 194.874409,75.7098575 C195.082914,75.2353415 195.675265,75.0374207 196.184708,75.2716799 L201.641818,77.7832631 Z" id="Fill-56" fill="#606B72"></path>
                <path d="M204.578596,68.3827306 C205.073575,68.6533282 205.280668,69.2488546 205.034414,69.7166674 C204.788159,70.179541 204.18593,70.3375954 203.690951,70.0677034 L198.421883,67.1941474 C197.926552,66.9235498 197.7184,66.3255538 197.966419,65.855977 C198.211262,65.393809 198.81208,65.2361074 199.303883,65.5077634 L204.578596,68.3827306 Z" id="Fill-58" fill="#606B72"></path>
                <path d="M183.194259,59.5713389 C183.682534,59.8535789 183.877633,60.4575725 183.623264,60.9133901 C183.370306,61.3748525 182.759257,61.5187949 182.275921,61.2386717 L177.067181,58.2522197 C176.578201,57.9706853 176.382749,57.3684557 176.641705,56.9076988 C176.892545,56.4490588 177.501831,56.302294 177.986578,56.5852396 L183.194259,59.5713389 Z" id="Fill-60" fill="#606B72"></path>
                <path d="M68.4682846,243.16585 C68.4682846,243.16585 78.7400567,256.301652 98.8821145,263.713275 C110.446193,267.968748 122.431162,268.096462 131.365822,265.797264 C142.16256,263.018964 149.316286,254.806838 155.978561,247.224814 C168.731223,232.712033 155.804278,218.555227 156.207881,207.415567 C156.598431,196.277671 157.299092,194.416298 162.622491,186.663165 C167.951182,178.909327 175.644692,168.976595 172.264515,160.79975 C168.883985,152.626432 146.290673,140.320768 133.65126,136.382814 C118.829074,131.764662 99.3559249,148.676483 97.5266568,162.852693 C95.806404,176.185358 89.681796,177.95218 83.4421751,183.364838 C75.7955879,189.998184 43.917638,217.226582 68.4682846,243.16585" id="Fill-62" fill="#C0722A"></path>
                <path d="M178.501067,161.784662 C176.283366,154.628819 166.107202,148.867595 155.786744,144.132313 C152.676106,142.365844 149.418351,140.850215 146.272433,139.500755 C135.345159,134.814865 120.101729,131.723279 111.43308,144.997379 C101.498232,160.210468 110.165117,168.064854 104.127298,173.459872 C101.042062,176.216651 96.4355523,176.986108 91.2553898,180.018071 C82.7045762,185.022892 57.343548,205.925587 79.6433305,231.558976 C79.6433305,231.558976 91.186241,244.610813 115.752764,252.073944 C118.440041,252.88997 121.022184,253.641787 123.50766,254.245075 C137.451022,258.350961 148.469672,259.784035 157.755015,245.466353 C167.929414,229.798857 164.000634,220.330764 164.22325,209.447942 C164.440928,198.564415 160.251075,194.946803 167.426322,188.946028 C175.008346,182.605506 181.87454,172.669247 178.501067,161.784662" id="Fill-64" fill="#F8D584"></path>
                <path d="M73.562505,210.627635 C93.3242443,190.175818 121.715119,183.222483 147.168228,172.691403 C157.280534,168.375601 167.146234,163.522131 177.05568,158.763212 C173.327995,152.982584 164.612777,148.181681 155.786779,144.132243 C152.676142,142.365773 149.418386,140.850144 146.272116,139.501037 C135.345194,134.814795 120.101765,131.723208 111.433116,144.997308 C101.498268,160.210045 110.165152,168.064784 104.127333,173.459801 C101.042097,176.216581 96.4355876,176.98639 91.2550723,180.018001 C84.8178835,183.785905 68.8543889,196.564321 70.8709938,213.588332 C71.738529,212.577207 72.6339354,211.588309 73.562505,210.627635" id="Fill-66" fill="#F7CB71"></path>
                <path d="M164.215418,210.152201 C160.591809,211.528474 156.881765,212.640147 153.138909,213.357742 C143.959053,215.117861 134.652542,216.099704 125.464572,217.80655 C118.009907,219.191643 110.80679,221.178613 103.798418,224.032765 C97.3273601,226.852695 91.0478729,230.202884 85.3677928,234.405085 C84.894688,234.786814 84.4300504,235.177717 83.9699992,235.573558 C89.3449073,240.029069 99.8026049,247.228659 115.752693,252.074014 C118.439971,252.890041 121.022114,253.641858 123.50759,254.244793 C137.450952,258.351032 148.469601,259.784106 157.754945,245.466423 C167.709197,230.137263 164.164615,220.742905 164.215418,210.152201" id="Fill-68" fill="#F7CB71"></path>
                <path d="M146.549911,159.148293 C153.651775,164.028575 155.4567,173.741159 150.580298,180.844082 C145.704955,187.942771 135.988843,189.74946 128.884509,184.869177 C121.786173,179.991717 119.98407,170.276311 124.859414,163.176211 C129.736521,156.076111 139.450869,154.274714 146.549911,159.148293" id="Fill-70" fill="#855500"></path>
                <path d="M135.341278,159.204459 C135.341278,159.204459 173.544226,82.6175757 175.591172,78.5603757 C176.016649,77.7154197 188.762607,83.6244669 188.548105,84.9315909 C188.340659,86.2355397 154.520192,161.680056 151.012302,166.933248 C147.510761,172.179032 134.006283,161.205188 135.341278,159.204459" id="Fill-72" fill="#855500"></path>
                <path d="M173.871237,83.4783724 C173.437293,83.1093436 175.64441,78.6877012 174.4336,76.0043044 C173.397074,73.6881723 171.714218,72.1175067 172.289987,71.2796067 C172.867168,70.4339451 179.77217,62.4811275 181.155498,58.6352546 C182.538827,54.7876178 184.75935,45.8903545 184.934339,44.3151025 C185.086396,42.9487081 185.784587,40.9130521 189.432892,41.8737265 C193.0879,42.8308729 199.246377,44.9882449 202.242002,46.8961873 C205.249622,48.8016601 211.655059,51.9059474 208.163044,56.0051306 C207.622907,56.639465 205.847618,58.255289 202.11958,64.9860075 C198.400715,71.7170787 196.915075,79.3675468 197.269639,81.466354 C197.625614,83.5676308 192.800015,82.7357284 189.687614,85.7027764 C186.518059,88.7262725 185.739429,91.1934029 185.739429,91.1934029 C185.739429,91.1934029 174.867191,84.3180364 173.871237,83.4783724" id="Fill-74" fill="#855500"></path>
                <path d="M113.291948,208.372325 C114.177829,208.979141 114.40468,210.19736 113.795394,211.081124 C113.18505,211.968768 111.968596,212.197383 111.080598,211.587392 C110.196834,210.976342 109.969278,209.759888 110.58068,208.872948 C111.188202,207.986715 112.405009,207.763392 113.291948,208.372325" id="Fill-76" fill="#FBE4EE"></path>
                <path d="M127.516633,214.685858 C128.406042,215.295496 128.628658,216.509481 128.022901,217.395009 C127.412204,218.284771 126.19575,218.51021 125.308458,217.900924 C124.418343,217.292344 124.192551,216.077654 124.806776,215.188598 C125.413945,214.301658 126.62793,214.075161 127.516633,214.685858" id="Fill-78" fill="#FBE4EE"></path>
                <path d="M117.634775,210.262451 C118.521362,210.869267 118.747506,212.086427 118.137162,212.973366 C117.52576,213.863834 116.31107,214.086098 115.425542,213.477165 C114.536838,212.867526 114.310341,211.652836 114.919979,210.76378 C115.531029,209.878605 116.745719,209.651049 117.634775,210.262451" id="Fill-80" fill="#FBE4EE"></path>
                <path d="M122.016516,212.362352 C122.903455,212.973402 123.129247,214.188445 122.519256,215.074326 C121.90997,215.962323 120.693869,216.188468 119.80693,215.576007 C118.918579,214.97025 118.694551,213.754148 119.304542,212.866503 C119.913122,211.978859 121.127107,211.754831 122.016516,212.362352" id="Fill-82" fill="#FBE4EE"></path>
                <path d="M112.205995,210.214188 C111.920227,210.072363 111.804508,209.72556 111.946687,209.442615 C176.843894,79.4693296 175.411879,79.2890488 175.80137,78.0535432 C177.233386,73.5937983 175.434106,68.5141839 175.420346,68.5106559 C175.311684,68.2107759 175.465858,67.8816135 175.763621,67.7733039 C176.059973,67.6646415 176.391252,67.8191679 176.496386,68.1165783 C176.507323,68.1709095 178.453368,73.4371551 176.895756,78.3975232 C176.452992,79.7815576 177.864898,79.9932376 112.97404,209.95488 C112.929587,210.046608 112.862555,210.121402 112.783528,210.17538 C112.618065,210.287571 112.396507,210.311208 112.205995,210.214188" id="Fill-84" fill="#D0E3ED"></path>
                <path d="M116.09371,211.860706 C115.809,211.724172 115.688695,211.378428 115.826993,211.091602 C115.836166,211.071492 119.752951,203.017421 125.682814,190.687766 C131.614793,178.357406 139.553851,161.768045 147.584285,144.742269 C163.628218,110.726704 180.070109,74.8007271 181.430506,67.9849839 C182.370718,63.4052871 180.233456,59.9859494 180.229222,59.9799518 C180.057761,59.7125294 180.141022,59.3593766 180.410914,59.192855 C180.677278,59.0231582 181.032195,59.104655 181.198364,59.369255 C181.233291,59.4331118 183.573766,63.1611495 182.557702,68.2167735 C179.629109,82.504468 116.875867,211.53613 116.859286,211.592931 C116.814127,211.685717 116.74639,211.76298 116.666304,211.817664 C116.501899,211.929149 116.283869,211.953139 116.09371,211.860706" id="Fill-86" fill="#D0E3ED"></path>
                <path d="M119.101612,212.78476 C118.815844,212.647168 118.697656,212.303188 118.839129,212.018831 C118.857827,211.97332 128.371079,192.430316 140.288663,167.345883 C152.20907,142.262861 166.515463,111.69133 176.059761,89.7355274 C182.423568,75.1490113 186.676924,64.1762256 186.656109,61.67946 C186.712204,55.8586128 182.925249,50.1665375 182.780601,49.9679111 C182.732268,49.8969983 182.648301,49.7544671 182.685698,49.5297335 C182.744968,49.2206807 183.045554,49.0164095 183.356371,49.0767383 C183.533829,49.1091959 183.675655,49.2210335 183.753271,49.3681511 C184.15511,49.9749671 187.834814,55.5816648 187.801651,61.6879272 C187.73603,64.8197328 183.487612,75.4862881 177.114986,90.1962842 C170.742712,104.84701 162.259636,123.322088 153.778324,141.444718 C136.81817,177.686099 119.872833,212.52016 119.869305,212.522276 C119.825205,212.615768 119.75535,212.688445 119.674912,212.743129 C119.510507,212.854614 119.294946,212.880721 119.101612,212.78476" id="Fill-88" fill="#D0E3ED"></path>
                <path d="M121.963631,213.96477 C121.674335,213.833881 121.544858,213.492371 121.676805,213.205544 C121.681038,213.198488 183.188544,78.4310039 188.098109,68.5092094 C189.156861,66.3638326 190.793853,64.7236654 192.633705,63.471931 C198.217471,59.6881509 205.683072,59.3544021 205.730347,59.3434653 C206.04822,59.3311173 206.314231,59.5745493 206.331166,59.8913638 C206.34563,60.2081782 206.103257,60.4794814 205.784678,60.4893598 C205.78609,60.5006494 203.955058,60.5941414 201.478402,61.1321614 C199.001745,61.669123 195.879818,62.6470846 193.280741,64.4230798 C191.562957,65.5919062 190.079081,67.0909534 189.124404,69.0165358 C185.467632,76.4055791 149.939613,154.101665 132.410039,192.46549 C126.56626,205.258371 122.729913,213.659598 122.721093,213.681119 C122.676287,213.779903 122.603963,213.860341 122.521408,213.916436 C122.360884,214.025804 122.150968,214.051559 121.963631,213.96477" id="Fill-90" fill="#D0E3ED"></path>
                <path d="M123.570036,216.483621 C123.282151,216.354849 123.156907,216.011927 123.286737,215.723337 C123.289912,215.715575 183.897072,83.8075348 188.47183,74.6477883 C189.686167,72.2131155 191.23637,70.5817683 192.810917,69.5106675 C196.510025,67.0057875 200.247588,67.5628587 200.317443,67.5695619 C200.63214,67.6200123 200.848759,67.9103667 200.800073,68.2247115 C200.752092,68.5387035 200.461738,68.7546171 200.146335,68.7048723 C200.146687,68.7143979 199.335247,68.5806867 198.064462,68.7366243 C196.796499,68.8918563 195.113642,69.3328563 193.456894,70.4600523 C192.038285,71.4249603 190.634494,72.8911971 189.500242,75.1611124 C186.092899,81.9750916 151.1343,157.918115 133.875324,195.448273 C128.119392,207.957503 124.339845,216.184799 124.329967,216.204556 L124.331731,216.206673 C124.287278,216.304045 124.217071,216.381661 124.135221,216.437404 C123.974344,216.547125 123.759842,216.571468 123.570036,216.483621" id="Fill-92" fill="#D0E3ED"></path>
                <path d="M128.186388,212.941156 C127.898503,212.810267 127.770084,212.469815 127.899915,212.182989 C184.31581,87.7962917 184.85877,87.562738 185.371388,86.5406764 C187.086349,83.10511 189.322395,80.9198668 191.328769,79.5580588 C194.03545,77.7164428 196.316302,77.3611732 196.373809,77.3505892 C196.686742,77.3047252 196.979919,77.520286 197.025783,77.8339252 C197.073411,78.1433308 196.857498,78.4389772 196.544917,78.4837828 C196.543858,78.4978948 196.018892,78.573394 195.177111,78.8700988 C194.350854,79.1576308 193.214485,79.6586068 191.974393,80.5070908 C190.11055,81.7747012 188.020563,83.8025956 186.396272,87.054706 C185.898824,88.0460741 185.363274,88.2669269 128.943497,212.654682 C128.901514,212.755936 128.830248,212.833905 128.744871,212.892117 C128.586463,212.999721 128.376195,213.028297 128.186388,212.941156" id="Fill-94" fill="#D0E3ED"></path>
                <path d="M106.797041,210.713435 C106.797041,210.713435 130.947613,220.747068 132.342231,221.045889 C133.732263,221.342947 135.138877,215.971567 134.778668,215.500579 C134.409639,215.034177 109.947898,204.135127 109.175266,204.260018 C108.401576,204.384556 106.580069,209.694196 106.797041,210.713435" id="Fill-96" fill="#C0722A"></path>
                <path d="M187.515706,101.551293 C189.435997,100.171845 188.387828,96.7447462 185.997255,95.781955 C187.211946,90.923899 180.006711,90.4190422 177.798889,89.7095613 C175.812977,89.0709933 172.939774,87.2791221 171.726142,89.7095613 C170.463824,92.2377262 172.215829,94.4610718 174.155523,95.1747862 C171.422734,95.630251 170.2151,96.0927718 170.815213,97.907575 C172.011205,101.523422 175.842613,100.983991 178.40641,100.944125 C173.700058,102.462223 172.989166,107.736936 178.055727,107.669904 C177.958354,108.989729 177.434446,110.09364 176.936645,111.322442 C178.503783,113.133012 183.224953,115.254751 184.175396,114.304308 C190.855664,107.62404 190.817209,102.158815 187.515706,101.551293" id="Fill-98" fill="#F3B58B"></path>
                <path d="M180.991658,94.7433471 C178.888265,94.5147327 176.794397,94.1435871 174.796137,93.5579391 C173.557104,93.1945551 172.19459,92.6508902 171.31894,91.7332574 C171.465352,93.3628407 172.758717,94.6611447 174.155452,95.1748215 C173.801947,95.2337391 173.475607,95.2930095 173.173963,95.3547495 C173.85275,95.2725471 174.542474,95.2594935 175.227259,95.2534959 C176.634931,95.2411479 178.038369,95.1324855 179.446747,95.2072791 C181.218861,95.3018295 182.970161,95.5325607 184.711581,95.8352631 C184.393356,95.6623911 184.079717,95.4821103 183.769605,95.2954791 C182.832216,95.1328383 181.907174,94.9440903 180.991658,94.7433471" id="Fill-100" fill="#EA8C57"></path>
                <path d="M178.406304,100.944054 C178.381608,100.951816 178.358324,100.961341 178.33398,100.969808 C179.807273,100.688274 181.583974,100.844917 182.861463,100.853032 C183.455225,100.856912 184.047929,100.867496 184.640986,100.882314 C184.323466,100.693213 183.937503,100.45084 183.214968,100.336532 C182.934845,100.327007 182.654722,100.319598 182.374599,100.308308 C179.988965,100.212347 177.532419,100.227517 175.160192,99.9318709 C173.948676,99.7808725 172.769266,99.5494357 171.766961,98.9962453 C171.540111,98.9556733 171.339368,98.8614757 171.169318,98.7267061 C172.643669,101.434446 176.056656,100.980745 178.406304,100.944054" id="Fill-102" fill="#EA8C57"></path>
                <path d="M177.852303,112.162494 C178.371977,111.822395 178.904705,111.498525 179.451898,111.192294 C181.171092,110.229503 183.253671,110.060159 184.915006,109.022574 C185.701397,108.531477 185.870741,107.22153 185.744439,106.257681 C183.233208,107.222589 180.658474,107.851278 178.055515,107.669939 C177.901342,108.839824 177.390135,110.20269 176.936434,111.322478 C177.175985,111.599426 177.489977,111.883077 177.852303,112.162494" id="Fill-104" fill="#EA8C57"></path>
                <path d="M145.461205,161.520379 C145.461205,161.520379 141.969544,158.180421 140.754853,157.876661 C139.540515,157.5729 136.959431,159.546816 138.174121,162.431309 C139.388459,165.315801 141.969544,168.04859 143.184234,168.200294 C144.398572,168.352351 146.524192,163.038477 145.461205,161.520379" id="Fill-106" fill="#EA8C57"></path>
                <path d="M128.204311,188.392626 C129.216494,188.392626 144.196029,182.319527 146.62541,179.080823 C147.78083,177.539792 149.282347,174.629545 149.339853,172.169824 C149.358199,171.388724 150.876297,167.947513 150.269128,165.518132 C149.824247,163.74002 148.649423,160.862583 148.649423,160.862583 C148.649423,160.862583 149.459099,155.599513 149.054438,153.979808 C148.649423,152.360456 145.815734,151.55078 143.993875,154.384823 C142.172015,157.218865 141.362339,163.494119 141.159832,165.315978 C140.957325,167.137837 136.301423,172.1984 134.682071,170.579048 C133.062719,168.959696 133.265227,165.518132 133.872395,163.494119 C134.479564,161.469752 132.860212,158.028541 130.431184,157.826034 C128.002156,157.623527 127.19248,160.457569 126.584959,166.530315 C125.977437,172.603062 127.394635,179.890499 127.394635,180.700175 C127.394635,181.509851 123.750916,184.748908 123.750916,184.748908 L128.204311,188.392626 Z" id="Fill-108" fill="#F3B58B"></path>
                <path d="M145.71441,168.858407 L148.649353,160.862548 L149.459029,162.684407 C149.459029,162.684407 148.548452,166.328126 145.71441,168.858407" id="Fill-110" fill="#EA8C57"></path>
                <path d="M146.220537,174.424992 L150.167663,168.655653 L149.339994,172.169541 C149.339994,172.169541 147.738635,173.311908 146.220537,174.424992" id="Fill-112" fill="#EA8C57"></path>
                <path d="M119.500064,181.712499 C120.410994,181.104978 126.939205,178.372189 126.939205,178.372189 C126.939205,178.372189 132.404783,185.659626 131.797261,189.303697 C131.190445,192.947062 120.562698,191.428964 120.562698,191.428964 L119.500064,181.712499 Z" id="Fill-114" fill="#00B2D0"></path>
                <path d="M70.310324,159.243055 C70.310324,159.243055 62.7953311,148.767365 58.4682391,148.008492 C54.1414999,147.249266 49.055535,151.044689 49.3592958,157.724957 C49.9664646,171.08514 52.3214047,196.185802 61.5435967,199.197303 C73.6047704,203.135256 120.719447,202.227502 124.394212,196.919626 C127.127,192.972499 125.392636,180.466445 120.866564,179.131802 C116.340493,177.796454 82.0384545,182.34581 75.6623,179.15791 C71.0215688,176.837544 72.1321832,162.583013 70.310324,159.243055" id="Fill-116" fill="#73CDE1"></path>
                <path d="M82.759613,142.955831 C82.759613,142.955831 64.5805344,134.464288 41.4643726,127.959361 C36.1000486,126.44973 28.7498133,144.50039 31.0394854,149.121717 C33.4685134,154.024578 49.6627391,156.004139 49.6627391,156.004139 C49.6627391,156.004139 49.3593311,148.435168 63.0229224,146.704684 C76.6868665,144.974553 84.5814722,144.974553 82.759613,142.955831" id="Fill-118" fill="#00B2D0"></path>
                <path d="M81.9521949,143.60149 C80.6884653,143.026074 86.2161357,136.475283 85.3944645,130.806493 C84.5727933,125.138408 103.354807,127.547326 104.265384,130.506613 C105.175608,133.466252 85.6848189,145.300928 81.9521949,143.60149" id="Fill-120" fill="#00B2D0"></path>
                <path d="M56.0656711,23.1645659 C88.3108857,13.1513963 119.093744,34.7949708 128.331107,64.4273487 C130.222115,70.4933919 131.926844,76.2461488 133.140124,81.7022008 L133.183871,109.773791 C127.252597,122.407207 112.767688,128.900491 105.536699,131.943038 C74.4162104,145.039327 23.63947,124.575516 14.4024604,94.9463129 C5.16686188,65.3153463 23.8190452,33.1798524 56.0656711,23.1645659" id="Fill-122" fill="#EA8C57"></path>
                <path d="M56.1550706,20.3118604 C87.8608541,10.5015507 118.247518,32.0897357 127.452776,61.5203119 C129.651073,68.5459712 131.666972,74.9492912 133.93724,81.2365401 C136.98896,89.6868057 142.339525,102.275768 126.759877,118.090734 C121.734594,123.192575 113.496713,126.353663 105.646208,128.000886 C70.8922323,135.293262 43.7414497,117.335742 35.1952224,83.8596081 C27.5676864,53.9827399 24.4471704,30.1242869 56.1550706,20.3118604" id="Fill-124" fill="#F3B58B"></path>
                <path d="M103.996868,59.8344218 C93.6697061,58.4027594 83.3393692,54.5078474 72.7973523,55.1210138 C63.4926051,55.6615034 54.5406578,58.4066402 46.1546017,62.3975139 C34.1068344,68.1315723 23.0698391,76.6707436 14.2720655,87.0148396 C8.04937902,58.8624578 26.0033712,29.6435616 56.1550706,20.3120015 C86.5699588,10.901767 115.75922,30.3897336 126.213037,57.9726962 C120.105363,61.2816074 109.987412,60.6645602 103.996868,59.8344218" id="Fill-126" fill="#EA8C57"></path>
                <path d="M58.3120193,65.2102824 C58.5035897,64.9784928 58.7180921,64.7534064 58.9629353,64.5470184 C65.8510025,58.64538 72.7013202,57.9355464 73.2005322,57.9164952 C73.7152674,57.9094392 74.2211826,58.0001088 74.6992266,58.1631024 C75.875109,59.33334 76.554249,61.0296024 76.8251994,62.9079096 C70.671309,63.8749344 64.8737465,65.6745672 59.5880969,68.4761521 C59.1460385,67.4911345 58.6722281,66.3653496 58.3120193,65.2102824" id="Fill-128" fill="#883E1F"></path>
                <path d="M122.211191,61.3398194 C121.974109,61.1627138 121.720446,60.9979562 121.443851,60.858953 C113.660377,56.8730186 107.47791,57.9892778 107.036557,58.1025266 C106.586032,58.2316514 106.172903,58.4553266 105.805991,58.7428586 C105.135318,60.2069786 105.056291,62.0577674 105.387217,63.9780579 C111.04119,63.3003291 116.63554,63.5359995 122.0863,64.8932211 C122.173794,63.8065971 122.246118,62.5732083 122.211191,61.3398194" id="Fill-130" fill="#883E1F"></path>
                <path d="M96.7992538,65.1212357 L96.7985482,65.1212357 L96.7992538,65.1212357 Z" id="Fill-132" fill="#CA6729"></path>
                <path d="M46.1450408,94.4623771 C46.127048,94.4041651 46.1157584,94.3491283 46.0956488,94.2895051 C33.3426343,56.8348456 65.2043554,36.9319863 65.2043554,36.9319863 C50.4742497,17.8430365 38.2751312,29.430047 38.2751312,29.430047 C38.2751312,29.430047 10.786719,27.9743942 7.28129814,65.0134553 C3.59206851,104.002442 35.0921696,121.699949 35.0921696,121.699949 C35.0921696,121.699949 32.6155135,111.412653 34.7273744,104.007028 C35.049128,102.879127 36.0877712,102.126957 37.4178272,101.518377 C40.2021248,99.0071468 43.1271896,96.6737276 46.1450408,94.4623771" id="Fill-134" fill="#883E1F"></path>
                <path d="M38.1800163,109.942853 C34.4826723,107.121512 27.2361602,103.183911 24.2317154,99.3973083 C20.4934466,94.6839003 18.1007569,90.3539858 15.9088105,84.6252194 C12.3310657,75.2731969 12.4577209,63.78744 14.8394737,54.1736399 C16.3300537,48.1541663 19.573697,43.6534967 23.3299586,38.895283 C25.9039874,35.6339998 29.2323026,32.6274382 32.7514827,30.4802974 C33.1635531,30.2308678 33.5847963,29.9962558 34.0070979,29.7676414 C26.1438914,31.0634758 9.95672168,37.1376334 7.28143926,65.01342 C2.68410242,112.924366 42.7812339,126.742484 42.7812339,126.742484 C42.7812339,126.742484 41.4871635,119.774684 38.1800163,109.942853" id="Fill-136" fill="#6F3325"></path>
                <path d="M47.657565,106.918581 C47.7584658,111.008239 43.1389026,111.707135 39.1893065,110.89499 C35.2411217,110.085667 30.3872993,105.749755 30.2863985,101.657275 C30.1883201,97.5676169 33.3106001,94.9127969 37.2591377,95.7235313 C41.2080282,96.5339129 47.560545,102.83104 47.657565,106.918581" id="Fill-138" fill="#F3B58B"></path>
                <path d="M36.6754654,106.088231 C37.2501766,103.362851 40.010131,101.243581 43.8253103,104.863662 C37.5292414,96.5883852 28.9262133,98.6624965 36.6754654,106.088231" id="Fill-140" fill="#EA8C57"></path>
                <path d="M128.838257,76.1626057 C130.410334,82.7105738 126.510835,87.831113 120.233112,89.6265122 C113.958564,91.4180306 107.680135,89.203505 106.107353,82.6597706 C104.532101,76.1149777 108.349044,69.3627385 114.62465,67.5659281 C120.90449,65.7729984 127.264063,69.6188713 128.838257,76.1626057" id="Fill-142" fill="#EA8C57"></path>
                <path d="M87.2271194,84.0582345 C88.9445498,90.6982834 83.7894362,96.3762466 76.9525249,98.1899914 C70.1198473,100.000208 64.1910432,97.2578938 62.4729072,90.6220786 C60.751596,83.9848521 64.904052,77.1430016 71.7374353,75.3278456 C78.5768161,73.5162176 85.5065138,77.422772 87.2271194,84.0582345" id="Fill-144" fill="#EA8C57"></path>
                <path d="M88.1589348,84.4198192 C89.8530804,90.8799401 87.2134308,95.7926801 79.1780579,97.9359401 C70.842805,100.158933 66.4208098,97.0211297 64.7326618,90.5694761 C63.038869,84.1146472 66.1978402,77.6732248 73.3836707,75.8033848 C79.8561395,74.1187647 86.46867,77.9649904 88.1589348,84.4198192" id="Fill-146" fill="#FEFEFE"></path>
                <path d="M86.1928509,80.3117807 C86.0711349,80.2345175 85.9483605,80.1593711 85.8248805,80.0859887 C82.6076973,78.3226943 78.8898909,77.6731895 75.3202604,79.9928495 C72.2882972,81.9628847 69.8889044,86.5005984 70.7656124,90.3164832 C71.6327948,94.0903848 74.611838,97.5534696 77.4345908,98.3292769 C77.9962485,98.2248481 78.5751933,98.0967817 79.1781285,97.9359049 C87.2135013,95.7926448 89.8531509,90.8799048 88.1590053,84.4197839 C87.7582245,82.8903959 87.0787317,81.5095367 86.1928509,80.3117807" id="Fill-148" fill="#552D00"></path>
                <path d="M127.176922,77.2235812 C128.683025,83.4046372 125.992219,88.1720237 120.269803,89.7797333 C112.478215,91.9688573 107.967667,89.2417133 106.461917,83.0652436 C104.954049,76.88701 108.374093,70.5785931 114.092981,68.9627691 C119.81575,67.3511787 125.670113,71.0474643 127.176922,77.2235812" id="Fill-150" fill="#FEFEFE"></path>
                <path d="M125.421177,77.1081803 C123.10434,72.9088019 116.956094,70.8967834 112.364402,73.4644619 C110.713298,74.3880923 109.487671,75.7523699 108.659649,77.3766611 C107.546565,80.1972971 107.810107,84.1931099 109.115467,86.8571028 C109.630907,87.9087996 110.069438,88.7897412 110.773979,89.4230172 C113.086936,90.7220268 116.236029,90.9128916 120.269944,89.779698 C122.30807,89.2071036 123.959174,88.2316116 125.175981,86.93613 C126.838022,84.8002787 127.040529,80.0434763 125.421177,77.1081803" id="Fill-152" fill="#552D00"></path>
                <g id="Group-156" transform="translate(0.000000, 5.306112)">
                    <mask id="mask-4" fill="white">
                        <use xlink:href="#path-3"></use>
                    </mask>
                    <g id="Clip-155"></g>
                    <path d="M113.046153,33.1685628 C113.971194,33.6173244 99.3201157,-4.72356868 60.6225418,0.696144965 C21.9253207,6.11585861 -3.12030434,26.4865308 0.313850882,54.4748606 C3.74800611,82.4628376 12.556011,94.1225249 12.556011,94.1225249 C12.556011,94.1225249 31.3002751,75.813616 31.9399015,72.3776967 C34.2645007,59.8935158 72.3471442,13.4163491 113.046153,33.1685628" id="Fill-154" fill="#FFD766" mask="url(#mask-4)"></path>
                </g>
                <path d="M54.2160465,7.06203294 C48.4273041,8.68632415 42.8004968,11.2684674 37.5465992,14.1349674 C32.5795279,16.8448242 27.8237839,20.2818018 23.6670943,24.0916891 C14.1072726,32.8531243 9.81157976,46.5244772 10.0962894,59.2136349 C10.2218862,64.8079846 11.218899,70.480303 12.635391,75.8848463 C13.5784254,79.4830535 14.8273374,82.9997639 16.3366158,86.3996976 C17.2810614,88.5267288 18.2286822,90.6474096 19.2136998,92.7444528 C15.5657478,96.4887192 12.556011,99.4286017 12.556011,99.4286017 C12.556011,99.4286017 3.74800611,87.7689144 0.313850882,59.7809374 C-2.92661714,33.3696235 19.195707,13.7444178 54.2160465,7.06203294" id="Fill-157" fill="#FCB813"></path>
                <g id="Group-161" transform="translate(31.752000, 0.014112)">
                    <mask id="mask-6" fill="white">
                        <use xlink:href="#path-5"></use>
                    </mask>
                    <g id="Clip-160"></g>
                    <path d="M91.6085426,39.5534314 C93.6692475,39.8705986 99.4590483,22.5833985 99.4590483,22.5833985 C99.4590483,22.5833985 109.92098,2.25012314 91.290317,0.549274324 C72.6596545,-1.15122169 36.275743,7.86528798 30.8856646,9.7308944 C25.4952333,11.5965008 9.12284359,21.0727089 6.97923077,35.7167314 C4.83561796,50.3611067 0.188183521,77.6695909 0.188183521,77.6695909 C0.188183521,77.6695909 28.0368045,29.7667594 91.6085426,39.5534314" id="Fill-159" fill="#243944" mask="url(#mask-6)"></path>
                </g>
                <path d="M64.659985,48.292605 C66.124105,46.8824634 72.9073907,41.6885418 85.0719347,39.3992226 C91.2170052,38.2430969 100.520694,35.6493113 109.826853,31.8687065 C116.953765,28.9739825 123.192328,31.6139849 119.962091,35.7812585 C128.133645,33.4887641 131.387519,26.7030089 131.907546,28.5403913 C134.15453,36.4783913 130.58243,46.4742738 123.334859,49.3259562 C108.623099,55.1139931 95.1447276,48.1733586 80.0360675,47.2578426 C75.3113699,46.9717218 70.253629,47.6360442 65.8256362,48.0671658 C65.5377514,48.0678714 64.9478698,48.2834322 64.659985,48.292605" id="Fill-162" fill="#883E1F"></path>
                <path d="M100.912443,88.3453896 C102.050576,88.1160696 104.773839,87.6510792 106.26195,87.4266984 C108.753423,87.0290928 111.540543,87.2672328 111.639327,89.8398504 C111.665434,90.6512904 110.926318,91.7075736 109.916958,92.7532728 C108.107799,94.3362864 104.540638,96.5250576 103.630414,96.2661024 C104.678936,94.3031232 106.191742,93.9111624 107.491105,92.326032 C108.221401,91.5646896 109.043425,90.2677968 109.033546,89.9294616 C108.990152,88.7687496 107.318938,88.6562064 105.882337,88.7161824 C104.749849,88.7613408 101.950028,89.3861496 100.912443,88.3453896" id="Fill-164" fill="#EA8C57"></path>
                <path d="M108.974488,89.63946 C109.088089,90.3193056 108.09778,91.0887624 106.761021,91.3600656 C105.424261,91.6303104 104.249437,91.2962088 104.134424,90.6153048 C104.020823,89.9365176 105.012897,89.1660024 106.34895,88.8943464 C107.684651,88.6244544 108.861239,88.958556 108.974488,89.63946" id="Fill-166" fill="#FBCAB3"></path>
                <path d="M107.877985,105.473089 C108.561712,104.693048 109.238382,103.908421 109.907644,103.11956 C107.851878,103.508698 105.2842,103.847034 103.435175,103.786705 C99.2488501,103.649818 97.296102,102.437598 93.4544628,100.204021 C95.52681,105.288574 102.182735,107.43254 107.877985,105.473089" id="Fill-168" fill="#E26D66"></path>
            </g>
        </g>
    </g>
</svg>