<svg width="240px" height="346px" viewBox="0 0 240 346" version="1.1" xmlns="http://www.w3.org/2000/svg" xmlns:xlink="http://www.w3.org/1999/xlink">
    <defs>
        <polygon id="path-1" points="0.138664544 0.129204717 41.296245 0.129204717 41.296245 40.7874483 0.138664544 40.7874483"></polygon>
        <polygon id="path-3" points="0.320759991 0.160379995 0.481139986 0.160379995 0.481139986 0.320759991 0.320759991 0.320759991"></polygon>
        <polygon id="path-5" points="0 0.121535961 124.408559 0.121535961 124.408559 149.415104 0 149.415104"></polygon>
    </defs>
    <g id="SU-Main" stroke="none" stroke-width="1" fill="none" fill-rule="evenodd">
        <g id="SU-login-Kids" transform="translate(-1000.000000, -50.000000)">
            <g id="Group-236" transform="translate(1000.000000, 50.000000)">
                <path d="M223.902246,334.767195 C223.902246,340.965882 181.045182,345.990908 128.177841,345.990908 C75.311142,345.990908 32.4540789,340.965882 32.4540789,334.767195 C32.4540789,328.568829 75.311142,323.543803 128.177841,323.543803 C181.045182,323.543803 223.902246,328.568829 223.902246,334.767195" id="Fill-1" fill="#231F20"></path>
                <path d="M154.767209,322.142274 C154.767209,322.142274 154.585659,289.158524 153.03286,265.864613 C151.969219,249.91386 148.556333,215.886357 146.045424,204.942668 C143.893124,195.561721 148.386972,193.939959 150.7035,199.11927 C157.170343,213.577847 162.360881,239.66622 164.092023,267.941213 C165.68652,293.979868 165.241306,322.448921 164.869224,323.307916 C164.092664,325.099681 155.155328,326.621687 154.767209,322.142274" id="Fill-3" fill="#F3A375"></path>
                <path d="M174.193845,323.502072 C174.193845,323.502072 171.862562,296.887332 169.455258,269.829623 C168.039423,253.916399 165.735725,224.145061 164.456534,208.738638 C163.659446,199.144065 167.328619,197.340111 168.962891,202.775389 C171.936657,212.662174 175.969893,234.046922 178.467972,259.198996 C182.371621,298.503321 184.440523,318.974224 184.29586,324.279273 C184.242614,326.234626 175.359808,333.798468 174.193845,323.502072" id="Fill-5" fill="#F3A375"></path>
                <path d="M152.230895,265.605182 C152.402823,268.183451 152.917322,271.358333 153.032795,274.105322 C156.003354,274.287193 162.092982,273.934357 165.06354,273.963546 C163.6368,245.12177 159.040951,204.415082 155.544346,190.428022 C154.168286,184.92378 138.821524,188.817806 140.974144,198.198753 C143.484733,209.142763 151.167897,249.654109 152.230895,265.605182" id="Fill-7" fill="#243944"></path>
                <path d="M151.32122,240.575895 C152.490069,237.652168 153.702863,234.529569 155.563271,231.94681 C157.21326,229.6553 158.928685,227.77276 161.042814,226.299509 C159.287294,210.904634 157.280299,197.372732 155.544346,190.427957 C154.168286,184.923716 138.821524,188.818063 140.974144,198.19901 C142.664549,205.566867 146.539972,226.97086 149.558002,244.702152 C149.918216,243.480698 150.84842,241.758858 151.32122,240.575895" id="Fill-9" fill="#231F20"></path>
                <path d="M168.872501,270.800628 C168.973541,271.892174 169.079071,273.002645 169.186204,274.122098 C171.91523,274.031002 177.634702,274.083606 180.350897,273.838225 C180.059968,271.265409 176.136432,204.026738 175.942372,196.256327 C175.800596,190.582083 159.992582,193.849665 160.78967,203.444237 C162.068861,218.85034 167.395722,254.893178 168.872501,270.800628" id="Fill-11" fill="#243944"></path>
                <path d="M163.123263,224.199269 C166.070085,222.135179 169.957376,221.548188 173.403942,223.003476 C175.158499,223.744432 176.533918,225.252966 177.490745,226.83335 C176.743053,212.454001 176.021022,199.400352 175.942436,196.256263 C175.80034,190.582018 159.992646,193.8496 160.789734,203.444173 C161.215704,208.57505 162.090737,215.996474 163.123263,224.199269" id="Fill-13" fill="#231F20"></path>
                <path d="M134.951811,215.488647 C151.409044,218.868174 168.625195,218.474602 185.202392,215.725047 C186.477734,215.513666 187.748585,215.282077 189.017191,215.040866 C184.825178,192.498495 176.887973,151.363272 175.781351,144.175682 C173.196346,127.386783 174.534877,122.821727 173.426972,122.017582 C170.740607,120.068644 161.277546,114.672499 152.747576,114.81652 C148.525733,114.887729 134.201233,121.714463 134.282706,122.882351 C136.056188,148.299372 135.447706,191.925297 134.951811,215.488647" id="Fill-15" fill="#F5ACC4"></path>
                <path d="M144.782913,124.626483 C154.109009,121.342863 164.401556,123.042891 173.517876,126.264925 C173.688841,126.325228 173.856919,126.38938 174.026922,126.450645 C173.928448,123.585617 173.943524,122.39239 173.427101,122.017742 C170.740736,120.068804 161.277674,114.672338 152.747704,114.816359 C148.52554,114.887889 134.201361,121.714303 134.282834,122.88219 C134.433912,125.051169 134.567669,127.355188 134.685709,129.765379 C137.865082,127.600249 141.298497,125.85339 144.782913,124.626483" id="Fill-17" fill="#F38FB0"></path>
                <path d="M168.030506,162.641225 C157.186573,166.962824 146.275922,171.128855 135.459895,175.473229 C135.45765,176.190127 135.456046,176.90895 135.453159,177.623283 C136.781426,178.058233 138.128939,178.434805 139.490886,178.750433 C141.378238,179.186988 143.28259,179.54688 145.197848,179.83364 C145.3717,179.859621 145.645949,179.897792 145.889406,179.931151 C146.032465,179.949113 146.175203,179.96868 146.318583,179.985359 C147.111502,180.0787 147.905062,180.16723 148.699264,180.245175 C151.583217,180.529047 154.473264,180.709956 157.362991,180.914601 C161.440813,181.203285 165.219686,184.202712 165.071174,188.622784 C165.054816,189.120283 165.037495,189.618744 165.063155,190.116564 C165.074382,190.337888 165.125704,190.747178 165.155534,190.990314 C165.246309,191.428151 165.351519,191.862781 165.485917,192.289713 C165.576371,192.576472 165.670675,192.86259 165.770431,193.146783 C166.101135,193.807549 166.451084,194.460295 166.856525,195.079362 C167.030376,195.34431 167.207757,195.607333 167.389628,195.867469 C167.891296,196.453498 168.406437,197.029583 168.959748,197.568139 C170.138862,198.715177 171.401052,199.786515 172.660356,200.844702 C173.110382,201.222878 173.564899,201.596243 174.022624,201.965438 C174.348516,202.210178 175.217134,202.874151 175.455138,203.045116 C176.828632,204.030811 178.225221,204.984431 179.659339,205.879993 C182.413384,207.599266 185.256921,209.176122 188.184498,210.58041 C185.514812,196.325836 181.817091,176.970215 179.130406,162.641225 L168.030506,162.641225 Z" id="Fill-19" fill="#F38FB0"></path>
                <path d="M175.726565,142.593726 C175.405805,145.079616 175.726565,150.612725 175.485995,153.579755 C175.495618,156.42233 175.085045,158.436382 175.072535,161.279599 C175.032119,170.373786 175.045271,179.485936 175.826642,188.553821 C176.626617,197.84303 178.116868,207.044031 179.709762,216.225144 C179.727725,216.328429 179.744404,216.431392 179.762367,216.534677 C181.582038,216.293466 183.396257,216.024669 185.202456,215.725079 C186.477798,215.513698 187.748328,215.282109 189.017255,215.040898 C185.027321,193.585262 177.38329,152.43368 175.726565,142.593726" id="Fill-21" fill="#F38FB0"></path>
                <path d="M148.236407,116.322905 C147.567623,115.825086 149.839886,100.458116 149.839886,100.458116 L161.60825,101.273809 L159.010414,117.172598 C159.010414,117.172598 153.701195,120.389821 148.236407,116.322905" id="Fill-23" fill="#F3A375"></path>
                <path d="M156.505375,121.26556 C159.423329,120.743042 162.400623,119.284867 164.515714,117.284287 C161.207396,115.82098 156.949628,114.577073 152.680954,114.649244 C150.921264,114.679074 147.075031,116.038776 143.977773,117.528706 C146.390209,120.994197 152.984713,121.896174 156.505375,121.26556" id="Fill-25" fill="#F3A375"></path>
                <path d="M156.821131,118.244322 C153.155486,119.029542 149.200515,118.706857 146.280316,116.461858 C145.430302,116.82143 144.582534,117.209871 143.783521,117.607613 C146.241504,121.260748 152.960785,122.211481 156.547844,121.546866 C159.521289,120.996121 162.554716,119.45904 164.710223,117.350043 C163.709131,116.892318 162.621113,116.455764 161.474717,116.068606 C160.073958,117.111076 158.502876,117.883787 156.821131,118.244322" id="Fill-27" fill="#272C35"></path>
                <path d="M197.907856,333.972191 C191.886229,333.487202 185.858828,332.720586 179.916428,331.713079 C177.732373,331.342601 175.179124,330.835158 173.014635,330.388661 C172.887294,329.038902 173.26162,325.085215 174.086615,324.86806 C176.06827,324.346825 193.079135,326.029211 197.201542,325.485844 C203.729329,324.624603 209.50365,323.055766 211.688988,325.187858 C214.159482,327.599011 213.769758,332.407524 212.969141,334.17427 C208.10225,334.913942 202.620782,334.35165 197.907856,333.972191" id="Fill-29" fill="#FEFEFE"></path>
                <path d="M212.889304,326.976865 C213.295065,329.360432 212.731169,331.696848 211.740983,333.000417 C211.153672,333.77409 202.843422,334.252343 202.216336,334.313929 C205.782866,334.56765 209.52806,334.696916 212.969173,334.174077 C213.601391,332.779092 214.692296,327.879163 212.889304,326.976865" id="Fill-31" fill="#E1DEDA"></path>
                <path d="M172.726015,324.457455 C172.726015,324.457455 173.283176,321.391311 178.56513,320.427106 C183.847406,319.462902 185.777419,320.220857 185.777419,320.220857 L185.719361,323.565743 C190.654574,323.19334 195.680563,322.823183 197.65035,322.558877 C204.193212,321.680957 209.197068,322.42095 211.3885,324.607892 C213.866371,327.080631 214.260906,329.664352 213.459647,331.475043 C208.582171,332.22947 203.087552,331.649857 198.363399,331.257888 C192.327338,330.757182 186.285503,329.96715 180.328669,328.930454 C178.139161,328.549711 175.579817,328.027835 173.409876,327.568507 C173.330006,326.706945 173.242118,325.878743 173.387423,325.322224 L172.726015,324.457455 Z" id="Fill-33" fill="#2A3242"></path>
                <path d="M203.072284,327.423234 C205.392983,326.221667 208.874191,324.827965 211.76488,324.832135 C214.013087,327.288194 214.352451,329.81033 213.565627,331.601775 C209.308821,332.264786 204.234398,332.608961 199.93461,332.244257 C199.948082,331.238033 200.915815,328.539158 203.072284,327.423234" id="Fill-35" fill="#FEFEFE"></path>
                <path d="M211.764752,324.832103 C211.62073,324.831782 211.474785,324.836273 211.327556,324.84365 C213.17802,327.087687 213.238644,329.479595 212.419423,331.751858 C212.804335,331.708556 213.187643,331.660763 213.565498,331.601743 C214.352322,329.810619 214.013279,327.288162 211.764752,324.832103" id="Fill-37" fill="#E1DEDA"></path>
                <path d="M198.405611,325.88426 C200.234264,324.05272 201.964443,322.918192 203.381561,322.20803 C204.356351,322.232087 205.269234,322.305541 206.111549,322.429033 C204.813113,322.790209 202.189617,323.825943 199.306626,326.713104 L198.405611,325.88426 Z" id="Fill-39" fill="#FEFEFE"></path>
                <path d="M193.818487,325.549419 C195.137452,324.228529 196.404775,323.272344 197.542189,322.572445 C197.576832,322.567955 197.617568,322.563143 197.650286,322.558973 C198.83389,322.400197 199.96521,322.295629 201.041039,322.241742 C199.634186,322.711334 197.277242,323.817315 194.719822,326.378583 L193.818487,325.549419 Z" id="Fill-41" fill="#FEFEFE"></path>
                <path d="M189.578425,325.560068 C190.6318,324.504768 191.652459,323.683943 192.600946,323.037611 C193.660416,322.951968 194.629753,322.869533 195.465653,322.79223 C194.103386,323.42958 192.347225,324.51856 190.479439,326.388912 L189.578425,325.560068 Z" id="Fill-43" fill="#FEFEFE"></path>
                <path d="M185.744028,325.05949 C186.366623,324.435932 186.976387,323.900263 187.56819,323.42618 C188.359505,323.366519 189.140555,323.307499 189.903002,323.2488 C188.901589,323.886791 187.795608,324.736485 186.645363,325.888334 L185.744028,325.05949 Z" id="Fill-45" fill="#FEFEFE"></path>
                <path d="M182.18465,324.211882 C183.458067,323.200846 184.660917,322.4554 185.747973,321.904334 L185.723916,323.295791 C184.868128,323.769874 183.947868,324.366488 182.978852,325.13567 L182.18465,324.211882 Z" id="Fill-47" fill="#FEFEFE"></path>
                <path d="M184.629836,322.464926 C184.892859,322.197733 191.814218,319.143778 192.891972,319.026059 C193.969404,318.90866 194.286957,322.246168 194.370996,322.99418 C194.455356,323.742193 185.349942,323.33162 185.349942,323.33162 L184.562155,322.466851 L186.009424,322.706779 C186.009424,322.706779 192.559023,322.671175 192.545551,322.152185 C192.532079,321.633196 192.581476,320.939392 191.951503,320.957354 C191.321851,320.975317 185.96131,322.599966 185.96131,322.599966 L184.629836,322.464926 Z" id="Fill-49" fill="#FEFEFE"></path>
                <path d="M186.623616,322.885603 C186.417367,323.203797 180.089735,327.699248 179.023208,328.05016 C177.95636,328.40075 176.873795,325.217208 176.618149,324.506083 C176.362183,323.795599 185.695015,322.198535 185.695015,322.198535 L186.691617,322.868603 L185.168648,322.952321 C185.168648,322.952321 178.53052,324.423647 178.662353,324.926599 C178.794185,325.429871 178.902281,326.116619 179.537065,325.96105 C180.17217,325.805481 185.241461,323.045983 185.241461,323.045983 L186.623616,322.885603 Z" id="Fill-51" fill="#FEFEFE"></path>
                <path d="M190.573294,316.881072 C190.573294,316.881072 188.632054,318.76682 187.476677,320.248732 C186.320979,321.730643 186.163806,322.578732 186.163806,322.578732 L185.163677,323.136213 C185.163677,323.136213 185.827008,320.772533 186.569888,319.054542 C187.470903,316.969602 188.63462,315.792734 188.869417,315.633637 C189.103892,315.474219 190.646748,316.650125 190.573294,316.881072" id="Fill-53" fill="#FEFEFE"></path>
                <path d="M141.293717,334.137575 C147.304118,333.528773 153.314519,332.637701 159.234786,331.507985 C161.410822,331.0926 163.953166,330.532553 166.10771,330.041149 C166.207467,328.689467 165.751346,324.744439 164.922181,324.544285 C162.930262,324.063787 145.957568,326.096764 141.824896,325.638398 C135.280751,324.912197 129.474995,323.462682 127.334563,325.63936 C124.914109,328.100872 125.402947,332.900724 126.23981,334.65047 C131.120814,335.289103 136.589451,334.613904 141.293717,334.137575" id="Fill-55" fill="#FEFEFE"></path>
                <path d="M126.171327,327.45268 C125.814963,329.843946 126.436275,332.160795 127.443461,333.451534 C128.055151,334.235471 136.36508,334.519344 136.993128,334.568099 C133.433013,334.895274 129.691347,335.102164 126.23997,334.650214 C125.578884,333.26838 124.38726,328.392186 126.171327,327.45268" id="Fill-57" fill="#E1DEDA"></path>
                <path d="M166.274153,324.105678 C166.274153,324.105678 165.653803,321.051722 160.352923,320.196255 C155.052364,319.341109 153.138069,320.13916 153.138069,320.13916 L153.26509,323.482121 C148.323461,323.211399 143.291058,322.945168 141.315818,322.721599 C134.756597,321.978398 129.768458,322.821676 127.622895,325.053203 C125.196666,327.576301 124.855057,330.168042 125.693844,331.961411 C130.585755,332.615441 136.067222,331.922599 140.782394,331.43344 C146.806908,330.808279 152.831102,329.893792 158.765482,328.734565 C160.94665,328.308596 163.494447,327.734115 165.654444,327.230201 C165.716672,326.366715 165.787239,325.536909 165.630708,324.983919 L166.274153,324.105678 Z" id="Fill-59" fill="#2A3242"></path>
                <path d="M135.995532,327.696362 C133.650135,326.542909 130.141342,325.221377 127.251294,325.284888 C125.054088,327.786816 124.766687,330.315688 125.59072,332.090453 C129.860035,332.665575 134.642887,333.086412 138.934335,332.632858 C138.900335,331.626954 138.174134,328.768021 135.995532,327.696362" id="Fill-61" fill="#FEFEFE"></path>
                <path d="M127.25139,325.285048 C127.395412,325.281841 127.541357,325.283444 127.688907,325.287935 C125.884632,327.569501 125.873726,329.96205 126.739457,332.216992 C126.353583,332.181709 125.969954,332.141614 125.590495,332.090613 C124.766783,330.315848 125.053864,327.786976 127.25139,325.285048" id="Fill-63" fill="#E1DEDA"></path>
                <path d="M140.629327,326.061576 C138.763466,324.267886 137.010192,323.169283 135.57864,322.488631 C134.604813,322.532895 133.693534,322.624954 132.853784,322.766088 C134.159598,323.100641 136.803623,324.081845 139.745634,326.909024 L140.629327,326.061576 Z" id="Fill-65" fill="#FEFEFE"></path>
                <path d="M145.208625,325.632431 C143.862716,324.338806 142.575827,323.409244 141.424299,322.732761 C141.389657,322.728912 141.34892,322.725384 141.315882,322.721534 C140.129391,322.587136 138.995825,322.506304 137.919354,322.474228 C139.33551,322.914632 141.714587,323.971536 144.324611,326.479879 L145.208625,325.632431 Z" id="Fill-67" fill="#FEFEFE"></path>
                <path d="M149.448046,325.555353 C148.372858,324.521864 147.335841,323.72253 146.373882,323.095765 C145.313129,323.031934 144.342188,322.969706 143.504684,322.909404 C144.879782,323.518527 146.658396,324.571261 148.564352,326.402801 L149.448046,325.555353 Z" id="Fill-69" fill="#FEFEFE"></path>
                <path d="M153.271152,324.975868 C152.636047,324.365461 152.015377,323.842302 151.413631,323.380408 C150.621354,323.337426 149.839341,323.294123 149.075932,323.251462 C150.090175,323.868604 151.213477,324.695524 152.387458,325.823316 L153.271152,324.975868 Z" id="Fill-71" fill="#FEFEFE"></path>
                <path d="M156.812375,324.054934 C155.518429,323.070521 154.300824,322.350094 153.2019,321.821482 L153.254825,323.211976 C154.119915,323.668739 155.053006,324.246107 156.037418,324.995402 L156.812375,324.054934 Z" id="Fill-73" fill="#FEFEFE"></path>
                <path d="M154.331809,322.359044 C154.063012,322.097303 147.080388,319.186086 146.000389,319.091141 C144.920711,318.996196 144.672122,322.339156 144.603479,323.088773 C144.534837,323.838389 153.629666,323.240171 153.629666,323.240171 L154.399169,322.359364 L152.957673,322.629444 C152.957673,322.629444 146.408396,322.728559 146.411283,322.209569 C146.413849,321.690259 146.350338,320.997738 146.980311,321.00255 C147.610604,321.007682 153.003221,322.521348 153.003221,322.521348 L154.331809,322.359044 Z" id="Fill-75" fill="#FEFEFE"></path>
                <path d="M152.347107,322.820457 C152.559771,323.134481 158.97882,327.498421 160.052403,327.8272 C161.125987,328.155979 162.143117,324.950624 162.384008,324.234367 C162.625219,323.518751 153.261273,322.114785 153.261273,322.114785 L152.278785,322.80506 L153.803036,322.857344 C153.803036,322.857344 160.470033,324.191385 160.348465,324.697224 C160.226897,325.202741 160.133235,325.891734 159.495243,325.749316 C158.857252,325.606899 153.732148,322.952289 153.732148,322.952289 L152.347107,322.820457 Z" id="Fill-77" fill="#FEFEFE"></path>
                <path d="M148.274321,316.898907 C148.274321,316.898907 150.254052,318.744239 151.439901,320.201772 C152.625751,321.659626 152.800244,322.504508 152.800244,322.504508 L153.812242,323.040819 C153.812242,323.040819 153.099834,320.691573 152.32167,318.989299 C151.377995,316.923605 150.190541,315.770794 149.952216,315.616508 C149.714533,315.462223 148.196055,316.669563 148.274321,316.898907" id="Fill-79" fill="#FEFEFE"></path>
                <path d="M173.899099,122.489869 C173.899099,122.489869 191.382443,131.668737 204.931986,150.900223 C218.48153,170.132029 211.051125,179.310897 203.62072,178.436506 C196.190314,177.562114 195.782308,177.974611 195.782308,177.974611 L191.896942,174.089245 C191.896942,174.089245 201.265379,170.339561 198.890472,162.239088 C195.423057,150.411705 174.218255,138.538133 174.218255,138.538133 C174.218255,138.538133 169.965298,119.867335 173.899099,122.489869" id="Fill-81" fill="#F3A375"></path>
                <path d="M182.183399,149.028684 C184.49672,146.633569 189.574672,140.183407 191.783104,137.693988 C192.218055,137.203226 192.644345,136.704444 193.062937,136.199247 C193.090522,136.161397 193.122598,136.117453 193.155957,136.071905 C183.726255,127.315478 173.426972,122.017806 173.426972,122.017806 C168.376285,119.880582 171.498563,138.343848 171.498563,138.343848 C171.498563,138.343848 177.328697,145.483003 182.183399,149.028684" id="Fill-83" fill="#F5ACC4"></path>
                <path d="M173.517876,126.264893 C180.566576,128.755915 187.023154,132.050762 193.095462,136.154886 C193.115349,136.127942 193.134274,136.10164 193.156085,136.07213 C183.726062,127.315382 173.427101,122.01771 173.427101,122.01771 C171.737658,121.303057 170.963343,122.894347 170.680112,125.326991 C171.636618,125.621769 172.583823,125.934831 173.517876,126.264893" id="Fill-85" fill="#F38FB0"></path>
                <path d="M134.004896,169.03827 C124.034071,167.236561 129.915847,149.831162 131.479232,145.726075 C133.042616,141.620989 135.872681,137.350711 135.872681,137.350711 C135.872681,137.350711 136.747073,122.489901 134.966213,122.643545 C133.422075,122.2195 126.039784,130.573053 122.931619,138.538165 C118.4413,150.044146 115.057282,171.991507 125.068522,177.585882 C138.278702,184.968494 167.807546,167.678568 167.807546,167.678568 L165.476262,163.016001 C165.476262,163.016001 147.82901,171.536349 134.004896,169.03827" id="Fill-87" fill="#F3A375"></path>
                <path d="M123.378759,148.735798 C125.48519,149.566246 131.05647,152.301687 133.227694,152.914018 C133.846761,150.657471 135.857605,146.916768 136.336179,145.920488 C138.667142,141.063861 137.890262,137.955376 137.890262,137.955376 C137.890262,137.955376 136.747073,122.489933 134.966213,122.643577 C133.422075,122.219532 126.931817,128.650449 122.931299,136.206913 C121.182836,139.509458 119.240634,144.172025 118.269052,146.697689 C119.286182,147.218924 122.333402,148.269413 123.378759,148.735798" id="Fill-89" fill="#F5ACC4"></path>
                <path d="M122.917378,144.783618 C122.158459,144.990829 121.472995,145.32442 120.859381,145.781823 C121.486467,145.369326 122.177064,145.031566 122.917378,144.783618" id="Fill-91" fill="#F38FB0"></path>
                <path d="M120.381032,146.122406 C120.452562,146.013027 120.525374,145.90461 120.594017,145.793307 C121.128724,144.925651 121.628788,144.038429 122.124363,143.147999 C125.464757,137.147863 130.793864,132.024042 136.83185,128.391436 C136.34654,125.257931 135.712397,122.579264 134.96631,122.643416 C133.42185,122.219372 126.931913,128.65061 122.931395,136.206753 C121.182932,139.509618 119.24041,144.171865 118.269148,146.697208 C118.508115,146.820059 118.862234,146.97242 119.273127,147.138895 C119.609284,146.771304 119.977837,146.429053 120.381032,146.122406" id="Fill-93" fill="#F38FB0"></path>
                <path d="M183.835762,183.150779 C180.164023,184.316742 176.456679,182.961531 175.555664,180.124088 C174.654328,177.286645 176.90061,174.040875 180.57235,172.874912 C184.24409,171.708629 187.951434,173.06384 188.852769,175.901283 C189.753784,178.739046 187.507502,181.984496 183.835762,183.150779 M233.24531,155.391247 C226.897791,143.317521 205.758425,141.938253 186.028798,152.310348 C176.367187,157.389582 168.213788,163.9982 164.409575,171.539588 C159.134035,181.997647 177.044952,177.975317 170.476429,188.227768 C165.01934,196.745229 170.996381,201.920371 178.800472,202.772309 C187.649599,203.738759 198.531381,201.545082 209.015101,196.033463 C228.744727,185.661368 239.59283,167.465295 233.24531,155.391247" id="Fill-95" fill="#F8D584"></path>
                <path d="M204.833962,168.104826 C204.872133,168.0179 204.909662,167.930333 204.947832,167.843407 C191.38225,163.932701 153.706744,153.290526 147.866988,154.007745 C141.648735,154.771475 182.250214,168.540418 204.281293,169.369262 C204.46573,168.947463 204.649846,168.525663 204.833962,168.104826" id="Fill-97" fill="#F8D584"></path>
                <path d="M190.352771,163.715963 C189.853348,164.952493 189.362264,166.192872 188.886577,167.438062 C194.424499,168.479249 199.746548,169.198714 204.281453,169.369358 C204.465569,168.947559 204.649686,168.525439 204.833802,168.104602 C204.872293,168.017676 204.909822,167.930429 204.947992,167.843182 C201.399104,166.820279 196.199584,165.336443 190.352771,163.715963" id="Fill-99" fill="#B2C6CF"></path>
                <path d="M163.41801,164.11284 C163.41801,164.11284 168.821532,159.841279 175.658532,159.006662 C182.495852,158.172044 190.619098,163.610209 191.657398,164.185652 C192.695698,164.761096 190.966802,166.99551 188.025433,166.96183 C185.083743,166.927509 182.464096,165.75064 182.464096,165.75064 C182.464096,165.75064 184.171822,168.569158 181.905012,169.514759 C179.638201,170.460359 178.420596,169.455097 178.420596,169.455097 C178.420596,169.455097 180.760861,172.513544 178.7683,172.840719 C176.776059,173.167574 175.199524,171.302996 175.199524,171.302996 C175.199524,171.302996 178.62075,175.676558 175.589568,175.427649 C172.558386,175.17906 162.679941,167.44714 162.679941,167.44714 C162.679941,167.44714 162.100327,165.418975 163.41801,164.11284" id="Fill-101" fill="#F3A375"></path>
                <path d="M202.878385,169.433895 L203.12954,167.453523 C203.12954,167.453523 204.42958,165.272034 210.254261,165.638022 C216.078941,166.004329 219.202502,161.776071 219.202502,161.776071 C219.202502,161.776071 216.335229,180.029881 202.878385,169.433895" id="Fill-103" fill="#D17134"></path>
                <path d="M184.563438,182.685613 C184.563438,182.685613 187.088782,182.491553 188.448483,179.577449 C189.775788,176.73327 188.707016,175.561213 188.707016,175.561213 C188.707016,175.561213 175.043603,179.867095 177.180826,187.34818 C178.346468,191.427927 184.563438,182.685613 184.563438,182.685613" id="Fill-105" fill="#F3A375"></path>
                <g id="Group-109" transform="translate(198.229674, 86.175379)">
                    <mask id="mask-2" fill="white">
                        <use xlink:href="#path-1"></use>
                    </mask>
                    <g id="Clip-108"></g>
                    <path d="M0.138664544,3.20525836 C0.138664544,3.20525836 15.4687468,17.6683263 19.9394995,30.6411434 C24.4105731,43.6139605 28.3940914,40.4464556 28.3940914,40.4464556 C28.3940914,40.4464556 43.5666805,37.0101538 41.0050912,23.8006159 C38.4441434,10.5894741 12.137975,-7.06611807 0.138664544,3.20525836" id="Fill-107" fill="#B25627" mask="url(#mask-2)"></path>
                </g>
                <path d="M227.331009,117.397002 C228.320554,105.398333 211.909831,84.9280718 198.164303,85.6064792 C199.802425,88.0426514 201.005275,90.8076025 201.88127,93.625479 C203.827642,99.8844687 204.969547,106.47737 205.579954,112.984948 C205.938563,116.8052 206.073283,120.643093 205.950752,124.460458 C207.536269,131.41261 210.667528,130.084663 210.667528,130.084663 C210.667528,130.084663 226.227274,130.793222 227.331009,117.397002" id="Fill-110" fill="#B25627"></path>
                <path d="M208.824024,93.5320416 C205.897089,96.489128 201.78238,97.1617617 199.633288,95.0348022 C197.483875,92.9075219 198.114489,88.7860768 201.041424,85.8289904 C203.968039,82.8722248 208.082748,82.1992704 210.23216,84.3262299 C212.381252,86.4535101 211.750638,90.5749553 208.824024,93.5320416" id="Fill-112" fill="#DA1A21"></path>
                <path d="M134.483213,112.784666 C149.336325,95.808764 135.532419,70.3327224 123.231594,59.3489381 C123.047799,62.8497126 122.272842,66.2706179 121.181296,69.4621798 C118.757313,76.5512964 117.535859,76.3966901 113.79676,82.5780559 C111.601799,86.2064929 104.120714,92.2425544 101.512294,95.4636262 C94.5011217,105.091879 105.478812,112.220128 105.478812,112.220128 C105.478812,112.220128 124.654165,124.018643 134.483213,112.784666" id="Fill-114" fill="#B25627"></path>
                <path d="M170.856883,104.656672 C170.033171,104.621067 163.126567,90.3049074 163.126567,90.3049074 L173.104769,84.2146375 L180.049864,99.1691098 C180.049864,99.1691098 177.588993,104.950809 170.856883,104.656672" id="Fill-116" fill="#DD7641"></path>
                <path d="M106.166425,35.9679725 C104.875687,40.1433053 102.276248,53.2771439 101.270986,57.1532076 C99.0558173,65.6947254 95.7292155,74.3459431 96.7861196,81.4876643 C98.8104359,95.1645496 105.951195,102.76175 122.664073,109.58207 C151.999178,121.553153 200.168989,105.185412 208.906491,76.9177967 C217.643031,48.647615 200.527599,17.3905161 170.675429,7.09572421 C140.824863,-3.19553933 114.904889,7.698753 106.166425,35.9679725" id="Fill-118" fill="#F3A375"></path>
                <path d="M104.239363,42.4455281 C102.558581,49.2571872 100.711965,56.18432 99.4343783,62.8128252 C98.1885465,69.276139 96.294138,73.9909901 97.153454,80.3972087 C98.6360067,91.4509187 105.02298,102.226851 122.83831,106.505147 C155.030745,114.236746 182.834542,99.0622325 190.497819,63.8639557 C196.761941,35.092426 199.963446,14.4438224 170.609416,4.35367536 C141.257311,-5.73101876 111.281328,13.9055871 104.239363,42.4455281" id="Fill-120" fill="#FBCBA7"></path>
                <path d="M106.953281,45.7521145 C110.972725,46.2512171 116.099752,46.8763783 120.134271,46.9238508 C124.437908,46.9742101 127.70549,46.1328566 131.979296,45.4846007 C141.200825,44.0864079 153.65786,41.9379575 161.328836,36.9087616 C169.576216,31.5013896 172.728646,23.2033287 179.786969,16.2822904 C181.356127,14.7436047 182.881341,13.164824 184.373196,11.5568542 C180.934007,8.76111009 176.426046,6.35316484 170.609384,4.35386781 C141.2576,-5.7308263 112.947323,14.3692778 104.239331,42.4453998 C103.978232,43.2880363 103.718737,44.1287482 103.462129,44.9675356 C104.60211,45.3315982 105.769677,45.6052064 106.953281,45.7521145" id="Fill-122" fill="#F3A375"></path>
                <g id="Group-126" transform="translate(0.000000, 345.670212)">
                    <mask id="mask-4" fill="white">
                        <use xlink:href="#path-3"></use>
                    </mask>
                    <g id="Clip-125"></g>
                    <path d="" id="Fill-124" fill="#CA6729" mask="url(#mask-4)"></path>
                </g>
                <path d="M181.945652,77.8837013 C181.963935,77.8278891 181.415436,77.0506876 181.435964,76.9945546 C195.731596,38.279786 163.571557,19.4255137 163.571557,19.4255137 C177.343708,1.39880224 187.141322,13.4866425 187.141322,13.4866425 C187.141322,13.4866425 212.646232,12.6622893 215.68415,48.3154038 C218.881165,85.8423982 189.561136,102.184478 189.561136,102.184478 C189.561136,102.184478 191.918401,92.3531845 190.002181,85.1963876 C189.709647,84.1058036 188.751537,83.3616404 187.520781,82.7499511 C184.952777,80.2791369 184.732415,80.0716052 181.945652,77.8837013" id="Fill-127" fill="#CA7035"></path>
                <path d="M186.764878,90.8254688 C190.210803,88.1926708 196.955423,84.5619885 199.762715,80.9867976 C203.258678,76.5381773 205.503035,72.4286003 207.568409,66.9721521 C210.9412,58.0646471 210.8902,47.0285789 208.735975,37.7445017 C207.387821,31.9313684 204.405716,27.5395226 200.948564,22.8910688 C198.579752,19.7059221 195.511041,16.747232 192.258214,14.6112912 C191.877151,14.3630229 191.48839,14.1295097 191.098025,13.900487 C198.384409,15.3099064 214.401559,22.7576327 216.722578,49.5908097 C220.711229,95.7071151 182.401259,106.866034 182.401259,106.866034 C182.401259,106.866034 183.641638,100.200321 186.764878,90.8254688" id="Fill-129" fill="#B25627"></path>
                <path d="M179.710981,87.6167783 C179.567601,91.6618826 183.718557,92.4198384 187.285728,91.6743922 C190.851617,90.9321536 195.276822,86.7128767 195.420202,82.6648856 C195.560053,78.6207436 192.783234,75.9475299 189.216062,76.691693 C185.650494,77.4368185 179.851153,83.5735986 179.710981,87.6167783" id="Fill-131" fill="#FBCBA7"></path>
                <path d="M189.610693,86.9556599 C189.127308,84.2510117 186.669965,82.1131463 183.187474,85.6395817 C188.962437,77.544241 196.684092,79.7225221 189.610693,86.9556599" id="Fill-133" fill="#F3A375"></path>
                <path d="M172.781122,2.57089133 C164.698612,-0.206248674 156.427174,-0.625481982 148.535837,0.799975417 C145.351652,1.15762281 141.864991,1.87355911 138.065589,3.02797431 C121.626639,8.02316965 108.270835,19.7187204 102.38521,41.9255761 C102.052902,43.1787854 110.462909,34.6330977 119.007955,34.2661483 C128.348486,33.8655191 136.524337,35.2605043 148.63014,33.0498264 C160.868737,30.8147708 166.232486,29.8293961 171.517969,21.5486562 C176.563845,22.8881499 181.254639,25.017034 185.384424,28.1980108 C191.016327,32.5362897 189.436905,34.921461 193.061493,41.0412408 C193.533973,39.5432917 190.613453,63.2256433 191.012158,61.6558439 C198.26005,33.115903 202.135793,12.6607176 172.781122,2.57089133" id="Fill-135" fill="#CA7035"></path>
                <path d="M138.592309,13.1597239 C138.546761,13.1613277 138.505383,13.1626108 138.467854,13.1638938 C138.443156,13.1654976 138.41974,13.1671014 138.391834,13.169026 C134.847115,13.401577 131.318755,13.9510388 127.893039,14.8995261 C127.50107,15.007943 127.110064,15.1198882 126.720019,15.2353618 C126.519544,15.3027214 126.064386,15.4512333 125.941535,15.4942151 C125.089917,15.7928427 124.242148,16.1023761 123.406569,16.4430232 C121.548727,17.2006583 119.71847,18.0275775 117.984121,19.0408584 C117.811552,19.141577 116.118902,20.2167645 116.77229,19.7705873 C116.34183,20.0608751 115.911691,20.3518044 115.491816,20.6571679 C114.576688,21.3221034 113.673107,22.0037184 112.804168,22.7289567 C111.210632,24.0585069 109.698249,25.4695301 108.256433,26.9607433 C107.476344,28.3797855 106.737955,29.8613759 106.048,31.414175 C107.284209,29.9001878 108.654817,28.4955798 110.087652,27.2141437 C118.0765,20.0692149 128.225346,15.3675149 138.787972,13.1558748 C138.722858,13.1577994 138.657423,13.1574786 138.592309,13.1597239" id="Fill-137" fill="#B25627"></path>
                <path d="M185.875603,10.862088 C187.073963,11.8275756 188.207208,12.8443848 189.29298,13.8984021 C189.697138,13.8441937 190.10739,13.8291179 190.518283,13.862477 C190.554529,13.8653638 190.590134,13.8730621 190.62638,13.8765904 C186.974527,9.27849595 181.272056,5.48935818 172.781218,2.57076302 C164.698708,-0.206376978 156.426949,-0.625289526 148.535933,0.799847113 C147.054984,0.966321549 145.501864,1.21811814 143.888441,1.54818017 C143.875932,1.59404885 143.862139,1.63959677 143.848346,1.68482393 C146.435276,0.90954703 149.109772,0.694637836 151.808005,0.93007567 C157.485778,0.483257002 163.140777,1.67776721 168.639244,3.11862109 C174.821252,4.73910056 180.830369,6.7983797 185.875603,10.862088" id="Fill-139" fill="#B25627"></path>
                <path d="M150.544371,53.0847841 C150.952699,53.304184 154.969576,52.3707724 159.853147,53.8732122 C164.736397,55.375652 166.163779,56.5451429 166.163779,56.5451429 C166.163779,56.5451429 166.964075,55.2281024 166.457916,54.4191457 C165.952078,53.6098682 162.551059,49.9031658 157.5796,49.2491362 C152.972845,48.6428998 150.651185,49.0521895 150.651185,49.0521895 C150.651185,49.0521895 150.078628,52.8349121 150.544371,53.0847841" id="Fill-141" fill="#CA7035"></path>
                <path d="M109.99925,46.4711622 C111.892055,45.5281278 115.653607,44.3672974 120.157077,45.3292566 C121.693518,45.6573941 125.68281,46.6106928 126.732657,46.9330566 C126.701864,48.3687783 126.207894,50.1416188 125.609997,51.5840764 C123.835553,50.9528208 119.200892,49.0888845 116.362166,48.9487124 C112.833485,48.7745397 110.719677,48.95192 109.600545,49.1187152 C109.726604,48.2347006 109.850738,47.349403 109.99925,46.4711622" id="Fill-143" fill="#CA7035"></path>
                <path d="M140.57576,71.2110274 C140.137281,71.3213689 142.510905,63.4322769 148.650893,61.6247944 C155.966787,59.4712118 161.706787,62.5938103 164.064694,67.4584563 C165.923819,71.2950666 166.132633,72.2987246 166.132633,72.2987246 L170.367628,72.7885251 L159.944532,77.5829247 C159.944532,77.5829247 143.349693,70.5136952 140.57576,71.2110274" id="Fill-145" fill="#B25627"></path>
                <path d="M123.81573,66.6755774 C124.159585,66.9062038 125.698912,59.921655 120.723283,55.5429604 C114.769978,50.3033459 107.596501,52.7189894 105.420145,55.7803228 C103.652116,58.2674958 102.746289,59.4642513 102.746289,59.4642513 L98.9433589,58.773655 L106.282989,66.5799909 C106.282989,66.5799909 122.736373,65.9525844 123.81573,66.6755774" id="Fill-147" fill="#B25627"></path>
                <path d="M140.170737,73.7247914 C139.725201,78.9329714 144.21103,82.8135258 152.295785,83.350478 C159.369184,83.8200706 164.367267,78.3511128 163.92141,72.5469607 C163.478441,66.7392803 156.852822,62.402926 150.767685,63.4402638 C145.350369,64.3637318 140.628782,68.3700241 140.170737,73.7247914" id="Fill-149" fill="#FEFEFE"></path>
                <path d="M142.770657,80.0247101 C140.485242,75.911284 142.022324,71.6849503 143.211381,70.1530006 C145.035864,67.6215628 148.005139,66.0475935 151.253155,66.2336343 C156.365428,66.5261674 160.226736,71.0636382 159.87807,76.368367 C159.70069,79.0704491 158.355423,81.2654097 156.50977,82.91155 C155.54749,83.2858769 153.694459,83.5418434 152.607403,83.4462569 C145.92469,82.8579831 143.03785,80.5058501 142.770657,80.0247101" id="Fill-151" fill="#552D00"></path>
                <path d="M104.35025,61.5891579 C102.416067,67.7682784 106.207129,72.3407121 111.957394,73.7260745 C119.103605,75.4479141 123.026179,73.1730842 123.84091,67.4244237 C124.657244,61.6744801 121.295679,55.7436279 115.989026,54.7476681 C110.678524,53.7555574 106.006654,56.2972596 104.35025,61.5891579" id="Fill-153" fill="#FEFEFE"></path>
                <path d="M114.788742,78.9297638 C114.368546,80.2820879 111.89677,80.7949831 109.267821,80.0751977 C106.638872,79.3557331 104.730671,78.4960963 105.267944,76.3235889 C105.845312,73.9907015 108.160237,74.4583695 110.789186,75.1778342 C113.418455,75.8976196 115.208938,77.5774397 114.788742,78.9297638" id="Fill-155" fill="#FAB88C"></path>
                <path d="M112.105809,78.2871532 C111.890579,78.9254656 111.221474,79.2930566 110.61203,79.1082988 C110.001944,78.923541 109.682147,78.2563603 109.897377,77.6183686 C110.112927,76.9800563 110.781712,76.6124653 111.391477,76.7972231 C112.001242,76.9819808 112.321039,77.6488408 112.105809,78.2871532" id="Fill-157" fill="#F3A375"></path>
                <path d="M116.066457,77.5677848 C115.937191,77.9507722 116.129006,78.3507599 116.494672,78.4617429 C116.860659,78.5724051 117.26193,78.352043 117.391196,77.9690555 C117.520142,77.5863889 117.328327,77.1860804 116.962661,77.0750974 C116.596674,76.9644353 116.195403,77.1851181 116.066457,77.5677848" id="Fill-159" fill="#F3A375"></path>
                <path d="M105.512363,73.8973924 C105.337549,74.4157405 105.597365,74.9575041 106.092618,75.1076198 C106.587871,75.2577355 107.131239,74.9591079 107.306053,74.4407598 C107.480867,73.9224116 107.221052,73.380648 106.725798,73.2305323 C106.230545,73.0804167 105.687498,73.3790442 105.512363,73.8973924" id="Fill-161" fill="#F3A375"></path>
                <path d="M100.455069,75.8979083 C100.31201,76.321953 100.524353,76.7652433 100.929473,76.8880944 C101.334913,77.0109454 101.779166,76.7665263 101.922225,76.3424816 C102.065605,75.9181162 101.85262,75.4751466 101.447821,75.3522955 C101.04238,75.2294445 100.597807,75.4738636 100.455069,75.8979083" id="Fill-163" fill="#F3A375"></path>
                <path d="M143.585387,84.9941484 C143.224532,86.4430213 145.177319,88.2132957 147.946761,88.9478361 C150.716203,89.6823764 152.911163,89.9094745 153.615231,87.654211 C154.371263,85.2327938 152.02362,84.4353845 149.253858,83.7008441 C146.484095,82.9663037 143.946563,83.5452755 143.585387,84.9941484" id="Fill-165" fill="#FAB88C"></path>
                <path d="M149.939835,88.2333752 C149.897816,88.963425 150.422579,89.5824918 151.111571,89.6161716 C151.800564,89.6498514 152.392687,89.0856345 152.434386,88.3555848 C152.476084,87.6255351 151.951321,87.0064683 151.262329,86.9727885 C150.573657,86.9391087 149.981534,87.5036463 149.939835,88.2333752" id="Fill-167" fill="#F3A375"></path>
                <path d="M155.655874,86.4727878 C155.637591,86.7925855 155.867255,87.0639485 156.169411,87.0787034 C156.470926,87.0934584 156.730741,86.8461524 156.748704,86.5263547 C156.766987,86.206557 156.537002,85.9355148 156.235488,85.9204391 C155.933332,85.9056841 155.674158,86.1529901 155.655874,86.4727878" id="Fill-169" fill="#F3A375"></path>
                <path d="M147.099024,86.1042667 C147.065665,86.6880498 147.485219,87.1833033 148.036606,87.2102471 C148.587671,87.2375117 149.061434,86.7858816 149.094793,86.2020985 C149.128152,85.6179945 148.708277,85.1227411 148.157211,85.0957972 C147.606146,85.0685326 147.132383,85.5201627 147.099024,86.1042667" id="Fill-171" fill="#F3A375"></path>
                <path d="M141.918943,84.2544117 C141.89649,84.6505503 142.181325,84.9867068 142.55501,85.0049901 C142.929016,85.0232734 143.250738,84.7169476 143.273512,84.320809 C143.295965,83.9243497 143.011131,83.5881932 142.637124,83.5702307 C142.263118,83.5519473 141.941717,83.8582731 141.918943,84.2544117" id="Fill-173" fill="#F3A375"></path>
                <path d="M184.251435,18.202937 C183.925864,18.4932248 183.601255,18.7873617 183.276966,19.0840647 C180.6153,20.8742262 175.703502,26.8467773 174.272592,31.2110377 C173.683676,33.0066521 173.40237,28.3732741 172.252125,29.8975255 C171.71421,28.9214529 171.260655,28.6035797 170.710231,27.7327164 C174.328404,23.7767834 178.799157,20.0627035 183.559235,17.6813813 C184.341248,17.2900541 185.145393,16.9243877 185.961407,16.5747593 C185.389171,17.1299949 184.825916,17.6903626 184.251435,18.202937" id="Fill-175" fill="#FBCBA7"></path>
                <path d="M173.908176,18.4871945 C165.862554,27.7767246 149.758157,35.2661497 139.814918,36.1629946 C133.681345,36.7163056 124.952504,37.116614 119.019406,37.115331 C113.267217,37.1143687 107.672521,39.4363503 101.996673,44.1043704 C101.068073,44.8681 100.165454,46.8824727 99.9569605,47.2154216 C105.457032,42.692385 111.712173,41.9604107 117.335416,41.8561637 C123.40644,41.7435769 129.112761,42.6176479 135.307919,42.1612064 C145.286121,41.425383 161.361008,39.6384291 169.072719,30.3428046 C169.877827,29.3728263 175.094026,22.3456165 175.153367,21.776909 L173.908176,18.4871945 Z" id="Fill-177" fill="#CA7035"></path>
                <path d="M111.550125,73.8234572 C108.942025,73.1950884 106.695743,71.6150247 105.300758,69.7863719 C104.957224,68.5411817 104.865486,67.1971973 105.081037,65.8253068 C105.869144,60.8082998 110.44222,57.3309407 115.295318,58.0584244 C120.148417,58.7855873 123.443264,63.4427016 122.655156,68.4597086 C122.557966,69.0781339 122.340812,70.2630213 122.135204,70.8298042 C120.578235,74.2968989 117.149311,75.1725737 111.550125,73.8234572" id="Fill-179" fill="#552D00"></path>
                <path d="M118.929176,75.5920316 C118.919874,76.7320126 120.637223,77.7420858 122.765786,77.8482573 C124.894029,77.9541081 126.627095,77.116283 126.636397,75.9766228 C126.646341,74.8366418 124.92835,73.8265686 122.799787,73.7207178 C120.671865,73.6142254 118.938478,74.4523713 118.929176,75.5920316" id="Fill-181" fill="#FBCBA7"></path>
                <path d="M127.385757,73.1028378 C126.324683,73.05312 123.796132,73.0171949 122.418788,73.0245724 C120.108675,73.0181572 117.62054,73.6731491 117.891261,76.1814922 C117.981395,76.9705618 118.797087,77.8824824 119.855916,78.7427607 C121.71472,80.0033475 125.247891,81.5827697 126.034395,81.1917632 C124.811658,79.449395 123.389087,79.2999208 121.991536,77.9604271 C121.224599,77.3336621 120.298885,76.2023416 120.261036,75.8726003 C120.138505,74.7403175 121.634209,74.3781795 122.941948,74.2177995 C123.973191,74.0907786 126.593159,74.2694419 127.385757,73.1028378" id="Fill-183" fill="#F09661"></path>
                <path d="M120.704326,75.494296 C120.696628,76.1714203 121.700286,76.7677131 122.94708,76.8264122 C124.193874,76.8851113 125.211004,76.3837634 125.218702,75.7069599 C125.226721,75.0298355 124.222422,74.4335427 122.975948,74.3748436 C121.729154,74.3161445 120.712024,74.8171716 120.704326,75.494296" id="Fill-185" fill="#FDE1CE"></path>
                <path d="M135.209317,86.6837837 C133.921466,87.3419832 132.58935,87.9427667 131.480483,88.2956027 C127.536418,89.5513781 125.361986,89.0663889 121.128275,88.2529416 C124.182551,91.8816994 130.515316,92.0218715 135.095768,89.3727147 C135.310357,88.448926 134.986068,87.6053272 135.209317,86.6837837" id="Fill-187" fill="#F37D62"></path>
                <path d="M188.983575,191.578235 C192.064475,194.258826 195.638062,190.906884 197.335845,188.270879 C199.582127,184.782614 197.198239,184.306927 195.976464,181.665789 C195.35451,180.321163 195.617533,179.321033 193.4508,179.518621 C188.7831,179.945553 185.194117,188.280501 188.983575,191.578235" id="Fill-189" fill="#00B2CC"></path>
                <path d="M204.008871,189.346387 C207.128583,189.065401 208.264394,185.526135 208.402962,183.325722 C208.586437,180.414183 206.786974,181.426502 204.943566,180.753227 C204.005022,180.410655 203.799094,179.775229 202.405713,181.008872 C199.404362,183.66669 200.17194,189.691845 204.008871,189.346387" id="Fill-191" fill="#F7A68F"></path>
                <path d="M216.462121,161.27267 C220.2009,161.361842 222.132196,157.369984 222.660808,154.812564 C223.360386,151.427905 220.792381,151.225185 218.992918,151.336488 C217.816691,151.409301 216.223476,151.876007 214.369804,153.133706 C210.376342,155.843166 211.863065,161.162971 216.462121,161.27267" id="Fill-193" fill="#A9D058"></path>
                <path d="M218.336579,178.47721 C222.438457,177.783085 224.310413,173.242728 224.733495,170.482588 C225.293542,166.830094 222.833954,168.290835 220.502671,167.654126 C219.315859,167.329838 219.116988,166.560335 217.162276,168.252665 C212.952622,171.898743 213.291345,179.330752 218.336579,178.47721" id="Fill-195" fill="#90B4C2"></path>
                <g id="Group-199" transform="translate(0.320760, 81.684739)">
                    <mask id="mask-6" fill="white">
                        <use xlink:href="#path-5"></use>
                    </mask>
                    <g id="Clip-198"></g>
                    <path d="M-0.000128303996,24.8668862 C4.41352917,24.9756239 101.428671,0.121535961 101.428671,0.121535961 L124.408559,142.898223 L34.161773,149.415104 L-0.000128303996,24.8668862 Z" id="Fill-197" fill="#F1E8E5" mask="url(#mask-6)"></path>
                </g>
                <polygon id="Fill-200" fill="#E1D6D3" points="124.729479 224.582994 131.91739 224.584277 109.183525 82.4321101 101.749271 81.8063073"></polygon>
                <path d="M54.0889874,302.53675 C53.6681503,302.53675 53.2402565,302.475485 52.8165326,302.346539 C50.5067399,301.645037 49.203492,299.203091 49.9053149,296.893619 L69.1294234,233.638145 C69.8312463,231.328353 72.2751166,230.025105 74.5823433,230.727248 C76.8921359,231.42875 78.1953838,233.870696 77.4935609,236.180168 L58.2697732,299.435321 C57.6965751,301.321711 55.9631881,302.53675 54.0889874,302.53675" id="Fill-202" fill="#90B4C2"></path>
                <path d="M42.4520395,338.113555 C42.1996014,338.113555 41.9426726,338.076668 41.68831,337.999686 C40.3026268,337.578528 39.5202932,336.113617 39.9417718,334.727613 L59.1655596,271.472139 C59.5867175,270.086777 61.0516283,269.304764 62.4376323,269.725601 C63.8233154,270.146759 64.6053283,271.61199 64.1841704,272.997673 L44.9603826,336.252827 C44.6162072,337.384789 43.576624,338.113555 42.4520395,338.113555" id="Fill-204" fill="#90B4C2"></path>
                <path d="M94.6055932,307.620379 C92.5113512,307.620379 90.6140559,306.221544 90.110142,304.143982 L73.9755937,237.59751 C73.3869991,235.170319 74.9240809,232.736713 77.4090086,232.161912 C79.8932947,231.588713 82.3846376,233.088908 82.9735529,235.515778 L99.108422,302.06257 C99.6970166,304.48944 98.1596139,306.923046 95.675007,307.497848 C95.3167181,307.580604 94.9584292,307.620379 94.6055932,307.620379" id="Fill-206" fill="#90B4C2"></path>
                <path d="M103.862855,345.244531 C102.606438,345.244531 101.468061,344.405102 101.165905,343.158629 L85.0313566,276.612157 C84.6781998,275.155907 85.6003848,273.695808 87.091598,273.350991 C88.5818489,273.005532 90.0769112,273.906868 90.430068,275.363439 L106.564937,341.90991 C106.917773,343.366161 105.995588,344.825939 104.504696,345.171077 C104.289786,345.220795 104.074556,345.244531 103.862855,345.244531" id="Fill-208" fill="#90B4C2"></path>
                <path d="M110.959349,304.317866 C109.165659,304.317866 107.484235,303.20547 106.843998,301.42012 L85.5756863,242.066691 C84.7615974,239.794428 85.943598,237.291858 88.2161825,236.477449 C90.4890878,235.66336 92.9910157,236.84536 93.8054254,239.117624 L115.074058,298.471053 C115.888147,300.743637 114.706146,303.246207 112.433562,304.060616 C111.946327,304.23511 111.448508,304.317866 110.959349,304.317866" id="Fill-210" fill="#90B4C2"></path>
                <path d="M69.9631428,248.808842 C71.2327108,248.087132 72.6199978,247.716013 74.0024733,247.666936 L77.4936251,236.1802 C78.1954479,233.870728 76.8922001,231.428782 74.5820866,230.72728 C72.2751808,230.024816 69.8313104,231.328385 69.1291668,233.638177 L63.1062565,253.456975 C65.2591975,251.713324 67.5760469,250.165336 69.9631428,248.808842" id="Fill-212" fill="#5F8E9C"></path>
                <path d="M77.9915408,254.162775 C78.116958,254.049226 78.2420544,253.936639 78.3719622,253.829185 C80.2945976,252.238215 82.2768943,251.198632 84.8737672,251.198632 C85.534212,251.198632 86.1885624,251.271445 86.8268748,251.407768 L82.973585,235.515714 C82.3846697,233.088844 79.8933268,231.588649 77.4090407,232.161847 C74.924113,232.736649 73.3870311,235.170255 73.975305,237.597446 L77.9915408,254.162775 Z" id="Fill-214" fill="#5F8E9C"></path>
                <path d="M88.7614424,250.957068 C90.6189635,250.671271 92.542882,250.815292 94.3859689,251.482473 C96.1902438,252.13554 97.7359862,253.073121 99.1944819,254.156649 L93.805714,239.117816 C92.9913044,236.845553 90.4890557,235.663231 88.2161504,236.47732 C85.9435659,237.29173 84.7615653,239.794299 85.5756542,242.066563 L88.7614424,250.957068 Z" id="Fill-216" fill="#5F8E9C"></path>
                <path d="M123.290454,337.765852 C122.214625,337.765852 121.205514,337.098029 120.821564,336.027012 L99.5526104,276.673904 C99.0644137,275.310032 99.773614,273.808555 101.137165,273.320037 C102.500395,272.831841 104.001872,273.54072 104.49071,274.904271 L125.759343,334.257379 C126.248181,335.62093 125.53866,337.122728 124.17543,337.611245 C123.882897,337.716134 123.58427,337.765852 123.290454,337.765852" id="Fill-218" fill="#90B4C2"></path>
                <path d="M17.8321385,133.681377 C20.746243,133.681377 84.8549386,117.362713 84.8549386,117.362713 L103.818911,226.370109 L43.9387941,229.429518 L17.8321385,133.681377 Z" id="Fill-220" fill="#F8D584"></path>
                <path d="M43.5530802,186.052663 C49.693068,184.728566 56.1339286,184.162745 62.3929183,184.871945 C70.4712587,185.787394 78.2095935,188.369833 86.2186497,189.635873 C89.7871046,190.026238 93.3369554,190.026879 96.903165,189.645175 C97.0738093,189.61791 97.2438121,189.585193 97.4144564,189.556324 L84.855099,117.362873 C84.855099,117.362873 20.7460826,133.681538 17.8319781,133.681538 L33.0963045,189.665062 C36.3988494,188.049073 39.9272093,186.834676 43.5530802,186.052663" id="Fill-222" fill="#F7CB71"></path>
                <polygon id="Fill-224" fill="#EAB131" points="103.818975 226.370045 115.743548 225.928679 97.6767418 119.694253 84.8550027 117.362969"></polygon>
                <polygon id="Fill-226" fill="#F7CB71" points="49.620897 228.555543 51.0521281 245.5802 116.034895 245.5802 115.160824 221.685185"></polygon>
                <path d="M79.2204044,227.162546 C91.2123374,226.244531 103.228648,225.828505 115.250412,225.627068 L115.16092,221.685249 L49.6206725,228.555607 L49.6351067,229.086785 C59.5080992,228.795535 69.3801294,227.916012 79.2204044,227.162546" id="Fill-228" fill="#EAB131"></path>
                <polygon id="Fill-230" fill="#EAB131" points="115.160856 221.685185 116.034927 245.5802 148.381968 244.414558 148.87658 224.016468"></polygon>
                <path d="M21.7391876,94.7741847 C27.827533,91.8690614 34.4691894,90.9205741 36.1143674,91.4411676 C36.8848329,94.1143814 37.4439175,96.6342719 37.8532073,97.9012738 C38.8154873,97.6340808 40.4969111,97.2943959 41.9964641,96.8052369 C41.599684,95.5824999 40.7618589,92.8582853 39.9294867,89.945143 C39.7251626,89.230169 39.0701707,87.9577141 36.976891,87.4656683 C32.0455269,86.3070832 18.749063,90.1722411 14.5977872,94.719014 C12.8878157,96.5922523 12.9503639,98.2492984 13.3038414,99.3100517 C14.608693,103.224607 22.6446931,121.600626 27.1343707,131.687886 C28.4700153,131.326389 29.8791139,131.028403 31.2240606,130.725606 C26.8646115,120.932803 18.5200404,101.99802 17.192094,98.0738427 C17.3014731,97.6963082 18.3025651,96.4139098 21.7391876,94.7741847" id="Fill-232" fill="#90B4C2"></path>
                <path d="M68.9871022,85.3623488 C75.3913962,83.242446 82.0997706,83.1327461 83.6666832,83.8557391 C83.8235348,84.8581141 83.9175175,85.5066908 84.0695577,86.3939129 C85.385636,86.0256805 86.7164692,85.7347511 88.0389626,85.391538 C87.8910923,84.51875 87.7884491,83.8191725 87.6389749,82.8488735 C87.5257466,82.1143331 87.0349838,80.7693865 85.0196488,80.0191289 C80.273684,78.2527036 66.596478,80.4226449 61.9085707,84.4135407 C59.9772748,86.0580772 59.8319705,87.7099912 60.0500873,88.8063488 C60.8205528,92.6836956 65.9703545,110.435837 69.2344082,121.26309 C69.8393615,121.098861 70.635167,121.030218 71.2391581,120.86214 C71.9419432,120.651721 72.5398399,120.506738 73.243908,120.30081 C70.0183456,109.598653 64.8374302,91.8757012 64.0621533,88.0666763 C64.2180427,87.7061421 65.3718163,86.5591043 68.9871022,85.3623488" id="Fill-234" fill="#90B4C2"></path>
            </g>
        </g>
    </g>
</svg>