<svg width="179px" height="386px" viewBox="0 0 179 386" version="1.1" xmlns="http://www.w3.org/2000/svg" xmlns:xlink="http://www.w3.org/1999/xlink">
    <defs>
        <polygon id="path-1" points="0.103970161 0.147234981 162.900109 0.147234981 162.900109 19.4039505 0.103970161 19.4039505"></polygon>
    </defs>
    <g id="SU-Main" stroke="none" stroke-width="1" fill="none" fill-rule="evenodd">
        <g id="SU-login-Kids" transform="translate(-1214.000000, -376.000000)">
            <g id="Group-228" transform="translate(1214.000000, 376.000000)">
                <g id="Group-3" transform="translate(15.523200, 365.962971)">
                    <mask id="mask-2" fill="white">
                        <use xlink:href="#path-1"></use>
                    </mask>
                    <g id="Clip-2"></g>
                    <path d="M0.103970161,9.81722456 C0.106439761,15.1346262 36.5520912,19.426791 81.506926,19.403859 C126.462114,19.3805742 162.903179,15.0513654 162.900356,9.73396376 C162.897534,4.41585651 126.451882,0.124044481 81.4970476,0.147329281 C36.5422128,0.170261281 0.101147761,4.49982292 0.103970161,9.81722456" id="Fill-1" fill="#231F20" mask="url(#mask-2)"></path>
                </g>
                <path d="M36.5145533,152.089506 C34.2792125,153.920538 21.1038964,181.955084 40.205547,184.48078 C59.3071975,187.006122 78.6914409,157.240386 78.6914409,157.240386 L68.0820392,154.561575 C68.0820392,154.561575 41.0349798,178.209407 40.0707774,170.42558 C39.1062221,162.641048 41.5705302,155.310217 41.5705302,155.310217 L36.5145533,152.089506 Z" id="Fill-4" fill="#D17134"></path>
                <path d="M89.3509754,349.432527 C89.2437242,356.181238 89.1089546,360.527028 89.1089546,360.527028 C89.5238474,365.482457 99.3465051,364.835775 100.210865,362.856567 C100.393263,362.438499 100.48358,357.416038 100.383384,349.464632 L89.3509754,349.432527 Z" id="Fill-6" fill="#F9C692"></path>
                <path d="M123.962949,349.532757 C125.790453,358.050408 127.052066,363.784819 127.052066,363.784819 C128.096707,368.642875 137.217292,365.450741 137.821639,363.373454 C137.949705,362.933513 136.600245,357.690904 134.531073,349.563098 L123.962949,349.532757 Z" id="Fill-8" fill="#F9C692"></path>
                <path d="M138.167771,344.292795 C135.770495,330.473972 121.671195,268.278154 119.26898,256.084327 C112.702666,229.858233 109.00003,196.397976 106.886758,189.344798 C104.76008,182.247168 90.9511351,175.329112 90.2705839,187.066416 C90.1975543,188.326617 90.9959407,193.502899 92.3799751,201.253209 C91.5000919,201.986328 90.6752455,203.266286 90.0306799,205.252903 C88.3315951,196.532392 86.6127535,190.228209 84.9369535,187.737441 C80.367135,180.946041 67.3357613,187.23082 71.0256966,199.070788 C74.0551902,208.791134 87.8958871,329.455085 89.3508343,349.432386 C95.7784976,349.718154 99.19466,349.501887 105.655486,349.073588 C104.326136,334.348774 99.9662336,274.673712 94.7920687,235.680492 C96.0755552,235.67767 97.5121568,235.620516 98.919476,235.538666 C106.492328,273.861567 116.840305,332.580188 120.28328,347.897 C125.105703,347.521268 138.974977,348.944463 138.167771,344.292795" id="Fill-10" fill="#73CDE1"></path>
                <path d="M106.886758,189.344692 C104.76008,182.247062 90.9511351,175.329006 90.2705839,187.06631 C90.1975543,188.326511 90.9959407,193.502793 92.3799751,201.253103 C91.5000919,201.986222 90.6752455,203.26618 90.0306799,205.252797 C88.3315951,196.532287 86.6127535,190.228103 84.9369535,187.737335 C80.367135,180.945935 67.3357613,187.230715 71.0260494,199.070683 C73.1086278,205.75342 80.2845798,260.453297 85.0392655,300.482338 C85.0569055,298.563811 85.0812487,296.645638 85.1200567,294.727464 C85.3211527,284.698771 84.9923431,274.526489 86.1654031,264.550363 C86.6889583,260.09591 87.5215663,255.701786 88.7323759,251.381045 C89.8369927,247.439916 91.4256511,243.581695 94.4378575,240.706375 C94.7345623,240.423077 95.0485543,240.225861 95.3681912,240.095325 C95.1773263,238.610037 94.9854031,237.136392 94.7920687,235.680386 C96.0755552,235.677564 97.5121568,235.62041 98.919476,235.538913 C99.5442848,238.699649 100.187439,241.935883 100.844,245.221862 C100.908915,244.664085 100.977358,244.107014 101.05568,243.551001 C102.006829,236.756779 105.10159,227.404756 113.4566,227.814357 C110.342787,209.959149 108.27291,193.970959 106.886758,189.344692" id="Fill-12" fill="#00B2D0"></path>
                <polygon id="Fill-14" fill="#00B2D0" points="140.872547 343.207512 141.77501 350.1171 119.547198 351.737863 119.006356 346.128696"></polygon>
                <polygon id="Fill-16" fill="#00B2D0" points="85.7731953 347.285386 86.2120785 354.095132 108.191519 353.530299 107.752988 347.939477"></polygon>
                <path d="M156.309241,366.789299 C149.74963,368.438992 143.082769,369.791627 136.419435,370.858494 C133.970297,371.250808 131.080513,371.630068 128.624672,371.934181 C128.004449,370.548736 126.980977,366.221644 127.777952,365.694561 C129.691892,364.430125 148.334902,360.101622 152.510643,358.044093 C159.123879,354.785985 164.683302,351.04701 167.766421,352.522773 C171.252438,354.191517 172.56697,359.430949 172.352821,361.592202 C167.458074,364.124601 161.443539,365.498404 156.309241,366.789299" id="Fill-18" fill="#FEFEFE"></path>
                <path d="M169.682231,353.988586 C170.96854,356.369986 171.21056,359.05056 170.629146,360.788453 C170.284108,361.819688 161.64333,365.313466 161.000881,365.60382 C164.873919,364.591637 168.891959,363.382944 172.352927,361.592132 C172.521918,359.885285 171.918277,354.297639 169.682231,353.988586" id="Fill-20" fill="#E1DEDA"></path>
                <path d="M126.187565,365.748468 C126.187565,365.748468 125.67671,362.297026 130.931313,359.376195 C136.185917,356.456069 138.505224,356.566496 138.505224,356.566496 L139.645121,360.134009 C144.744492,357.9657 149.941236,355.767404 151.934909,354.779211 C158.557318,351.497112 164.129794,350.483871 167.239373,352.015376 C170.755378,353.747271 172.102721,356.345643 171.903036,358.553112 C167.002291,361.106326 160.967647,362.465664 155.816767,363.747387 C149.236342,365.385437 142.545842,366.718668 135.856754,367.759781 C133.398091,368.142569 130.496664,368.508776 128.030945,368.801953 C127.636161,367.916777 127.245612,367.069704 127.199395,366.427961 L126.187565,365.748468 Z" id="Fill-22" fill="#231F20"></path>
                <path d="M159.432438,357.98895 C161.461744,355.88097 164.652114,353.152415 167.719005,352.118005 C170.985933,353.914463 172.251779,356.467324 172.061267,358.649744 C167.785331,360.882263 162.528258,363.070681 157.837429,364.228924 C157.490274,363.156764 157.547075,359.947696 159.432438,357.98895" id="Fill-24" fill="#FEFEFE"></path>
                <path d="M167.718934,352.118146 C167.565819,352.169655 167.412704,352.227161 167.259588,352.28749 C170.02801,354.002451 170.951993,356.516857 170.899779,359.220716 C171.292445,359.036554 171.681231,358.848159 172.061196,358.649885 C172.251708,356.467112 170.985862,353.914604 167.718934,352.118146" id="Fill-26" fill="#E1DEDA"></path>
                <path d="M153.930769,358.034073 C155.211786,355.434995 156.638862,353.609961 157.886363,352.347995 C158.928887,352.023067 159.923077,351.772931 160.860819,351.601471 C159.613319,352.451366 157.204047,354.491961 155.184267,358.58938 L153.930769,358.034073 Z" id="Fill-28" fill="#FEFEFE"></path>
                <path d="M148.946446,359.327438 C149.870429,357.453011 150.87097,355.983599 151.825294,354.832766 C151.860574,354.815479 151.901851,354.795722 151.935015,354.77914 C153.133123,354.185731 154.295599,353.668526 155.416445,353.224703 C154.093798,354.228419 151.991815,356.247847 150.199944,359.882745 L148.946446,359.327438 Z" id="Fill-30" fill="#FEFEFE"></path>
                <path d="M144.453926,360.861977 C145.191983,359.364341 145.979433,358.127424 146.752771,357.101129 C147.845392,356.629788 148.843816,356.194433 149.702531,355.811645 C148.487135,356.976943 147.015607,358.76317 145.707424,361.417284 L144.453926,360.861977 Z" id="Fill-32" fill="#FEFEFE"></path>
                <path d="M140.20826,361.709191 C140.644321,360.824015 141.098374,360.036919 141.555956,359.321793 C142.373394,358.974285 143.180247,358.630658 143.967697,358.294792 C143.135089,359.331319 142.267554,360.629623 141.461758,362.264145 L140.20826,361.709191 Z" id="Fill-34" fill="#FEFEFE"></path>
                <path d="M136.129186,362.089227 C137.116321,360.559486 138.123565,359.337034 139.078947,358.362248 L139.55311,359.846477 C138.816111,360.656506 138.054416,361.620003 137.303305,362.78389 L136.129186,362.089227 Z" id="Fill-36" fill="#FEFEFE"></path>
                <path d="M138.094388,359.358096 C138.277491,358.9806 144.519582,353.254303 145.619965,352.742743 C146.720348,352.231536 148.25644,355.656166 148.614179,356.419272 C148.972271,357.182026 139.169723,360.018538 139.169723,360.018538 L138.023475,359.384556 L139.644239,359.118898 C139.644239,359.118898 146.576406,356.727619 146.376016,356.182191 C146.17492,355.636762 145.97841,354.883181 145.31691,355.12873 C144.65541,355.373926 139.55498,359.022936 139.55498,359.022936 L138.094388,359.358096 Z" id="Fill-38" fill="#FEFEFE"></path>
                <path d="M140.359858,359.087993 C140.255429,359.499357 135.160997,366.540187 134.15587,367.295532 C133.150743,368.050524 130.858601,365.063366 130.332224,364.401866 C129.805493,363.740013 139.128586,358.693209 139.128586,358.693209 L140.425832,359.045657 L138.841054,359.681402 C138.841054,359.681402 132.330483,363.626765 132.650825,364.112923 C132.971873,364.598729 133.333141,365.288805 133.950541,364.895433 C134.567941,364.502414 138.951833,359.754785 138.951833,359.754785 L140.359858,359.087993 Z" id="Fill-40" fill="#FEFEFE"></path>
                <path d="M142.39054,351.301591 C142.39054,351.301591 141.009681,353.998747 140.316781,355.985011 C139.623882,357.971627 139.761827,358.927715 139.761827,358.927715 L138.901348,359.878511 C138.901348,359.878511 138.755994,357.133375 138.926397,355.044446 C139.132785,352.510283 139.943519,350.844009 140.135089,350.590699 C140.32666,350.338094 142.385601,351.030287 142.39054,351.301591" id="Fill-42" fill="#FEFEFE"></path>
                <path d="M74.9394128,374.451692 C81.6708369,373.789486 88.4029665,372.811525 95.034901,371.565435 C97.472749,371.107501 100.320903,370.489042 102.735114,369.946083 C102.850832,368.432218 102.353384,364.014104 101.42552,363.787253 C99.1968826,363.242883 80.1873129,365.464112 75.561752,364.937381 C68.2369184,364.103362 61.7415175,362.461784 59.3378911,364.891517 C56.6199199,367.639476 57.1519423,373.01509 58.0833343,374.977011 C63.5457367,375.708365 69.6706976,374.969955 74.9394128,374.451692" id="Fill-44" fill="#FEFEFE"></path>
                <path d="M58.0296381,366.918177 C57.6228597,369.594165 58.3111725,372.190067 59.4344877,373.638664 C60.116803,374.518547 69.420139,374.863586 70.1232694,374.919681 C66.1359238,375.274951 61.9457182,375.494039 58.0832637,374.977187 C57.3476757,373.42769 56.0289093,367.964229 58.0296381,366.918177" id="Fill-46" fill="#E1DEDA"></path>
                <path d="M102.940514,363.300601 C102.940514,363.300601 102.256082,359.879499 96.32375,358.904713 C90.3917707,357.929926 88.2456883,358.817219 88.2456883,358.817219 L88.3776355,362.560074 C82.8453787,362.241143 77.2118682,361.926798 75.0012234,361.669959 C67.6598081,360.816889 62.0725145,361.744753 59.6628905,364.236227 C56.9378632,367.053687 56.5473136,369.954056 57.4804697,371.965016 C62.9555729,372.712952 69.0949985,371.954785 74.375709,371.42241 C81.1226562,370.741859 87.8706619,369.73779 94.5184723,368.45889 C96.9619652,367.98896 99.8168228,367.35392 102.236678,366.797202 C102.309002,365.83053 102.390852,364.901607 102.217274,364.282091 L102.940514,363.300601 Z" id="Fill-48" fill="#231F20"></path>
                <path d="M69.0281077,367.222714 C66.4064508,365.923704 62.4819036,364.433124 59.246022,364.494864 C56.7774804,367.288687 56.4479652,370.119202 57.3641868,372.109347 C62.14251,372.766613 67.4962501,373.253124 72.3024445,372.759204 C72.2675173,371.632714 71.4641917,368.429643 69.0281077,367.222714" id="Fill-50" fill="#FEFEFE"></path>
                <path d="M59.2458456,364.494723 C59.407428,364.491548 59.5707744,364.493665 59.7358848,364.49931 C57.708696,367.047937 57.6882336,369.726747 58.6503192,372.254206 C58.218492,372.213282 57.7887816,372.167418 57.3643632,372.109206 C56.4477888,370.119061 56.777304,367.288899 59.2458456,364.494723" id="Fill-52" fill="#E1DEDA"></path>
                <path d="M74.2217471,365.407381 C72.1381102,363.393246 70.1790118,362.157741 68.5783582,361.390753 C67.4878534,361.43697 66.467203,361.537518 65.5266382,361.69275 C66.9879358,362.071305 69.9447526,363.178744 73.2293207,366.353591 L74.2217471,365.407381 Z" id="Fill-54" fill="#FEFEFE"></path>
                <path d="M79.3501185,364.94158 C77.8471905,363.489102 76.4098832,362.444108 75.122516,361.683119 C75.083708,361.678532 75.0381968,361.674299 75.0011528,361.670065 C73.6732136,361.515539 72.4045448,361.421341 71.19938,361.38218 C72.783452,361.879981 75.4439168,363.071034 78.3576921,365.887789 L79.3501185,364.94158 Z" id="Fill-56" fill="#FEFEFE"></path>
                <path d="M84.0970425,364.86922 C82.8964641,363.708861 81.7378689,362.810279 80.6632401,362.105385 C79.4753625,362.030591 78.3887385,361.957915 77.4513488,361.887707 C78.9888513,362.574256 80.9768793,363.758606 83.1046161,365.815077 L84.0970425,364.86922 Z" id="Fill-58" fill="#FEFEFE"></path>
                <path d="M88.3792231,364.232875 C87.6697423,363.547385 86.9768431,362.95962 86.3047591,362.440651 C85.4178199,362.389495 84.5425231,362.339045 83.6876887,362.288594 C84.8212351,362.982905 86.0764975,363.91218 87.3867967,365.178732 L88.3792231,364.232875 Z" id="Fill-60" fill="#FEFEFE"></path>
                <path d="M92.3472,363.213424 C90.9014256,362.10669 89.5403232,361.295956 88.3118736,360.701135 L88.3669104,362.258042 C89.3339352,362.772071 90.3764592,363.421576 91.4764896,364.26371 L92.3472,363.213424 Z" id="Fill-62" fill="#FEFEFE"></path>
                <path d="M89.5752857,361.306434 C89.2754057,361.012552 81.4665304,357.730453 80.2578376,357.620733 C79.0494976,357.510659 78.7602016,361.253161 78.6808216,362.092473 C78.6014416,362.931078 88.7860721,362.290746 88.7860721,362.290746 L89.6507849,361.30714 L88.0360193,361.60455 C88.0360193,361.60455 80.7030712,361.694867 80.7076576,361.113453 C80.7125968,360.532391 80.643448,359.756231 81.3486952,359.763993 C82.0542952,359.771401 88.0871753,361.483893 88.0871753,361.483893 L89.5752857,361.306434 Z" id="Fill-64" fill="#FEFEFE"></path>
                <path d="M87.3514814,361.816689 C87.588563,362.168783 94.7613399,367.075878 95.9626239,367.447377 C97.1635551,367.818875 98.3122719,364.233369 98.5846335,363.432513 C98.8569951,362.631657 88.3774238,361.029592 88.3774238,361.029592 L87.2749238,361.799402 L88.9817702,361.862553 C88.9817702,361.862553 96.4420791,363.378182 96.3041343,363.943367 C96.1665423,364.509258 96.0596439,365.280479 95.3455767,365.118897 C94.6315095,364.957314 88.9020374,361.969098 88.9020374,361.969098 L87.3514814,361.816689 Z" id="Fill-66" fill="#FEFEFE"></path>
                <path d="M82.8109101,355.17343 C82.8109101,355.17343 85.0212021,357.245777 86.3445549,358.882063 C87.6675549,360.517644 87.8605365,361.464206 87.8605365,361.464206 L88.9912605,362.068553 C88.9912605,362.068553 88.2009885,359.435606 87.3355701,357.526958 C86.2856373,355.211179 84.9598149,353.916403 84.6938037,353.743178 C84.4277925,353.569601 82.7237685,354.916591 82.8109101,355.17343" id="Fill-68" fill="#FEFEFE"></path>
                <path d="M45.804483,30.7195663 C45.7466238,30.6161959 45.6824142,30.5234095 45.6153822,30.4359151 C45.897975,32.2969351 45.7981326,34.297664 45.4795542,36.091652 C44.6158998,40.9525304 43.5737286,40.8636248 38.8324493,42.9497312 C36.9619037,43.7728136 37.6540973,44.2092272 36.8458325,44.3069528 C35.3316149,44.754656 34.2234701,44.2120496 33.0486461,45.1818968 C28.6809821,48.7871601 25.1483956,46.786784 22.429366,46.118228 C19.5907372,45.4203896 16.8872308,45.7484936 14.875918,48.1270713 C13.7226147,49.4913489 12.7972203,51.2574657 12.7492395,53.0877921 C12.7171347,54.3155361 13.2131715,56.5328841 12.0514011,57.3736065 C11.1066027,58.0569801 9.38070511,57.4794465 8.34312031,57.3679617 C6.81126269,57.2035569 5.30163148,57.3055161 3.83327787,57.8117841 C2.47852586,58.2788913 1.46069785,59.1125577 0.730754646,60.1751914 C0.710997846,60.579853 0.623150645,61.0070938 0.449220244,61.453033 C0.430169043,61.502425 0.413940243,61.541233 0.398769843,61.5768658 C0.403709043,61.6396642 0.404414643,61.7363314 0.396653043,61.886977 C0.430521843,61.227241 0.494378644,62.6095114 0.490497844,62.5774066 C0.644318645,63.8030338 0.820365846,64.9859722 0.859526647,66.2260642 C0.915269047,67.988653 0.642201845,69.7505362 0.000105840001,71.3776498 C0.0512618404,71.3522482 0.103829041,71.329669 0.154985041,71.3035618 C0.890573047,70.929241 1.45046665,70.6159546 1.76586985,70.3989826 C2.06680826,70.191889 2.35963226,69.9759754 2.65104506,69.7586506 C2.96538986,68.551369 3.08640026,67.2904618 3.20141307,66.0337882 C3.32842107,64.6472842 3.33653547,62.793673 4.59462028,61.9571842 C6.82008269,60.4778938 10.0884219,62.1625138 12.5495547,61.5916834 C14.1868996,61.2117178 15.7974316,59.854849 16.3562668,58.2072729 C16.9443844,56.4725553 17.0371708,56.5773369 17.2735468,54.8140425 C17.6235244,52.2019113 20.7186388,49.9926777 22.9264612,50.7127425 C25.6846516,51.6123825 26.8580645,52.5257817 29.7079829,53.1527073 C41.1200046,55.6639377 51.5942838,41.0873 45.804483,30.7195663" id="Fill-70" fill="#3D1B00"></path>
                <path d="M169.627264,91.2404311 C165.651914,88.1693071 161.814508,82.0955022 160.86089,74.2675758 C159.941493,73.5595062 159.596455,77.5620222 158.995989,76.4972718 C159.572464,77.5189806 158.976585,79.0099134 158.879918,80.0898342 C158.745501,81.5909982 158.977291,82.8384991 159.498376,84.2535799 C160.064973,85.7914351 159.653961,87.0294103 159.948902,88.5150511 C160.362384,90.5976295 160.307347,91.8811159 161.861784,92.9310487 C163.785955,94.2314695 167.687923,95.7149936 167.951464,98.0755784 C168.074239,99.1731392 168.041781,100.238595 167.879493,101.26736 C167.901367,101.679783 167.8929,102.089031 167.842449,102.488754 C167.573968,104.607318 166.728307,106.622158 165.584882,108.43802 C166.579425,107.844258 167.527399,107.162295 168.647539,106.113068 C171.843554,103.118502 175.39625,100.25941 171.382797,93.6867463 C170.846188,92.8075687 170.236197,92.0165911 169.627264,91.2404311" id="Fill-72" fill="#552D00"></path>
                <path d="M96.303464,107.786046 C93.2655031,109.644243 89.1208087,111.912042 87.0445807,114.93836 C83.6234791,119.925188 88.9253575,124.391989 93.2206975,125.203076 C95.7580352,125.682179 98.115092,124.804765 100.591395,124.477367 C103.965927,124.031075 103.247274,123.379453 108.54139,126.062144 C111.682016,127.653978 111.88664,126.156695 114.514647,124.7021 C117.540613,123.027006 118.07828,123.950283 119.947062,125.797897 C120.00351,125.853639 119.726915,127.592943 119.681051,127.724538 C122.055395,126.817489 124.457257,125.171677 125.967947,123.14343 C125.989467,125.244707 125.278575,126.950495 123.479295,128.039235 C135.226477,130.12887 141.708824,117.836612 143.337702,107.584597 C144.096575,102.808743 144.847333,97.7467688 142.109605,93.4683631 C139.48689,89.3698855 134.493006,88.7870599 130.030439,88.6491151 C123.318419,88.4413159 118.311481,90.9126799 114.39399,96.6894272 C111.845715,100.448158 111.803379,101.426826 107.653746,102.280602 C103.415206,103.152723 99.995516,105.528126 96.303464,107.786046" id="Fill-74" fill="#3D1B00"></path>
                <path d="M34.9313986,74.0436889 C34.5934162,80.3566922 39.453589,82.9846994 40.974157,88.6718354 C42.3215003,93.7098195 38.9176858,99.1753971 40.6135954,103.972066 C42.0505499,108.034911 48.5099651,109.169516 48.0933083,114.177512 C51.2289947,111.658167 50.5502075,107.454908 49.7616995,104.241605 C51.0000275,106.565146 53.1348203,108.009509 53.8855787,110.673502 C54.6952548,113.545294 53.9674283,115.344574 57.3892356,116.687331 C60.7087308,117.989516 63.6588444,115.948215 66.7207956,116.037473 C70.1962285,116.13908 71.1371461,119.03839 73.9955317,120.200513 C80.7075518,122.929774 84.9499718,115.700196 86.724203,110.68832 C88.1876174,106.553504 89.663027,102.28039 90.5859518,97.9603539 C91.8673214,91.9631066 89.7244142,88.7392202 86.359055,83.7530978 C82.7188646,78.3598441 78.6447301,72.6420145 73.4063557,68.6814817 C69.7982701,65.953632 65.6578092,65.8118064 61.4305596,65.1393696 C55.3454652,64.1709336 53.9441435,57.1590336 46.6577651,59.6536824 C40.5105778,61.7581344 35.290549,67.3380193 34.9313986,74.0436889" id="Fill-76" fill="#3D1B00"></path>
                <path d="M65.5481943,224.057249 C73.4674959,224.967826 81.5953024,224.641838 89.4888497,224.316204 C99.0726617,223.921068 108.619077,223.517465 118.148911,222.348638 C119.154038,222.225511 120.157754,222.092153 121.161117,221.956325 C116.631871,197.456481 109.828828,161.502633 108.795477,154.658313 C106.113844,136.902242 107.543037,132.079819 106.374211,131.226748 C103.540168,129.158282 93.5527529,123.424576 84.534832,123.550878 C80.0715592,123.613324 64.9078623,130.786101 64.9900647,132.020901 C66.6542223,156.90706 66.1112631,198.290501 65.5481943,224.057249" id="Fill-78" fill="#F5ACC4"></path>
                <path d="M76.0848133,133.897197 C85.9543934,130.454222 96.8298063,132.282784 106.457366,135.71694 C106.637646,135.781502 106.815105,135.849945 106.99468,135.915213 C106.899424,132.886072 106.918828,131.62446 106.374105,131.226854 C103.540415,129.158035 93.5526471,123.424682 84.535079,123.550632 C80.0714534,123.61343 64.9077564,130.786207 64.9903116,132.021007 C65.1434268,134.314207 65.2778436,136.750291 65.395326,139.298565 C68.7628021,137.01983 72.3977005,135.183506 76.0848133,133.897197" id="Fill-80" fill="#F38FB0"></path>
                <path d="M111.437843,223.051557 C113.676006,222.852225 115.913111,222.622905 118.148805,222.34878 C119.156754,222.224947 120.163293,222.091236 121.169831,221.955408 C116.838153,198.261712 110.285246,162.315978 108.742098,152.985829 C108.395296,155.612778 108.717755,161.463261 108.454214,164.598947 C108.455625,167.604098 108.01533,169.731834 107.993457,172.73769 C107.92325,182.351843 107.390169,178.649913 108.188202,188.238311 C108.787257,195.437548 110.299005,215.922528 111.437843,223.051557" id="Fill-82" fill="#F38FB0"></path>
                <path d="M79.7613069,125.129588 C79.0557069,124.601094 81.5048445,108.362768 81.5048445,108.362768 L93.9431614,109.261349 L91.1482798,126.060627 C91.1482798,126.060627 85.5260589,129.44539 79.7613069,125.129588" id="Fill-84" fill="#A03323"></path>
                <path d="M44.2049936,52.948048 C39.229808,81.1064274 55.6805193,115.332261 85.8950172,120.558641 C116.109868,125.775847 148.651082,100.011216 153.624503,71.8542474 C158.596514,43.6955151 138.134819,16.6399885 107.917852,11.4181957 C77.7037067,6.19922525 49.1787681,24.7896686 44.2049936,52.948048" id="Fill-86" fill="#B54827"></path>
                <path d="M44.6167112,51.4222938 C39.827804,78.8129805 56.2905105,112.21679 86.2432308,117.454106 C116.195951,122.682602 148.300398,97.7586934 153.087542,70.3690652 C157.873274,42.977673 137.473319,16.5353128 107.518129,11.3025831 C77.5661147,6.07232309 49.4042073,24.0312544 44.6167112,51.4222938" id="Fill-88" fill="#D17134"></path>
                <path d="M65.6021021,46.9216595 C65.2316621,47.0200907 66.3856709,46.6115483 66.5144429,46.5441635 C66.6044069,46.4972411 66.6689693,46.4651363 66.7236533,46.4386763 C66.7554053,46.4122163 66.7998581,46.3769363 66.8531309,46.3356587 C66.8531309,46.3331891 66.8531309,46.3307195 66.8531309,46.3286027 C66.5430197,46.5346379 66.8496029,46.1723123 66.8531309,46.3286027 C66.8630093,46.3222523 66.8714765,46.3169603 66.8820605,46.3095515 C66.9949565,46.0156691 67.1022077,45.7203755 67.2161621,45.4271987 C68.1539045,43.0073435 69.6624773,41.325193 72.1888782,40.5673786 C73.2638598,40.2449194 74.2474662,40.406149 75.2818758,40.642525 C75.2151966,40.6227682 75.2204886,40.6157122 75.2949294,40.6206514 C75.3647838,40.5998362 76.0336926,40.3578154 76.1434134,40.3031314 C76.3120518,40.219165 76.4133054,40.1754178 76.475751,40.1535442 C76.511031,40.1217922 76.553367,40.0843954 76.6084038,40.0378258 C76.7188302,39.943981 76.7904486,39.8885914 76.837371,39.8571922 C76.842663,39.850489 76.8454854,39.8462554 76.8511302,39.8388466 C77.2437966,39.3315202 77.581779,38.793853 77.923995,38.2519522 C80.0076318,34.9539778 82.8825991,33.0248674 86.5672423,31.9262482 C87.1976959,31.7382058 87.8334415,31.5681562 88.4649535,31.383289 C88.5623263,31.3473034 88.9955647,31.2054778 89.0749447,31.1737258 C89.3765887,31.053421 89.6810551,30.9345274 89.9692927,30.7842346 C90.0772495,30.7281394 90.1495735,30.693565 90.1993183,30.672397 C90.2113135,30.6632242 90.2190751,30.656521 90.2321287,30.6462898 C90.3422023,30.5605594 91.0700287,29.8295578 90.5418871,30.4653034 C91.2291415,29.6376346 91.0851991,29.8602514 91.4337655,28.9771929 C92.0628079,27.3835953 93.3205399,26.6487129 94.6386007,26.5534569 C97.7330096,21.1933665 101.480098,16.1691416 104.658826,10.872908 C75.7934358,7.22813118 49.251586,24.9048225 44.6168524,51.4223291 C42.7900539,61.8701484 44.0587227,73.1915005 47.985034,83.4922022 C47.9557516,82.0718294 48.1194508,80.6493398 48.5488084,79.2335533 C49.0402588,77.6124373 49.8411148,76.1306773 50.4715684,74.5649509 C50.6253892,74.1839269 50.7816796,73.8018445 50.9090404,73.4109421 C50.8949284,73.4532781 51.250198,72.1352173 51.1298932,72.7674349 C51.2170348,72.3098533 51.313702,71.8441573 51.3408676,71.3781085 C51.3503932,71.2101757 51.3609772,71.1071581 51.371914,71.0411845 C51.3556852,70.9766221 51.3359284,70.8859525 51.311938,70.7550637 C51.2163292,70.2375061 51.0974356,69.7284157 50.9457316,69.2249701 C50.8822276,69.0397501 50.6864236,68.4410485 50.6984188,68.4780925 C50.394658,67.5244741 50.013634,66.5398092 49.8728668,65.5406796 C49.5433516,63.2058492 49.9374292,61.152906 51.1933972,59.1532356 C52.171006,57.596682 53.6725228,57.0311436 55.1535772,56.2521612 C55.1567524,56.1935964 55.1595748,56.1357372 55.1634556,56.0771724 C55.2241372,55.0745148 55.3836028,54.0453971 55.8164884,53.1323507 C56.796214,51.0652955 58.7062733,49.2296771 60.8216621,48.3423851 C62.3701013,47.6932331 63.9996845,47.3845331 65.6021021,46.9216595" id="Fill-90" fill="#B54827"></path>
                <path d="M107.51827,11.3025126 C104.666941,10.8047118 101.832546,10.5182382 99.032372,10.428627 C98.9508752,10.5076542 98.8686728,10.5852702 98.7882344,10.6653558 C98.6943896,10.7722542 98.4188528,11.0728398 98.3705192,11.1303462 C98.0000792,11.571699 97.6366952,12.0190494 97.2962432,12.4840398 C96.4608128,13.6253478 95.6920616,14.8160478 95.0033959,16.052259 C94.9356583,16.184559 94.6636495,16.6947078 94.6562407,16.7095254 C94.5567511,16.9088574 94.4607895,17.1096006 94.3630639,17.3096382 C96.206444,18.6548646 96.324632,20.9530038 95.2397719,22.7992063 C95.537888,22.2918799 94.9300135,23.5503175 94.9511815,23.4892831 C94.8495751,23.7623503 94.7603167,24.0396511 94.6809367,24.3201271 C94.6664719,24.4016239 94.6414231,24.5374519 94.6061431,24.7272583 C94.5553399,25.0468951 94.5158263,25.3682959 94.4868967,25.6907551 C94.3895239,27.0363343 94.4375047,28.1194303 94.7853655,29.5158127 C95.2478863,31.3715407 96.146468,33.9617983 97.6349312,35.832344 C98.067464,36.3760088 98.4195584,36.7873736 99.0359,37.1384096 C98.6576984,36.9232016 100.305274,37.3373888 99.404576,37.2424856 C99.7640792,37.2802352 100.122524,37.3102232 100.484497,37.305284 C100.526127,37.3028144 100.57058,37.3003448 100.622794,37.2971696 C101.377434,37.247072 102.130309,37.2089696 102.886359,37.183568 C105.524245,37.0950152 108.597486,37.5596528 110.80813,39.113384 C112.651863,40.4092184 113.488705,42.25154 114.380231,44.2296896 C114.583796,44.6816264 114.795123,45.1328576 115.039967,45.5646848 C115.062546,45.5706824 115.790725,46.6887056 115.904327,46.8107744 C116.241603,47.1759225 116.185508,47.1420537 116.789855,47.4885033 C116.238781,47.1727473 117.512389,47.7816801 117.652451,47.8338945 C120.45968,48.8767713 122.970558,49.9976169 124.902843,52.4015961 C127.157941,55.2077673 126.746576,58.4789289 126.722233,61.7948962 C126.726819,61.1810242 126.932502,62.7439282 126.787854,62.4345226 C127.139595,63.1863394 126.755749,62.5812874 127.229559,63.0967282 C127.347747,63.2247946 127.414779,63.3027634 127.452176,63.3514498 C127.469111,63.365209 127.481459,63.3750874 127.50051,63.3906106 C127.741119,63.5878258 127.982787,63.783277 128.237509,63.9621466 C129.319547,64.7220778 130.381475,65.3853418 131.318159,66.3371962 C134.028368,69.0900946 133.796931,73.3667363 133.19823,76.8742739 C133.093801,77.4867347 132.975613,78.1133075 132.945978,78.7391747 C132.968557,78.8457203 133.01054,79.3011851 133.035589,79.4077307 C133.077572,79.5880115 133.095918,79.6867955 133.10121,79.7407739 C133.131551,79.8099227 133.167536,79.8938891 133.21587,80.0117243 C134.054828,82.0526723 135.263521,83.9073419 136.131056,85.9313556 C137.721831,89.6435172 137.809326,93.6107532 136.800671,97.4890836 C136.51208,98.5975813 136.124,99.6739741 135.655482,100.717204 C144.666347,92.2535316 151.139168,81.5157107 153.087683,70.3689946 C157.873415,42.9779552 137.473107,16.535595 107.51827,11.3025126" id="Fill-92" fill="#B54827"></path>
                <path d="M147.00968,96.0146266 C146.617719,92.4227698 143.7992,90.4933066 140.713611,91.7023522 C140.063048,91.9577794 139.354625,92.441821 138.645144,93.0779194 C137.93143,96.9640114 136.140264,100.629251 133.906688,103.94169 C134.907934,106.399295 138.183329,106.295571 140.905887,105.227646 C143.990417,104.0186 147.398818,99.6086002 147.00968,96.0146266" id="Fill-94" fill="#B54827"></path>
                <path d="M142.488724,101.332452 C141.712564,99.0202004 139.24755,97.5140972 136.59273,101.165577 C140.708495,93.1242067 147.872099,93.8509747 142.488724,101.332452" id="Fill-96" fill="#A03323"></path>
                <path d="M65.0430905,54.767861 C67.0734545,52.7738354 69.5635169,51.6752162 72.2892498,51.5665538 C75.4962018,51.4388402 78.6026058,52.3208402 81.1127778,54.2926394 C80.8880442,55.3475114 80.6199162,56.2965434 80.3722506,56.374865 C79.8677466,56.533625 73.6715202,54.9880082 68.0189585,55.492865 C65.4777401,55.7197154 65.0639057,55.9172834 64.7894273,55.6191674 C64.5699857,55.554605 64.9234913,54.8853434 65.0430905,54.767861" id="Fill-98" fill="#D17134"></path>
                <path d="M132.556769,70.2705634 C131.790134,67.5296602 130.178544,65.3366554 127.869821,63.8841778 C125.152908,62.1752146 122.020044,61.3919986 118.861426,61.8506386 C118.530499,62.8772866 118.28989,63.8337274 118.465937,64.024945 C118.824029,64.4140834 124.966277,66.1618546 129.615475,69.4160818 C131.705462,70.8791434 131.966182,71.2569922 132.352498,71.1349234 C132.574762,71.188549 132.601927,70.4321458 132.556769,70.2705634" id="Fill-100" fill="#D17134"></path>
                <path d="M90.8862199,82.9052135 C89.9237815,82.7669159 88.7690671,82.4677415 87.5134519,82.3534343 C85.4100583,82.1438711 83.9357071,81.1574423 82.5185094,83.0336327 C81.1852782,84.8403215 81.7282374,88.064208 82.8194479,88.787448 C84.4035199,90.092808 89.3487175,90.3524688 90.0991231,90.0677592 C89.1363319,88.3820808 85.4446327,89.3353464 84.2874487,87.9992928 C83.6432359,87.3646056 84.2299423,85.363524 84.6758815,83.9360951 C85.4393407,83.2354343 86.6819023,83.5099127 87.8870671,83.4799247 C88.8375103,83.4555815 90.0631375,83.8919951 90.8862199,82.9052135" id="Fill-102" fill="#B54827"></path>
                <path d="M85.3942176,84.7927288 C85.328244,85.4051896 86.1915456,86.0338792 87.3219168,86.19652 C88.4526408,86.3595136 89.422488,85.9950712 89.4884616,85.3829632 C89.5544352,84.7705024 88.6911336,84.1418128 87.5607624,83.9788192 C86.4300384,83.8158256 85.4601912,84.1806208 85.3942176,84.7927288" id="Fill-104" fill="#EF9970"></path>
                <path d="M126.928656,88.5214015 C128.29752,82.1784102 123.484975,74.821119 117.367423,72.9350502 C111.181428,71.0323998 103.326689,74.3917614 101.276921,80.6419662 C100.673986,82.4793486 100.985861,84.5319391 101.297736,85.7960215 C109.878538,86.3904895 118.438877,87.1962847 126.928656,88.5214015" id="Fill-106" fill="#552D00"></path>
                <path d="M123.763793,88.4575094 C122.080584,95.5833639 115.30118,93.4542159 109.678959,91.6990358 C102.02461,89.3098742 99.0572091,87.198719 100.899884,81.529223 C102.742205,75.8579629 109.452108,72.3218485 115.075388,74.0692669 C120.700078,75.8212717 125.134069,82.6557134 123.763793,88.4575094" id="Fill-108" fill="#FEFEFE"></path>
                <path d="M111.338636,92.3627585 C108.932893,91.8804809 106.262902,91.2309761 104.768441,89.9570153 C103.097228,87.9552281 102.489706,84.7934344 103.298677,81.978796 C104.556056,77.6019592 108.905021,75.0102904 113.011966,76.1904064 C117.118558,77.3705224 119.42834,81.8754256 118.170608,86.2526152 C117.255445,89.4376937 114.243238,91.8339113 111.338636,92.3627585" id="Fill-110" fill="#552D00"></path>
                <path d="M55.8973502,71.1227518 C57.901607,64.9508686 65.7598743,61.009387 71.9963199,62.4530446 C78.300856,63.9171646 83.4034024,70.7692462 82.0341856,77.2025543 C81.6319936,79.0939151 80.3305144,80.7118559 79.4259352,81.6481871 C71.7084351,77.8495895 63.9027351,74.2439735 55.8973502,71.1227518" id="Fill-112" fill="#552D00"></path>
                <path d="M58.665666,72.6581375 C56.5396932,79.6643927 63.470802,81.2311775 69.2133277,82.5393599 C77.0317285,84.3206471 80.657807,83.9865455 81.913775,78.1593479 C83.171507,72.3303862 79.1478229,65.900959 73.4081197,64.5857206 C67.6648885,63.2733046 60.3965028,66.9537142 58.665666,72.6581375" id="Fill-114" fill="#FEFEFE"></path>
                <path d="M66.0716789,82.068513 C68.3941613,82.8605491 71.028519,83.6409427 72.9608046,83.2906123 C75.412059,82.400145 77.5260366,79.9721754 78.241515,77.1321354 C79.3535406,72.7161378 76.8966414,68.2899089 72.7530054,67.2459737 C68.6093693,66.2023913 64.3486037,68.9362385 63.2358725,73.3522362 C62.4265493,76.5662442 63.8261069,80.1517506 66.0716789,82.068513" id="Fill-116" fill="#552D00"></path>
                <path d="M73.0296711,86.362583 C72.8807895,87.694403 70.5667743,88.528775 67.8615039,88.2257198 C65.1562335,87.9230174 63.1276335,87.3864086 63.2327679,85.2664334 C63.3456639,82.989815 65.6956647,83.1002414 68.4009351,83.4029438 C71.1062055,83.7056462 73.1785527,85.030763 73.0296711,86.362583" id="Fill-118" fill="#C35436"></path>
                <path d="M104.580293,93.7382904 C104.139293,95.003784 105.865544,96.7561416 108.436397,97.6519008 C111.006898,98.5476601 113.068308,98.9399737 113.889274,96.9826392 C114.770921,94.8806568 112.604024,93.9651408 110.03317,93.0690288 C107.462669,92.1732696 105.021293,92.4727968 104.580293,93.7382904" id="Fill-120" fill="#C35436"></path>
                <path d="M88.4876033,130.379887 C91.5742505,129.836222 94.7258129,128.304365 96.9682097,126.196032 C93.4754897,124.638773 88.9779953,123.310481 84.4649776,123.373985 C82.6046632,123.399739 78.5344096,124.825404 75.2558392,126.39113 C77.7952936,130.062014 84.7637992,131.035742 88.4876033,130.379887" id="Fill-122" fill="#A03323"></path>
                <path d="M88.8307365,127.187118 C84.9531117,128.005966 80.7731373,127.652814 77.6928405,125.270355 C76.7932004,125.647851 75.8956772,126.056041 75.0500156,126.474109 C77.6370981,130.343619 84.7375509,131.369209 88.5319149,130.677721 C91.6767742,130.104068 94.8883126,128.488597 97.1730454,126.265957 C96.1164094,125.77874 94.9676926,125.31375 93.7565302,124.901326 C92.2726534,125.998887 90.6095542,126.811386 88.8307365,127.187118" id="Fill-124" fill="#272C35"></path>
                <path d="M112.476769,64.8968902 C112.829921,65.1473782 116.757997,64.9014766 121.146829,66.9156118 C125.535308,68.929747 126.710838,70.1589022 126.710838,70.1589022 C126.710838,70.1589022 127.659517,69.1177894 127.300719,68.3363374 C126.941569,67.5541798 124.275812,63.8180278 119.679534,62.5355998 C115.420885,61.3470166 113.169668,61.3748878 113.169668,61.3748878 C113.169668,61.3748878 112.073871,64.6111222 112.476769,64.8968902" id="Fill-126" fill="#A03323"></path>
                <path d="M81.0539661,54.1394183 C80.6313117,54.2336159 77.1057812,52.4844335 72.2794772,52.6400183 C67.4531732,52.7956031 65.8930916,53.4729791 65.8930916,53.4729791 C65.8930916,53.4729791 65.4221036,52.1457455 66.0560852,51.5643311 C66.689714,50.9825639 70.5955628,48.5715287 75.3294332,49.1709359 C79.7157957,49.7262431 81.7803813,50.6244719 81.7803813,50.6244719 C81.7803813,50.6244719 81.5362437,54.0321671 81.0539661,54.1394183" id="Fill-128" fill="#A03323"></path>
                <path d="M104.043684,36.2901372 C107.844399,36.0883356 113.682533,34.7360532 118.618911,32.732502 C123.626554,30.7000212 128.795074,35.9401596 129.842185,38.3441389 C131.057933,41.1354925 130.916813,41.1287893 131.543739,44.2835269 C132.327661,48.2295949 140.184517,49.7769758 142.176425,52.8304598 C143.474729,54.8202518 143.762261,56.746187 142.816757,59.0810174 C141.92629,61.279667 140.105137,61.7358374 139.83595,64.3663143 C139.560413,67.0546503 144.637558,68.6934063 145.120541,71.3863287 C145.709717,74.6712495 145.059154,75.7532872 143.453209,78.3294328 C140.576125,82.9444096 142.806879,85.1342392 143.639487,90.0367481 C144.474565,94.9526633 141.038645,96.0650417 139.792203,100.259481 C138.297742,105.288292 143.460265,106.39432 142.184187,111.010355 C141.56714,113.243227 138.172145,115.212909 137.912837,117.925588 C137.385049,123.445497 147.98563,126.934689 152.835219,123.685048 C147.343887,125.016516 151.389445,110.755281 153.259285,108.458553 C156.662041,104.279637 154.000518,105.079787 155.851306,102.929824 C157.527459,100.982368 159.085071,102.671575 160.252839,100.049565 C163.788601,92.1105065 155.345744,92.6291225 156.460239,87.9273569 C157.165839,84.9507832 160.520262,83.9163736 162.041182,81.3434032 C163.54411,78.8011264 160.06021,76.1657104 159.775854,73.3902327 C159.417409,69.8936319 159.41635,69.0687855 161.408965,66.1881735 C162.779593,64.2061431 164.400003,61.8614342 164.167861,59.2655318 C163.890913,56.162303 160.962673,54.2204918 160.193922,51.1416062 C159.448455,48.1572709 161.157771,46.5100477 161.294305,43.8280621 C161.478114,40.2316189 159.834418,40.4951605 158.959827,37.3478317 C158.306794,34.997478 157.98998,29.7965004 156.03829,27.7753092 C153.986758,25.6511004 150.041396,26.1838284 147.698804,24.0370403 C145.718185,22.2222371 145.194982,19.6242179 144.08966,17.3564195 C142.834397,14.7802739 141.700498,13.7899643 138.823414,12.6578291 C135.441826,11.3274202 134.598987,12.0090299 131.698618,13.5324203 C126.772119,16.1191499 124.008636,13.9014491 120.61964,10.4627074 C115.922813,5.6963794 112.742321,8.07425142 108.020799,8.71564183 C103.407586,9.34256743 104.667082,8.09259702 99.4777467,10.683913 C95.0839755,12.8779763 92.6990474,19.5398987 92.6330738,24.0356291 C92.5155914,32.0491284 98.0464371,36.6087156 104.043684,36.2901372" id="Fill-130" fill="#552D00"></path>
                <path d="M90.6946495,20.9161362 C89.8334647,23.7674659 90.6466687,25.3070851 90.6247951,28.0970275 C90.6071551,30.3891691 89.4460903,32.3193379 86.9091055,32.0790811 C84.5090071,31.8518779 83.1824791,29.0421787 80.2810518,30.2028907 C77.4180798,31.3480795 78.5742054,34.3482908 75.4304046,35.5478108 C73.1442606,36.4199324 70.5409494,35.2066532 68.2255229,36.5367092 C65.7919085,37.9348556 66.1006085,40.8560396 63.7343789,42.3208652 C60.8340101,44.1159116 57.5776661,43.5800084 54.899914,46.3508996 C52.6391716,48.6899637 53.6965132,51.2968029 52.0288276,53.8048581 C50.1198268,56.6748861 45.959962,56.8932693 43.9490019,59.7544774 C42.3733971,61.9958158 42.0082491,65.9404726 43.4910675,68.345863 C39.7076403,66.5808046 36.6855555,60.0582382 37.2648531,56.1068781 C37.6377627,53.5646013 38.9321859,51.1193445 38.9170155,48.5280285 C38.8990227,45.5539244 36.5744235,43.6075268 36.2325603,40.8433388 C35.8409523,37.6751948 37.0881003,34.1112091 39.1992555,31.8451747 C41.1170763,29.7862339 43.8569211,29.1261451 45.413122,26.6272627 C46.7735188,24.4423723 46.8885316,21.7565059 48.127918,19.3885122 C50.0693764,15.6784674 52.1448988,15.5705106 55.5416572,13.8255618 C60.4039469,11.3277378 60.0091637,4.19024091 65.9291477,2.2932353 C68.6594669,1.41829129 70.7667414,2.5909985 73.3255998,2.6132249 C76.2901782,2.6393321 78.694863,0.777606486 81.584295,0.223710482 C84.7093975,-0.376049523 86.0496847,0.264635282 88.4959999,1.65713689 C91.1836303,3.18652491 91.8645343,2.8457201 95.0422039,2.2152665 C98.880668,1.45357129 107.340812,7.29805614 102.582951,11.311509 C100.931142,12.705069 97.8836552,11.4233466 95.7802616,12.8112618 C93.1656607,14.5368066 91.5674767,18.0263514 90.6946495,20.9161362" id="Fill-132" fill="#552D00"></path>
                <path d="M90.4777834,4.81205092 C90.6100834,4.85403412 90.7085146,4.88366932 90.7857778,4.90624852 C91.7506858,4.79264692 92.6880754,4.54321732 93.6494554,4.41373971 C95.1100474,4.21687731 96.4827922,4.27897011 97.749697,4.66881412 C99.9367042,5.05442452 102.017166,6.03203333 103.764937,7.65173814 C103.801981,7.68595974 103.837261,7.72194534 103.873952,7.75616694 C103.027232,4.58061412 97.823785,1.66331089 95.0423098,2.2154429 C91.8646402,2.8458965 91.1837362,3.18670131 88.4957529,1.65696049 C86.0497905,0.264811682 84.7095033,-0.375873123 81.5844009,0.223534082 C78.6949689,0.777430086 76.290284,2.6395085 73.3257056,2.6134013 C70.7664944,2.5908221 68.6595728,1.41846769 65.9292536,2.2934117 C60.0092695,4.19041731 60.4036999,11.3279142 55.5417631,13.8257382 C52.1450047,15.570687 50.0691294,15.678291 48.127671,19.3886886 C46.8886374,21.7566823 46.7736246,24.4425487 45.4132278,26.6270863 C43.857027,29.1263215 41.1168294,29.7864103 39.1990085,31.8449983 C37.1252501,34.0715191 35.8886861,37.5494216 36.2171429,40.6748768 C36.8648837,37.85918 38.3244173,35.2463432 40.5445878,33.3302863 C42.274719,31.8375895 44.4148038,31.1316367 46.4391702,30.1632007 C46.8491238,29.9670439 47.265075,29.7730039 47.6545662,29.5373335 C47.4894558,29.6114215 48.1643622,28.9887295 47.9099934,29.3125999 C48.1438998,29.0148367 48.3749838,28.7135455 48.5700822,28.3886167 C48.4847046,28.4976319 48.8957166,27.5884663 48.8833686,27.6237463 C49.5014742,25.8946735 49.7685438,24.0724615 50.3481942,22.3345687 C51.0245118,20.3077326 52.0811479,18.6379302 53.5629079,17.1103062 C55.0481959,15.579507 56.9903599,14.6043678 58.9191175,13.7498862 C60.5338831,13.0351134 61.7132935,12.7034814 62.5914127,11.3032182 C63.7274287,9.49194295 64.6425919,7.34233254 66.51596,6.13046453 C68.5068104,4.84239172 70.4316872,4.25180451 72.815204,4.30331331 C73.781876,4.32412851 74.741492,4.44090531 75.7074584,4.47653812 C75.9844064,4.48676932 76.0810736,4.50335092 76.105064,4.51781572 C76.163276,4.50158692 76.2701744,4.47724372 76.4571584,4.44161091 C76.4328152,4.44619732 77.7424089,4.08493011 77.1116024,4.31742531 C78.7771713,3.70425891 80.4864873,2.7806285 82.2758889,2.6169293 C84.8897841,2.3780837 86.8252449,3.1426013 89.1350265,4.23345891 C89.5724985,4.44019971 90.0149097,4.66493332 90.4777834,4.81205092" id="Fill-134" fill="#3D1B00"></path>
                <path d="M45.3274621,61.5194652 C46.6091845,64.097022 49.7939102,65.1497772 49.4252341,68.1005965 C49.1158285,70.5758413 46.6197685,73.3220365 46.8229813,75.8978293 C47.2237621,80.9792078 52.6074902,84.2895302 49.0763149,90.3555734 C46.2715549,95.1741159 40.3991989,96.1870047 44.8088461,102.636189 C45.7532917,104.017401 46.9115341,105.732714 48.5488789,106.148666 C46.2175765,107.281506 40.3014733,107.08535 38.0643685,106.00684 C24.4565196,99.4447599 34.6665516,92.9938119 28.6340244,94.5916431 C24.6184548,95.6549823 16.8483875,98.0984751 14.5149683,90.1389542 C13.8097211,87.733211 16.4158547,83.2029062 16.2267539,81.9469382 C16.2267539,81.9469382 13.5415931,81.8283974 11.6989187,83.9896502 C9.25895383,86.851211 9.29952583,89.0181086 9.32986663,90.222215 C9.44029303,90.340403 9.44593783,90.3354638 9.34715383,90.2077502 C8.08095462,88.7834966 6.75901301,86.868851 6.33741701,85.0402886 C5.6148826,81.9056606 7.66747302,80.1808214 8.52971623,77.4903685 C10.0520482,72.7392109 5.046169,66.679518 11.4971171,63.4538676 C14.0460971,62.1792012 16.2708539,63.0118092 18.0016907,60.143898 C19.5928187,57.506718 18.3297947,53.9914187 19.6887803,51.3316595 C21.1246763,48.5219603 24.2610684,47.1873179 27.2362308,47.7136955 C28.7712636,47.9853515 29.3558532,49.4529995 30.8630148,48.6937739 C33.4568004,47.3870027 34.3144572,44.0699771 35.4003756,43.2405443 C38.0633101,41.207005 40.7213053,41.5746226 44.1201805,41.0662378 C47.2029469,40.605481 52.096283,41.9358899 50.6102894,45.7747067 C49.5278989,48.5706467 45.9286333,48.5540651 44.2789405,50.6606339 C41.8756669,53.7289355 43.8220645,58.492794 45.3274621,61.5194652" id="Fill-136" fill="#552D00"></path>
                <path d="M9.44110447,82.3021019 C10.1615221,80.3578211 11.2975381,78.5895875 11.9413981,76.6146131 C12.5062309,74.8841291 12.4536637,73.0382795 12.7380205,71.2478194 C13.2562837,67.9847722 14.6110357,65.1479074 17.4038005,63.2431402 C18.3785869,62.578465 19.442279,62.0150434 20.3493278,61.2565234 C20.474219,61.1517418 20.5991102,61.0462546 20.7208262,60.9372394 C20.7790382,60.8500978 21.0305846,60.5459842 21.086327,60.4560202 C21.1043198,60.4274434 21.1166678,60.4083922 21.1318382,60.3851074 C21.1470086,60.3332458 21.1664126,60.2715058 21.1964006,60.184717 C21.2408534,60.0358354 21.2718998,59.9405794 21.290951,59.890129 C21.4317182,58.6295745 21.2560238,57.3422073 21.4751126,56.0936481 C21.8261486,54.0904497 22.5666758,52.3423257 24.2276582,51.0711873 C25.9401494,49.7605353 28.1959526,49.2680265 30.312047,49.5841353 C30.747755,49.6490505 31.1824046,49.7305473 31.6195238,49.7884065 C31.6004726,49.7855841 32.9432295,49.8243921 32.3328855,49.9168257 C32.4433119,49.9002441 32.5297479,49.8861321 32.5978383,49.8744897 C32.6161839,49.8582609 32.6299431,49.8466185 32.6444079,49.8339177 C32.8176327,49.6148289 32.9866239,49.3925649 33.1358583,49.1551305 C33.1436199,49.1431353 33.6082575,48.3119385 33.5130015,48.5253825 C33.7899495,47.9679585 34.0552551,47.4052425 34.3004511,46.8333536 C34.7968407,45.675464 35.2385463,44.4889976 35.7994983,43.3607432 C35.9113359,43.135304 36.0383439,42.9215072 36.1769943,42.719 C35.9176863,42.874232 35.6590839,43.0428704 35.4004815,43.2404384 C34.3145631,44.0698712 33.4565535,47.3872497 30.8631206,48.6936681 C29.355959,49.4528937 28.7713694,47.9852457 27.2363366,47.7135897 C24.2608214,47.1872121 21.1247822,48.5218545 19.6888862,51.3315537 C18.3299005,53.9913129 19.5929246,57.5069649 18.0017965,60.1437922 C16.2709597,63.0120562 14.0462029,62.1790954 11.4972229,63.4537618 C5.04627484,66.6794122 10.0521541,72.7394579 8.52982207,77.4902627 C7.66757886,80.1807155 5.61498844,81.9055547 6.33752285,85.0405355 C6.69067565,86.5720404 7.67604606,88.1628156 8.73056527,89.4769956 C8.46914047,87.0352668 8.60849647,84.5490851 9.44110447,82.3021019" id="Fill-138" fill="#3D1B00"></path>
                <path d="M162.482218,73.494344 C161.260118,81.4235241 165.524059,85.0294929 164.546803,88.3913241 C163.88742,90.6587698 161.865523,92.1218314 163.110907,94.4429026 C164.42297,96.8895706 164.71403,98.9128786 165.575215,101.022623 C166.118527,102.353031 164.197884,106.028855 162.418361,108.148124 C157.00535,114.593428 164.026776,122.072788 164.932061,122.314103 C157.696486,121.931668 152.571713,121.197844 151.587048,116.241709 C150.33355,109.932587 156.030564,108.639927 152.971788,103.376504 C151.748983,101.272405 151.521427,99.4092682 151.740516,96.760093 C151.953607,94.1832418 154.662053,92.9840746 154.845862,90.2488162 C155.207834,84.8562681 150.135629,82.1005473 156.333266,77.7720441 C157.167638,77.1892184 158.656454,76.7803232 159.470011,76.4952608 C159.117564,76.9457864 158.72772,76.9775384 158.253204,77.26754 L162.482218,73.494344 Z" id="Fill-140" fill="#552D00"></path>
                <path d="M119.426153,5.78207453 C122.001593,5.48572252 123.589898,3.70655211 126.340327,4.82916172 C128.486409,5.70516412 129.373701,8.00259774 131.838362,8.75794255 C134.752843,9.65087936 137.689197,8.64786895 140.484079,9.03418495 C143.732309,9.48365215 146.589989,11.2010826 148.381507,13.9052946 C150.00474,16.3558434 148.952338,18.4193706 149.886905,20.7474978 C150.84017,23.1221947 153.37398,23.3151763 155.447033,24.0825163 C158.107145,25.0668283 160.643777,27.1384699 162.184454,29.6768659 C163.757942,32.2692403 162.357679,36.7833164 162.012641,39.5630276 C161.618916,42.7389332 163.302478,48.4549989 164.944056,50.9842221 C167.709303,55.2453405 170.99881,57.6722517 170.605438,62.9755414 C170.248404,67.7944366 166.645963,68.7861574 166.046203,71.8234126 C165.626371,73.9493855 165.583683,78.2778887 173.840967,80.9242415 C171.123701,83.4495839 162.208445,83.8052063 160.100112,78.9916031 C158.873074,76.1903711 158.479702,76.5156527 158.218277,72.7770311 C157.988251,69.4878766 158.949984,68.8648318 156.941141,66.6376054 C152.680728,61.9136134 157.34933,55.6429461 153.830856,50.8501581 C151.466038,47.6280357 147.260662,47.7673917 144.881026,43.8890612 C142.676731,40.296146 142.151412,35.044718 138.891893,32.1616363 C135.426338,29.0961571 130.063425,29.6239459 126.132175,27.2344315 C122.430245,24.9842731 120.18185,19.3687554 115.699526,19.036065 C112.213156,18.7771098 95.9942348,19.5081114 99.9145484,12.5826474 C101.102426,10.484193 104.737677,6.48908573 108.17536,5.48113612 C112.155297,4.31407371 114.279506,6.37407293 119.426153,5.78207453" id="Fill-142" fill="#552D00"></path>
                <path d="M133.604832,54.1532128 C134.782831,55.2204328 134.428267,57.0412336 134.292086,58.4270321 C134.09346,60.4436369 133.909298,62.4729425 134.614193,64.4345105 C134.674874,64.6031489 134.741906,64.7647313 134.809291,64.9259609 C134.898549,65.0282729 134.987102,65.1319961 135.082358,65.2293689 C135.173028,65.3218025 135.233357,65.3860121 135.278515,65.4354041 C135.329671,65.4735065 135.391411,65.5207817 135.478905,65.5899305 C135.880745,65.9067449 136.288934,66.2175617 136.726406,66.4842785 C136.883049,66.5798873 136.972308,66.6377465 137.023817,66.6740849 C137.067564,66.6938417 137.114133,66.7150097 137.172345,66.7425281 C137.329341,66.8155577 137.487396,66.8861177 137.646156,66.9556193 C137.408721,66.5541329 137.204097,66.1265393 137.040398,65.6686049 C136.279409,63.5373401 136.239189,61.2540185 136.752866,59.0747729 C137.037576,57.8657273 137.457408,56.7395896 137.861364,55.5665296 C137.851133,55.597576 138.190173,54.253408 138.096681,54.9074992 C138.117849,54.757912 138.137606,54.6633616 138.155246,54.6023272 C138.146073,54.5645776 138.136548,54.5233 138.125611,54.4714384 C138.027885,53.999392 138.018007,53.5629784 138.076219,53.1618448 C137.505741,51.976084 136.583169,50.958256 135.229476,50.2343104 C133.762181,49.4493304 132.171758,49.053136 130.505131,48.9141328 C129.376524,48.8199352 127.422365,49.0481968 126.548479,48.192304 C125.47385,47.1395488 126.4377,45.0608512 126.644088,43.8493359 C126.951729,42.0437055 126.310339,40.1290599 125.347195,38.5636863 C123.667867,35.8351311 120.848289,34.9827663 117.683321,35.1108327 C114.65171,35.2339599 111.746049,36.2637831 108.715144,36.4599399 C107.068627,36.5661327 105.360722,36.1441839 103.833451,35.4078903 C102.990259,35.1535215 102.163296,34.8010743 101.36244,34.3332615 C96.583058,31.539791 95.0275627,25.690367 95.0589619,20.7501086 C95.0706043,18.9271909 95.3560196,16.9441021 96.0224588,15.1733989 C95.933906,15.2460757 95.8471172,15.3240445 95.7652676,15.4143613 C87.5570227,24.4541558 95.8735772,40.8134919 108.540156,40.5873471 C111.702655,40.5305463 114.693693,39.5977431 117.812445,39.2558799 C120.308858,38.9821071 122.444004,40.3809591 122.305353,43.0135527 C122.212214,44.7902536 121.505556,46.3482184 121.792735,48.1661968 C122.065802,49.8928 123.517927,51.540376 125.190199,52.2343336 C127.703899,53.2768576 131.520489,52.2646744 133.604832,54.1532128" id="Fill-144" fill="#552D00"></path>
                <path d="M36.7772482,53.7924748 C36.7084522,53.6531188 36.6424786,53.5077652 36.583561,53.3500636 C35.602777,50.7238204 35.9770978,47.6329396 38.127061,45.78709 C38.9134522,45.1118308 39.7739314,44.5819252 40.6150066,44.0086251 C41.0034394,43.7440251 41.4059842,43.5087075 41.7923002,43.2409323 C41.6942218,43.2966747 42.4022915,42.7339587 42.3726563,42.7600659 C43.2426611,41.9916675 43.9542587,41.2052763 44.5582523,40.3504419 C42.1846139,42.1123251 39.4334794,42.9597507 36.4452634,42.7110267 C34.5715426,43.3954587 33.0823738,44.742802 32.3859466,47.129494 C31.8881458,48.835282 31.7068066,50.8211932 32.2614082,52.5209836 C32.633965,53.661586 33.7579858,55.5035548 33.0834322,56.7320044 C32.535181,57.7304285 30.9401722,57.8771933 30.0581722,58.1823653 C28.7552817,58.6325381 27.5575257,59.3187341 26.5241745,60.3605525 C25.5712617,61.3212269 25.0117209,62.4865253 24.7612329,63.7491965 C24.8765985,64.1288093 24.9436305,64.5553445 24.9468057,65.0333885 C24.9471585,65.0863085 24.9464529,65.1282917 24.9457473,65.1667469 C24.9704433,65.2224893 25.0021953,65.3110421 25.0448841,65.4528677 C24.8582529,64.8333509 25.3588761,66.0780293 25.3451169,66.0501581 C25.8683193,67.1159669 26.3957553,68.1330893 26.8304049,69.2567573 C27.4478049,70.853883 27.7967241,72.5797806 27.8013105,74.3264934 C27.8348265,74.283099 27.8704593,74.2414686 27.9036225,74.1977214 C28.3820193,73.5647982 28.7365833,73.0574718 28.9235673,72.7339542 C29.1017313,72.4259598 29.2703698,72.1130262 29.437597,71.7986814 C29.3021218,70.5659982 28.9916577,69.3604805 28.6776657,68.1609605 C28.3312161,66.8372549 27.7363953,65.1314669 28.4906817,63.8695013 C29.8249714,61.6366301 33.0368626,61.9012301 34.8587218,60.4110029 C36.0705898,59.4192821 36.943417,57.5409749 36.8643898,55.8076684 C36.8149978,54.7298644 36.8326378,54.308974 36.7772482,53.7924748" id="Fill-146" fill="#3D1B00"></path>
                <path d="M39.3152209,48.360766 C38.2081345,49.6527196 36.3509952,49.8774532 35.1669984,48.8628004 L32.5943808,46.6581532 C31.410384,45.6435004 31.3479384,43.7740131 32.4553776,42.4817067 C33.5621112,41.1901059 35.4196032,40.9653723 36.6036,41.9800251 L39.1758649,44.1846723 C40.3598617,45.1993252 40.4223073,47.0688124 39.3152209,48.360766" id="Fill-148" fill="#FCB813"></path>
                <path d="M141.631702,52.0562049 C142.779361,55.1573169 142.571561,57.0610257 140.727829,60.4285018 C139.356495,62.9340874 139.205849,66.0186178 141.323708,68.2218538 C143.520593,70.5069394 147.084579,70.1753074 148.132042,73.6179299 C148.997813,76.4636147 148.23259,80.4491963 150.767106,82.7413379 C152.320131,84.1461875 155.557071,86.4041076 157.626243,85.7588364 C154.067197,85.7090916 152.509232,78.4618739 152.536398,76.1023475 C152.577675,72.5119019 154.013571,71.2157146 151.083567,68.6399218 C148.611497,66.4670266 144.347909,66.0256738 144.373311,62.2210786 C144.391657,59.4480705 146.063929,58.5660705 144.702121,55.5475137 C144.38707,54.8493225 143.030907,52.5561225 142.677754,52.9815993 L141.631702,52.0562049 Z" id="Fill-150" fill="#3D1B00"></path>
                <path d="M58.1000923,160.647658 C60.3248491,161.532127 66.2056724,164.44061 68.4992252,165.094702 C69.1603724,162.711538 71.2979876,158.763 71.8067252,157.71095 C74.2858508,152.584061 73.474058,149.295612 73.474058,149.295612 C73.474058,149.295612 72.84431,131.006813 70.9614164,131.163809 C69.330422,130.710813 59.0946355,132.669206 54.8426899,140.645309 C52.9841395,144.131326 49.022901,154.481419 47.9884914,157.148234 C49.0620618,157.702483 56.9965339,160.151621 58.1000923,160.647658" id="Fill-152" fill="#F5ACC4"></path>
                <path d="M52.9080052,155.139462 C52.1053852,155.356081 51.3796756,155.706411 50.7294652,156.188336 C51.3937876,155.754392 52.125142,155.399123 52.9080052,155.139462" id="Fill-154" fill="#F38FB0"></path>
                <path d="M50.222915,156.546852 C50.2984142,156.431133 50.376383,156.317179 50.4490598,156.199696 C51.016715,155.283828 51.5480318,154.347849 52.075115,153.40799 C55.6246358,147.074877 61.2736694,141.674567 67.6678167,137.853038 C67.1647239,134.538835 66.5025183,131.704792 65.7133047,131.770766 C64.0823103,131.317771 57.2016518,138.09647 52.9493534,146.072572 C51.090803,149.558589 49.0230421,154.48156 47.9886325,157.148376 C48.2408845,157.278559 48.6144997,157.440847 49.0484437,157.618305 C49.4051245,157.230578 49.7956742,156.870016 50.222915,156.546852" id="Fill-156" fill="#F38FB0"></path>
                <path d="M78.3895499,93.1010983 L95.8792572,96.5172608 C95.8792572,96.5172608 93.6054612,106.942854 85.7553084,106.247132 C77.9799491,105.558114 78.3743795,98.3733416 78.3895499,93.1010983" id="Fill-158" fill="#B62328"></path>
                <path d="M80.8131448,96.539346 C83.3839984,98.0750845 86.5186264,98.8441885 89.5040201,98.8784101 C91.4853449,98.9013421 93.4313897,98.6783725 95.3463881,98.2885285 C95.7200033,97.2400068 95.8794689,96.5171196 95.8794689,96.5171196 L78.3894088,93.1009572 C78.3887032,93.4075404 78.3865864,93.7208268 78.3848224,94.0386996 C79.0406776,95.0261868 79.7999032,95.934294 80.8131448,96.539346" id="Fill-160" fill="#FEFEFE"></path>
                <path d="M90.578543,103.291621 C90.6469862,104.18738 89.4502886,105.009051 87.906083,105.126533 C86.3615246,105.244369 85.0544006,104.613562 84.9859574,103.717803 C84.917867,102.822044 86.1142118,102.000725 87.6587702,101.88289 C89.2029758,101.765055 90.5104526,102.395861 90.578543,103.291621" id="Fill-162" fill="#D81C5A"></path>
                <path d="M70.2493249,139.324778 C68.0510281,145.580628 61.3291296,148.916352 55.235568,146.775209 L48.1756871,144.294319 C42.0821255,142.153176 38.9245654,135.3459 41.1228622,129.09005 L49.4013143,105.530772 C51.5996111,99.274922 58.3215096,95.939198 64.4150712,98.080694 L71.4749521,100.561231 C77.5685137,102.702727 80.7260738,109.510003 78.5277769,115.765853 L70.2493249,139.324778 Z" id="Fill-164" fill="#C7C7C2"></path>
                <path d="M39.0585589,382.419997 C38.9132053,382.406944 38.7671461,382.379073 38.6221453,382.33462 C37.4829541,381.987817 36.8405053,380.783358 37.1873077,379.644167 L50.4021374,336.225423 L37.6522981,161.756296 C37.6138429,161.254262 37.7517877,160.754697 38.0428477,160.344038 C39.1008949,158.850988 48.4508005,145.691195 50.9493302,143.382472 C51.8235686,142.57456 53.1878462,142.628186 53.996111,143.502424 C54.8043758,144.377368 54.7503974,145.741293 53.8758062,146.549558 C52.3058462,148.000271 45.9589741,156.654103 42.0118477,162.202941 L54.7331102,336.299511 C54.7539254,336.566934 54.7242902,336.83612 54.6463214,337.092606 L41.3125981,380.899782 C41.0102485,381.893973 40.0541605,382.509609 39.0585589,382.419997" id="Fill-166" fill="#C7C7C2"></path>
                <path d="M76.5304703,379.591388 C75.8615615,379.531059 75.2311079,379.160266 74.8641959,378.537927 L50.7252669,337.559501 C50.1212733,336.533559 50.4627837,335.211617 51.4890789,334.607271 C52.5153741,334.002924 53.8373157,334.34514 54.4413093,335.37073 L78.5802383,376.349156 C79.1842319,377.375098 78.8427215,378.69704 77.8167791,379.301386 C77.4131759,379.538821 76.9637087,379.630196 76.5304703,379.591388" id="Fill-168" fill="#C7C7C2"></path>
                <path d="M44.8844159,167.948254 C44.8311431,169.988849 42.7196351,171.58915 40.168891,171.522471 C37.618147,171.455439 35.5934278,169.747534 35.6467006,167.706586 L35.7758254,162.780087 C35.8290982,160.739139 37.9402534,159.138838 40.4909974,159.205517 C43.0420943,159.272549 45.0668135,160.980807 45.0131879,163.021402 L44.8844159,167.948254 Z" id="Fill-170" fill="#C7C7C2"></path>
                <path d="M51.4204946,256.274345 C51.5094002,258.313529 49.5150217,260.057067 46.9656889,260.168199 C44.4160033,260.279684 42.2773297,258.716427 42.1884241,256.67689 L41.9739217,251.753566 C41.8846633,249.713677 43.8793945,247.970492 46.4287273,247.859007 C48.9780601,247.747875 51.1167338,249.311132 51.2056394,251.350669 L51.4204946,256.274345 Z" id="Fill-172" fill="#C7C7C2"></path>
                <path d="M58.1833178,342.440595 C58.3113842,344.478015 56.3505218,346.259302 53.8036586,346.419121 C51.2571482,346.578939 49.0888393,345.057313 48.9607729,343.019893 L48.6517201,338.101155 C48.5240065,336.064088 50.484869,334.282448 53.0313794,334.12263 C55.5782426,333.962811 57.7465514,335.484438 57.8746178,337.52221 L58.1833178,342.440595 Z" id="Fill-174" fill="#C7C7C2"></path>
                <path d="M30.900588,165.635756 C30.900588,165.635756 30.165,158.391361 33.3073896,151.82293 C36.450132,145.2545 45.9146977,141.105572 47.0182561,140.50687 C48.1214617,139.908874 49.1301169,142.719984 47.4278569,145.32259 C45.7252441,147.924843 43.1872009,149.591117 43.1872009,149.591117 C43.1872009,149.591117 46.6700425,149.671203 46.2244561,152.229003 C45.7785169,154.786803 44.1902113,155.300833 44.1902113,155.300833 C44.1902113,155.300833 48.2470585,154.953324 47.4056305,156.915245 C46.5642025,158.877166 44.0064025,159.222205 44.0064025,159.222205 C44.0064025,159.222205 49.8491234,158.658783 47.9044897,161.219053 C45.9598561,163.779322 33.4527432,168.188969 33.4527432,168.188969 C33.4527432,168.188969 31.3158336,167.552871 30.900588,165.635756" id="Fill-176" fill="#D17134"></path>
                <path d="M45.8385635,172.034736 C44.5748339,175.028597 40.877137,174.565724 37.5654034,173.168283 C34.2540226,171.770489 32.5831618,169.968034 33.8465386,166.97382 L44.1003179,138.433711 C45.3640475,135.439498 49.8805931,135.211236 53.1919739,136.60903 L54.0323435,136.948071 C57.3437244,138.345511 59.1461796,140.863798 57.88245,143.858011 L45.8385635,172.034736 Z" id="Fill-178" fill="#C7C7C2"></path>
                <path d="M52.4883849,141.331328 L51.6480153,140.992288 C48.3366345,139.594847 43.7816336,139.674932 42.5182568,142.668793 L36.8004272,158.75224 C39.9110648,159.347766 42.6533792,161.174917 44.3334128,164.098218 C45.4380296,166.019567 46.1351624,168.140953 46.5673424,170.330077 L56.8500513,148.037704 C58.1134281,145.043843 55.8001185,142.728769 52.4883849,141.331328" id="Fill-180" fill="#B2B2AF"></path>
                <path d="M62.9237151,136.966275 C66.5635527,138.384884 68.7745503,139.865585 69.2377767,141.227041 C69.2554167,141.278902 69.2755263,141.334997 69.2988111,141.393562 C69.6710151,140.745821 69.9924159,140.056097 70.2492543,139.324743 L70.7036607,138.031731 C69.5828151,136.874547 67.6318311,135.558603 64.1137095,134.178802 C63.7210431,135.109841 63.3248487,136.039117 62.9237151,136.966275" id="Fill-182" fill="#93918F"></path>
                <path d="M66.0825452,129.469134 C65.8899164,129.930596 65.6976404,130.392764 65.5050116,130.854579 C68.7479492,132.062214 70.9600052,133.321357 71.937614,134.520171 L73.040114,131.383074 C71.7658004,130.352545 69.7911788,129.224291 66.6681932,128.054053 C66.4738004,128.526099 66.2790548,128.997793 66.0825452,129.469134" id="Fill-184" fill="#93918F"></path>
                <path d="M67.9998721,124.756114 C70.8222721,125.734428 72.9595345,126.755431 74.3142865,127.756678 L75.3550465,124.794569 C73.9382017,123.886815 71.9392369,122.920143 69.0953161,121.928775 C68.7375769,122.873926 68.3720761,123.815902 67.9998721,124.756114" id="Fill-186" fill="#93918F"></path>
                <path d="M70.078605,119.263406 C72.8046906,120.200796 74.9052618,121.178052 76.2875322,122.140843 L77.321589,119.198843 C75.882165,118.31014 73.8807306,117.367811 71.0738538,116.402551 C70.7517474,117.36005 70.4197626,118.313668 70.078605,119.263406" id="Fill-188" fill="#93918F"></path>
                <path d="M72.8953249,110.843587 C72.5767465,111.801792 72.2634601,112.762466 71.9526433,113.723846 C74.6787289,114.639009 76.8089353,115.595097 78.2557681,116.540249 L78.5277769,115.765853 C78.7913185,115.0158 78.9758329,114.257632 79.0897873,113.500524 C77.6164945,112.651334 75.6217633,111.756986 72.8953249,110.843587" id="Fill-190" fill="#93918F"></path>
                <path d="M43.601882,136.244834 C43.601882,136.244834 51.6693597,139.465193 52.6794261,139.299729 C53.6894925,139.134266 60.4064518,115.351665 61.5075406,112.234677 C63.8825902,105.511015 68.2640134,103.336003 69.106147,103.001901 C69.9486334,102.6678 63.2270878,99.451322 58.5143853,99.9427724 C52.7898525,100.539004 42.5872292,138.092801 43.601882,136.244834" id="Fill-192" fill="#DEDEDD"></path>
                <path d="M48.3641529,132.623131 C48.7296537,131.681155 49.0997409,130.741295 49.4737089,129.802847 C45.581972,128.136926 43.1444768,127.79224 41.5226552,127.951706 L41.1229328,129.089839 C40.85798,129.843419 40.67276,130.604762 40.5591584,131.365046 C40.6808744,131.320593 40.785656,131.270495 40.8763256,131.224984 C42.1622816,130.580066 44.7765296,131.078219 48.3641529,132.623131" id="Fill-194" fill="#93918F"></path>
                <path d="M50.8165362,126.458621 C51.003873,125.994336 51.1912098,125.530051 51.377841,125.066472 C51.5687058,124.592662 51.7616874,124.120262 51.9543162,123.647863 C48.0205962,121.89233 45.4952538,121.428398 43.789113,121.502134 L42.6058218,124.870315 C42.654861,124.847383 42.702489,124.824098 42.7462362,124.802225 C44.0999298,124.123085 46.9297386,124.714378 50.8165362,126.458621" id="Fill-196" fill="#93918F"></path>
                <path d="M53.3212751,120.364001 C53.7160583,119.433314 54.1171919,118.505803 54.5260871,117.581467 C50.5743743,115.707746 47.9283743,115.047305 46.0878167,114.960869 L45.0061319,118.038696 C46.6734647,117.766334 49.5533711,118.56966 53.3212751,120.364001" id="Fill-198" fill="#93918F"></path>
                <path d="M55.6969951,114.993115 C56.1207079,114.077246 56.5535935,113.165258 56.9967103,112.257151 C52.6689127,110.182334 49.8796758,109.541296 47.9974878,109.52542 L46.8819342,112.70062 C48.4832934,112.209875 51.5635902,113.01179 55.6969951,114.993115" id="Fill-200" fill="#93918F"></path>
                <path d="M58.2511965,109.732479 C58.7048973,108.829663 59.1561285,107.92579 59.6020677,107.019799 C54.8928933,104.715663 51.9515997,104.06651 50.0133165,104.094734 C49.7832909,104.554786 49.5765501,105.032477 49.4012085,105.530983 L48.7435893,107.402587 C50.2595709,106.643009 53.6224605,107.471736 58.2511965,109.732479" id="Fill-202" fill="#93918F"></path>
                <path d="M41.389826,151.276725 C41.1033524,147.394514 50.7855957,148.922843 53.6069373,150.425419 C52.2793509,147.555038 48.8631885,147.584673 47.7243501,147.033247 C47.0409765,146.70232 47.5204317,144.121588 49.3683981,143.749031 C64.5437374,143.396584 59.9400502,162.15108 65.3516494,166.563196 L61.8116542,166.854609 C60.1316206,172.647585 52.5929901,169.908446 50.4257397,165.436353 C49.2604413,163.032021 47.9660181,161.978913 46.3822988,161.043993 C44.7064988,160.054036 37.2722972,160.000411 41.2070756,156.064574 C38.4781676,155.455288 40.812998,151.724781 43.647746,152.905956 C41.941958,152.539396 41.261054,152.301609 41.389826,151.276725" id="Fill-204" fill="#D17134"></path>
                <polygon id="Fill-206" fill="#EF6692" points="77.3311499 152.246255 82.2061403 149.683163 87.0814836 152.246255 86.1504444 146.817721 90.0943956 142.97326 84.6439883 142.181576 82.2061403 137.242376 79.7686451 142.181576 74.3182379 142.97326 78.2621891 146.817721"></polygon>
                <polygon id="Fill-208" fill="#EF6692" points="88.1037921 172.854397 85.6662969 167.915197 83.2288017 172.854397 77.7783945 173.646433 81.7223457 177.490894 80.7913065 182.919075 85.6662969 180.356336 90.5412874 182.919075 89.6102481 177.490894 93.5541994 173.646433"></polygon>
                <path d="M113.266794,188.569837 L110.829298,193.509038 L105.378891,194.300721 L109.322842,198.145535 L108.391803,203.573716 L113.266794,201.010977 L117.647159,203.313702 C117.039284,200.05383 116.426471,196.769262 115.822124,193.525972 L115.704289,193.509038 L113.266794,188.569837 Z" id="Fill-210" fill="#EF6692"></path>
                <path d="M115.822018,193.525901 L115.704536,193.508967 L113.266688,188.569767 L110.829193,193.508967 L109.005217,193.77392 C109.084949,195.169949 109.174208,196.565626 109.268405,197.960597 C109.270169,197.976826 109.271933,197.993055 109.273697,198.009284 C109.278637,198.045975 109.282517,198.077727 109.286751,198.110185 L109.322737,198.145465 L109.304744,198.251305 C109.313564,198.321159 109.32062,198.377607 109.325912,198.420649 C109.530536,199.869245 109.743627,201.317489 109.920733,202.769614 L113.266688,201.010906 L117.647053,203.313632 C117.039178,200.05376 116.426365,196.769192 115.822018,193.525901" id="Fill-212" fill="#E2487D"></path>
                <polygon id="Fill-214" fill="#EF6692" points="79.4799841 201.162469 77.0424889 196.223622 74.6049937 201.162469 69.1545865 201.954505 73.0985377 205.798967 72.1674985 211.227148 77.0424889 208.664761 81.9174794 211.227148 80.9864402 205.798967 84.9303914 201.954505"></polygon>
                <path d="M112.58342,219.254124 L107.133013,218.462088 L104.695518,213.523241 L102.258022,218.462088 L96.8076152,219.254124 L100.751566,223.098585 L100.584692,224.072313 C103.297018,223.926254 106.007581,223.755499 108.716026,223.543466 L108.639469,223.098585 L112.58342,219.254124 Z" id="Fill-216" fill="#EF6692"></path>
                <path d="M60.6835762,164.394605 C60.6835762,164.394605 90.2492748,181.306779 101.705044,176.628298 C113.160813,171.95017 106.710923,150.424078 106.710923,150.424078 L120.344173,148.949021 C120.344173,148.949021 130.626882,183.442983 109.073625,188.764971 C87.520014,194.087312 56.6316681,169.094254 56.6316681,169.094254 L60.6835762,164.394605 Z" id="Fill-218" fill="#D17134"></path>
                <path d="M120.145688,142.187327 C115.630554,132.583405 102.684558,128.843725 102.684558,128.843725 C102.684558,128.843725 102.201927,135.630186 102.056574,143.211505 C103.519282,146.680941 104.198422,150.567385 104.80665,154.181469 C105.348198,157.397593 105.773674,160.635239 105.998761,163.882058 C111.097426,164.447949 125.129694,164.244736 125.129694,164.244736 C125.129694,164.244736 124.660823,151.791249 120.145688,142.187327" id="Fill-220" fill="#F5ACC4"></path>
                <path d="M102.494681,134.301859 C104.467538,135.184917 109.349938,136.72877 111.257174,137.747304 C113.2512,138.812407 116.433809,142.585603 117.45199,144.679824 C119.069225,148.004964 119.489762,151.331515 119.723669,152.411789 C120.788066,157.323117 120.908018,159.287861 121.321147,164.2761 C123.578714,164.266927 125.129623,164.244701 125.129623,164.244701 C125.129623,164.244701 124.660752,151.791213 120.145618,142.187292 C115.630483,132.58337 102.68484,128.84369 102.68484,128.84369 C102.68484,128.84369 100.060008,129.768379 99.9090094,132.740719 C101.156863,133.144675 101.247533,133.743376 102.494681,134.301859" id="Fill-222" fill="#F38FB0"></path>
                <path d="M109.639727,159.924629 L112.884076,161.630065 L111.953037,156.201884 L115.896988,152.357422 L110.446581,151.565386 L108.008733,146.626539 L107.769887,147.110933 C108.018964,149.385788 108.350243,151.973928 108.795124,154.920161 C108.952473,155.961627 109.243886,157.67941 109.639727,159.924629" id="Fill-224" fill="#E2487D"></path>
                <path d="M100.121042,152.357352 L104.064993,156.201813 L103.133954,161.630347 L108.008945,159.067255 L109.639586,159.924559 C109.243745,157.67934 108.952685,155.961556 108.795336,154.920444 C108.350455,151.974211 108.019176,149.385717 107.770099,147.110863 L105.571449,151.565316 L100.121042,152.357352 Z" id="Fill-226" fill="#EF6692"></path>
            </g>
        </g>
    </g>
</svg>