<svg width="178px" height="390px" viewBox="0 0 178 390" version="1.1" xmlns="http://www.w3.org/2000/svg" xmlns:xlink="http://www.w3.org/1999/xlink">
    <defs>
        <polygon id="path-1" points="0.260728801 0.231060896 111.501511 0.231060896 111.501511 29.8799997 0.260728801 29.8799997"></polygon>
        <polygon id="path-3" points="0.292739112 0.0359069257 27.9917997 0.0359069257 27.9917997 24.8520609 0.292739112 24.8520609"></polygon>
        <polygon id="path-5" points="0 0.17018421 17.5825743 0.17018421 17.5825743 14.178255 0 14.178255"></polygon>
    </defs>
    <g id="SU-Main" stroke="none" stroke-width="1" fill="none" fill-rule="evenodd">
        <g id="SU-login-Kids" transform="translate(-1373.000000, -78.000000)">
            <g id="Group-183" transform="translate(1373.000000, 78.000000)">
                <g id="Group-3" transform="translate(48.239999, 359.643596)">
                    <mask id="mask-2" fill="white">
                        <use xlink:href="#path-1"></use>
                    </mask>
                    <g id="Clip-2"></g>
                    <path d="M104.282891,9.0415799 C121.831091,20.0089798 105.333011,29.8801797 76.8638511,29.8801797 C48.3946914,29.8801797 3.87493196,13.0732198 1.18717199,9.0415799 C-5.39362794,-0.82925999 24.2656917,0.267299997 52.7352114,0.267299997 C81.2043711,0.267299997 100.173491,6.47297992 104.282891,9.0415799" id="Fill-1" fill="#231F20" mask="url(#mask-2)"></path>
                </g>
                <path d="M16.7974558,196.185418 C18.7072558,196.578898 44.4069355,178.394938 48.2906154,169.662058 C52.1742954,160.929178 55.4628954,154.743658 55.4628954,154.743658 L59.6381753,164.832658 C59.6381753,164.832658 57.8248553,182.289418 46.2573355,190.092058 C36.6647756,196.562338 21.5426158,202.163938 21.5426158,202.163938 L16.7974558,196.185418 Z" id="Fill-4" fill="#FABC8E"></path>
                <path d="M55.4628234,154.743766 C55.4628234,154.743766 52.1742234,160.929286 48.2905434,169.662166 C47.5885434,171.240766 45.6060235,174.426046 43.7473435,176.456806 C47.0222635,178.657846 49.3637034,181.774006 47.0708635,185.320366 C45.7712635,187.330606 44.9177035,188.166886 43.0118635,189.561886 C42.8822635,189.656926 42.7901035,189.723166 42.7206235,189.772126 C42.6975835,189.804886 42.5964235,189.905686 42.3347035,190.140406 C41.8800235,190.548286 41.4246235,190.956166 40.9458235,191.335606 C39.9079435,192.158566 38.8632235,192.982606 37.7519036,193.706206 C36.2751836,194.667766 34.7376236,195.531406 33.1608236,196.324486 C31.6941836,197.368486 30.2009036,198.366406 28.6511037,199.276846 C33.8563436,197.029726 40.9134235,193.696846 46.2572635,190.092166 C57.8251433,182.289526 59.6384633,164.832406 59.6384633,164.832406 L55.4628234,154.743766 Z" id="Fill-6" fill="#F79E65"></path>
                <path d="M89.311787,136.724074 C90.301067,136.432834 128.661587,131.501914 141.607186,133.607194 C154.552786,135.712114 171.378466,164.966794 171.378466,164.966794 L161.270746,167.429194 C161.270746,167.429194 142.445266,143.048194 135.738466,141.768754 C129.031667,140.489314 91.4869069,143.146834 91.4869069,143.146834 C91.4869069,143.146834 85.180067,137.941234 89.311787,136.724074" id="Fill-8" fill="#FABC8E"></path>
                <path d="M116.099459,135.467962 C124.932779,135.289402 134.472778,133.368082 143.065258,136.267882 C147.720418,137.838562 151.699858,139.898842 155.343778,143.232082 C155.923378,143.762722 156.494338,144.303082 157.062058,144.847402 C152.119618,139.227082 146.577778,134.415322 141.607258,133.607122 C128.661659,131.501842 90.300779,136.432762 89.311859,136.724002 C85.180139,137.941162 91.4866189,143.146762 91.4866189,143.146762 C91.4866189,143.146762 98.5681789,142.645642 107.128619,142.183402 C108.347939,138.375682 111.924539,135.552202 116.099459,135.467962" id="Fill-10" fill="#F79E65"></path>
                <path d="M80.2063071,211.481206 L120.868307,210.044086 C124.912907,207.969766 132.123346,201.172966 132.088786,198.857446 C128.461787,179.338246 117.541547,165.841486 108.478907,153.055006 C97.9604269,138.214366 94.2499069,133.265446 92.7843469,132.888526 C89.230787,131.974126 81.4767471,131.178166 70.1065072,134.889766 C64.7774272,136.629286 50.5135074,148.681726 51.4235874,149.541046 C71.7873472,168.767206 80.3395071,199.502926 80.2063071,211.481206" id="Fill-12" fill="#231F20"></path>
                <path d="M103.454819,156.566086 C102.742379,156.720166 84.892139,134.256166 88.559459,132.815806 C92.2264189,131.375446 122.929019,128.541527 124.242299,129.034007 C130.736338,131.469766 129.444298,152.242846 129.444298,152.242846 C129.444298,152.242846 109.200419,155.324086 103.454819,156.566086" id="Fill-14" fill="#231F20"></path>
                <path d="M37.8570956,170.365102 C38.1126956,170.718622 38.3682956,171.072142 38.6350556,171.417382 C38.6670956,171.459142 38.6890556,171.487942 38.7146156,171.521422 C38.7340556,171.544102 38.7477356,171.560302 38.7700556,171.586942 C39.9598555,173.000302 41.2248955,174.353902 42.5968555,175.593382 C43.2218155,176.158222 43.8564955,176.714062 44.5156555,177.239662 C44.6466955,177.344062 45.0779755,177.669862 45.1899355,177.758422 C45.3443755,177.869302 45.4966555,177.983062 45.6532555,178.090342 C47.1479755,179.115982 48.6959754,180.066742 50.3109354,180.891862 C51.0572154,181.272742 51.8092554,181.643182 52.5764154,181.980502 C52.8172554,182.086702 53.0598954,182.188222 53.3018154,182.291542 C53.5041354,182.370022 53.7687354,182.472982 53.8770954,182.512582 C54.7947354,182.845582 55.7228154,183.148702 56.6588153,183.426982 L69.3120952,167.402662 C69.3120952,167.402662 56.6829353,149.709382 53.0577354,147.818302 C52.8449754,147.707422 52.6059354,147.662782 52.3452954,147.673942 C47.7524154,153.285262 43.9518955,159.044902 40.0192555,165.572422 C39.1743355,166.974982 38.3034956,168.361342 37.4283356,169.744822 C37.5705356,169.952182 37.7098556,170.161342 37.8570956,170.365102" id="Fill-16" fill="#231F20"></path>
                <path d="M48.2141514,108.077903 C60.3087113,125.124623 77.9490711,138.275782 104.751071,133.492102 L135.26755,125.533583 C144.55879,122.146703 157.88959,111.444983 147.59719,94.5440629 L127.896551,60.5791433 C123.105671,52.8899034 110.212271,51.5766234 99.0987109,57.6462233 L58.8525113,79.6256631 C47.7385914,85.695263 42.6132715,96.8491429 47.4041515,104.538383 L48.2141514,108.077903 Z" id="Fill-18" fill="#EA9D22"></path>
                <path d="M53.1170274,152.106154 C56.6770673,149.931394 60.3832673,147.996034 64.1805473,146.309434 C74.3177871,141.807274 85.454747,141.154234 95.7518269,139.501474 C96.3170269,139.410754 96.8811469,139.316794 97.4449069,139.221034 C94.9630669,135.129994 93.5428669,133.083394 92.7843469,132.888274 C89.230787,131.973874 81.4767471,131.177914 70.1065072,134.889874 C64.7774272,136.629394 50.7251874,148.501834 51.4232274,149.541154 C52.0035474,150.404074 52.5676674,151.259074 53.1170274,152.106154" id="Fill-20" fill="#231F20"></path>
                <path d="M63.8505713,140.393158 C65.4856912,140.999038 67.2424912,141.349318 69.0669712,141.461998 C72.1172512,141.650998 75.0894111,140.784838 77.6652111,138.911758 C80.0818911,137.154238 82.096091,134.817118 83.492891,132.199918 C79.8406911,132.423118 75.3608511,133.174798 70.1062912,134.889838 C68.2026112,135.511198 65.2268512,137.406238 62.2053713,139.639678 C62.7093713,139.921918 63.2576513,140.173558 63.8505713,140.393158" id="Fill-22" fill="#FEFEFE"></path>
                <path d="M66.1745872,137.482738 C65.2558672,137.361058 59.7248273,121.701059 59.7248273,121.701059 L71.8607872,116.361179 L77.3374671,132.690778 C77.3374671,132.690778 73.6809471,138.478138 66.1745872,137.482738" id="Fill-24" fill="#F3A375"></path>
                <path d="M66.0670192,137.190238 C65.1486592,137.068558 59.6172593,121.408559 59.6172593,121.408559 L71.7535792,116.068679 L77.2298991,132.398278 C77.2298991,132.398278 73.5733791,138.185998 66.0670192,137.190238" id="Fill-26" fill="#ED8F57"></path>
                <path d="M124.080983,99.8196828 C123.647183,99.8646828 123.215183,99.9186828 122.782823,99.9712428 C121.945463,100.244123 120.923063,100.346003 120.092543,100.542923 C116.450783,101.407643 112.783103,102.236363 109.260143,103.458923 C108.486143,103.727483 107.726543,104.089643 106.953983,104.379803 C106.870823,104.421923 106.786223,104.462603 106.704863,104.507243 C105.980543,104.901803 105.270983,105.323363 104.581943,105.769763 C104.366303,105.909443 103.476023,106.571843 102.974183,106.930403 C102.942143,106.958843 102.914063,106.984043 102.892823,107.003483 C102.520943,107.340803 102.154823,107.684243 101.786183,108.024443 C100.890863,108.851003 99.9948228,109.677923 99.1005829,110.506283 C97.4337829,112.049963 95.7709429,113.597243 94.1135029,115.149563 C90.7809829,118.271123 87.468263,121.411403 84.185063,124.579043 C83.967263,124.789283 83.750903,125.000963 83.533103,125.211203 C84.488903,125.552843 85.416983,125.979083 86.152463,126.347003 C88.462223,127.502603 93.0810229,127.053323 94.8792229,125.359163 C96.6777829,123.665003 95.6089429,128.283083 97.9323829,127.338083 C101.290463,125.972243 107.634383,124.165403 111.139343,123.165683 C116.286263,121.697603 124.271063,113.128883 125.488583,109.986083 C126.765143,106.690283 117.755783,113.126363 126.476783,106.758683 C128.134223,105.548363 130.134742,102.596003 128.996063,99.4431228 C127.354823,99.5421228 125.714303,99.6508428 124.080983,99.8196828" id="Fill-28" fill="#000000"></path>
                <path d="M39.7193395,111.789503 C39.6109795,111.367223 39.4936195,110.947823 39.3776995,110.527703 C38.9842195,109.740023 38.7325796,108.743543 38.4150596,107.951543 C37.0229396,104.477183 35.6621396,100.971503 33.9334196,97.6674229 C33.5536196,96.9416629 33.0834596,96.2436229 32.6824196,95.5221829 C32.6284196,95.4465829 32.5758596,95.3688229 32.5200596,95.2950229 C32.0225396,94.6369429 31.5012596,93.9972229 30.9580196,93.3816229 C30.7877396,93.1886629 30.0011397,92.4060229 29.5723797,91.9625029 C29.5399797,91.9351429 29.5111797,91.9110229 29.4884997,91.8923029 C29.1000597,91.5747829 28.7065797,91.2633829 28.3156197,90.9491029 C27.3659397,90.185183 26.4158997,89.420903 25.4647797,88.658783 C23.6917797,87.238223 21.9162597,85.821623 20.1364198,84.411503 C17.1721798,82.062503 14.1935398,79.7343831 11.2037399,77.4228231 C11.1029399,78.0791031 10.9765799,78.7163031 10.7728199,79.2559431 C10.7220599,79.9547031 10.6820999,80.6527431 10.6745399,81.3536631 C10.6730999,81.4897431 10.6280999,82.295063 10.6324199,83.001743 C10.6435799,83.054303 10.6547399,83.106863 10.6669799,83.166263 C11.0003399,84.761423 11.3632199,86.345783 11.7365399,87.931223 C12.7942199,88.801703 10.0564199,87.141743 10.9398599,88.634663 C12.7859399,91.7544229 14.6438998,100.045223 16.1494198,103.364063 C18.3608998,108.238463 20.6026198,108.635183 23.5837797,110.207663 C27.1661397,112.098023 27.5621397,111.521303 35.1469796,119.207663 C36.5887796,120.668903 37.8664196,118.186703 40.8166195,116.595143 C40.4764195,114.986303 40.1272195,113.379983 39.7193395,111.789503" id="Fill-30" fill="#000000"></path>
                <path d="M50.7501354,131.797798 C79.4734551,141.598078 115.092935,127.293119 125.491175,96.4540789 C135.880054,65.6132392 117.107855,29.9113197 88.385615,20.1131998 C51.6432954,7.58123991 29.0453757,24.1376397 17.5610158,58.2159593 C7.17069592,89.056079 22.0264557,121.998959 50.7501354,131.797798" id="Fill-32" fill="#F79E65"></path>
                <path d="M47.0715475,122.127551 C74.4470271,134.18215 110.838347,122.848991 123.924347,93.0553909 C137.001346,63.2596313 121.815467,26.2793517 94.4407069,14.2269118 C67.0641472,2.17519197 39.3369475,34.1478716 26.2552677,63.9454313 C13.1768278,93.7404709 19.6957078,110.074391 47.0715475,122.127551" id="Fill-34" fill="#FABC8E"></path>
                <path d="M60.6700073,66.5444872 C60.6048473,67.6928872 60.0684473,69.8759272 60.5990873,70.8652072 C59.6166473,69.0338872 69.8849272,65.3460472 71.1272872,64.9216072 C76.8264471,62.8490873 88.283087,60.7099673 93.5545669,57.6150473 C100.168487,53.7313674 102.034007,51.7758474 116.480087,60.4093673 C153.066526,82.275047 108.180287,41.1270475 107.351567,40.7353675 C95.9773669,35.3587676 78.2804871,32.9932076 66.0419272,31.4063276 C33.7726076,27.2245677 19.9277278,38.0692076 16.0505278,67.7288872 C14.7826078,77.4254871 16.1851678,87.343847 19.7740078,96.4496869 C20.4004078,89.315207 22.2068877,80.6489271 28.6699677,77.3128071 C29.9004477,75.3508071 31.3710476,73.5421671 33.1991276,72.1676872 C37.0320476,69.2858872 41.4942475,67.8534472 46.1418475,66.8861272 C50.1443274,66.0530872 54.0125274,63.8020073 58.2047273,64.1962073 C60.2221673,64.3855673 60.7880873,64.4644073 60.6700073,66.5444872" id="Fill-36" fill="#F79E65"></path>
                <path d="M115.029467,109.332971 C115.003187,114.081011 119.691467,114.594011 123.673427,113.400611 C127.653947,112.209011 132.485506,106.872731 132.511786,102.124331 C132.534466,97.3780909 129.325067,94.4991709 125.343467,95.6911309 C121.362587,96.8845309 115.051787,104.589251 115.029467,109.332971" id="Fill-38" fill="#FABC8E"></path>
                <path d="M126.127943,107.668151 C125.495783,104.546951 122.663303,102.266351 118.869263,106.706231 C125.086823,96.7104709 133.832662,98.5651909 126.127943,107.668151" id="Fill-40" fill="#F79E65"></path>
                <path d="M23.1983637,98.0576629 C21.7313637,102.566303 17.1266038,101.537063 13.7267638,99.1185829 C10.3283639,96.7019029 7.42460391,90.082223 8.8916039,85.573223 C10.3614839,81.0674631 14.3078038,79.3761831 17.7076438,81.7935831 C21.1064038,84.212063 24.6678837,93.5544229 23.1983637,98.0576629" id="Fill-42" fill="#FABC8E"></path>
                <path d="M11.9608199,92.8095469 C13.5408598,90.055547 16.9417798,88.809587 19.1435398,94.2441469 C16.3902598,82.760507 7.51769991,81.6905871 11.9608199,92.8095469" id="Fill-44" fill="#F79E65"></path>
                <path d="M53.9022594,97.2597949 C52.9658994,96.6953149 51.2987394,89.629235 57.2614193,90.8723149 C58.4695793,91.1239549 61.8089393,92.2367149 62.8370993,90.9677149 C61.5839393,90.8312749 57.8827793,89.790875 56.1292193,89.270315 C53.5001394,88.489835 50.9329794,90.302075 50.6104194,93.9668749 C50.5020594,95.2009549 50.8310994,97.2025549 52.0198194,98.2623949 C54.1261794,99.8388348 59.6561393,100.465595 60.6180593,100.080035 C55.2457794,98.6742349 53.9105394,97.2648349 53.9022594,97.2597949" id="Fill-46" fill="#ED8F57"></path>
                <path d="M54.3557514,92.3685109 C54.2949114,93.1392709 55.4389914,93.8941909 56.9113913,94.0554709 C58.3837913,94.2163909 59.6272313,93.7224709 59.6884313,92.9517109 C59.7492713,92.1813109 58.6051913,91.4260309 57.1324313,91.2651109 C55.6603914,91.1038309 54.4169514,91.5977509 54.3557514,92.3685109" id="Fill-48" fill="#FDE1CE"></path>
                <path d="M136.696282,80.6424831 C134.740402,73.4356431 133.510282,69.5570032 129.056003,63.4715633 C125.448803,58.5438833 129.954922,42.0530035 126.497843,37.0425236 C122.623523,31.4268836 111.778523,26.0880837 104.565203,25.7273637 C104.087843,25.7036037 103.084883,27.1230837 102.863483,27.0924837 C99.4348428,26.6201637 103.321403,35.0236436 102.925763,38.0105636 C103.089923,38.3446436 103.235003,38.6916836 103.357763,39.0509635 C103.709843,40.0838035 104.064083,41.1166435 104.437403,42.1430035 C104.463323,42.2153635 104.485643,42.2762035 104.506163,42.3323635 C104.534963,42.4061635 104.569883,42.4961635 104.613443,42.6084835 C104.804603,43.1013235 104.995403,43.5941635 105.196283,44.0834035 C105.923483,45.8528035 106.698563,47.6081634 107.603603,49.3001634 C108.098243,50.2242834 108.607643,51.1422834 109.167803,52.0307634 C109.451123,52.4804034 109.734803,52.9300434 110.035763,53.3692434 C110.048723,53.3879634 110.057363,53.4009234 110.069603,53.4182034 C111.293243,55.0508034 112.627403,56.5851233 114.050843,58.0578833 C117.140003,61.2539633 120.313763,64.3593233 122.570243,68.1969232 C124.898003,72.1554832 123.575003,73.0094032 124.686683,77.4215631 C126.656243,85.238603 122.271083,94.5878029 121.547483,97.7950429 C124.535123,96.6653629 128.810483,95.7635629 131.826562,99.0258829 C132.989722,97.0872829 138.329962,86.661683 136.696282,80.6424831" id="Fill-50" fill="#000000"></path>
                <path d="M88.447823,67.5045712 C88.943903,67.7220112 93.4190629,66.1023712 99.2053429,67.3407712 C104.991983,68.5795312 106.779023,69.8294512 106.779023,69.8294512 C106.779023,69.8294512 107.522423,68.1316912 106.836983,67.2086512 C106.151903,66.2856112 101.772863,62.1870113 95.9966629,61.9911713 C90.6452629,61.8093713 88.041383,62.5869713 88.041383,62.5869713 C88.041383,62.5869713 87.881903,67.2565312 88.447823,67.5045712" id="Fill-52" fill="#1B1B1B"></path>
                <path d="M50.2756914,70.5302992 C49.7389314,70.6051792 45.8692915,67.8353392 39.9634915,67.4616592 C34.0580516,67.0879792 31.9992116,67.8079792 31.9992116,67.8079792 C31.9992116,67.8079792 31.7432516,65.9723392 32.6526116,65.2692592 C33.5619716,64.5661793 38.8867315,61.8053393 44.5002115,63.1798193 C49.7014914,64.4531393 51.9975714,65.9060992 51.9975714,65.9060992 C51.9975714,65.9060992 50.8873314,70.4446192 50.2756914,70.5302992" id="Fill-54" fill="#1B1B1B"></path>
                <g id="Group-5" transform="translate(87.577600, 84.017342) rotate(-23.000000) translate(-87.577600, -84.017342) translate(74.577600, 74.017342)">
                    <path d="M7.35508961,19.6591156 C12.4592398,21.0187165 18.367375,18.2776953 25.0794951,11.4360518 C20.5900368,5.4358734 16.510014,2.03122891 12.8394267,1.22211836 C5.77293263,-0.335554723 2.34953885,5.46030816 1.17734547,8.22182272 C0.0051520816,10.9833373 1.27503578,18.0395616 7.35508961,19.6591156 Z" id="Fill-56" fill="#FEFEFE"></path>
                    <path d="M8.22323792,18.7686791 C3.70169883,17.7184731 1.05529452,13.388916 2.31289144,9.09829842 C3.57016196,4.80768088 8.25489816,2.18100347 12.7764372,3.23120948 C17.2983027,4.2814155 19.944707,8.6112632 18.6871101,12.9018807 C17.4298396,17.1924983 12.7451034,19.8191757 8.22323792,18.7686791 Z" id="Fill-58" fill="#231F20"></path>
                </g>
                <g id="Group" transform="translate(38.875662, 84.331967) rotate(17.000000) translate(-38.875662, -84.331967) translate(26.875662, 73.831967)">
                    <path d="M9.71315115,18.7461529 C10.7188715,18.9495614 11.7021082,19.030726 12.6628613,18.9896466 L12.6628591,18.9895969 C17.6282571,18.777289 21.4813979,14.5799291 21.26909,9.61453114 C21.0639282,4.81626317 17.1269521,1.02471057 12.3243626,1.00020282 C12.3243626,1.00020282 12.3243626,1.00020282 12.3243626,1.00020282 C7.37064682,0.974923862 3.26252597,3.31270131 2.27378451e-13,8.01353517 C2.86048654,14.4374848 6.09820359,18.015024 9.71315115,18.7461529 Z" id="Fill-60" fill="#FEFEFE"></path>
                    <path d="M19.9921381,11.2314254 C19.494902,15.6187654 15.5332058,18.7551648 11.1431624,18.2362258 C6.7534134,17.7178706 3.5977753,13.7406033 4.0953057,9.35326328 C4.59254171,4.96592328 8.55423794,1.82981576 12.9442813,2.34846285 C17.3340304,2.86710995 20.4893741,6.84408539 19.9921381,11.2314254" id="Fill-62" fill="#231F20" transform="translate(12.043695, 10.292372) rotate(-20.000000) translate(-12.043695, -10.292372) "></path>
                </g>
                <path d="M44.1709915,99.3895548 C44.1432715,100.819475 41.7665515,101.932955 38.8624315,101.876795 C35.9579516,101.820635 33.7497116,101.449475 33.6535916,99.1865149 C33.5502716,96.7568749 36.0580316,96.6434749 38.9621515,96.6992749 C41.8666315,96.7554349 44.1987115,97.9599949 44.1709915,99.3895548" id="Fill-64" fill="#F7A585"></path>
                <path d="M81.4208031,104.274323 C81.0885231,105.665363 83.109563,107.339723 85.935203,108.014723 C88.760483,108.689363 90.9910429,108.884123 91.6523629,106.718003 C92.3626429,104.391683 89.963243,103.652243 87.137963,102.977603 C84.312683,102.302963 81.7530831,102.883283 81.4208031,104.274323" id="Fill-66" fill="#F7A585"></path>
                <path d="M105.788483,30.4351196 C105.702443,27.1796397 104.401763,23.0695197 102.131963,20.6204398 C96.4554829,14.4953998 80.7969231,9.54647989 72.9060832,11.2341599 C67.2886432,12.4354799 64.5663233,15.1059598 58.7206433,15.0836398 C52.3400034,15.0595198 42.5811235,16.1470798 40.0373635,18.0565198 C34.2701636,22.3851597 33.8061236,24.8425197 29.0804037,27.9889197 C26.3440437,29.8105197 24.7582437,30.6010796 22.0726437,32.5573196 C21.6860037,32.8388396 21.2651638,33.1091996 20.8263238,33.3741596 C20.4335638,34.4386796 20.0793238,35.5359596 19.7517238,36.6681596 C18.7840438,40.0125595 18.2278438,43.9599595 16.6193638,47.2035595 C16.9725238,48.5917194 16.4249638,50.0540394 15.3593638,51.2099994 C13.6421638,53.0733594 12.0372839,55.3201194 11.0163239,57.6129593 C10.0792439,59.7175193 9.57848389,61.3479593 9.46436389,63.2789993 C9.43052389,63.8517593 9.40460389,64.4252393 9.41720389,64.9997992 C9.42008389,65.1423592 9.48884389,66.3901192 9.45860389,66.1827592 C9.56336389,67.2033592 9.69872389,68.2199992 9.86540389,69.2333992 C10.2538439,71.5960792 10.7056439,73.9486791 11.0696039,76.3149591 C11.1956039,77.1346791 10.7038439,81.4521591 10.4129639,82.172879 C12.8260439,81.0190791 14.9036038,79.4959191 19.5796438,85.318559 C21.9153237,81.8477991 22.7454837,75.9707991 23.1432837,71.6335192 C23.6868837,65.7017992 25.8144837,63.0104393 27.5824437,58.7710793 C26.0949237,62.7231593 26.3987637,69.6988792 28.6707237,73.7229591 C28.7351637,73.3550391 31.4492036,68.2459192 34.0822436,65.8400392 C41.1292435,59.4003593 47.7633234,57.5114393 63.0014033,56.1020393 C73.3290832,55.1469594 91.6458829,55.0418394 104.692643,41.2837195 C107.721323,38.0901596 105.923843,35.5726796 105.788483,30.4351196" id="Fill-68" fill="#000000"></path>
                <path d="M67.5159832,13.0956838 C64.8174232,14.2307638 62.3744633,15.3320038 58.7060633,15.3273238 C52.3247034,15.3197638 42.5611435,16.4843638 40.0116235,18.4884838 C34.2314636,23.0327637 33.7609436,25.6046037 29.0258637,28.9086837 C26.2837437,30.8217236 24.6954237,31.6533236 22.0040637,33.7071236 C21.6167037,34.0026836 21.1947838,34.2863636 20.7552238,34.5650036 C20.3595838,35.6792036 20.0024638,36.8286836 19.6716238,38.0138036 C18.6945838,41.5140835 18.1275838,45.6440035 16.5104638,49.0413234 C16.6577038,49.6547634 16.6433038,50.2829634 16.4971438,50.8956834 C16.7869438,50.5414434 17.0861038,50.1915234 17.4007438,49.8477234 C19.0045438,48.0923634 20.9017438,46.6469635 22.5764637,44.9610835 C23.3713437,44.1611635 24.1532637,43.3475635 24.9085437,42.5098435 C25.2030237,42.1829635 25.4949837,41.8542835 25.7858637,41.5241635 C25.9601037,41.3189635 26.3971437,40.8095635 26.4453837,40.7526835 C29.5755837,37.0328036 32.5826636,33.1826036 35.9537036,29.6729637 C36.0851036,29.4108837 36.2175836,29.1495237 36.3536636,28.8899637 C38.0892236,25.5801237 40.4879035,22.5899637 43.8063835,20.7518038 C47.3822635,18.7710838 51.1496634,18.6296038 55.1147034,18.3455638 C53.7942234,18.4362838 56.3153033,18.1760038 56.6893433,18.0982438 C57.4255433,17.9452438 58.1642633,17.7998038 58.8878633,17.5924438 C59.2291433,17.4948838 59.5697033,17.3937238 59.9073833,17.2842838 C60.4452233,17.0700838 60.9816233,16.8504838 61.5065033,16.6056838 C62.9040233,15.9526438 64.2677033,15.2268838 65.5755832,14.4082438 C65.8488232,14.2372438 67.4835832,13.1208838 66.9767032,13.4927638 C67.1581432,13.3628038 67.3356232,13.2274438 67.5159832,13.0956838" id="Fill-70" fill="#A14E24"></path>
                <path d="M107.517455,27.1277997 C105.889535,39.8919595 96.4938949,46.9749595 88.336655,50.4388794 C83.304575,52.5758394 77.8649751,52.9955994 72.6863752,54.4388394 C67.6654552,55.8377994 62.3115353,58.2562793 60.0683753,65.0678392 C59.7015353,66.1820392 60.4546553,68.0918392 60.0950153,69.1833592 C62.2686953,62.5827593 67.3025752,60.2089193 72.1503352,58.7185193 C77.3832951,57.1096793 82.871135,56.7377993 88.013015,54.6980394 C96.2948149,51.4133994 105.906095,44.0852395 107.544095,31.2433196 C107.711855,29.9278797 107.351135,28.4320797 107.517455,27.1277997" id="Fill-72" fill="#000000"></path>
                <path d="M25.7345277,43.6843075 C26.3090877,43.4539075 26.9009277,43.2652675 27.5032077,43.1011075 C27.9028077,42.9751075 28.3085277,42.8483875 28.7203677,42.7159075 C31.6770476,41.7622675 34.3144076,40.1030275 36.6014876,38.0085476 C33.4205276,39.0161875 30.1027677,39.4921075 26.9160477,40.4374675 C23.0341677,41.5887475 18.9002878,43.4971075 17.2046878,48.5529474 C16.9274878,49.3802274 17.5225678,50.7633474 17.2511278,51.5737074 C18.2076478,48.7214274 19.9262878,46.8998275 21.9332877,45.6337075 C23.0809677,44.7452275 24.3596877,44.1710275 25.7345277,43.6843075" id="Fill-74" fill="#A14E24"></path>
                <path d="M69.4272592,109.749203 C68.4862192,110.373443 67.3799392,110.665763 66.2448592,110.761163 C65.6051392,110.972843 64.9488592,111.138443 64.2752993,111.248243 C64.1075393,111.304763 63.9404993,111.364883 63.7705793,111.415643 C63.4008593,111.526163 63.0275393,111.601403 62.6545793,111.646763 C64.9124992,112.542443 67.8882592,113.093963 70.8758992,111.746123 C75.0475791,109.864403 75.5832591,104.851043 75.5832591,104.851043 C75.5832591,104.851043 73.1788192,107.260523 69.4272592,109.749203" id="Fill-98" fill="#ED8F57"></path>
                <path d="M111.459959,135.818782 C116.248679,134.153062 119.747159,132.534142 124.372439,130.011262 C124.646039,129.861862 124.917479,129.709222 125.189999,129.558382 C124.893719,129.338783 124.579079,129.160223 124.242119,129.033863 C122.928839,128.541743 92.2265989,131.375302 88.559279,132.815662 C87.273359,133.321102 88.634879,136.412782 90.9745189,140.206822 C92.5822789,139.983622 94.1767189,139.754302 95.7517189,139.501582 C101.077559,138.646942 106.355159,137.594302 111.459959,135.818782 Z" id="Fill-100" fill="#231F20"></path>
                <path d="M115.229699,152.56339 C113.362019,152.66311 111.493979,152.77615 109.631699,152.95363 C108.808019,153.03247 107.984339,153.11275 107.162819,153.21427 C106.952939,153.24019 105.238259,153.48571 105.479819,153.43891 C105.232499,153.48031 104.986259,153.52603 104.740019,153.57031 C105.284339,154.36447 105.802739,155.17879 106.297739,156.00967 C114.046739,154.58659 129.444298,152.24299 129.444298,152.24299 C129.444298,152.24299 129.454378,152.08171 129.468058,151.78903 C124.723979,152.06803 119.980259,152.30995 115.229699,152.56339" id="Fill-102" fill="#231F20"></path>
                <g id="Group-106" transform="translate(149.399998, 160.203598)">
                    <mask id="mask-4" fill="white">
                        <use xlink:href="#path-3"></use>
                    </mask>
                    <g id="Clip-105"></g>
                    <path d="M6.69178792,9.70271989 C6.04594793,11.9624399 2.86462797,16.4969998 1.42498798,18.7639198 C0.364427996,20.4343198 -0.416411995,21.9920397 1.29070799,23.3027997 C4.81474794,26.0078397 6.92794792,20.6128798 8.16778791,18.5050798 C10.6280279,17.9798398 10.0034279,22.2713997 11.3325479,23.6617197 C13.4630278,25.8897597 16.6317478,24.8497197 16.5457078,21.7097997 C17.5126678,23.1281997 18.3482278,23.6357997 19.8422278,22.9683597 C21.1439878,22.3869597 22.8359877,22.2145197 22.7445477,19.9303198 C23.5041477,20.5779598 26.5699077,21.7623597 27.5095077,20.7914398 C28.2662277,20.0102398 27.9515877,17.4383998 27.7705077,16.4847598 C27.2197077,13.5842398 26.3859477,11.2291199 25.0658277,8.4823199 C22.7711877,3.70799996 19.4487478,-0.982439989 14.4098278,0.229319997 C12.4654679,0.696959992 13.8309478,-0.760679991 12.4557479,1.00799999 C11.5107479,2.22299997 10.3436279,2.16323997 9.55630789,4.23323995 C9.0163079,5.65343993 7.11478792,8.2227599 6.69178792,9.70271989" id="Fill-104" fill="#FABC8E" mask="url(#mask-4)"></path>
                </g>
                <g id="Group-109" transform="translate(10.080000, 0.003600)" fill="#FFD766">
                    <path d="M66.2658112,38.7713156 C92.5386109,42.1607155 114.228251,56.3670353 125.327771,75.0175551 L126.344051,66.8559952 C130.34941,34.6820756 114.576731,9.34383589 79.0954911,2.45523597 L62.1621713,0.497195994 C24.3888117,-1.53032398 5.21017194,18.5396758 1.20481199,50.7135954 L0.188531998,58.8751553 C15.5076118,43.6327555 39.9930115,35.3822756 66.2658112,38.7713156" id="Fill-107"></path>
                </g>
                <path d="M89.175563,2.45901597 L72.2422432,0.500975994 C64.2678833,0.0729359992 57.1247633,0.632015993 50.7758034,2.08029598 C51.8050434,2.08209598 52.8368034,2.12529598 53.8592034,2.18829597 C59.1555233,2.51445597 64.4691233,2.41941597 69.7668832,2.76861597 C78.7344831,3.35937596 88.298963,4.65357595 96.5728429,8.3378159 C101.065283,10.3383359 105.171083,12.8255759 108.699443,16.2833758 C112.259123,19.7710558 115.274483,24.1292157 117.889523,28.3498557 C123.359723,37.1770556 125.325683,47.1764155 123.573923,57.4256153 C123.428483,58.2755753 123.263243,59.1190553 123.089363,59.9592953 C127.999043,64.4949353 132.160642,69.5648152 135.407842,75.0213351 L136.424122,66.8597752 C140.429482,34.6858556 124.656803,9.34725589 89.175563,2.45901597" id="Fill-110" fill="#FCB813"></path>
                <path d="M55.2297594,27.1830237 C55.4500794,30.5918636 52.6625994,33.5733836 49.0039194,33.8426636 L31.2955196,37.9113836 C27.6364797,38.1806636 23.7567597,36.7809836 24.2715597,32.2266236 C24.0512397,28.8177837 26.8387197,25.8362637 30.4973996,25.5669837 L48.2057994,21.4982638 C53.0319594,20.3304238 55.0094394,23.7741837 55.2297594,27.1830237" id="Fill-112" fill="#552D00"></path>
                <path d="M65.9021392,233.126565 C64.9222192,232.742805 55.6374594,233.650725 54.6002994,235.843125 C50.8332594,243.807045 73.3267792,261.103965 79.8352191,253.664205 C86.344019,246.224085 70.0594192,234.754125 65.9021392,233.126565" id="Fill-114" fill="#BE6329"></path>
                <path d="M85.019903,235.640229 C84.787343,235.389309 84.551903,235.135509 84.433463,235.006629 C81.2899431,231.672669 77.8973031,228.540309 74.6839431,225.261069 C66.4755832,228.191469 64.7753032,241.636749 66.1551832,254.181669 C67.2175432,263.839389 70.0403032,276.248589 78.6327831,289.549869 C83.046383,289.999509 81.0487431,293.127549 85.473863,292.860069 C88.376183,292.684389 91.7789029,292.513029 94.8165829,291.650109 C83.158703,281.544909 80.1984231,266.585829 77.7878631,255.739389 C75.9299031,247.377669 76.2085431,236.952429 85.019903,235.640229" id="Fill-116" fill="#FABC8E"></path>
                <path d="M79.2703071,254.341941 C77.9951871,247.649541 68.9145472,234.105981 54.6005874,235.842981 C78.0427071,215.256382 105.435467,201.182902 109.114307,200.277142 C110.619467,203.300062 132.616186,206.578222 109.853027,229.452261 C104.630507,233.255301 86.945507,249.837261 79.2703071,254.341941" id="Fill-118" fill="#D78629"></path>
                <path d="M109.114271,200.27725 C106.965071,200.80645 96.7219909,205.83061 83.902751,214.02061 C87.036191,216.416409 88.722791,220.868169 88.958591,224.841129 C89.329751,231.098289 87.009191,237.365889 83.768111,242.625489 C82.077911,245.368689 80.1385911,248.020089 77.9994711,250.541169 C78.6301911,251.929329 79.0585911,253.230369 79.2702711,254.341689 C86.945471,249.837369 104.630471,233.255049 109.852991,229.452369 C132.61615,206.57833 110.619431,203.29981 109.114271,200.27725" id="Fill-120" fill="#C5722A"></path>
                <path d="M91.6871389,291.761205 C92.3009389,291.540165 92.8542589,291.210405 93.3236989,290.798205 C93.6264589,291.081525 93.9299389,291.356205 94.2348589,291.620085 C93.4604989,291.840405 92.6627389,292.014285 91.8552589,292.156125 C91.7987389,292.024365 91.7440189,291.892245 91.6871389,291.761205" id="Fill-122" fill="#D32128"></path>
                <path d="M77.6117871,240.443601 C72.7755472,234.520521 67.0223872,231.370521 60.6989873,231.107721 C59.9577473,231.612801 59.2150673,232.143801 58.4716673,232.701081 C65.2173472,232.210401 71.2192672,235.126041 76.3625871,241.409481 C79.5460671,245.298561 81.5912271,249.573201 82.616147,252.035961 C83.038427,251.713041 83.469347,251.374281 83.909267,251.021121 C82.807667,248.432361 80.7625071,244.302441 77.6117871,240.443601" id="Fill-124" fill="#C5722A"></path>
                <path d="M95.0860429,289.107249 C94.2101629,287.708289 75.7155231,274.462089 67.3221232,272.421969 C58.9283633,270.382209 50.2300434,284.453169 53.7008034,288.972249 C57.3713633,293.751969 81.7948431,298.949649 89.049563,301.316649 C99.0935629,304.593728 98.0859229,293.899569 95.0860429,289.107249" id="Fill-126" fill="#231F20"></path>
                <path d="M96.0361189,294.892917 C95.1602389,293.493597 76.6655991,280.247397 68.2718392,278.207637 C59.8784393,276.167517 50.4935994,285.737757 53.9636394,290.256837 C57.6345593,295.036557 79.7363991,299.274117 86.991119,301.641117 C97.0351189,304.918196 99.0356389,299.685237 96.0361189,294.892917" id="Fill-128" fill="#D3D1C8"></path>
                <path d="M86.940503,200.147902 C85.975703,199.728862 76.9717431,200.415022 76.0299831,202.635862 C72.6099832,210.702022 95.1636229,228.784461 101.266343,221.327421 C107.369423,213.870382 91.0347829,201.926302 86.940503,200.147902" id="Fill-130" fill="#BE6329"></path>
                <path d="M116.076239,214.249066 C115.523639,210.141826 109.154879,204.812026 108.663839,200.697946 C95.5771189,200.557186 82.414799,194.933986 82.865879,213.550666 C83.101319,223.263825 88.722719,243.573585 96.1505989,257.558505 C100.509479,258.382905 98.2526389,261.329145 102.684959,261.439665 C105.591239,261.512025 108.996479,261.631545 112.096799,261.030345 C101.342159,249.968625 97.5524389,226.207185 93.9376789,215.700586 C91.2949189,208.018546 105.053399,214.559746 116.076239,214.249066" id="Fill-132" fill="#FABC8E"></path>
                <path d="M99.7860588,222.532917 C99.0858589,215.756637 91.1924989,201.488398 76.7824191,201.999238 C81.8674191,198.500038 87.405659,196.543798 92.9611789,195.968158 C106.621379,194.552638 128.978819,200.752198 128.978819,200.752198 C130.220818,203.892478 130.382458,210.624478 126.966419,213.895438 C120.903299,220.739757 117.054179,215.049238 99.7860588,222.532917" id="Fill-134" fill="#D78629"></path>
                <path d="M111.997583,265.628841 C112.627943,265.461081 113.207183,265.179561 113.710103,264.809121 C113.987663,265.116921 114.267023,265.416441 114.547823,265.705521 C113.757983,265.858881 112.947983,265.964361 112.131503,266.036721 C112.086143,265.901001 112.042943,265.764201 111.997583,265.628841" id="Fill-136" fill="#D32128"></path>
                <path d="M99.5948268,208.913038 C95.2809469,202.599718 89.817227,198.970918 83.538827,198.170278 C82.757627,198.610198 81.972467,199.076038 81.1840671,199.568158 C87.947387,199.653838 93.6785869,203.070238 98.2678669,209.769118 C101.108627,213.915598 102.781907,218.348637 103.592987,220.890237 C104.041547,220.604037 104.499827,220.303797 104.968187,219.988797 C104.090867,217.315797 102.405707,213.026758 99.5948268,208.913038" id="Fill-138" fill="#C5722A"></path>
                <path d="M112.581719,258.519921 C111.828239,257.051121 94.5295189,242.277081 86.340599,239.529201 C78.1513191,236.781681 68.2855192,250.060281 71.3581192,254.858721 C74.6081991,259.934001 98.4999589,267.193761 105.526799,270.170241 C115.254719,274.291161 115.161839,263.550201 112.581719,258.519921" id="Fill-140" fill="#231F20"></path>
                <path d="M113.035247,264.365349 C112.281767,262.896549 94.9830469,248.122509 86.794127,245.374629 C78.6048471,242.627109 68.4384472,251.362509 71.5110472,256.160949 C74.7611271,261.236229 96.4216069,267.341829 103.448447,270.317949 C113.176367,274.438869 115.615367,269.395629 113.035247,264.365349" id="Fill-142" fill="#D3D1C8"></path>
                <path d="M54.6326274,322.335536 C54.6326274,322.335536 102.159467,256.512057 109.668347,248.656137 C117.177227,240.800217 137.719546,242.315097 153.824506,252.149937 C169.929826,261.984777 175.454746,268.010817 168.603946,276.802377 C161.753146,285.593217 103.907987,326.482016 99.3273468,330.499256 C94.7467069,334.516496 82.066787,340.524536 66.7675072,338.151416 C51.4678674,335.777576 49.7337474,327.951896 54.6326274,322.335536" id="Fill-144" fill="#FFE07F"></path>
                <path d="M109.483559,254.195529 C118.531439,243.670569 139.441318,246.166449 155.546278,256.001289 C171.651598,265.836129 174.498838,271.567329 167.648398,280.358529 C160.797598,289.150089 104.092919,332.164328 99.5122788,336.181568 C94.9316389,340.198808 85.776479,342.541688 70.4768392,340.167848 C55.1775594,337.794368 51.4555194,331.802888 56.3543993,326.186888 C56.3543993,326.186888 102.399119,262.436649 109.483559,254.195529 Z" id="Fill-146" fill="#00B2D0"></path>
                <path d="M98.9861029,327.930296 C97.4341429,329.695016 92.8679029,331.537496 92.1799429,333.118616 C91.3569829,335.010416 97.3866229,338.794016 98.1642229,339.477656 C99.5923428,340.733336 104.865263,338.548496 108.272663,334.672736 C111.680783,330.797336 112.327343,325.557536 110.899583,324.302216 C110.185343,323.674376 105.045983,319.623656 103.461623,320.482616 C100.038023,322.337696 101.033063,325.602176 98.9861029,327.930296" id="Fill-148" fill="#231F20"></path>
                <path d="M96.0971389,325.191632 C92.6893789,329.067752 91.0844989,333.227192 92.5122589,334.482872 C93.9400189,335.738192 97.8600589,333.614192 101.268179,329.738432 C104.675939,325.862312 106.280819,321.702872 104.852699,320.447192 C103.424939,319.191872 99.5048988,321.315872 96.0971389,325.191632" id="Fill-150" fill="#231F20"></path>
                <path d="M14.5952638,204.95095 C14.6517838,204.98479 16.0352638,207.93679 16.0809838,207.96991 C17.7215038,206.89099 27.3558237,203.34931 28.5747837,196.73431 L27.3727437,195.24175 C25.4651037,193.78411 23.6499837,193.25887 14.6989438,195.51931 L7.01510392,198.77911 C5.27630394,200.73211 4.25138395,202.68187 12.8453039,203.80831 L14.5952638,204.95095 Z" id="Fill-152" fill="#FABC8E"></path>
                <path d="M14.6987998,195.519202 L1.94903998,202.655122 C1.49723998,203.251642 1.19303999,203.921242 1.31939998,204.726202 C1.58111998,206.389402 3.19535996,207.211642 4.67315995,206.911762 C4.89527994,206.825722 5.11271994,206.725282 5.32043994,206.609362 L18.7016398,199.109482 C20.4177598,198.150802 20.9033998,196.573642 19.7917198,195.585082 C18.6872398,194.593642 16.3990798,194.565202 14.6987998,195.519202" id="Fill-154" fill="#FABC8E"></path>
                <g id="Group-158" transform="translate(0.000000, 199.083598)">
                    <mask id="mask-6" fill="white">
                        <use xlink:href="#path-5"></use>
                    </mask>
                    <g id="Clip-157"></g>
                    <path d="M11.4403319,1.30089598 L1.16269199,9.36345589 C1.10437199,9.50493589 0.168011998,10.3808159 0.123371999,10.5266159 C-0.290627997,11.8791359 0.346571996,13.7964958 1.88449198,14.1316558 C2.36221197,14.2353358 2.90545197,14.1525358 3.44869196,14.0153758 C3.93901195,13.8274558 4.40521195,13.5786958 4.80841194,13.2611758 L16.4112118,4.11141595 C17.8936918,2.94357597 17.9811718,1.37181598 16.6041718,0.593855993 C15.2278918,-0.181223998 12.9145319,0.137735998 11.4403319,1.30089598" id="Fill-156" fill="#FABC8E" mask="url(#mask-6)"></path>
                </g>
                <path d="M8.6189759,210.816718 C8.3172959,211.327198 7.99077591,212.094358 7.77117591,212.881318 C7.64517591,213.550558 7.60413591,214.306558 8.00733591,214.831798 C8.7593759,215.810277 10.0654559,215.730717 11.1929759,215.313478 C11.9277359,214.922158 12.5678159,214.374598 12.9551758,213.722278 L21.3536158,201.702958 C22.1999757,200.276638 19.7638558,199.798558 18.0880558,199.580038 L19.3419358,198.845278 C17.6708158,198.623518 15.8376958,199.781278 14.9898958,201.203638 L8.6189759,210.816718 Z" id="Fill-159" fill="#FABC8E"></path>
                <path d="M20.7635758,209.758102 C20.7498958,210.351742 20.8398958,211.180822 21.0328558,211.974982 C21.2499358,212.620462 21.5832957,213.299782 22.1909757,213.558982 C23.3246157,214.041022 24.4240557,213.328582 25.2023757,212.409862 C25.6516557,211.707142 25.9421757,210.914422 25.9608957,210.155542 L27.4098957,195.543862 C27.4505757,193.884262 25.0943757,194.666902 23.5272957,195.302302 L24.2613357,194.044102 C22.6964157,194.673742 21.6646557,196.585342 21.6203757,198.242782 L20.7635758,209.758102 Z" id="Fill-161" fill="#FABC8E"></path>
                <path d="M114.530795,293.095725 L134.288674,268.906605 C134.288674,268.906605 144.928474,274.668045 144.320074,275.365005 C142.764514,277.146645 122.541875,297.764925 121.763915,298.019445 C120.877235,298.309605 114.530795,293.095725 114.530795,293.095725" id="Fill-163" fill="#9E9D97"></path>
                <path d="M78.5850831,328.302968 L96.1883629,308.483528 C96.1883629,308.483528 105.752843,313.595528 105.175043,314.269448 C103.697603,315.992768 86.463683,331.257488 85.724963,331.503728 C84.882923,331.784528 78.5850831,328.302968 78.5850831,328.302968" id="Fill-165" fill="#9E9D97"></path>
                <path d="M141.293986,289.938345 C139.614226,291.984225 134.544346,294.231705 133.830466,296.038185 C132.976186,298.198905 139.907626,302.228024 140.809066,302.967824 C142.463986,304.326824 148.316146,301.666785 152.004346,297.173985 C155.692906,292.681185 156.221026,286.758825 154.565746,285.400185 C153.738106,284.720865 147.798466,280.357305 146.047786,281.383665 C142.264546,283.602705 143.509426,287.239425 141.293986,289.938345" id="Fill-167" fill="#231F20"></path>
                <path d="M137.937454,286.965897 C134.249254,291.458337 132.601174,296.202057 134.256454,297.561057 C135.911734,298.919697 140.243254,296.378817 143.931454,291.886377 C147.619654,287.393577 149.267734,282.650217 147.612454,281.291217 C145.957174,279.932577 141.625654,282.473457 137.937454,286.965897" id="Fill-169" fill="#58585B"></path>
                <path d="M137.743918,291.679269 C139.151158,291.372189 141.679798,289.410909 141.841438,287.493909 C140.678638,286.867149 138.259798,286.173789 137.427838,283.678269 C136.196638,279.985749 137.181598,279.062349 137.181598,279.062349 L132.503758,276.599949 C132.503758,276.599949 130.780078,278.816109 127.087199,277.831149 C123.393959,276.846549 122.409359,275.123229 122.409359,275.123229 L118.962359,280.293189 C119.572559,280.699989 132.778438,289.000149 137.357278,291.877269 C137.501278,291.805629 137.623318,291.705549 137.743918,291.679269" id="Fill-171" fill="#231F20"></path>
                <path d="M98.0794069,330.097676 C99.4110468,329.807156 101.803607,327.951716 101.956607,326.137676 C100.856087,325.544756 98.6838469,324.364316 97.8968869,322.003436 C96.7319269,318.509276 97.6657669,318.639596 97.6657669,318.639596 L93.4188469,315.685076 C93.4188469,315.685076 91.4903269,317.926436 87.996167,316.994756 C84.501647,316.063076 83.569967,314.432276 83.569967,314.432276 L80.3083671,319.324316 C80.8858071,319.709156 93.3810469,327.562556 97.7132869,330.285236 C97.8497269,330.217196 97.9652869,330.122516 98.0794069,330.097676" id="Fill-173" fill="#58585B"></path>
                <path d="M113.565923,275.492625 C111.941963,277.582785 106.934363,279.965265 106.268723,281.790105 C105.472763,283.973505 112.509683,287.815065 113.430563,288.530745 C115.121843,289.844385 120.900563,287.028465 124.466723,282.438465 C128.033243,277.848465 128.402243,271.914225 126.711323,270.599865 C125.866043,269.943225 119.811563,265.740225 118.088603,266.813745 C114.366563,269.133225 115.708283,272.735385 113.565923,275.492625" id="Fill-175" fill="#231F20"></path>
                <path d="M110.130983,272.610897 C106.564463,277.200897 105.044543,281.987097 106.735463,283.300737 C108.426383,284.614737 112.688423,281.959017 116.254943,277.369377 C119.821103,272.779377 121.341383,267.993177 119.650463,266.679177 C117.959543,265.365177 113.697503,268.020897 110.130983,272.610897" id="Fill-177" fill="#58585B"></path>
                <path d="M77.3804511,316.821992 C75.8288511,318.586712 71.2622512,320.429192 70.5742912,322.010312 C69.7516912,323.902112 75.7809711,327.685712 76.5585711,328.369352 C77.9866911,329.624672 83.259611,327.440192 86.667371,323.564432 C90.075131,319.688672 90.7220509,314.449232 89.293931,313.193912 C88.580051,312.566072 83.440691,308.515352 81.8559711,309.373952 C78.4323711,311.229032 79.4277711,314.493512 77.3804511,316.821992" id="Fill-179" fill="#231F20"></path>
                <path d="M74.4914871,314.083292 C71.0837272,317.959052 69.4788472,322.118852 70.9066072,323.374532 C72.3347272,324.629852 76.2544071,322.505852 79.6625271,318.629732 C83.070287,314.753972 84.675167,310.594532 83.247407,309.338852 C81.8192871,308.083172 77.8992471,310.207532 74.4914871,314.083292" id="Fill-181" fill="#58585B"></path>
            </g>
        </g>
    </g>
</svg>