<svg width="196px" height="379px" viewBox="0 0 196 379" version="1.1" xmlns="http://www.w3.org/2000/svg" xmlns:xlink="http://www.w3.org/1999/xlink">
    <g id="SU-Main" stroke="none" stroke-width="1" fill="none" fill-rule="evenodd">
        <g id="SU-login-Kids" transform="translate(-828.000000, -291.000000)">
            <g id="Group-6" transform="translate(828.000000, 291.000000)">
                <path d="M195.382078,365.52296 C195.382078,372.43892 159.341315,378.04556 114.882078,378.04556 C70.4232801,378.04556 34.3820785,372.43892 34.3820785,365.52296 C34.3820785,358.60664 70.4232801,353 114.882078,353 C159.341315,353 195.382078,358.60664 195.382078,365.52296" id="Fill-1" fill="#231F20"></path>
                <g id="Asset-1">
                    <path d="M156.728641,361.820904 C149.751853,361.693171 142.735468,361.272928 135.789337,360.584446 C133.234672,360.32898 130.243161,359.954722 127.703825,359.618783 C127.39982,358.181785 127.369164,353.921883 128.292675,353.634483 C130.508846,352.946001 150.253844,353.634483 154.927602,352.774838 C162.329742,351.423421 168.782823,349.363085 171.54186,351.497506 C174.662382,353.924437 174.774788,359.095077 174.059482,361.040454 C168.551626,362.15812 162.18668,361.916704 156.728641,361.820904 Z" id="Path" fill="#FFFFFF"></path>
                    <path d="M171.082021,350.309588 C168.308933,348.111299 162.472803,347.647628 155.055336,349.018205 C152.873652,349.421842 149.085086,349.760335 143.583617,350.467977 C142.881084,350.551003 139.466775,350.296814 138.966061,350.364513 C135.705033,350.800083 131.212656,348.887917 128.555805,346.764991 C128.555805,346.764991 127.627185,351.655896 127.494342,352.493825 C127.322678,353.628482 127.358166,354.784862 127.599084,355.906857 C130.146084,356.255568 133.33175,356.720517 135.8928,356.984925 C142.859369,357.702785 149.893637,358.151129 156.889584,358.291635 C162.364229,358.400209 168.74578,358.659507 174.2613,357.525236 C174.972774,355.537708 174.217871,352.799108 171.082021,350.309588 Z" id="Path" fill="#242B38"></path>
                    <path d="M81.1706187,365.426812 C88.149961,364.820079 95.1305805,363.913174 102.007736,362.744415 C104.536854,362.317786 107.490045,361.737877 109.993616,361.229499 C110.121349,359.787391 109.610416,355.572196 108.654972,355.353772 C106.346833,354.826234 86.6375998,356.87252 81.8450501,356.352645 C74.2551431,355.528766 67.5287126,353.938488 65.0302512,356.246627 C62.2047927,358.856216 62.7399948,363.983427 63.6992712,365.857273 C69.3591294,366.580243 75.708747,365.900702 81.1706187,365.426812 Z" id="Path" fill="#FFFFFF"></path>
                    <path d="M108.247503,351.502616 C106.882035,351.758082 102.017955,352.68287 98.3647853,351.815562 C97.671194,351.650786 83.5132457,353.48759 81.2740826,353.239787 C73.6675704,352.398025 67.8735923,353.261502 65.3687442,355.628398 C62.5356217,358.304409 62.1217661,361.068555 63.0835971,362.988385 C68.7549514,363.722851 75.1211742,363.022873 80.5958193,362.53621 C87.5917669,361.912872 94.5877144,360.981697 101.482753,359.787391 C104.015702,359.347989 107.289504,358.756584 109.799462,358.234156 C109.877379,357.313199 109.592534,356.445891 109.475019,355.834049 C109.18164,354.359902 108.771166,352.9115 108.247503,351.502616 Z" id="Path" fill="#242B38"></path>
                    <path d="M160.491661,91.9538558 C158.5961,106.082425 156.372265,115.139987 149.011,129.722009 C140.768377,146.051422 129.068015,155.720826 111.555793,159.186227 C101.043351,161.267001 94.4293253,161.822641 85.841822,154.587832 C70.3682217,141.559045 71.461618,118.001211 80.2841503,100.597562 C90.9984114,79.4628258 105.85506,60.5225464 127.696161,52.2837548 C135.932398,49.176006 148.336569,45.1728474 155.524116,51.4892543 C157.695581,53.392479 161.65531,50.7432924 161.857129,55.9356471 C162.154747,63.3735515 161.218463,76.7076206 161.083065,82.864361 C160.996207,86.6797518 160.763732,89.9241752 160.491661,91.9538558 Z" id="Path" fill="#000000" fill-rule="nonzero"></path>
                    <path d="M31.2192722,65.0800671 C27.9952862,74.1184686 26.4931437,84.2042823 25.1621637,95.3796603 C23.7864771,106.907582 26.3705198,115.753106 18.1662162,129.416727 C11.9315585,139.797604 4.7810538,143.217022 0,144.024296 C9.41138242,151.743214 19.6300387,153.923619 32.1236233,143.997472 C26.6195996,152.772743 25.0063292,151.985907 20.5280031,154.127993 C33.7483897,159.271809 55.2343918,160.302616 68.8941806,156.838491 C84.9885642,152.751029 97.9126097,139.709469 99.5297121,125.402072 C100.620554,115.74672 101.42655,106.354497 101.062511,96.6007897 C100.643546,85.2708546 103.401305,74.9921637 98.89871,63.9087536 C94.5225705,53.115298 88.2444835,44.182915 74.7686306,40.9423237 C68.9797618,39.5500318 62.567555,38.1845638 56.9690087,39.7671782 C43.4292891,43.5953423 35.1790015,53.9774971 31.2192722,65.0800671 Z" id="Path" fill="#161616"></path>
                    <path d="M10.8637089,140.160367 C14.7020917,137.011743 18.2070908,134.100704 21.4655648,130.32491 C23.2707227,127.876876 24.8991853,125.303351 26.3385865,122.623875 C27.4282231,119.616245 28.3020052,116.534744 28.9532852,113.402815 C29.50637,108.190023 29.5651273,102.952962 29.5996152,97.7018499 C29.6558178,89.0159921 30.1974066,80.1104332 32.430183,71.6864284 C33.7816003,66.5873189 35.2658601,61.5009828 37.2112368,56.6036917 C38.0146787,54.5829525 38.8372805,52.5583812 39.7058663,50.5568019 C35.8674835,54.8409735 33.072681,59.8813257 31.2192722,65.0800671 C27.9952862,74.1184686 26.4931437,84.2042823 25.1621637,95.3796603 C23.7864771,106.907582 26.3705198,115.753106 18.1662162,129.416727 C13.3417331,137.448591 7.97182922,141.311243 3.57652969,143.02159 C4.76955781,143.077793 8.75483376,141.656123 10.8637089,140.160367 Z" id="Path" fill="#000000" fill-rule="nonzero"></path>
                    <path d="M101.065065,96.6007897 C100.6461,85.2708546 103.40386,74.9921637 98.9012647,63.9087536 C94.5225705,53.115298 88.2444835,44.182915 74.7686306,40.9423237 C68.9797618,39.5500318 62.567555,38.1845638 56.9690087,39.7671782 C52.3501522,41.0570878 48.0358875,43.2576495 44.2799923,46.2394196 C49.3969844,55.9101004 51.7626033,66.9590225 52.7397623,77.9351367 C52.8389428,78.0452063 52.9290747,78.1631039 53.0092794,78.2876803 C54.6046671,80.8538404 47.787546,81.6087436 48.7353264,84.503178 C59.0216813,115.857847 55.4259916,135.413801 39.0991336,152.864711 C37.5791084,154.489477 35.9905332,156.083588 34.3334077,157.647042 C46.0197185,159.477459 59.3614516,159.251371 68.8941806,156.834659 C84.9885642,152.747197 97.9126097,139.705637 99.5297121,125.39824 C100.620554,115.74672 101.42655,106.354497 101.065065,96.6007897 Z" id="Path" fill="#000000" fill-rule="nonzero"></path>
                    <path d="M143.611718,346.099501 C141.169459,332.913603 125.248793,273.065487 122.791206,261.428993 C116.064775,236.393285 112.328579,204.481699 110.159669,197.748881 C107.977986,190.979022 93.682086,184.325399 92.9450654,195.51355 C92.8658708,196.714243 93.6769767,201.652408 95.0884286,209.05327 C94.1738588,209.748139 93.3154917,210.969268 92.6410604,212.857165 C90.9064435,204.536624 89.1437253,198.519113 87.4154951,196.138166 C82.6995852,189.645487 69.1739163,195.587636 72.9624831,206.890747 C76.0778959,216.165455 90.1796416,329.52995 91.6319681,348.583912 C98.2932547,348.880253 102.573594,348.328446 109.270646,347.945246 C107.937112,333.90098 102.731983,279.080444 97.4885355,241.881981 C98.8182381,241.881981 100.307607,241.834719 101.76632,241.763189 C109.499289,278.33065 122.064404,334.181993 125.586008,348.803613 C130.585486,348.456179 144.43432,350.536953 143.611718,346.099501 Z" id="Path" fill="#A95E41"></path>
                    <path d="M110.164779,197.748881 C107.983095,190.979022 93.6871953,184.325399 92.9501748,195.51355 C92.8709802,196.714243 93.682086,201.652408 95.0935379,209.05327 C94.1789682,209.748139 93.320601,210.969268 92.6461697,212.857165 C90.9115528,204.536624 89.1488346,198.519113 87.4206044,196.138166 C82.7046945,189.645487 69.1790256,195.587636 72.9675924,206.890747 C75.1058462,213.27102 82.3764202,265.451311 87.1830206,303.635875 C87.2077157,301.806736 87.2413521,299.975893 87.2839299,298.143347 C87.5227909,288.58124 87.2136766,278.88118 88.4590753,269.373998 C89.0046055,265.123383 89.9083396,260.926468 91.1606326,256.828043 C92.3166181,253.073964 93.9707631,249.401634 97.1066132,246.671976 C97.3904044,246.421349 97.7176891,246.224805 98.0722762,246.092067 C97.8798249,244.675931 97.6852446,243.270866 97.4885355,241.876871 C98.8182381,241.876871 100.307607,241.82961 101.76632,241.758079 C102.404986,244.77386 103.061535,247.862449 103.732134,250.997022 C103.80111,250.465652 103.873918,249.934282 103.955668,249.405466 C104.963483,242.93067 108.198965,234.026389 116.856721,234.447908 C113.682551,217.41724 111.587726,202.165896 110.164779,197.748881 Z" id="Path" fill="#8D4C39"></path>
                    <path d="M116.281922,170.348832 C113.437303,151.717667 115.399285,142.692039 114.134727,141.792797 C111.06913,139.612391 101.315422,133.780093 91.5374455,133.873338 C86.6976345,133.921877 70.2302699,141.386605 70.3158511,142.686929 C72.3468091,173.577927 72.8258086,205.494623 72.8385819,218.950039 C73.2575468,221.974761 75.6640403,224.806606 78.2953443,226.477356 C83.0955581,226.988289 89.119456,227.116022 95.6019161,227.154342 C105.367119,227.216931 112.520179,227.049601 117.550312,226.819681 C117.830048,226.708553 118.108506,226.591039 118.381856,226.464583 C120.249315,225.599829 122.065681,224.457894 123.146304,222.697731 C123.977847,221.341204 124.341887,219.90676 124.432577,218.413559 C122.112942,204.428051 117.566918,178.761341 116.281922,170.348832 Z" id="Path" fill="#DA443B"></path>
                    <path d="M74.2628071,143.726678 C77.663065,142.149173 80.9802963,141.575651 84.7369298,141.210334 C90.7723236,140.620206 97.1806985,140.220401 103.042375,142.007389 C107.054475,143.231073 112.064171,145.361663 115.217904,147.968697 C114.962438,143.943824 116.089045,142.423799 115.495085,142.021439 C112.429488,139.947052 101.3167,133.787757 91.5425549,133.87717 C86.7027438,133.921877 70.2379339,141.016179 70.3235151,142.247527 C70.423147,143.689209 70.5193727,145.132169 70.6121922,146.576406 C71.5638045,145.445967 72.6980754,144.452202 74.2628071,143.726678 Z" id="Path" fill="#344860" opacity="0.1" style="mix-blend-mode: multiply;"></path>
                    <path d="M98.7543715,140.311092 C100.763391,139.408983 102.529759,138.043166 103.908406,136.325816 C100.308885,134.930969 96.0387636,133.836296 91.5374455,133.87717 C89.7415167,133.893776 86.3438135,134.881153 82.7864438,136.176368 C85.9823285,140.603601 93.712742,142.57197 98.7543715,140.311092 Z" id="Path" fill="#F69D76"></path>
                    <path d="M122.995579,223.005568 C106.262529,223.982727 89.5179836,224.400414 72.8270859,222.704117 C72.8092033,224.975214 72.7798246,226.29853 72.7478913,226.468415 C77.9185314,228.204309 86.3399815,228.484045 95.709212,228.544079 C109.648736,228.632215 118.287333,228.120005 123.044117,227.637174 C123.036453,226.08777 123.016016,224.554972 122.995579,223.005568 Z" id="Path" fill="#1A1F26"></path>
                    <path d="M80.7925285,137.09477 C75.4085739,139.303277 70.2673125,141.960128 70.3184058,142.685652 C72.9560964,182.802819 72.9765337,224.658435 72.7555553,225.548736 C74.9525664,226.112039 77.7371502,226.476079 80.9381443,226.712385 C78.8088318,216.147572 77.3743879,205.337511 77.1444682,194.605367 C76.9273217,184.49273 77.4842385,174.349436 77.8840434,164.244462" id="Path" fill="#344860" opacity="0.1" style="mix-blend-mode: multiply;"></path>
                    <path d="M83.0099769,210.248853 C80.1206518,210.555412 71.6544951,215.795028 71.0554264,217.912845 L71.1422849,229.304092 C71.1422849,229.304092 80.0836092,231.678652 84.6590125,232.497422 C84.6871138,227.492835 82.8362597,215.230448 83.0099769,210.248853 Z" id="Path" fill="#AEAEAE"></path>
                    <path d="M86.9658742,135.826379 C86.1330537,135.395918 86.4549414,119.017967 86.4549414,119.017967 L99.952509,118.28861 L99.3381123,135.269462 C99.3381123,135.269462 93.7778859,139.344152 86.9658742,135.826379 Z" id="Path" fill="#F69D76"></path>
                    <path d="M99.5769734,128.608176 L99.9473996,118.28861 L86.449832,119.017967 C86.449832,119.017967 86.3029389,126.56189 86.4702694,131.544762 C90.7764032,130.304241 95.1531931,129.323612 99.5769734,128.608176 Z" id="Path" fill="#DB835D"></path>
                    <path d="M102.959349,237.752366 C102.993837,238.518765 93.7778859,241.652061 93.7778859,241.652061 L75.7790002,212.995117 L82.1656604,208.63175 L88.3249555,210.897737 C88.3249555,210.897737 102.825229,234.70082 102.959349,237.752366 Z" id="Path" fill="#FFFFFF"></path>
                    <path d="M97.2777757,236.388175 C97.2777757,236.388175 100.909231,239.515084 101.547897,237.200559 C102.186563,234.886033 89.2535759,212.898039 88.3249555,210.902847 C87.3963351,208.907654 90.127271,208.966411 90.127271,208.966411 C90.127271,208.966411 102.084376,231.11024 103.375759,234.189887 C104.667142,237.269535 103.645276,239.218743 100.112175,240.222726 C96.5790751,241.226709 68.5761249,258.210116 67.2847422,258.887102 C65.7825997,259.675216 63.5191674,261.361294 61.4090149,259.839992 C59.6424646,258.56266 58.5350178,255.880262 58.5350178,255.880262 L97.2777757,236.388175 Z" id="Path" fill="#FAAB3A"></path>
                    <path d="M60.3705439,258.814294 L99.0737045,237.641238 C99.0737045,237.641238 98.2242787,237.306577 95.994057,232.594499 C93.7638353,227.882421 81.5691463,207.70313 81.5691463,207.70313 C81.5691463,207.70313 44.2646643,226.117149 42.6692766,227.518382 C41.0738889,228.919615 59.932419,258.770865 60.3705439,258.814294 Z" id="Path" fill="#FFD469"></path>
                    <path d="M92.5031085,235.156827 C92.6640524,235.841477 84.8314524,240.041345 84.8314524,240.041345 L63.7018259,216.68022 L68.7600607,211.779097 L74.727756,212.928695 C74.727756,212.928695 91.8682745,232.406732 92.5031085,235.156827 Z" id="Path" fill="#FFFFFF"></path>
                    <path d="M88.8205603,234.645895 C88.8205603,234.645895 92.0138904,237.479017 92.2042129,235.228358 C92.3945353,232.977699 75.4290113,214.834475 74.2206551,213.12285 C73.012299,211.411225 75.6180564,210.930948 75.6180564,210.930948 C75.6180564,210.930948 91.1631872,229.623425 92.9003588,232.291772 C94.6375304,234.960118 94.8776688,236.552951 91.76992,238.005278 C88.6621711,239.457604 65.6433705,259.359715 64.5627476,260.178485 C63.3058529,261.132652 61.4971508,263.032044 59.2771477,261.925875 C57.4173522,261.003641 55.9177644,258.685283 55.9177644,258.685283 L88.8205603,234.645895 Z" id="Path" fill="#AA3628"></path>
                    <path d="M58.1364902,261.132652 L90.3610227,235.764837 C90.3610227,235.764837 89.5179836,235.582179 86.6273812,231.535591 C83.7367788,227.489003 68.8954579,210.557967 68.8954579,210.557967 C68.8954579,210.557967 37.4845859,233.157803 36.2506831,234.699543 C35.0167804,236.241282 57.7188026,261.16203 58.1364902,261.132652 Z" id="Path" fill="#DA443B"></path>
                    <path d="M69.4025587,254.920986 L76.9388177,248.982669 C76.6105434,248.025948 76.3154797,247.081999 76.0114747,246.215968 C74.5412655,242.037815 74.4786762,238.82277 73.7940263,235.326713 C72.7632193,230.102425 71.6072338,217.444064 70.484459,213.362988 C67.4814513,214.862576 63.7925164,217.440232 63.5434367,216.173119 L63.4297541,216.257423 C64.3927304,229.283219 66.3899596,242.211819 69.4025587,254.920986 Z" id="Path" fill="#AA3628"></path>
                    <path d="M79.4819858,250.988081 C78.7743438,250.622764 68.5288636,239.875292 66.0316795,239.317098 C63.5344954,238.758904 64.0007215,245.61179 64.4567291,248.513888 C65.8477437,257.405397 67.7100938,258.266319 68.5569649,258.460473 C70.8293386,258.982902 76.6948473,257.775823 76.643754,254.563333 C76.6335354,253.855691 75.4571126,252.790396 75.655099,252.238589 C75.8045469,251.820901 77.4957345,253.427785 78.009222,253.607889 C79.1945861,254.034518 80.7439898,251.634411 79.4819858,250.988081 Z" id="Path" fill="#FDC18F"></path>
                    <polygon id="Path" fill="#1A1F26" points="72.8053713 240.69023 61.6491533 242.965158 60.2683573 237.263148 71.423298 234.986942"></polygon>
                    <path d="M58.6295403,238.497051 C56.9575127,238.223702 57.8695278,210.255239 59.255433,191.533384 C60.6413383,172.811528 63.4553008,152.160901 65.3802401,147.420722 C66.19901,145.403815 71.8435402,139.815487 72.1794786,141.6574 C73.050619,146.432067 73.2958668,157.538469 73.6279731,162.198176 C74.2053272,170.309235 71.1921009,199.718527 71.4565086,206.989101 C71.7209164,214.259675 73.8055222,233.557608 73.4823572,234.680383 C73.1591922,235.803157 63.9828389,239.372023 58.6295403,238.497051 Z" id="Path" fill="#DA443B"></path>
                    <path d="M64.2498013,165.542232 C65.1005044,161.829027 65.8170877,158.04557 67.187665,154.457544 C68.4906305,150.995649 70.312497,147.752037 72.5907795,144.837957 C72.4630463,143.618105 72.3353131,142.532372 72.1705372,141.658677 C71.8345989,139.816764 66.1900687,145.405092 65.3712988,147.421999 C63.4936207,152.044664 60.7729035,171.799881 59.3512329,190.141092 C60.6988182,181.892082 62.3797872,173.705661 64.2498013,165.542232 Z" id="Path" fill="#344860" opacity="0.1" style="mix-blend-mode: multiply;"></path>
                    <polygon id="Path" fill="#D48961" fill-rule="nonzero" points="146.18171 342.994307 147.906108 349.315823 125.718851 354.621861 124.247364 347.577374"></polygon>
                    <polygon id="Path" fill="#D48961" fill-rule="nonzero" points="87.7514334 346.102056 88.1857263 352.596012 110.96822 352.141282 110.530096 346.809698"></polygon>
                    <path d="M45.1128128,81.9727833 C46.8665896,79.4053459 48.2116203,76.9132711 48.9448089,74.5297695 C48.9448089,74.5297695 47.4222291,77.5596011 45.1128128,81.9727833 Z" id="Path" fill="#BC7A51"></path>
                    <path d="M41.8964907,52.6184158 C35.2773561,84.3613942 53.446127,120.526496 85.3372758,127.860937 C117.228425,135.195377 150.771164,110.900522 157.392853,79.1588208 C164.014542,47.4171198 143.527414,15.7469493 111.63882,8.41634077 C79.7502255,1.08573223 48.522012,20.8767148 41.8964907,52.6184158 Z" id="Path" fill="#F69D76" fill-rule="nonzero"></path>
                    <path d="M42.1749491,51.1392653 C35.6861024,82.4339001 53.9736651,118.199197 85.8507633,125.582176 C117.727862,132.965155 151.131372,109.136526 157.622773,77.8431688 C164.114174,46.5498113 143.522305,15.2002512 111.63882,7.8313227 C79.7553349,0.462394196 48.6663505,19.8459078 42.1749491,51.1392653 Z" id="Path" fill="#FDC18F" fill-rule="nonzero"></path>
                    <path d="M105.286648,10.0551578 C96.2725154,8.01781318 86.9863115,7.31144856 77.9696247,9.35773448 C69.095999,11.3708098 60.6157917,15.4237843 54.5944485,21.8755884 C48.7634277,28.1179101 44.8190264,35.6707744 41.8620027,43.3820279 C40.2282951,47.6432075 38.7964059,52.0193471 37.9393161,56.5053372 C37.2125141,60.2811307 36.9340558,64.5767983 37.715783,68.1558827 C39.1412855,68.3806931 40.5714716,68.5935818 42.0063413,68.7945487 C44.8164717,67.5312673 47.5933916,66.503015 50.6743164,66.0189062 C57.289619,64.9791579 63.6596739,64.6649342 70.2877498,64.7236915 C80.9074883,64.8194914 89.8309299,66.6396895 100.422567,65.5475706 C104.630099,64.8974086 119.905713,63.2113304 129.290271,55.9267058 C139.160216,48.2627136 136.82653,42.9158017 139.480826,32.1389513 C140.351967,28.6020189 143.151878,30.0875561 146.414184,30.3302491 C146.294115,30.1475907 146.168937,29.9674868 146.046313,29.7861057 C134.476239,19.9340437 120.196944,13.4234823 105.286648,10.0551578 Z" id="Path" fill="#F69D76" fill-rule="nonzero"></path>
                    <path d="M147.936764,92.2949034 C146.977675,96.2154586 146.277464,100.194845 145.840662,104.207302 C147.475647,102.511857 149.051023,100.750416 150.566791,98.9229793 C152.865988,95.68622 150.89762,101.570889 152.623295,97.9432657 C154.173976,94.051235 157.925501,89.8960739 160.09952,79.4934818 C160.227253,79.0476929 160.637277,76.1443172 160.758623,75.6985283 C162.11515,63.9151403 162.674621,52.8266209 160.472501,44.0871151 C154.403896,20.0349529 135.035711,11.8587506 131.549871,10.5507626 C130.213782,10.0487711 138.254587,35.9313501 138.254587,35.9313501 C140.191023,52.3297388 153.304113,70.111478 147.936764,92.2949034 Z" id="Path" fill="#161616"></path>
                    <path d="M138.370825,108.115938 C138.709318,112.203401 142.753351,112.305587 146.062918,110.98738 C149.372485,109.669174 153.912123,104.002929 153.57363,99.9116343 C153.235137,95.8203398 149.452957,94.2913734 146.14339,95.6159667 C142.833823,96.94056 138.029777,104.029753 138.370825,108.115938 Z" id="Path" fill="#FDC18F" fill-rule="nonzero"></path>
                    <path d="M147.72345,105.871666 C146.946832,103.230143 144.353848,101.473811 141.451749,105.574047 C145.999051,96.5126538 153.61195,97.4693755 147.72345,105.871666 Z" id="Path" fill="#F69D76"></path>
                    <path d="M117.453235,68.514813 C117.907965,68.8392553 122.773323,68.1635466 128.351432,70.6428481 C133.929541,73.1221496 135.467449,74.7596893 135.467449,74.7596893 C135.467449,74.7596893 136.581282,73.2102855 136.086955,72.1360493 C135.592627,71.061813 132.045476,66.0048555 126.251498,64.5780756 C120.886704,63.2547596 118.089347,63.4821247 118.089347,63.4821247 C118.089347,63.4821247 116.934638,68.1443867 117.453235,68.514813 Z" id="Path" fill="#161616" fill-rule="nonzero"></path>
                    <path d="M130.404105,9.78947271 C120.397485,2.90337571 85.476505,-9.1431427 59.8340645,11.5777376 C50.5619112,19.0718446 41.1224275,26.5953303 36.3030537,51.4624303 C36.0735573,55.0590015 36.0688646,58.6663939 36.2890031,62.26355 C36.8880718,66.7469854 38.289305,71.077141 39.6368903,75.389414 C41.8364561,68.78433 45.2073353,62.5892697 49.7342001,57.5220935 C53.8893612,51.0945587 59.4150995,45.2903619 65.2627256,40.8043718 C73.0646697,31.8898716 84.5964233,28.6697175 97.5524021,29.1474397 C111.626046,29.6698685 125.592395,36.0143767 139.503818,35.5647558 C138.527936,25.7165258 133.151646,11.6799241 130.404105,9.78947271 Z" id="Path" fill="#161616"></path>
                    <path d="M44.3106482,37.3760126 C49.9168585,27.7066091 57.8899651,20.1958968 67.1748917,14.1209056 C71.9137935,11.0169888 77.3641693,8.79059906 82.7353505,7.08663812 C88.3556114,5.29837328 94.5902691,4.78744046 100.397021,4.44639281 C106.678939,4.07724385 112.831848,5.00969624 118.996252,6.24487631 C120.899477,6.62807592 122.797592,7.11857142 124.585857,7.88241598 C126.821188,8.83786034 129.199581,9.75243008 131.437466,10.8930876 C131.065763,10.3821548 130.718328,9.99895516 130.404105,9.78947271 C120.397485,2.90337571 85.476505,-9.1431427 59.8340645,11.5777376 C50.5619112,19.0718446 41.1224275,26.5953303 36.3030537,51.4624303 C36.1812814,53.3307413 36.1233757,55.2007554 36.1289193,57.0724726 C37.9227107,50.1838209 40.7571105,43.5072064 44.3106482,37.3760126 Z" id="Path" fill="#000000" fill-rule="nonzero"></path>
                    <path d="M93.9503257,89.5090423 C92.8301055,89.4438983 90.1604816,89.3736451 88.7056004,89.3634264 C86.2658962,89.3263838 83.6307602,89.9829324 83.8849493,92.6257324 C83.9692532,93.4559982 84.8199564,94.4254933 85.9286806,95.343895 C87.8804439,96.694035 91.5847068,98.4005505 92.420082,98.0007456 C91.1504139,96.1511688 89.6508261,95.9761743 88.1921129,94.5519491 C87.3899484,93.8826271 86.4268401,92.6806577 86.3910748,92.3332234 C86.2761149,91.1401953 87.8600066,90.7787103 89.2433572,90.6267078 C90.3341988,90.5040839 93.0983453,90.7263397 93.9503257,89.5090423 Z" id="Path" fill="#F29065" fill-rule="nonzero"></path>
                    <path d="M86.8585783,91.9385278 C86.841973,92.6500017 87.8944946,93.2912224 89.2101466,93.3691397 C90.5257986,93.4470569 91.6064215,92.9322921 91.6230268,92.2195408 C91.6396321,91.5067896 90.5871105,90.8668462 89.2714585,90.788929 C87.9558065,90.7110117 86.8802929,91.2270538 86.8585783,91.9385278 Z" id="Path" fill="#FFE0CD" fill-rule="nonzero"></path>
                    <path d="M108.700956,52.4217067 C124.22054,47.191032 134.305077,42.7586898 141.445363,29.4961513 C141.345731,25.0548678 139.312218,19.6606947 136.48676,13.5141729 C131.82833,3.38620722 65.0353605,-10.2186563 43.4535585,63.4157035 C57.0686406,52.2518215 82.887353,61.1190605 108.700956,52.4217067 Z" id="Path" fill="#161616"></path>
                    <path d="M46.7337471,83.5911629 C45.3082446,87.4129404 41.4047179,86.2991069 38.5843687,84.0446158 C35.7640196,81.7901248 33.5286886,75.9348347 34.9541911,72.1130573 C36.3796937,68.2912798 39.8233808,67.0267211 42.6424526,69.2799348 C45.4615244,71.5331486 48.1554177,79.7757722 46.7337471,83.5911629 Z" id="Path" fill="#FDC18F" fill-rule="nonzero"></path>
                    <path d="M38.3684996,78.6427787 C39.8246581,76.343581 42.7829591,75.4328432 44.4639281,80.2317797 C42.5351567,70.1817313 34.9822924,68.8239273 38.3684996,78.6427787 Z" id="Path" fill="#F69D76"></path>
                    <path d="M89.7453487,104.741227 C87.0948847,104.476819 83.1198274,101.659025 82.3266042,99.7494132 C82.852865,103.156058 85.4943877,106.510332 91.1810699,107.148998 C94.3488533,107.505373 98.5116784,105.47697 99.9742236,102.550602 C96.1894888,105.008189 93.5632941,105.124426 89.7453487,104.741227 Z" id="Path" fill="#E4736E"></path>
                    <path d="M106.137351,86.2876109 C105.658351,86.4230081 108.970473,77.8840434 115.65092,76.0063653 C123.742818,73.7327143 130.515233,78.1011899 132.383969,82.4747748 C134.252706,86.8483596 133.697067,86.830477 133.697067,86.830477 L138.862597,87.3069218 L127.494342,92.9514521 C127.494342,92.9514521 109.172292,85.4343531 106.137351,86.2876109 Z" id="Path" fill="#000000" fill-rule="nonzero"></path>
                    <path d="M80.9113203,80.6073153 C81.3494452,80.8410671 81.6968795,71.5305939 75.6129471,68.2874479 C67.2298169,63.8167857 58.8913934,66.9666865 56.7633582,70.7514213 C54.4283953,74.9027505 53.9672784,74.6638894 53.9672784,74.6638894 L49.6243495,74.4531296 L59.4240409,82.3623695 C59.4240409,82.3623695 78.1471738,79.1345515 80.9113203,80.6073153 Z" id="Path" fill="#000000" fill-rule="nonzero"></path>
                    <path d="M107.08344,86.4412258 C106.158046,92.2183748 110.061587,95.9587451 116.668281,97.0746945 C123.514597,98.2305807 129.19932,94.0566105 130.12015,88.2885898 C131.040979,82.5205692 125.874293,77.6265948 119.828997,77.2854201 C114.442088,76.979618 108.004269,80.669782 107.08344,86.4412258 Z" id="Path" fill="#FFFFFF" fill-rule="nonzero"></path>
                    <path d="M125.741931,88.9511579 C124.748074,93.2690773 120.642567,96.0165331 116.572433,95.0870285 C112.502298,94.1575239 110.009099,89.9034724 111.002955,85.5844126 C111.996812,81.2653527 116.102319,78.5190374 120.172454,79.448542 C124.242588,80.3780465 126.736929,84.6378006 125.741931,88.9511579 Z" id="Path" fill="#000000" fill-rule="nonzero"></path>
                    <path d="M56.8156313,75.3919762 C55.6366991,81.3666127 60.1073761,87.1345268 66.1300497,88.3425983 C74.3313707,89.9892081 79.2519195,87.7893469 80.4320709,81.8242698 C81.6122223,75.8591927 77.2695577,69.3970259 71.2493223,68.1758102 C65.229087,66.9545945 57.9982211,69.4268991 56.8156313,75.3919762 Z" id="Path" fill="#FFFFFF" fill-rule="nonzero"></path>
                    <path d="M78.3956115,81.1602938 C77.3477918,85.7471098 73.0193701,88.6717199 68.7282417,87.6782732 C64.4371132,86.6848265 61.8085414,82.1719133 62.8563611,77.5838858 C63.9041808,72.9958582 68.2326025,70.0724596 72.5237309,71.0659063 C76.8148594,72.059353 79.4446342,76.5722663 78.3956115,81.1602938 Z" id="Path" fill="#000000" fill-rule="nonzero"></path>
                    <path d="M136.840581,26.3283679 C131.611183,40.8746251 114.613726,47.5729543 100.205421,50.4162954 C91.3177444,52.1700723 78.3783709,54.1116169 69.3782894,55.0402373 C60.6528343,55.9407564 53.9097985,60.1393468 48.8055797,67.7075391 C47.9702045,68.9452739 48.1132657,71.9674414 48.0481218,72.4770969 C52.9939514,65.1439337 61.9314437,63.1168078 70.3809951,62.0847235 C79.5037004,60.9721673 88.815451,61.3272656 97.8691804,59.7024993 C112.45248,57.0852459 133.734109,52.5558265 138.452574,38.050444 C138.945624,36.5355282 138.635232,31.433864 138.298017,30.6112622 L136.840581,26.3283679 Z" id="Path" fill="#000000" fill-rule="nonzero"></path>
                    <path d="M133.32664,44.4907521 C128.253078,48.6842331 121.880468,52.0870457 115.427387,53.8076119 C106.013449,56.320124 95.1714552,58.0228076 85.5007743,59.0280679 C75.6538217,60.0499336 64.9983179,61.0270926 57.9793783,64.2842893 C57.9471168,64.3039068 57.9171293,64.32704 57.8899651,64.3532652 C57.3943603,64.7424257 56.907271,65.1418048 56.4286973,65.5514026 C60.7000956,63.5651513 65.6254879,62.6671869 70.3835497,62.0847235 C79.5062551,60.9721673 88.8180056,61.3272656 97.8717351,59.7024993 C112.455035,57.0852459 133.736664,52.5558265 138.455128,38.0491666 C137.56866,40.2730017 135.357598,42.8123378 133.32664,44.4907521 Z" id="Path" fill="#161616" fill-rule="nonzero"></path>
                    <path d="M136.291328,17.0715426 C135.780395,16.4801379 141.67656,32.0048314 137.126703,44.8203037 C135.082972,50.5963992 137.254436,48.4172707 137.254436,48.4172707 C137.254436,48.4172707 146.175323,28.4116964 136.291328,17.0715426 Z" id="Path" fill="#FDC18F"></path>
                    <path d="M32.7699533,61.6440439 C32.1708846,62.8025841 36.6977493,46.5191553 45.3184632,39.6445543 C59.7791392,28.1102461 68.8788526,27.1049858 68.8788526,27.1049858 C68.8788526,27.1049858 43.5084837,40.8937851 32.7699533,61.6440439 Z" id="Path" fill="#000000" fill-rule="nonzero"></path>
                    <path d="M150.731567,42.7829591 C150.169541,41.7904721 159.969232,52.6925011 160.862087,62.5726643 C162.35912,79.1486021 158.698287,86.7538371 158.698287,86.7538371 C158.698287,86.7538371 160.816103,60.586413 150.731567,42.7829591 Z" id="Path" fill="#161616" fill-rule="nonzero"></path>
                    <path d="M73.8898262,95.359223 C73.7889169,96.9277867 71.2585222,98.0684442 68.2389092,97.913887 C65.2192963,97.7593299 62.9379813,97.275221 62.9520319,94.7844236 C62.9673599,92.1147996 65.5846133,92.0752023 68.6042262,92.2297595 C71.6238391,92.3843167 73.9907354,93.7906592 73.8898262,95.359223 Z" id="Path" fill="#FDB189" fill-rule="nonzero"></path>
                    <path d="M109.008793,102.28364 C108.580887,103.794724 110.583743,105.72094 113.479455,106.584417 C116.375167,107.447893 118.688415,107.758285 119.50463,105.411826 C120.382158,102.890373 117.930957,101.974526 115.033968,101.111049 C112.136979,100.247573 109.437977,100.772556 109.008793,102.28364 Z" id="Path" fill="#FDB189" fill-rule="nonzero"></path>
                    <path d="M118.261786,213.849652 C119.564665,214.894509 122.447603,216.070932 123.730045,217.13495 C124.930737,213.94162 128.949223,200.302268 128.072974,199.433682 C127.017897,198.383715 115.514245,210.663986 115.622818,211.69607 C115.640701,211.8634 116.016237,211.163422 116.046893,211.325644 C116.523337,211.966864 117.770014,213.209708 118.261786,213.849652 Z" id="Path" fill="#FDC18F"></path>
                    <path d="M128.076806,199.433682 C127.52883,198.888262 124.156674,201.946195 121.06553,205.139525 C122.045217,205.725761 122.867957,206.54105 123.463082,207.515362 C124.495167,209.232096 124.426191,210.850476 124.059596,212.707717 C123.857778,213.729583 123.61764,214.751448 123.391552,215.763095 C123.320021,216.084983 123.251045,216.407296 123.184624,216.730035 C123.386442,216.865433 123.567824,216.999553 123.730045,217.131118 C124.930737,213.944174 128.949223,200.302268 128.076806,199.433682 Z" id="Path" fill="#F69D76"></path>
                    <path d="M124.762129,217.401912 C124.762129,217.389139 124.762129,217.376365 124.762129,217.36487 L112.338798,207.598389 L111.23646,208.875721 L124.381484,219.31791 C124.510495,218.679244 124.639505,218.040578 124.762129,217.401912 Z" id="Path" fill="#1A1F26"></path>
                    <path d="M121.064253,176.686954 C121.958385,177.823779 124.625455,184.257701 124.625455,184.257701 C124.625455,184.257701 120.494563,196.204587 118.471269,201.837621 C122.139766,205.541884 126.726666,208.352015 131.769573,210.432789 C133.80564,205.730929 138.441078,187.313079 135.842984,180.570043 C133.032854,173.28925 116.198895,141.007238 114.894739,142.059759 C113.590583,143.112281 113.847327,158.464535 113.847327,158.464535 C113.847327,158.464535 120.17523,175.550128 121.064253,176.686954 Z" id="Path" fill="#DA443B"></path>
                    <path d="M135.842984,180.570043 C133.032854,173.28925 116.299804,140.726225 115.064624,141.84389 C114.694198,142.178551 113.134576,142.881084 113.345335,146.137003 C113.377269,146.172769 118.770164,154.056462 121.085967,157.598504 C123.180792,160.802052 125.55663,164.81543 127.353836,168.167149 C127.521166,168.431557 127.687219,168.699796 127.853273,168.976977 C130.625083,173.621357 134.711268,180.681171 135.600291,185.945056 C135.833551,187.380524 135.938706,188.83389 135.914515,190.287985 C136.597888,186.461098 136.742226,182.902451 135.842984,180.570043 Z" id="Path" fill="#344860" opacity="0.1" style="mix-blend-mode: multiply;"></path>
                    <path d="M124.553924,183.723776 L134.284639,182.305937 L133.431382,181.379871 L124.234591,182.712129 C124.31634,183.057008 124.539873,183.382728 124.553924,183.723776 Z" id="Path" fill="#1C2229"></path>
                    <path d="M124.532209,184.276861 L132.350759,186.27844 L132.182151,185.329382 L124.556479,183.377619 C124.577179,183.677452 124.569052,183.97858 124.532209,184.276861 Z" id="Path" fill="#1C2229"></path>
                    <path d="M73.5922078,152.385712 C73.5875399,153.14474 73.1260404,153.826194 72.422958,154.112237 C71.7198756,154.398279 70.913712,154.232562 70.3804713,153.692377 C69.8472307,153.152192 69.6919572,152.343952 69.9870722,151.644629 C70.2821873,150.945306 70.9695555,150.492662 71.7285804,150.497815 C72.7640997,150.505548 73.5978723,151.350179 73.5922078,152.385712 Z" id="Path" fill="#FFFFFF"></path>
                    <circle id="Oval" fill="#FFFFFF" fill-rule="nonzero" transform="translate(89.401418, 166.604444) rotate(-80.390000) translate(-89.401418, -166.604444) " cx="89.4014179" cy="166.604444" r="1.87512343"></circle>
                    <path d="M70.2864725,207.949655 C70.2793999,208.985056 69.4344396,209.818753 68.3990365,209.81193 C67.3636335,209.805106 66.5297337,208.960347 66.5363072,207.924943 C66.5428806,206.889538 67.3874388,206.055435 68.422845,206.061758 C68.9203844,206.064797 69.3963183,206.265451 69.7458549,206.619539 C70.0953916,206.973628 70.2898711,207.452118 70.2864725,207.949655 Z" id="Path" fill="#FFFFFF"></path>
                    <path d="M84.9847322,189.073242 C84.9805804,189.83239 84.5194054,190.514239 83.8163605,190.800684 C83.1133157,191.087129 82.30694,190.921724 81.7734345,190.381637 C81.2399289,189.841549 81.0844237,189.033206 81.3794673,188.333726 C81.6745108,187.634246 82.361963,187.181466 83.1211048,187.186623 C84.1564187,187.193655 84.9903944,188.03792 84.9847322,189.073242 Z" id="Path" fill="#FFFFFF"></path>
                    <path d="M65.879677,229.167417 C65.8750091,229.926445 65.4135096,230.6079 64.7104272,230.893943 C64.0073448,231.179985 63.2011812,231.014268 62.6679405,230.474083 C62.1346999,229.933898 61.9794264,229.125658 62.2745414,228.426335 C62.5696565,227.727012 63.2570247,227.274368 64.0160495,227.279521 C65.0518651,227.286552 65.886047,228.131598 65.879677,229.167417 Z" id="Path" fill="#FFFFFF"></path>
                    <path d="M103.080695,149.728861 C103.073622,150.764262 102.228662,151.597958 101.193259,151.591135 C100.157856,151.584312 99.3239564,150.739553 99.3305298,149.704148 C99.3371032,148.668744 100.181661,147.83464 101.217068,147.840964 C101.714607,147.844003 102.190541,148.044657 102.540078,148.398745 C102.889614,148.752834 103.084094,149.231324 103.080695,149.728861 Z" id="Path" fill="#FFFFFF"></path>
                    <path d="M111.932606,180.313299 C111.925533,181.348701 111.080573,182.182397 110.04517,182.175574 C109.009767,182.168751 108.175867,181.323991 108.182441,180.288587 C108.189014,179.253182 109.033572,178.419079 110.068979,178.425402 C110.566518,178.428441 111.042452,178.629095 111.391989,178.983184 C111.741525,179.337272 111.936005,179.815762 111.932606,180.313299 Z" id="Path" fill="#FFFFFF"></path>
                    <circle id="Oval" fill="#FFFFFF" fill-rule="nonzero" transform="translate(66.322368, 181.037771) rotate(-84.720000) translate(-66.322368, -181.037771) " cx="66.3223681" cy="181.037771" r="1.87512343"></circle>
                    <circle id="Oval" fill="#FFFFFF" fill-rule="nonzero" transform="translate(128.665965, 177.636580) rotate(-74.430000) translate(-128.665965, -177.636580) " cx="128.665965" cy="177.63658" r="1.87512343"></circle>
                    <circle id="Oval" fill="#FFFFFF" fill-rule="nonzero" transform="translate(129.036628, 199.774185) rotate(-45.000000) translate(-129.036628, -199.774185) " cx="129.036628" cy="199.774185" r="1.87512343"></circle>
                    <circle id="Oval" fill="#FFFFFF" fill-rule="nonzero" transform="translate(118.735448, 159.499638) rotate(-73.930000) translate(-118.735448, -159.499638) " cx="118.735448" cy="159.499638" r="1.87512343"></circle>
                    <path d="M116.9819,216.537158 C116.977748,217.296306 116.516573,217.978155 115.813528,218.2646 C115.110483,218.551045 114.304107,218.38564 113.770602,217.845553 C113.237096,217.305465 113.081591,216.497122 113.376635,215.797642 C113.671678,215.098163 114.35913,214.645382 115.118272,214.650539 C116.153586,214.657571 116.987562,215.501836 116.9819,216.537158 Z" id="Path" fill="#FFFFFF"></path>
                    <path d="M102.005182,200.105559 C102.000509,200.864702 101.538869,201.546234 100.83563,201.832198 C100.132391,202.118162 99.3261299,201.952207 98.7929934,201.411758 C98.2598569,200.871308 98.1049018,200.062861 98.4004196,199.363583 C98.6959374,198.664305 99.3836949,198.211992 100.142831,198.217662 C101.178147,198.225395 102.011554,199.070234 102.005182,200.105559 Z" id="Path" fill="#FFFFFF"></path>
                </g>
            </g>
        </g>
    </g>
</svg>