<svg width="183px" height="218px" viewBox="0 0 183 218" version="1.1" xmlns="http://www.w3.org/2000/svg" xmlns:xlink="http://www.w3.org/1999/xlink">
    <g id="SU-Main" stroke="none" stroke-width="1" fill="none" fill-rule="evenodd">
        <g id="SU-login-Kids-(pop-up)" transform="translate(-695.000000, -601.000000)">
            <g id="sss-2" transform="translate(519.000000, 92.000000)">
                <g transform="translate(176.000000, 509.000000)" id="sss">
                    <g>
                        <g id="Layer_11_copy" transform="translate(100.099998, 0.000000)">
                            <path d="M25.2682496,85.0499986 L25.8369996,97.8249983 C25.8369996,97.8249983 23.1927496,123.997998 23.1927496,125.056748 C23.1927496,126.115498 32.9752494,148.321247 32.9752494,148.321247 C32.9752494,148.321247 35.6194994,157.837747 28.7454995,153.607997 C21.8714996,149.378247 8.38774986,132.193248 12.6174998,116.332998 C16.8472497,100.472748 25.2262496,83.3874986 25.2682496,85.0499986 Z" id="Path" fill="#9B301F"></path>
                            <path d="M58.049249,233.274996 C57.524249,231.363996 56.020999,230.023496 55.835499,227.132496 C55.7059991,225.125246 56.969499,223.520496 56.999249,221.217496 C57.058749,216.667496 55.0742491,206.207746 55.1354991,201.596497 C55.2264991,195.338497 55.1512491,166.228997 55.6849991,159.981497 C55.873999,157.765997 57.097249,150.316247 56.363999,148.343997 C55.3717491,145.682248 55.2002491,137.808998 54.8292491,135.875248 L42.5792493,138.452998 L27.8144995,136.527998 C27.4732495,138.468748 28.2274995,142.005498 28.1644995,145.925498 C28.1119995,148.821747 26.6017495,153.933497 26.6927495,155.310747 C27.2457495,163.689747 27.9457495,194.767997 28.1329995,201.024247 C28.2712495,205.631996 27.3507495,216.583496 27.4819995,221.128246 C27.5484995,223.431246 28.8347495,225.007996 28.7367495,227.018746 C28.5967495,229.911496 27.1162495,231.283496 26.6192495,233.204996 C26.1484996,235.021496 27.8074995,239.884746 28.6089995,242.626996 C30.6057495,242.948996 32.0967495,243.011996 34.1162494,243.137996 C36.5347494,243.290246 37.5322494,243.675246 39.4239993,243.444246 C39.6199993,242.693496 39.9209993,241.265496 40.1064993,240.196246 C40.4774993,238.055996 40.0452493,236.563246 39.4187493,234.492996 C38.3424993,230.940496 40.4687493,230.922996 40.2044993,227.526246 C39.9314993,223.942246 39.7739993,220.137746 39.5884993,216.509996 C39.0792493,206.613746 39.3032493,176.349247 40.1712493,166.473997 C40.3462493,164.498247 40.7889993,158.056497 41.7812493,158.268247 C42.4007493,158.066997 43.5504993,164.743247 43.7674993,166.843247 C44.7877492,176.699247 45.1884992,206.956746 44.8332492,216.863496 C44.7037492,220.492996 44.6057492,224.300996 44.3887492,227.888496 C44.1822492,231.288746 46.3032492,231.264246 45.2829992,234.837746 C44.6879992,236.920246 44.2784992,238.421746 44.6827492,240.553246 C44.8262492,241.310996 45.1797492,242.780996 45.4912492,244.000746 C47.2555335,243.95953 49.0141176,243.784022 50.7517491,243.475746 C52.9549991,243.101246 55.2124991,242.712746 57.380749,242.075746 C57.893499,239.224996 58.656499,235.471246 58.049249,233.274996 Z" id="Path" fill="#9DBACD"></path>
                            <path d="M41.6342493,142.574248 L41.4592493,142.588248 L41.4504993,142.413248 L40.7609993,142.470998 L40.8152493,143.020498 L41.0129993,145.774998 C41.0129993,146.075998 41.0777493,151.082747 41.1249993,154.096247 C40.986551,153.965903 40.8410841,153.84322 40.6892493,153.728747 C40.3777914,153.381567 40.0923512,153.011899 39.8352493,152.622747 C39.602194,152.308807 39.4333081,151.952006 39.3382493,151.572747 L39.3277493,151.471247 C39.2542493,150.730997 39.2454993,148.585497 39.2559993,146.655248 C39.2664993,144.724998 39.2962493,142.980248 39.2962493,142.980248 L39.1212493,142.980248 C39.1212493,142.868248 39.1212493,142.805248 39.1212493,142.805248 L38.5244993,142.833248 C38.5244993,142.843748 38.4037493,149.778997 38.5594993,151.408247 C38.5594993,151.455497 38.5682493,151.499247 38.5734993,151.534247 C38.6347493,151.966497 38.9112493,152.346247 39.1719993,152.864247 C39.6044417,153.651385 40.1698717,154.357729 40.8432493,154.951997 C41.1872208,155.28468 41.552584,155.594508 41.9369993,155.879497 C41.8949993,153.592247 41.7934993,145.886998 41.7917493,145.878248 L41.7917493,145.867748 L41.6342493,142.574248 Z" id="Path" fill="#9CBBCD" fill-rule="nonzero"></path>
                            <path d="M56.622999,151.080997 C55.8173333,150.539215 55.0794173,149.902938 54.4249991,149.185747 C53.4904525,148.094425 52.6287563,146.942768 51.8454991,145.738248 C51.0929991,144.612998 49.1382492,140.762998 49.1364992,140.761248 L49.2467492,140.740248 C48.9334992,140.766498 48.6184992,140.799748 48.3034992,140.822498 C48.3034992,140.822498 48.3034992,140.822498 48.3034992,140.822498 L48.2212492,140.855748 L49.8924992,144.093248 C50.0832491,144.465998 52.0449991,147.878497 53.8352491,149.868247 C54.6580552,150.7627 55.6002609,151.539431 56.635249,152.176497 L56.622999,151.080997 Z" id="Path" fill="#9CBBCD" fill-rule="nonzero"></path>
                            <path d="M30.9207495,201.739997 C30.9207495,201.976247 30.9399995,202.210747 30.9522495,202.439997 L35.8749994,204.455997 C35.9082494,204.296747 35.9449994,204.139247 35.9904994,203.983497 C36.0044994,203.930997 36.0237494,203.881997 36.0412494,203.831247 L30.9207495,201.739997 Z" id="Path" fill="#7FA2B4"></path>
                            <path d="M30.9872495,204.385997 C31.0012495,204.560997 31.0134995,204.753497 31.0292495,204.937247 L35.6317494,205.694996 C35.6527494,205.519997 35.6719994,205.344997 35.6912494,205.159497 L30.9872495,204.385997 Z" id="Path" fill="#7FA2B4"></path>
                            <path d="M41.5064993,158.343497 C41.5073714,158.327759 41.5073714,158.311985 41.5064993,158.296247 L35.3989994,156.274997 C35.4164994,156.493747 35.4374994,156.712497 35.4567494,156.932997 L41.2229993,158.849247 C41.2974417,158.67018 41.3925891,158.500441 41.5064993,158.343497 Z" id="Path" fill="#7FA2B4"></path>
                            <path d="M41.2702493,158.738997 L36.8689994,158.964747 C36.9214994,159.129247 36.9757494,159.293747 37.0299994,159.459997 L41.0934993,159.249997 C41.1327248,159.073478 41.1920275,158.902028 41.2702493,158.738997 Z" id="Path" fill="#7FA2B4"></path>
                            <path d="M54.0137491,201.657747 L48.6307492,203.860997 C48.6482492,203.911747 48.6674992,203.958997 48.6849992,204.011497 C48.7339992,204.167247 48.7724992,204.324747 48.8092492,204.483997 L53.9559991,202.383997 L54.0137491,201.657747 Z" id="Path" fill="#7FA2B4"></path>
                            <path d="M53.8719991,204.132247 L48.9912492,204.972247 L49.0594992,205.497247 L53.8282491,204.676497 C53.8422491,204.499747 53.8579991,204.315997 53.8719991,204.132247 Z" id="Path" fill="#7FA2B4"></path>
                            <path d="M65.8594989,154.579247 C66.2485668,152.037309 66.4486152,149.470021 66.4579989,146.898497 C65.3344989,146.781831 64.2121656,146.644748 63.0909989,146.487248 C63.1010391,148.917722 62.921999,151.345294 62.5554989,153.747997 C63.6684989,153.968497 64.7674989,154.258997 65.8594989,154.579247 Z" id="Path" fill="#F69E76" fill-rule="nonzero"></path>
                            <path d="M62.7707489,156.206747 C62.8914989,155.343997 63.5267489,154.582747 64.1847489,154.510997 C64.8444989,154.435747 65.2819989,155.077997 65.1594989,155.945997 L64.2127489,162.725497 C64.0884989,163.591747 63.4567489,164.351247 62.7969989,164.424747 C62.1389989,164.498247 61.6997489,163.855997 61.8204989,162.991497 L62.7707489,156.206747 Z" id="Path" fill="#FFC7A4" fill-rule="nonzero"></path>
                            <path d="M63.2869989,155.557497 C63.3184989,154.713997 63.8854989,153.872247 64.5574989,153.683247 C65.2277489,153.494247 65.7457489,154.033247 65.7124989,154.876747 L65.4657489,161.526747 C65.4342489,162.377247 64.8672489,163.213747 64.1969989,163.402747 C63.5249989,163.591747 63.0069989,163.052747 63.0384989,162.210997 L63.2869989,155.557497 Z" id="Path" fill="#FFC7A4" fill-rule="nonzero"></path>
                            <path d="M64.2757489,154.699997 C64.1584989,153.929997 64.4734989,152.967497 65.1402489,152.557997 L64.9074989,153.194997 C65.5742489,152.783747 66.5909989,152.244747 66.7099989,153.019997 L67.2542489,159.899247 C67.3418568,160.7403 66.9607893,161.561578 66.2619989,162.037747 C65.5952489,162.447247 64.9599989,162.153247 64.8409989,161.383247 L64.2757489,154.699997 Z" id="Path" fill="#FFC7A4" fill-rule="nonzero"></path>
                            <path d="M66.3949989,156.285497 C66.4194989,156.269747 66.7257489,155.868997 66.7449989,155.858497 C66.7729989,152.808247 67.0179989,149.220747 64.6607489,148.333497 L64.2932489,148.471747 C62.6937489,149.042247 61.104749,152.643747 61.020749,153.581747 L62.6114989,156.850747 C63.0822489,157.974247 63.7139989,157.725747 65.5864989,156.714247 L66.3949989,156.285497 Z" id="Path" fill="#FFC7A4" fill-rule="nonzero"></path>
                            <path d="M64.3142489,150.412497 C66.0852489,151.087997 66.4999989,153.609747 66.7537489,155.408747 C66.7939989,152.463497 66.9077489,149.176997 64.6642489,148.335247 L64.2967489,148.473497 C63.6527489,148.702747 63.0104989,149.425497 62.4662489,150.267247 C63.0822189,150.120415 63.7287827,150.171234 64.3142489,150.412497 Z" id="Path" fill="#F69E76" fill-rule="nonzero"></path>
                            <path d="M61.587749,151.899997 C61.9517489,151.073997 63.0787489,150.204247 63.6422489,150.464997 C64.2092489,150.725747 64.3719989,151.607747 64.0097489,152.435497 L61.568499,158.035497 C61.204499,158.864997 60.453749,159.321747 59.890249,159.060997 C59.324999,158.801997 59.160499,157.919997 59.526249,157.090497 L61.587749,151.899997 Z" id="Path" fill="#FFC7A4" fill-rule="nonzero"></path>
                            <polygon id="Path" fill="#9B301F" points="60.875499 148.156747 68.4144988 148.546997 68.7732488 144.779248 60.766999 142.591748"></polygon>
                            <path d="M69.8739988,145.449498 C70.8662488,145.150248 67.9787488,127.573248 65.5742489,115.874498 C63.1697489,104.175748 58.399249,91.1487484 56.824249,88.3032485 C55.2492491,85.4577485 52.6802491,83.9177486 53.0074991,89.0784985 C53.3347491,94.2392484 57.140999,121.561998 57.585499,126.169748 C58.029999,130.777498 58.325749,143.191998 58.616249,143.870998 C58.906749,144.549998 66.6942489,146.404998 69.8739988,145.449498 Z" id="Path" fill="#AA3628"></path>
                            <path d="M65.7544989,117.346248 C64.5749989,113.707998 60.154499,99.2372483 58.152499,94.3687484 C57.002749,91.5687484 53.4484991,88.5832485 52.8149991,88.0809985 C50.9442491,82.4634986 54.4704991,84.2764986 56.293999,86.3222485 C58.525249,88.8264985 63.4217489,104.872248 65.8507489,117.053998 C65.9487489,117.545748 66.0484989,118.049748 66.1482489,118.558998 L65.7544989,117.346248 Z" id="Path" fill="#9B301F"></path>
                            <path d="M59.093999,124.206248 C59.081749,124.144998 59.065999,124.088998 59.053749,124.031248 L64.8602489,122.106248 L65.4832489,122.664498 L59.183249,124.753998 C59.149999,124.568498 59.128999,124.386498 59.093999,124.206248 Z" id="Path" fill="#9B301F"></path>
                            <polygon id="Path" fill="#9B301F" points="59.412499 125.422498 64.3737489 124.862498 64.7237489 125.436498 59.452749 126.031498"></polygon>
                            <path d="M25.6217496,134.532998 C25.7086739,136.68804 26.1411826,138.815132 26.9027495,140.832998 C30.6319995,141.357998 36.3649994,141.196998 40.7102493,141.223248 C48.1162492,141.270498 52.8587491,141.270498 55.3769991,140.297498 C55.6814991,138.447748 55.936999,136.590998 56.099749,134.725498 L25.6217496,134.532998 Z" id="Path" fill="#9B301F"></path>
                            <path d="M24.1044996,138.062748 C26.9184995,139.441748 35.0192494,139.145998 40.7294993,139.180998 C51.3467491,139.249248 56.495249,139.221248 57.454249,136.368748 C58.939999,135.143748 57.174249,112.878498 55.3857491,102.313748 C53.3714991,90.4137485 53.8527491,84.9012486 53.0809991,84.3237486 C51.2049991,82.9237486 46.8509992,80.6259986 39.3959993,80.2882486 C35.8959994,80.1307486 25.3154996,84.2257486 25.2752496,85.0569986 C22.9354996,131.655998 22.4944996,137.507998 24.1044996,138.062748 Z" id="Path" fill="#AA3628"></path>
                            <path d="M30.1577495,84.4987486 C32.8352494,83.6237486 35.7997494,83.5274986 38.5927493,83.6727486 C43.7132493,83.9404986 50.4174991,84.2344986 53.7284991,88.6584985 C53.5254991,85.9932485 53.4414991,84.5984986 53.0739991,84.3237486 C51.1979991,82.9237486 46.8439992,80.6259986 39.3889993,80.2882486 C35.8889994,80.1307486 25.3084996,84.2257486 25.2682496,85.0569986 C25.2279996,85.8287485 25.1912496,86.5899985 25.1527496,87.3319985 C26.6013069,86.0433683 28.3073882,85.0775831 30.1577495,84.4987486 Z" id="Path" fill="#9B301F"></path>
                            <path d="M36.9249994,81.1422486 C36.4209994,80.8499986 36.6204994,69.8249988 36.6204994,69.8249988 L44.8787492,69.3279988 L44.5007492,80.7677486 C44.5007492,80.7677486 41.0969993,83.5082486 36.9249994,81.1422486 Z" id="Path" fill="#EC9B77"></path>
                            <path d="M72.6704988,55.3664991 C72.4062488,55.4084991 72.1454988,55.4557491 71.8829988,55.5029991 C71.3824988,55.7024991 70.7612488,55.798749 70.2624988,55.949249 C68.0697488,56.608999 65.8612489,57.247749 63.7524989,58.129749 C63.2887489,58.322249 62.8372489,58.574249 62.3752489,58.782499 L62.2282489,58.869999 C61.7994989,59.141249 61.379499,59.429999 60.973499,59.732749 C60.845749,59.827249 60.324249,60.273499 60.030249,60.514999 L59.981249,60.562249 C59.765999,60.787999 59.554249,61.015499 59.338999,61.241249 L57.779749,62.8897489 C56.8125824,63.9140822 55.8471657,64.9413322 54.8834991,65.9714989 C52.9444991,68.0423322 51.0247491,70.1265821 49.1242492,72.2242488 C48.9982492,72.3624988 48.8739992,72.5024988 48.7479992,72.6424988 C49.3031571,72.8205099 49.8472061,73.0314676 50.3772491,73.2742488 C51.8209991,73.9287487 54.6209991,73.4999987 55.6639991,72.3747488 C56.706999,71.2494988 56.188999,74.1929987 57.588999,73.5244987 C59.592749,72.5584988 63.4007489,71.2197488 65.5059989,70.4777488 C68.5964988,69.3909988 73.2059988,63.7402489 73.8429987,61.7277489 C74.5202487,59.611999 69.2282488,63.9502489 74.3452487,59.662749 C75.3182487,58.848999 76.4452487,56.925749 75.6559987,54.9762491 C74.6549987,55.0882491 73.6592487,55.2089991 72.6704988,55.3664991 Z" id="Path" fill="#522100" fill-rule="nonzero"></path>
                            <path d="M22.3684996,66.4999989 C22.2897496,66.2374989 22.2057496,65.9749989 22.1217496,65.7159989 C21.8574996,65.2329989 21.6737496,64.6134989 21.4567496,64.1252489 C20.5012497,61.9814989 19.5649997,59.816749 18.4099997,57.791999 C18.1562497,57.347499 17.8482497,56.916999 17.5822497,56.481249 C17.5472497,56.433999 17.5122497,56.386749 17.4754997,56.342999 C17.1534997,55.943999 16.8157497,55.5572491 16.4657497,55.1879991 C16.3554997,55.0707491 15.8532497,54.6034991 15.5784997,54.3374991 L15.5242497,54.2972491 C15.2774997,54.1082491 15.0289997,53.9244991 14.7804997,53.7389991 L12.9744998,52.3879991 C11.8509998,51.5491658 10.7251665,50.7138325 9.59699984,49.8819992 C7.71866654,48.4971658 5.83333323,47.1251659 3.94099993,45.7659992 C3.90992531,46.1608258 3.8407706,46.5517257 3.73449994,46.9332492 C3.72399994,47.3759992 3.72224994,47.8169992 3.73449994,48.2579992 C3.73449994,48.3437492 3.73449994,48.8512492 3.75899994,49.2974992 C3.75899994,49.3289992 3.77474994,49.3622492 3.78524994,49.3989992 C4.03724993,50.3929991 4.31024993,51.3799991 4.58324992,52.3652491 C5.25349991,52.8797491 3.53324994,51.9224991 4.11949993,52.8342491 C5.34449991,54.7399991 6.72699989,59.900749 7.74549987,61.9429989 C9.24174984,64.9424989 10.6207498,65.1209989 12.4844998,66.0169989 C14.7244997,67.0932489 14.9484997,66.7169989 19.8064997,71.3159988 C20.7287496,72.1909988 21.4304996,70.5879988 23.1804996,69.4907488 C22.9249996,68.4827488 22.6659996,67.4817489 22.3684996,66.4999989 Z" id="Path" fill="#522100" fill-rule="nonzero"></path>
                            <path d="M5.51249991,38.7817493 C4.01449993,57.856749 17.8044997,77.4129987 37.5969994,78.9984987 C57.389499,80.5839986 75.6927487,63.5827489 77.1889987,44.5112492 C79.0999987,20.1249997 65.9294989,8.86549985 44.0579992,7.11549988 C24.2654996,5.53524991 7.00874988,19.7102497 5.51249991,38.7817493 Z" id="Path" fill="#F69E76" fill-rule="nonzero"></path>
                            <path d="M6.29999989,37.7229994 C4.84924992,56.521499 18.6777497,75.8379987 38.4667493,77.4479987 C58.255749,79.0579987 76.5099987,62.3454989 77.9607487,43.5469993 C79.4114986,24.7484996 55.4277491,14.8749997 35.6387494,13.2632498 C15.8497497,11.6514998 7.74899987,18.9227497 6.29999989,37.7229994 Z" id="Path" fill="#FFC7A4" fill-rule="nonzero"></path>
                            <path d="M33.4459994,35.5599994 C33.4459994,36.2844994 33.1817494,37.6757494 33.5352494,38.2829993 C32.8807494,37.1612494 41.4907493,33.8064994 42.2362493,33.5002494 C45.6434992,32.0144995 49.2082492,30.9784995 52.3669991,28.9327495 C53.9069991,27.9352495 55.1669991,26.7802495 56.099749,25.1579996 C56.407749,24.6329996 58.859499,18.9227497 58.341499,18.7022497 C51.2469991,15.6782497 43.1427493,13.8739998 35.6387494,13.2632498 C15.8514997,11.6549998 7.74899987,18.9227497 6.29999989,37.7229994 C5.8257499,43.8689993 6.98424988,50.0692491 9.44999984,55.6884991 C9.61274984,51.1769991 10.4457498,45.6627492 14.2817498,43.3562493 C14.9712497,42.0822493 15.8112497,40.8957493 16.8822497,39.9734993 C19.1292497,38.0362494 21.8032496,36.9984994 24.6049996,36.2354994 C27.0182495,35.5844994 29.3054995,34.0444994 31.8709995,34.1599994 C33.1064994,34.2142494 33.4529994,34.2457494 33.4459994,35.5599994 Z" id="Path" fill="#F69E76" fill-rule="nonzero"></path>
                            <path d="M68.2919988,61.652499 C68.4214988,64.6432489 71.2932488,64.8164989 73.6819987,63.9397489 C76.0707487,63.0629989 78.8497487,59.548999 78.7202487,56.558249 C78.5907487,53.5674991 76.5449987,51.8577491 74.1562487,52.7344991 C71.7674988,53.6112491 68.1589988,58.665249 68.2919988,61.652499 Z" id="Path" fill="#FFC7A4" fill-rule="nonzero"></path>
                            <path d="M75.0014987,60.252499 C74.5202487,58.306499 72.7264988,56.960749 70.5494988,59.876249 C74.0249987,53.3854991 79.4167486,54.2744991 75.0014987,60.252499 Z" id="Path" fill="#F69E76"></path>
                            <path d="M11.5849998,56.593249 C10.8307498,59.478999 7.99224986,58.976749 5.8467499,57.560999 C3.70124994,56.145249 1.73074997,52.0712491 2.48499996,49.1854992 C3.23924994,46.2997492 5.5947499,45.1114992 7.73499987,46.5254992 C9.87524983,47.9394992 12.3427498,53.7109991 11.5849998,56.593249 Z" id="Path" fill="#FFC7A4" fill-rule="nonzero"></path>
                            <path d="M4.57799992,53.6444991 C5.45299991,51.8612491 7.48999987,50.9687491 8.99849985,54.3199991 C6.96674988,47.1764992 1.52949997,46.7844992 4.57799992,53.6444991 Z" id="Path" fill="#F69E76"></path>
                            <path d="M36.6467494,60.014499 C36.0219994,59.776499 34.2089994,55.6009991 37.9242494,55.6604991 C38.6767493,55.6727491 40.8047493,55.964999 41.2754993,55.0567491 C40.5089993,55.1214991 38.1709993,54.9167491 37.0614994,54.8029991 C35.3972494,54.6279991 34.0672494,56.061249 34.2964994,58.367749 C34.3734994,59.144749 34.8004994,60.345249 35.6352494,60.859749 C37.0789994,61.585999 40.4634993,61.314749 40.9954993,60.962999 C37.6144994,60.724999 36.6537494,60.024999 36.6467494,60.014499 Z" id="Path" fill="#F69E76" fill-rule="nonzero"></path>
                            <path d="M36.3562494,56.932749 C36.4087494,57.417499 37.1804994,57.748249 38.0817494,57.672999 C38.9829993,57.597749 39.6689993,57.147999 39.6164993,56.659749 C39.5639993,56.171499 38.7922493,55.844249 37.8927494,55.919499 C36.9932494,55.994749 36.3037494,56.447999 36.3562494,56.932749 Z" id="Path" fill="#FFE0CE" fill-rule="nonzero"></path>
                            <path d="M78.8812487,52.1779991 C79.7177486,46.7337492 81.8229986,42.2484993 82.0487486,37.8104994 C82.2902486,33.1099994 81.2822486,29.3772495 78.3824987,25.6864996 C76.0322487,22.6974996 74.8999987,17.9374997 72.6424988,14.8924997 C70.1102488,11.4799998 63.3394989,8.46299986 58.932999,8.46474986 C58.642499,8.46474986 58.075499,9.39049984 57.938999,9.37824984 C55.838999,9.18924984 58.463999,14.3569998 58.311749,16.2504997 C58.4236675,16.458187 58.5224449,16.6726917 58.607499,16.8927497 C58.854249,17.5314997 59.100999,18.1702497 59.359999,18.8054997 L59.407249,18.9227497 C59.428249,18.9682497 59.450999,19.0224997 59.482499,19.0977497 C59.613749,19.4022497 59.744999,19.7067497 59.881499,20.0077497 C60.380249,21.0997496 60.905249,22.1794996 61.508999,23.2172496 C61.8379989,23.7824996 62.1774989,24.3442496 62.5449989,24.8867496 C62.7322489,25.1597496 62.9194989,25.4344996 63.1154989,25.7004996 L63.1382489,25.7319996 C63.9346013,26.7181026 64.7920354,27.6532727 65.7054989,28.5319995 C67.6864988,30.4464995 69.7147488,32.2997494 71.2074988,34.6447494 C72.7474988,37.0632494 73.8324987,39.9419993 74.4519987,42.7367493 C75.1904987,46.0302492 73.8412487,50.6922491 73.4999987,52.7344991 C75.2849987,51.9294991 76.7007487,53.4187491 77.8417487,54.1957491 C78.4384987,53.8474991 78.8112487,52.6364991 78.8812487,52.1779991 Z" id="Path" fill="#522100" fill-rule="nonzero"></path>
                            <path d="M53.9874991,39.0127493 C54.2517491,39.2192493 57.137499,38.8814993 60.392499,40.4897493 C63.6474989,42.0979993 64.5329989,43.1269993 64.5329989,43.1269993 C64.5329989,43.1269993 65.2154989,42.1942493 64.9389989,41.5274993 C64.6624989,40.8607493 62.6464989,37.7072494 59.247999,36.7394994 C56.097999,35.8434994 54.4442491,35.9379994 54.4442491,35.9379994 C54.4442491,35.9379994 53.6864991,38.7782493 53.9874991,39.0127493 Z" id="Path" fill="#AA5E41" fill-rule="nonzero"></path>
                            <path d="M30.6809995,40.3287493 C30.3747495,40.4582493 27.6674995,39.3749993 24.1219996,40.0749993 C20.5764996,40.7749993 19.4704997,41.5379993 19.4704997,41.5379993 C19.4704997,41.5379993 19.0399997,40.4564993 19.4704997,39.8842493 C19.9009997,39.3119993 22.6204996,36.7902494 26.1519996,36.7482494 C29.4174995,36.7079994 30.9942495,37.2347494 30.9942495,37.2347494 C30.9942495,37.2347494 31.0292495,40.1799993 30.6809995,40.3287493 Z" id="Path" fill="#AA5E41" fill-rule="nonzero"></path>
                            <path d="M38.6749993,65.4184989 C40.2132493,65.4762489 42.6842493,64.9757489 43.5627493,64.6799989 C40.4704993,68.0942488 34.8652494,67.1527489 33.3479994,63.3674989 C35.4147494,64.6432489 36.4629994,65.3344989 38.6749993,65.4184989 Z" id="Path" fill="#E5736E"></path>
                            <path d="M47.2272492,52.4369991 C46.6147492,56.402499 49.1959992,58.969749 53.5657491,59.736249 C58.096499,60.528999 61.8554989,57.664249 62.4644989,53.7039991 C63.0734989,49.7437492 59.664499,46.3837492 55.6587491,46.1509992 C52.0974991,45.9409992 47.8379992,48.4749992 47.2272492,52.4369991 Z" id="Path" fill="#FFFFFF" fill-rule="nonzero"></path>
                            <ellipse id="Oval" fill="#522100" fill-rule="nonzero" transform="translate(54.880514, 52.931285) rotate(-81.470000) translate(-54.880514, -52.931285) " cx="54.8805139" cy="52.9312851" rx="5.50374991" ry="5.00674991"></ellipse>
                            <path d="M17.9287497,47.9027492 C17.3757497,51.8472491 20.3122497,55.4924991 24.0729996,56.103249 C29.1934995,56.934499 32.1719995,55.3472491 32.7249994,51.4062491 C33.2779994,47.4652492 30.4009995,43.3562493 26.6419995,42.7437493 C22.8829996,42.1312493 18.4834997,43.9617493 17.9287497,47.9027492 Z" id="Path" fill="#FFFFFF" fill-rule="nonzero"></path>
                            <ellipse id="Oval" fill="#522100" fill-rule="nonzero" transform="translate(26.547002, 49.852321) rotate(-83.250000) translate(-26.547002, -49.852321) " cx="26.5470019" cy="49.8523212" rx="5.50549991" ry="5.00499991"></ellipse>
                            <path d="M29.3439995,59.662749 C29.3597495,60.563999 27.9439995,61.323499 26.1659996,61.358499 C24.3879996,61.393499 23.0404996,61.213249 22.9284996,59.783499 C22.8077496,58.253999 24.3284996,58.122749 26.1064996,58.087749 C27.8844995,58.052749 29.3264995,58.761499 29.3439995,59.662749 Z" id="Path" fill="#FEB28A" fill-rule="nonzero"></path>
                            <path d="M49.5687492,61.599999 C49.3937492,62.4749989 50.6537491,63.4987489 52.3879991,63.8749989 C54.1222491,64.2512489 55.4872491,64.3282489 55.851249,62.9509989 C56.241499,61.472249 54.7644991,61.050499 53.0302491,60.675999 C51.2959991,60.301499 49.7454992,60.707499 49.5687492,61.599999 Z" id="Path" fill="#FEB28A" fill-rule="nonzero"></path>
                            <path d="M59.818499,11.9087498 C59.667999,9.76674983 58.749249,7.10324988 57.291499,5.56499991 C53.6479991,1.72024997 43.9564993,-1.01499998 39.1999993,0.360499994 C35.8154994,1.34049998 34.2369994,3.19024995 30.6757495,3.37224994 C26.7872495,3.56999994 20.8757496,4.61299992 19.3829997,5.9569999 C16.0019997,9.00024985 15.7937497,10.6347498 13.0112498,12.8659998 C11.3994998,14.1574998 10.4562498,14.7314997 8.88124985,16.1104997 C7.49174987,17.3249997 5.35324991,18.3119997 4.24549993,19.7609997 C4.7180442,20.4166648 5.41930424,20.8712662 6.21074989,21.0349996 C5.52649991,22.6589996 2.82099995,24.1272496 1.70449997,25.8842496 C0.384999993,27.9544995 0.143499998,29.9424995 0.0314999995,32.4099994 C-0.206499996,37.6844994 3.27949994,41.7794993 3.33549994,46.9174992 C4.76174992,46.0039992 7.13299988,46.4292492 10.2672498,51.4919991 C11.5849998,49.1277492 10.6172498,44.6879992 10.7222498,41.8179993 C10.8797498,37.7299994 12.1904998,35.8994994 13.1512498,32.8369994 C12.2132498,35.4199994 12.5789998,40.3304993 14.1609998,43.0219993 C14.0192498,43.1444993 15.5977497,39.3977493 17.2112497,37.6337494 C21.3079996,33.1554994 25.2927496,31.6837495 34.5362494,30.2504995 C40.7994993,29.2757495 51.9557491,28.5932495 59.485999,19.0924997 C61.228999,16.8874997 60.058249,15.2879997 59.818499,11.9087498 Z" id="Path" fill="#522100" fill-rule="nonzero"></path>
                            <path d="M17.4737497,12.6209998 C18.4309997,10.4824998 19.7994997,8.52424985 21.7647496,7.26074988 C23.8822496,5.8992499 26.1729996,5.6857499 28.5897495,5.38649991 C27.7882495,5.48624991 29.3159995,5.24124991 29.5399995,5.17999991 C29.9844995,5.06099991 30.4307495,4.94549992 30.8647495,4.79324992 C31.0694995,4.71974992 31.2742495,4.64624992 31.4754995,4.56574992 C31.7974995,4.41349992 32.1177495,4.25949993 32.4292494,4.08799993 C33.2585608,3.63377241 34.0587009,3.12820544 34.8249994,2.57424996 C34.9859994,2.45874996 35.9484994,1.69924997 35.6509994,1.95474997 C35.7577494,1.86724997 35.8609994,1.77974997 35.9677494,1.68699997 C34.3577494,2.48674996 32.9034994,3.26199994 30.6687495,3.37224994 C26.7802495,3.56999994 20.8687496,4.61299992 19.3759997,5.9569999 C15.9949997,9.00024985 15.7867497,10.6347498 13.0042498,12.8659998 C11.3924998,14.1574998 10.4492498,14.7314997 8.87424985,16.1104997 C7.48474987,17.3249997 5.34624991,18.3119997 4.23849993,19.7609997 C4.71104421,20.4166648 5.41230424,20.8712662 6.20374989,21.0349996 C5.51949991,22.6589996 2.81399995,24.1272496 1.69749997,25.8842496 C0.377999994,27.9544995 0.136499998,29.9424995 0.0244999996,32.4099994 C-0.213499996,37.6844994 3.27249994,41.7794993 3.32849994,46.9174992 C3.84981111,46.580453 4.48153294,46.4587509 5.09074991,46.5779992 C5.14442589,44.7182375 5.00484408,42.8579287 4.67424992,41.0269993 C4.25249993,38.7519993 3.60324994,36.4209994 3.64699994,34.0934994 C3.70299994,31.1622495 4.77749992,28.6579995 6.56424989,26.4197496 C7.48824987,25.2647496 8.59949985,24.2934996 9.56724984,23.1787496 C10.0274998,22.6537496 10.4789998,22.1129996 10.9129998,21.5617496 C11.0833331,21.347083 11.2513331,21.1306663 11.4169998,20.9124996 L11.7949998,20.4067497 C13.5887498,17.9567497 15.2949997,15.4437497 17.2479997,13.1267498 C17.3249997,12.9587498 17.4002497,12.7889998 17.4737497,12.6209998 Z" id="Path" fill="#461200" fill-rule="nonzero"></path>
                            <path d="M60.772249,9.67224984 C60.168499,18.1352497 54.6594991,23.1157496 49.7962492,25.6707496 C46.7949992,27.2457495 43.4962493,27.7059995 40.3829993,28.8312495 C37.3659994,29.9197495 34.1792494,31.6924995 33.0189994,36.2547494 C32.8299994,37.0019994 33.3462494,38.2339993 33.1607494,38.9654993 C34.2842494,34.5449994 37.2749994,32.8124994 40.1869993,31.6749995 C43.3264993,30.4394995 46.6619992,30.0107495 49.7279992,28.4952495 C54.6734991,26.0539996 60.306749,20.9037496 60.912249,12.3952498 C60.975249,11.5202498 60.709249,10.5489998 60.772249,9.68449984 L60.772249,9.67224984 Z" id="Path" fill="#522100" fill-rule="nonzero"></path>
                            <path d="M11.4589998,22.2739996 C11.8039423,22.1122814 12.1580468,21.9708733 12.5194998,21.8504996 L13.2492498,21.5704996 C15.0169956,20.8506544 16.6062552,19.7535218 17.9059997,18.3557497 C15.9984997,19.0907497 13.9912498,19.4967497 12.0802498,20.1932497 C9.75099983,21.0402496 7.29049988,22.3737496 6.41199989,25.6182496 C6.26849989,26.1432496 6.67449989,26.9989995 6.53449989,27.5187495 C6.9326218,25.9447141 7.87884128,24.5641644 9.20324984,23.6249996 C9.87574343,23.0536646 10.6378956,22.5972011 11.4589998,22.2739996 Z" id="Path" fill="#461200" fill-rule="nonzero"></path>
                            <path d="M76.0007487,26.9184995 C75.7178922,26.7010531 75.4215492,26.5017376 75.1134987,26.3217496 L74.5009987,25.9209996 C73.0152488,24.9357496 71.8129988,23.5654996 70.8697488,21.9764996 C72.4709988,23.0264996 74.2297487,23.7667496 75.8449987,24.7764996 C77.8102487,26.0014996 79.8017486,27.7357495 79.9662486,31.0484995 C79.9924986,31.5909995 79.4534986,32.3539994 79.4797486,32.8842494 C79.437023,31.3115676 78.8430036,29.8039106 77.8014987,28.6247495 C77.3026924,27.9576929 76.6936996,27.380659 76.0007487,26.9184995 Z" id="Path" fill="#461200" fill-rule="nonzero"></path>
                            <path d="M59.242749,11.9419998 C59.349499,13.9159998 59.638249,16.0509997 59.401999,18.0774997 C59.226999,19.5387497 57.370249,22.2932496 59.520999,22.7604996 C60.920999,19.0959997 60.761749,15.5329997 59.440499,11.9437498 L59.242749,11.9419998 Z" id="Path" fill="#FFC7A4" fill-rule="nonzero"></path>
                            <path d="M27.4312495,59.366999 C27.4149405,59.7780381 27.0708867,60.0994045 26.6596913,60.0876795 C26.2484959,60.0759545 25.9233133,59.7355051 25.9304529,59.3242046 C25.9375925,58.912904 26.274395,58.5839458 26.6857495,58.586499 C26.8881273,58.5910874 27.0803869,58.6759095 27.2202065,58.8222935 C27.3600262,58.9686774 27.4359444,59.1646237 27.4312495,59.366999 Z" id="Path" fill="#F69E76" fill-rule="nonzero"></path>
                            <path d="M29.7324995,58.213749 C29.7392172,58.4611716 29.9438851,58.6570608 30.1913644,58.6529321 C30.4388437,58.6488035 30.6368636,58.4461963 30.6353244,58.1986873 C30.6337853,57.9511784 30.433261,57.7510496 30.1857495,57.749999 C30.0641452,57.7513835 29.9480724,57.8010224 29.8630698,57.8879942 C29.7780672,57.9749659 29.7310991,58.0921449 29.7324995,58.213749 Z" id="Path" fill="#F69E76" fill-rule="nonzero"></path>
                            <ellipse id="Oval" fill="#F69E76" fill-rule="nonzero" cx="23.0702496" cy="57.881249" rx="1" ry="1"></ellipse>
                            <path d="M19.7452497,60.010999 C19.7529255,60.2842689 19.9791546,60.5004315 20.2524908,60.4956695 C20.525827,60.4909075 20.7443892,60.2669959 20.7425416,59.9936244 C20.740694,59.7202529 20.5191253,59.499316 20.2457497,59.498249 C19.9661453,59.5020907 19.7423305,59.7313834 19.7452497,60.010999 Z" id="Path" fill="#F69E76" fill-rule="nonzero"></path>
                            <path d="M53.7494991,62.4907489 C53.7610146,62.9145604 54.111549,63.2501207 54.5354592,63.2431346 C54.9593695,63.2361486 55.2986565,62.8892201 55.2962007,62.4652593 C55.293745,62.0412986 54.9504618,61.6983238 54.5264991,61.6962489 C54.3179534,61.6980922 54.1187366,61.7829512 53.972918,61.932054 C53.8270994,62.0811568 53.7466978,62.2822139 53.7494991,62.4907489 Z" id="Path" fill="#F69E76" fill-rule="nonzero"></path>
                            <path d="M57.224999,61.283249 C57.2158784,61.4100387 57.2783514,61.531301 57.3868854,61.5974764 C57.4954195,61.6636518 57.6318285,61.6636518 57.7403626,61.5974764 C57.8488967,61.531301 57.9113696,61.4100387 57.902249,61.283249 C57.9113696,61.1564592 57.8488967,61.0351969 57.7403626,60.9690215 C57.6318285,60.9028461 57.4954195,60.9028461 57.3868854,60.9690215 C57.2783514,61.0351969 57.2158784,61.1564592 57.224999,61.283249 Z" id="Path" fill="#F69E76" fill-rule="nonzero"></path>
                            <path d="M51.9259991,61.279749 C51.9346393,61.6192485 52.2150018,61.8885028 52.5545732,61.8834185 C52.8941447,61.8783341 53.1663202,61.6008068 53.1647923,61.2612007 C53.1632644,60.9215946 52.8886026,60.6465276 52.5489991,60.644499 C52.2017405,60.6483454 51.9230838,60.9324813 51.9259991,61.279749 Z" id="Path" fill="#F69E76" fill-rule="nonzero"></path>
                            <path d="M48.6657492,60.296249 C48.672463,60.5260373 48.862667,60.7077304 49.0925219,60.7039253 C49.3223768,60.7001202 49.5064625,60.512231 49.5055668,60.2823464 C49.5046711,60.0524617 49.3191267,59.8660128 49.0892492,59.863999 C48.9756942,59.8649212 48.8671838,59.9110382 48.7877108,59.9921532 C48.7082378,60.0732682 48.6643492,60.1826988 48.6657492,60.296249 Z" id="Path" fill="#F69E76" fill-rule="nonzero"></path>
                            <path d="M40.2919993,56.892499 C40.3015968,57.253979 40.6003852,57.5403729 40.9619474,57.534656 C41.3235095,57.5289391 41.6130941,57.2332419 41.6112584,56.8716392 C41.6094227,56.5100365 41.3168509,56.2172948 40.9552493,56.215249 C40.7774849,56.2170959 40.607736,56.2894887 40.4833504,56.4164999 C40.3589648,56.543511 40.2901331,56.7147348 40.2919993,56.892499 Z" id="Path" fill="#F69E76" fill-rule="nonzero"></path>
                            <path d="M42.5249993,56.712249 C42.5297964,56.8847701 42.6725271,57.0213069 42.8450912,57.0184503 C43.0176553,57.0155938 43.1557887,56.8744077 43.1548731,56.7018224 C43.1539575,56.5292371 43.014334,56.3895245 42.8417493,56.388499 C42.7568121,56.3894222 42.675721,56.4240514 42.6163178,56.4847674 C42.5569146,56.5454834 42.5240659,56.627312 42.5249993,56.712249 Z" id="Path" fill="#F69E76" fill-rule="nonzero"></path>
                            <path d="M37.6529994,56.174999 C37.6606786,56.4712466 37.9053693,56.706123 38.201683,56.7016756 C38.4979966,56.6972282 38.7355282,56.4551141 38.7343132,56.1587696 C38.7330983,55.862425 38.4935895,55.6222667 38.1972493,55.6202491 C38.0513637,55.6211693 37.9118726,55.6802488 37.8097041,55.7843884 C37.7075356,55.888528 37.6511321,56.0291225 37.6529994,56.174999 Z" id="Path" fill="#F69E76" fill-rule="nonzero"></path>
                        </g>
                        <g id="Layer_11" transform="translate(0.000000, 6.650000)">
                            <path d="M88.3452485,95.7844984 C89.2044985,94.4964984 91.9082484,89.7259985 92.7377484,87.9234985 C100.147248,71.8339988 103.451248,56.073499 103.529998,38.1307494 C103.554498,32.5307494 102.829998,26.4862495 101.678498,24.3442496 L99.7639983,23.8192496 L99.8707483,23.9014996 C99.5854983,24.3582496 99.2249983,24.2724996 98.6667483,24.2847496 L99.7639983,23.8192496 C92.9512484,18.4484997 81.7389986,18.2507497 74.2139987,21.8224996 C68.9954988,24.3092496 63.8977489,27.8249995 60.899999,32.8999994 C57.370249,38.8499993 55.7129991,45.9217492 54.4652491,52.6749991 C53.1474991,59.800999 52.1237491,66.8937489 50.1199991,73.8709987 C49.2729992,76.8179987 47.4459992,80.5209986 47.5999992,83.6394986 C60.821249,88.7144985 73.8079987,95.3959984 88.0407485,96.3707484 C88.1369985,96.1677484 88.2244985,95.9664984 88.3452485,95.7844984 Z" id="Path" fill="#AE6742"></path>
                            <path d="M32.1002495,24.2917496 C30.2434995,27.8792495 29.7622495,32.5062494 28.7944995,36.4279994 C27.3139995,42.4252493 25.0774996,48.1774992 22.3072496,53.6619991 C19.2289997,59.755499 15.6922497,65.1839989 10.8062498,69.8914988 C8.95474985,71.6747488 6.80749988,73.2444988 5.10649991,75.1414987 C9.52874984,79.3904986 15.7027497,82.4914986 21.2064996,85.0989986 C23.0544996,85.9739985 27.1039995,88.4782485 29.0937495,87.9357485 C30.2154995,87.6312485 31.6014995,85.5627485 32.4729994,84.7349986 C32.5657494,86.1822485 31.6417495,88.3977485 30.9487495,89.6192485 C41.4084993,93.2084984 53.0127491,91.3692484 63.7717489,92.8654984 C63.6667489,90.6237485 64.0272489,88.3574985 64.2109989,86.1262485 C64.9232489,77.4637487 66.0694989,68.8432488 66.7957489,60.187749 C67.4764989,52.0729991 66.9899989,43.8882493 67.8719988,35.7909994 C68.1589988,33.1554994 68.9552488,30.0544995 68.6349988,27.4067495 C63.6754989,26.0994996 58.537499,25.7617496 53.4309991,25.7687496 C48.1389992,25.7687496 42.7822493,26.8677495 37.5269994,26.2622496 L32.1002495,24.2917496 Z" id="Path" fill="#9F593F"></path>
                            <path d="M59.806249,233.799996 C59.806249,233.799996 60.642749,208.101246 59.617249,189.671997 C58.917249,177.052747 56.579249,150.121997 54.7889991,141.461248 C53.2542491,134.032498 56.565249,132.770748 58.241749,136.876248 C67.2314989,158.898247 67.7564988,234.074746 67.1772489,235.488746 C66.5979989,236.902746 60.068749,237.350746 59.806249,233.799996 Z" id="Path" fill="#FFC7A4"></path>
                            <path d="M59.450999,186.875497 C60.420499,182.710497 61.9552489,178.501747 65.0247489,175.675497 C63.6387489,159.795997 61.494999,144.863248 58.241749,136.891998 C56.565249,132.786498 53.2542491,134.048248 54.7889991,141.476998 C56.454999,149.537497 58.596999,173.424997 59.450999,186.875497 Z" id="Path" fill="#F69E76"></path>
                            <path d="M75.1869987,236.167746 C75.1869987,236.167746 72.7019988,212.038746 71.2337488,193.656747 C70.2292488,181.070747 68.7294988,157.510497 67.8667488,145.321748 C67.3294989,137.724998 70.0349988,136.324998 71.2092488,140.626498 C73.3442488,148.459497 75.1764987,169.891747 76.8862487,189.801497 C78.8532487,212.701996 82.6244986,235.924496 82.3322486,236.690996 C81.7879986,238.115496 75.5352487,239.700996 75.1869987,236.167746 Z" id="Path" fill="#FFC7A4"></path>
                            <path d="M71.2424988,169.884747 C72.0441162,168.33841 73.2649532,167.049042 74.7652487,166.164247 C73.6627487,154.932747 72.4902488,145.328748 71.2092488,140.626498 C70.0349988,136.324998 67.3294989,137.724998 67.8667488,145.321748 C68.3619988,152.321747 69.0672488,163.078997 69.7689988,173.351497 C70.1689949,172.159251 70.6616651,171.00013 71.2424988,169.884747 Z" id="Path" fill="#F69E76"></path>
                            <path d="M49.0629992,166.808247 C52.1937491,167.761997 57.006249,169.170747 62.6762489,169.205747 C75.9027487,169.289747 88.6112485,167.436497 88.7512485,165.210497 C88.1019985,159.454747 80.3512486,105.594998 79.3834986,97.9754983 C77.6667487,84.4654986 77.4392487,79.6004986 76.6709987,78.9494987 C74.8089987,77.3744987 68.2394988,72.9907488 62.2929989,73.0677488 C59.349499,73.1079988 49.3307492,78.5329987 49.3814992,79.4709986 C50.9582491,108.562998 49.1977492,166.162497 49.0629992,166.808247 Z" id="Path" fill="#212A34"></path>
                            <path d="M59.515749,74.3574987 C59.009999,74.0739987 59.207749,63.2467489 59.207749,63.2467489 L67.4169989,62.7602489 L67.0407489,73.9829987 C67.0407489,73.9829987 63.6579989,76.6814987 59.515749,74.3574987 Z" id="Path" fill="#DD7954"></path>
                            <path d="M32.0494995,31.4597495 C30.4832495,49.6457492 42.8837493,70.4742488 62.3927489,72.0842488 C81.9017486,73.6942487 101.128998,55.4592491 102.693498,37.2749994 C104.257998,19.0907497 89.7119985,3.04674995 70.2029988,1.44024998 C50.6939991,-0.166249997 33.6139994,13.2737498 32.0494995,31.4597495 Z" id="Path" fill="#F69E76" fill-rule="nonzero"></path>
                            <path d="M32.2244995,30.4674995 C30.7334995,48.1547492 43.0954993,68.4599988 62.4382489,70.0909988 C81.7809986,71.7219988 100.777248,54.0469991 102.268248,36.3597494 C103.759248,18.6724997 89.2867485,3.01699995 69.9422488,1.38949998 C50.5977491,-0.237999996 33.7154994,12.7749998 32.2244995,30.4674995 Z" id="Path" fill="#FDC190" fill-rule="nonzero"></path>
                            <path d="M39.3644993,13.4749998 C35.3569994,18.1999997 32.7669994,24.0222496 32.2244995,30.4692495 C31.4999995,39.0249993 34.0234994,48.1897492 39.0074993,55.5589991 C38.8251483,52.1937428 39.0294843,48.8186759 39.6164993,45.4999992 C40.5964993,39.6969993 41.9422493,33.3899994 44.7037492,27.9702495 C45.4806584,26.267263 46.391781,24.6287638 47.4284992,23.0702496 L47.4879992,13.5204998 L39.3644993,13.4749998 Z" id="Path" fill="#F69E76" fill-rule="nonzero"></path>
                            <path d="M88.9244985,16.5112497 C90.9159985,15.8357497 92.9273318,15.2179997 94.9584984,14.6579998 C89.0994985,7.56174987 80.1237486,2.64949995 69.7462488,1.77624997 C50.3999991,0.150499997 33.5177494,13.1652498 32.0249995,30.8542495 C31.7422415,34.3995375 31.9715113,37.9670692 32.7057494,41.4469993 C32.8912494,41.1372493 33.0784994,40.8292493 33.2744994,40.5247493 C39.1579993,31.3442495 46.6217492,30.0019995 57.032499,27.5537495 C69.0777488,24.7204996 85.2337485,15.5102497 86.2084985,14.7402497 C90.2422485,11.5587498 83.8249986,15.5189997 88.9244985,16.5112497 Z" id="Path" fill="#F69E76" fill-rule="nonzero"></path>
                            <path d="M91.7384984,58.099999 C92.1899984,60.362749 94.6067484,60.163249 96.5002484,59.218249 C98.3937483,58.273249 100.309998,55.2772491 99.8584983,53.0144991 C99.4069983,50.7517491 97.5029983,49.6894992 95.6094984,50.6309991 C93.7159984,51.5724991 91.2852484,55.835499 91.7384984,58.099999 Z" id="Path" fill="#FDC190" fill-rule="nonzero"></path>
                            <path d="M97.2859983,56.649249 C96.6612484,55.2229991 95.0109984,54.4057491 93.5269984,56.876749 C95.6882484,51.5304991 100.283748,51.5864991 97.2859983,56.649249 Z" id="Path" fill="#F69E76"></path>
                            <path d="M79.9329986,126.944998 C80.7554986,127.634498 82.5579986,128.395748 83.3717486,129.097498 C84.0717486,126.929248 86.4044985,117.664748 85.8532485,117.088998 C85.1847485,116.388998 78.1882487,124.827498 78.2687487,125.518748 C78.2827487,125.630748 78.5067487,125.152998 78.5277487,125.263248 C78.8304987,125.693748 79.6249986,126.524998 79.9329986,126.944998 Z" id="Path" fill="#FFC7A4"></path>
                            <path d="M85.8532485,117.088998 C85.5032485,116.728498 83.4504986,118.830248 81.5674986,121.031748 C82.1937441,121.42619 82.7149767,121.966639 83.0864986,122.606748 C83.7497486,123.754748 83.7269986,124.848498 83.5222486,126.106748 C83.4084986,126.806748 83.2719986,127.487498 83.1442486,128.176998 C83.1039986,128.395748 83.0654986,128.614498 83.0269986,128.833248 C83.1547486,128.922498 83.2702486,129.008248 83.3769986,129.097498 C84.0787486,126.929248 86.4044985,117.664748 85.8532485,117.088998 Z" id="Path" fill="#F69E76"></path>
                            <path d="M81.1754986,101.863998 C81.7372486,102.619998 83.4644986,106.923248 83.4644986,106.923248 C83.4644986,106.923248 81.0634986,115.022248 79.8857486,118.842498 C82.1939986,121.292498 85.0587486,123.136998 88.1947485,124.473998 C89.3934985,121.280248 92.0272484,108.813248 90.3402485,104.301748 C88.5202485,99.4314983 77.1382487,77.2012487 76.3402487,77.9134987 C74.4904987,79.5619986 76.5029987,89.6734985 76.5029987,89.6734985 C76.5029987,89.6734985 80.6119986,101.107998 81.1754986,101.863998 Z" id="Path" fill="#212A34"></path>
                            <path d="M90.3402485,104.299998 C88.5202485,99.4314983 77.1277487,77.1872487 76.3402487,77.9117487 C75.9639987,78.2617487 75.6997487,79.7579986 75.9167487,81.9769986 C75.9359987,81.9997486 76.3069987,81.4659986 76.3262487,81.4887486 C78.1584987,83.5992486 79.4762486,86.6407485 80.9549986,88.9997485 C82.2867486,91.1329984 83.8004986,93.8087484 84.9519986,96.0469984 C85.0587486,96.2219984 85.1637485,96.3969984 85.2704985,96.5859984 C87.0379985,99.6817483 89.6454985,104.389248 90.2597485,107.925998 C90.4205834,108.891928 90.5031019,109.869275 90.5064985,110.848498 C90.8792485,108.263748 90.9247485,105.862748 90.3402485,104.299998 Z" id="Path" fill="#192025"></path>
                            <path d="M83.4154986,106.602998 L89.4004985,105.531998 L88.8632485,104.919498 L83.2019986,105.927498 C83.2597486,106.156748 83.4032486,106.373748 83.4154986,106.602998 Z" id="Path" fill="#192025"></path>
                            <path d="M83.4084986,106.975748 L88.2559985,108.226998 L88.1404985,107.589998 L83.4154986,106.364998 C83.4319085,106.568365 83.4295653,106.772811 83.4084986,106.975748 Z" id="Path" fill="#192025"></path>
                            <path d="M45.3109992,137.829998 C46.7249992,137.595498 48.1284992,137.324248 49.5109992,136.993498 C49.6369992,134.263498 49.3937492,123.556998 49.5634992,119.258998 C49.7542492,114.453498 51.7072491,97.1809983 51.7492491,91.8084984 C51.7912491,86.4359985 50.5802491,75.7417487 49.1837492,78.7814987 C47.7872492,81.8212486 44.6582492,96.2499984 42.9099993,108.531498 C41.4049993,119.104998 39.7809993,134.210998 39.9962493,138.372498 C41.7847493,138.379498 43.5942493,138.115248 45.3109992,137.829998 Z" id="Path" fill="#212A34"></path>
                            <path d="M45.3109992,137.829998 C46.7249992,137.595498 48.7094992,137.224498 50.0972491,136.893748 C50.2232491,134.163748 50.1882491,122.496498 50.3579991,118.200248 C50.5487491,113.394748 51.7107491,97.1809983 51.7579991,91.8084984 C51.7579991,91.3867484 51.7579991,90.9334985 51.7457491,90.4539985 C51.1349991,95.7687484 50.0604991,101.055498 49.0227492,106.287998 C49.0069992,106.368498 48.9859992,106.445498 48.9649992,106.520748 C48.4522492,109.696998 47.8607492,112.852248 47.2149992,115.970748 C45.6609992,123.565748 43.6432493,131.155498 40.7189993,138.358498 C42.2594218,138.281062 43.7932608,138.10453 45.3109992,137.829998 Z" id="Path" fill="#192025"></path>
                            <path d="M43.0254993,108.816748 C43.9984993,105.124248 47.6507492,88.2752485 49.0437492,83.2072486 C49.2677492,82.3987486 50.2109991,78.9284987 50.8129991,78.3929987 C50.7692491,77.5722487 49.5669992,77.7822487 48.9684992,79.0929987 C47.5684992,82.1344986 44.6617492,96.2587484 42.9134993,108.540248 C42.8434993,109.037248 42.7723326,109.543581 42.6999993,110.059248 L43.0254993,108.816748 Z" id="Path" fill="#192025"></path>
                            <path d="M49.7962492,115.296998 C49.8049992,115.235748 49.8189992,115.177998 49.8277492,115.121998 L43.9599993,113.518998 L43.3719993,114.099998 L49.7437492,115.849998 C49.7559992,115.662748 49.7717492,115.478998 49.7962492,115.296998 Z" id="Path" fill="#192025"></path>
                            <path d="M49.7139992,116.625248 L44.7579992,116.338248 L44.4499992,116.929748 L49.6999992,117.234248 C49.7087492,117.031248 49.7104992,116.828248 49.7139992,116.625248 Z" id="Path" fill="#192025"></path>
                            <path d="M47.2219992,31.7082495 C48.3474385,30.3733649 49.9370802,29.5147583 51.6704991,29.3054995 C53.7057491,29.0622495 55.7269991,29.4664995 57.424499,30.5952495 C57.333499,31.2777495 57.210999,31.8954995 57.056999,31.9567495 C56.743749,32.0844995 52.7239991,31.4124995 49.1522492,32.0197495 C47.5457492,32.2927495 47.2937492,32.4397494 47.1029992,32.2629995 C46.9612492,32.2332495 47.1519992,31.7887495 47.2219992,31.7082495 Z" id="Path" fill="#CF744A" fill-rule="nonzero"></path>
                            <path d="M88.9524985,37.6617494 C88.3762979,36.0132063 87.1952821,34.6451546 85.6484985,33.8344994 C83.8337486,32.8824994 81.7984986,32.5429994 79.8122486,32.9944994 C79.6547486,33.6647494 79.5497486,34.2859994 79.6704986,34.3944994 C79.9189986,34.6237494 83.9159986,35.4252494 87.0379985,37.2627494 C88.4379985,38.0869994 88.6269985,38.3127493 88.8667485,38.2182493 C89.0102485,38.2444993 88.9909985,37.7614994 88.9524985,37.6617494 Z" id="Path" fill="#CF744A" fill-rule="nonzero"></path>
                            <path d="M64.7972489,48.1547492 C64.1777489,48.1144992 62.6972489,48.0689992 61.8957489,48.0584992 C60.546499,48.0322492 59.086999,48.3874992 59.221749,49.8469992 C59.267249,50.3054991 59.734499,50.8427491 60.345249,51.3537491 C61.419749,52.1044991 63.4672489,53.0564991 63.9309989,52.8377491 C63.2309989,51.8139991 62.4032489,51.7124991 61.599999,50.9214991 C61.157249,50.5487491 60.626999,49.8819992 60.609499,49.6964992 C60.548249,49.0367492 61.424999,48.8424992 62.1844989,48.7619992 C62.7934989,48.6937492 64.3229989,48.8249992 64.7972489,48.1547492 Z" id="Path" fill="#F39165" fill-rule="nonzero"></path>
                            <path d="M60.871999,49.4759992 C60.859749,49.8679992 61.440749,50.2249991 62.1687489,50.2722491 C62.8967489,50.3194991 63.4952489,50.0377491 63.5057489,49.6439992 C63.5162489,49.2502492 62.9369989,48.8949992 62.2089989,48.8477492 C61.480999,48.8004992 60.882499,49.0822492 60.871999,49.4759992 Z" id="Path" fill="#FFE0CE" fill-rule="nonzero"></path>
                            <path d="M88.8999985,49.4164992 C89.4634985,45.2164992 85.9512485,40.6752493 81.8702486,39.7634993 C77.7454987,38.8429993 72.8034988,41.4364993 71.7919988,45.6119992 C71.4944988,46.8369992 71.8042488,48.1599992 72.0719988,48.9667492 C77.6999987,48.9107492 83.3087486,48.9999992 88.8999985,49.4164992 Z" id="Path" fill="#CF744A" fill-rule="nonzero"></path>
                            <path d="M86.8402485,49.5389992 C86.1122485,54.2639991 81.5902486,53.2297491 77.8382487,52.3774991 C72.7317488,51.2172491 70.6894988,49.9957491 71.5977488,46.2087492 C72.5059988,42.4217493 76.6884987,39.7722493 80.4404986,40.6192493 C84.1924986,41.4662493 87.4334985,45.6907492 86.8402485,49.5389992 Z" id="Path" fill="#FFFFFF" fill-rule="nonzero"></path>
                            <path d="M80.2252486,52.9567491 C78.6344987,52.7677491 76.8617487,52.4824991 75.8239987,51.7317491 C74.6322487,50.5067491 74.0739987,48.4889992 74.4537487,46.6147492 C75.0469987,43.6992493 77.7437487,41.7882493 80.4789986,42.3429993 C83.2142486,42.8977493 84.9502486,45.7134992 84.3569986,48.6289992 C83.9264986,50.7499991 82.0889986,52.4632491 80.2252486,52.9567491 Z" id="Path" fill="#522100" fill-rule="nonzero"></path>
                            <path d="M43.0219993,41.9614993 C44.0089993,37.8402494 48.9212492,34.8669994 53.0564991,35.4864994 C57.237249,36.1147494 60.912249,40.3112493 60.353999,44.5707492 C60.189499,45.8237492 59.424749,46.9437492 58.885749,47.5999992 C53.6637491,45.5244992 48.3962492,43.5749993 43.0219993,41.9614993 Z" id="Path" fill="#CF744A" fill-rule="nonzero"></path>
                            <path d="M44.9049992,42.8172493 C43.8829993,47.4897492 48.4749992,48.1512492 52.2812491,48.7059992 C57.464749,49.4619992 59.806249,49.0559992 60.331249,45.2059992 C60.856249,41.3559993 57.896999,37.3677494 54.0924991,36.8059994 C50.2879991,36.2442494 45.7362492,39.0144993 44.9049992,42.8172493 Z" id="Path" fill="#FFFFFF" fill-rule="nonzero"></path>
                            <path d="M50.7324991,48.4977492 C52.2864991,48.8932492 54.0417491,49.2659992 55.2824991,48.9369992 C56.832999,48.2369992 58.082499,46.5412492 58.402749,44.6547492 C58.897999,41.7217493 57.070999,38.9672493 54.3182491,38.5017493 C51.5654991,38.0362494 48.9334992,40.0364993 48.4382492,42.9694993 C48.0759992,45.1044992 49.1749992,47.3654992 50.7324991,48.4977492 Z" id="Path" fill="#522100" fill-rule="nonzero"></path>
                            <path d="M55.877499,50.9249991 C55.849499,51.7789991 54.4197491,52.4264991 52.6819991,52.3704991 C50.9442491,52.3144991 49.6282492,52.0764991 49.5879992,50.7219991 C49.5442492,49.2677492 51.0457491,49.2187492 52.7817491,49.2747492 C54.5177491,49.3307492 55.903749,50.0639991 55.877499,50.9249991 Z" id="Path" fill="#FEB28A" fill-rule="nonzero"></path>
                            <path d="M74.8999987,54.1082491 C74.6847487,54.9359991 75.8712487,55.964999 77.5529987,56.404249 C79.2347487,56.843499 80.5647486,56.990499 80.9882486,55.7042491 C81.4432486,54.3234991 80.0187486,53.8492491 78.3369987,53.4099991 C76.6552487,52.9707491 75.1117487,53.2822491 74.8999987,54.1082491 Z" id="Path" fill="#FEB28A" fill-rule="nonzero"></path>
                            <path d="M53.5902491,77.7664987 C55.7549991,76.6867487 58.085999,76.1092487 60.465999,75.8152487 C60.465999,75.5579987 60.465999,75.3007487 60.465999,75.0434987 C60.465999,73.9497487 61.277999,73.3774988 62.1232489,73.3214988 C62.1834273,73.2311874 62.2513502,73.1462838 62.3262489,73.0677488 C62.3140146,73.0686249 62.3017333,73.0686249 62.2894989,73.0677488 C59.345999,73.0992488 49.3307492,77.7927487 49.3832492,78.6082487 C49.4439158,79.569582 49.5022492,80.565332 49.5582492,81.5954986 C50.4889558,79.9445632 51.8934776,78.6107552 53.5902491,77.7664987 Z" id="Path" fill="#192025"></path>
                            <path d="M65.5812489,75.4249987 L65.6022489,75.6909987 C66.3560913,75.7723811 67.1029909,75.9086596 67.8369988,76.0987487 C68.6104988,76.1949987 71.4157488,77.5232487 72.6704988,78.4244987 C73.7943263,79.2259396 74.8438785,80.1267271 75.8064987,81.1159986 C76.3209987,81.6304986 77.4304987,82.8292486 77.7822487,83.4347486 C77.6474987,80.3162486 76.9527487,78.3037487 76.5152487,77.9817487 C74.9402487,76.8302487 70.2152488,74.1562487 65.1699989,73.3074988 C65.3434473,73.6018539 65.4486951,73.931351 65.4779989,74.2717487 C65.5129989,74.6579154 65.5474156,75.0423321 65.5812489,75.4249987 Z" id="Path" fill="#192025"></path>
                            <path d="M64.8882489,77.5809987 C66.9754205,77.212088 68.9163169,76.2622618 70.4882488,74.8404987 C68.1887488,73.8062487 65.2259989,72.9154988 62.2509989,72.9504988 C61.025999,72.9644988 58.336249,73.8954987 56.171499,74.9192487 C57.837499,77.3499987 62.4312489,78.0044987 64.8882489,77.5809987 Z" id="Path" fill="#DD7954"></path>
                            <path d="M67.5254989,55.894999 C64.6957489,56.804999 61.631499,56.530249 58.670499,54.1117491 C58.371249,53.8684991 57.875999,53.0704991 57.445499,53.6899991 C57.403499,57.114749 59.779999,60.117749 63.1119989,60.625249 C66.6627489,61.167749 69.9859988,58.677499 70.6719988,55.0252491 C70.7139988,53.9244991 69.0777488,55.3944991 67.5254989,55.894999 Z" id="Path" fill="#F69E76"></path>
                            <path d="M67.5027489,56.498749 C64.6729989,57.410499 61.608749,57.133999 58.647749,54.7172491 C58.348499,54.4722491 57.853249,53.6672491 57.422749,54.2954991 C57.382499,57.718499 59.758999,60.721499 63.0892489,61.230749 C66.6399989,61.7714989 69.9632488,59.281249 70.6492488,55.6307491 C70.6894988,54.5282491 69.0549988,55.999999 67.5027489,56.498749 Z" id="Path" fill="#FFFFFF"></path>
                            <path d="M101.363498,21.6702496 C96.5159984,8.02024986 84.3884986,4.24374993 82.2132486,3.65749994 C81.6882486,3.51749994 83.2632486,8.90749985 84.5214986,12.9902498 C85.5102485,13.0164998 86.1384985,13.8074998 86.2119985,14.7402497 C86.5514985,18.9804997 88.7914985,22.6624996 91.3604984,25.9402496 C93.9854984,29.2652495 97.5449983,32.5447494 98.1242483,36.9459994 C98.4479983,39.3959993 98.2589983,41.9527493 97.9649983,44.4062492 C97.7217483,46.4414992 96.9027483,49.0857492 96.4634984,51.0877491 C97.5694983,50.4594991 98.8942483,51.3134991 100.138498,51.6932491 C100.927748,49.9029992 102.413498,45.6504992 102.859748,42.2222493 C102.913998,41.9579993 103.022498,40.2534993 103.073248,39.9892493 C103.326998,33.0854994 103.125748,26.6297495 101.363498,21.6702496 Z" id="Path" fill="#AE6742"></path>
                            <path d="M37.4744994,29.8497495 C39.2717493,26.9412495 42.2362493,24.9374996 45.2812492,23.5112496 C48.6692492,21.9257496 52.2549991,20.8144996 55.880999,19.9254997 C65.4954989,17.5699997 75.3287487,15.8759997 85.2424985,15.6852497 L85.5924985,15.6852497 C86.6429328,14.7609693 87.6364186,13.7739119 88.5674985,12.7294998 C88.4118173,12.1064271 88.2201627,11.4928988 87.9934985,10.8919998 C88.2892485,10.8604998 88.5849985,10.8289998 88.8807485,10.8009998 L88.9944985,10.6434998 C88.4111652,10.0601665 87.8050818,9.49608317 87.1762485,8.95124985 C86.6162485,7.74374987 88.1929985,7.42699987 87.4439985,6.0952499 C86.4657485,4.34524993 79.9452486,1.84449997 68.8939988,0.432249993 C50.0394991,-1.97574997 33.1939994,9.93474983 31.1027495,28.1627495 C30.7649995,31.1079995 30.5899995,37.4517494 30.9767495,40.3987493 C31.5454995,42.8767493 32.8632494,45.2094992 33.1589994,44.9977492 C33.8747494,40.4477493 34.9544994,35.0717494 37.2242494,30.9399995 C37.1760792,30.5584225 37.2647479,30.1721245 37.4744994,29.8497495 Z" id="Path" fill="#AE6742"></path>
                            <path d="M45.3442492,19.1904997 C45.2847492,18.3154997 45.2462492,17.4404997 45.2619992,16.5514997 L45.2724992,16.0702497 C45.1281027,16.0580407 44.9847996,16.0352291 44.8437492,16.0019997 C44.5794992,18.8387497 44.0684992,21.6404996 43.4927493,24.4334996 C44.0404992,24.1237496 44.5987492,23.8384996 45.1604992,23.5707496 C45.1954992,22.1129996 45.2689992,20.6499996 45.3442492,19.1904997 Z" id="Path" fill="#9F593F"></path>
                            <path d="M31.1307495,57.979249 C34.4119994,49.0437492 43.7307493,22.2792496 44.4867492,17.7747497 C42.5722493,17.8674997 40.5404993,21.4497496 38.6452493,21.2292496 L32.1002495,24.2917496 C30.2434995,27.8792495 29.7622495,32.5062494 28.7944995,36.4279994 C27.3139995,42.4252493 25.0774996,48.1774992 22.3072496,53.6619991 C19.2289997,59.755499 15.6922497,65.1839989 10.8062498,69.8914988 C8.95474985,71.6747488 6.80749988,73.2444988 5.10649991,75.1414987 C9.27674984,79.1472487 15.0027497,82.1414986 20.2579997,84.6457486 C26.7382495,75.1082487 27.1459995,68.8274988 31.1307495,57.979249 Z" id="Path" fill="#AE6742"></path>
                            <path d="M34.5712494,19.8064997 C32.1212495,25.8509996 30.2732495,32.2892495 27.8862495,38.3564993 C22.5749996,51.8822491 12.0592498,64.8112489 0.0157499997,66.8902489 C-0.223999996,66.9322489 2.36949996,70.7244988 2.17874996,70.7577488 C14.0577498,68.7067488 21.6229996,56.484749 26.9832495,43.2004993 C29.7202495,36.4209994 31.7747495,29.3089995 34.5362494,22.5504996 C35.2117514,20.8936527 35.9710651,19.2722259 36.8112494,17.6924997 C36.0599161,18.3901664 35.3132494,19.094833 34.5712494,19.8064997 Z" id="Path" fill="#AE6742" fill-rule="nonzero"></path>
                            <path d="M83.7794986,129.300498 L76.0619987,122.706498 L75.3777487,123.581498 L83.9999986,131.010248 L84.0279986,130.975248 C83.9027969,130.424111 83.8197236,129.864244 83.7794986,129.300498 Z" id="Path" fill="#192025"></path>
                            <path d="M31.8289995,26.3147496 C31.8989995,26.1029996 31.9672495,25.8912496 32.0372495,25.6794996 C32.5932263,23.9293252 33.484833,22.3042233 34.6622494,20.8949996 C35.8556031,19.046817 37.1447798,17.2622975 38.5244993,15.5487497 C39.9080774,13.7897871 41.4979698,12.20342 43.2599993,10.8237498 C45.8674992,8.79374985 48.3944992,6.91074988 51.4534991,5.6349999 C53.5062491,4.77749992 55.5379991,3.86399993 57.697499,3.30924994 C59.944499,2.73174995 62.2142489,2.47974996 64.5224989,2.19799996 C67.1657822,1.87796782 69.8390136,1.89502099 72.4779988,2.24874996 C73.3179988,2.35841663 74.1533321,2.47508329 74.9839987,2.59874996 C78.2022487,2.97499995 81.3487486,3.49999994 84.4024986,4.61824992 C84.6492486,4.70924992 84.8942486,4.80549992 85.1409986,4.89999992 C85.7243319,5.08549991 86.3076652,5.27624991 86.8909985,5.47224991 C84.9204986,3.79399994 78.6887487,1.68174997 68.8834988,0.428749993 C50.1042491,-1.97049997 33.3129994,9.84549983 31.1237495,27.9579995 L31.8289995,26.3147496 Z" id="Path" fill="#9F593F"></path>
                            <path d="M87.3547485,13.6954998 C82.3409986,15.7324997 79.5899986,14.8749997 74.5639987,16.7999997 C65.0719989,20.4259997 51.8752491,25.1859996 42.8224993,23.2259996 C42.3114993,24.5093329 41.829666,25.7990829 41.3769993,27.0952495 C49.5092492,28.3202495 61.293749,24.4509996 70.4637488,21.0419996 C76.9964987,18.6147497 81.0529986,17.0869997 87.5682485,14.6247498 C87.4669572,14.3227009 87.3954502,14.0114694 87.3547485,13.6954998 Z" id="Path" fill="#AE6742" fill-rule="nonzero"></path>
                            <path d="M86.7999985,7.83124987 C86.4149985,10.1062498 86.0912485,12.3549998 85.5557485,14.5704998 C85.2057485,15.9984997 83.9474986,18.7144997 83.9124986,20.1459997 C83.8809986,21.4374996 84.4619986,21.9257496 85.1217486,22.8619996 C85.3877485,20.3892497 86.1804985,17.8989997 86.5339985,15.4034997 C86.8052485,13.4784998 87.1639985,12.1449998 87.1132485,9.58824984 C87.0974985,8.84274985 87.1849985,8.41049986 86.9644985,8.60299985 L86.7999985,7.83124987 Z" id="Path" fill="#FDC190"></path>
                        </g>
                    </g>
                </g>
            </g>
        </g>
    </g>
</svg>